<svg id="图层_1" data-name="图层 1" xmlns="http://www.w3.org/2000/svg" width="12.9167in" height="10.7778in" viewBox="0 0 930 776"><title>cloud</title><path d="M746.2471,418.206c5.9543,5.2926,13.1363,9.6573,17.5309,15.9643,12.7889,18.3544,11.3777,48.9987-2.2188,68.1376-27.7786,39.1018-64.3056,65.7012-110.7722,78.9247-19.7309,5.615-39.0608,14.0714-59.7945,12.3841-13.2282-1.0765-20.8034,3.3707-30.626,11.944-26.1624,22.8348-57.397,35.8292-93.033,34.2544-21.4711-.9488-42.9126-2.7659-63.4813-10.0629-24.4256-8.6651-47.7436-18.689-59.7691-44.0189-30.14,12.1717-57.863,7.0091-83.7621-8.8684-51.3641,32.708-104.2132,34.096-157.4535,7.4469-30.2688-15.151-49.9437-40.4776-54.9711-74.6731-2.4748-16.8328-2.1139-34.1355-2.23-51.2309-.0361-5.3414,1.8093-11.07,4.1855-15.9417,2.1092-4.3247,2.1064-7.4182-.8742-10.8917-13.5237-15.76-16.74-35.0021-17.0718-54.6735-.2154-12.7753,1.4132-25.6546,3.1336-38.3631,1.0928-8.0722,2.49-16.6261,6.1464-23.7314,11.4705-22.2913,32.7486-29.4631,55.6271-33.1821,6.9221-1.1253,13.9921-1.3412,20.002-1.884,2.4668-10.2478,3.416-20.2915,7.3063-29.0253,7.1051-15.9513,19.4164-27.4,35.5777-34.6858,22.1133-9.9686,44.94-13.5292,68.7887-8.44,5.101,1.0885,9.9445,3.3841,14.0192,4.8125,5.0166-9.9154,9.5239-19.9974,15.0485-29.4872,9.9825-17.1476,26.5434-26.0693,44.2918-32.7131,22.5305-8.4339,45.8267-10.5492,70.0261-10.1569,33.0558.5358,62.672,10.3416,89.8346,27.7078a121.01,121.01,0,0,1,40.8862,42.8014c19.3629-32.895,48.21-47.0586,84.8465-45.9835,30.9026.9068,59.4352,22.4,68.2276,51.7344,3.4367,11.466,4.609,23.6945,5.9373,35.6727.6506,5.8674,3.1892,7.8822,8.4831,8.0618,35.118,1.1916,63.6833,15.9579,84.6029,43.7471,22.0634,29.3086,24.2209,61.9463,10.9713,95.6144C762.0848,408.4925,754.69,414.8629,746.2471,418.206ZM216.2739,570.5724c-.9823-1-2.3587-3.0405-2.8866-2.8406-5.82,2.2041-11.5083,4.7566-17.2323,7.2147l2.0179-3.7269c-18.5678-1.911-29.4174,3.2128-35.1963,16.5533l4.9925-1.56.4848,1.5992-9.5641,3.4848-1.5274-2.1148,13.9911-16.7277c-5.5142-.4454-10.53-1.57-15.3238-.9594-2.74.349-7.2291,3.469-7.2807,5.437-.1837,7.0082-4.6753,5.5805-7.866,6.87l-2.6985-3.0065,12.8208-8.5574c-7.2914-2.9687-12.4269-3.47-16.898,2.2767-2.1619,2.7788-6.5014,3.8634-9.855,5.7151l-1.13-2.0264,10.2718-10.8018-9.18-3.5533c-1.7739,2.9139-3.355,5.7-5.128,8.358-1.2025,1.8027-2.6744,3.4257-4.0258,5.1291l-2.01-1.7935,9.0459-12.6158c-8.4636-.8236-16.3113-8.585-21.6466,2.6735L83.0276,553.9893c23.1741,25.1651,50.6081,41.0185,85.9,39.6121,4.3518-.1734,7.1049-1.25,10.2291-4.57,5.0863-5.4053,11.4258-9.6312,17.2312-14.3452L184.054,584.764l1.9781,2.1676,9.7212-6.4887.7851,1.2659-14.0209,10.426,1.7243,2.3545c3.4532-2.4365,6.9469-4.8182,10.3509-7.3217,6.1052-4.49,12.1564-9.0534,18.23-13.5861l7.4044-1.04L199.556,589.6855l1.2121,1.9878c3.6507-2.0588,7.7641-3.587,10.8585-6.284,7.0246-6.1225,13.4962-12.8752,20.2966-19.261,3.4921-3.2792,7.2073-6.3209,10.8217-9.47l-1.1273-1.4434Zm101.8156-2.559.1453.08c-8.9-4.7118-11.6148,2.92-15.7123,7.8445-1.4328,1.7218-2.9829,3.3461-4.4794,5.015l-1.55-1.5169,10.6322-13.1142c-8.9353-4.4779-13.0933-3.1384-16.0843,4.87-1.2514,3.3509-2.1973,6.816-3.5335,11.02,10.0915,3.0891,21.6564,2.7389,33.3006.5707a4.0284,4.0284,0,0,0,2.5125-1.2952c3.0379-4.8317,5.9143-9.7648,8.8916-14.7477Zm-59.9409-3.03,18.17-15.7424-5.7549-6.43-12.5016,22.4052v-4.156l-1.5762-1.1811-10.3368,12.0893c4.2171-13.4068,19.907-19.7756,18.2524-36.7969l-49.149,52.0324C231.2467,582.0706,246.203,576.5423,258.1486,564.9838ZM81.2547,427.2008c-3.1422,2.222-5.1533,3.9875-7.4522,5.2131-13.1951,7.0349-18.307,18.2928-17.1567,32.7378.5622,7.06,1.0016,14.2028,2.4556,21.1061,6.972,33.1015,28.6536,54.2926,58.5523,66.4953,15.3673,6.272,32.5354,9.377,49.1751,11.0156,30.4938,3.0031,58.6566-4.342,82.2064-25.2507,4.917-4.3656,9.4531-9.2,14.6412-13.2009,2.12-1.635,5.5035-2.02,8.32-2.045.5807-.0051,1.04,4.1766,1.8327,6.3262,1.4474,3.9251,2.0051,9.0948,4.8405,11.4493,27.3214,22.6863,54.0727,30.19,84.7682,1.6851,1.3941-1.2947,4.3174-2.2366,5.9177-1.6569,1.65.5979,3.2732,3.1241,3.6329,5.0453.7374,3.9381.1463,8.1335.95,12.0488,2.1145,10.3008,5.1681,19.9649,16.5861,24.21,29.7764,11.0719,60.14,19.6883,92.098,20.4538,15.1192.3621,30.3333-2.1231,45.41-1.3889,21.5131,1.0475,37.4234-18.429,29.0925-38.0572-.7016-1.6529-.0757-4.5451,1.039-6.0338.6451-.8617,3.6678-.53,5.3317.0687,4.8206,1.7331,9.6047,5.7934,14.2085,5.5305,24.0037-1.37,48.0339-3.8011,70.6842-12.5317,19.5763-7.5457,38.9184-15.7778,58.0027-24.4974,16.8409-7.6946,30.8757-18.9942,40.8413-35.1011,13.7636-22.2454,13.4234-43.0732-2.4692-60.71-4.0334-4.476-9.9751-7.2324-16.1913-11.5853,3.4726-2.1129,6.3653-4.3886,9.6364-5.7648,9.0912-3.825,16.1942-9.6047,19.1444-19.2526,12.0683-39.4681,3.762-78.0468-30.3637-104.8278-26.1745-20.541-56.9823-21.7818-86.6678-23.5776-3.4876-18.4488-4.9737-37.2552-10.8282-54.5858-7.8064-23.1085-26.1567-37.1767-50.4124-39.3358-26.2325-2.3351-65.1548,19.0492-70.9171,50.7819-.3446,1.8976-3.3357,4.1631-5.4531,4.6283-1.7712.3891-4.7252-1.0857-5.9787-2.6676-1.9868-2.507-2.7847-5.9142-4.4432-8.73-19.5669-33.2214-48.9931-52.7209-85.6926-62.9731-9.6089-2.6843-18.9585-2.0956-28.4193-2.54-10.0125-.47-20.2624-.9153-30.088.6463-25.3985,4.0366-48.0378,15.4915-69.2865,29.4047A77.0525,77.0525,0,0,0,259.9873,198.02c-3.6527,4.883-6.3684,11.7129-2.4,16.2365a60.6676,60.6676,0,0,0-3.302,5.8c-2.75,6.324-5.3475,7.0541-11.3872,3.6129-5.2255-2.9773-10.4711-6.1652-16.1-8.1439-20.3319-7.1472-38.9854-.5454-58.0509,6.5957-20.23,7.5773-39.01,42.0446-31.022,62.9809,2.0769,5.4437-1.0558,6.2585-5.9731,5.9532-8.5225-.5293-17.2815-1.4716-25.6135-.1593-51.628,8.1315-68.39,54.456-56.9924,94.1311C54.1255,402.3609,65.0691,415.8076,81.2547,427.2008ZM427.8294,603.485c-11.99-3.5311-14.7285,13.3962-27.7832,10.2193,3.9933-2.722,6.52-4.5373,9.14-6.2044,2.6562-1.69,5.4056-3.2334,8.7154-5.1979-17.6236-7.9245-20.7786-7.7792-28.6314,1.1219l10.6694-4.1511c-6.5931,4.3238-12.08,11.9512-23.3462,8.7142l14.988-11.6759c-7.6628.8794-12.6567,8.9628-20.8957,7.0054l-2.0812-2.6359,11.8691-8.1219-1.4343-1.4158-17.2837,7.3242,23.832,16.8464,15.8152-9.0374.65,1.1912-12.0522,8.7724q-.0609,1.2788-.1219,2.5576c13.4284,2.9861,26.8528,5.9908,40.2942,8.9173a4.2967,4.2967,0,0,0,2.9238-.3469c8.6724-5.4837,17.2792-11.0713,25.9035-16.6312q-.1494-.9738-.2988-1.9476c-4.8892.7845-10.0673.82-14.5864,2.5639s-8.3788,5.1957-13.97,8.8383h6.0433q.1189.9161.2379,1.8322l-12.9181,2.8653-1.0727-3.0027,20.4082-13.8236c-11.0954-5.2582-15.0348-3.7553-25.9275,9.98l7.5947-1.6879c-4.6548,3.3674-8.948,8.5051-16.7235,3.1157Zm245.3281-43.9537-1.4382-1.9988,7.05-8.9268c-9.4553,5.2618-15.7168,14.952-26.2013,18.3245L651.19,565.365l10.2518-11.277-.8563-1.0275L635.643,575.3519l-1.9056-2.1305,16.1836-15.27c-10.5661,1.244-17.2018,5.7562-22.1577,13.58-2.2987,3.6287-6.3155,6.1692-9.5535,9.203l-1.69-1.7986c2.293-2.516,4.3748-5.2778,6.9375-7.48a90.9694,90.9694,0,0,1,8.6356-5.9372l-2.0368-2.013c-13.7755-.1572-20.0011,3.3513-25.6,23.4781,38.3555-7.801,73.2592-23.272,105.8835-44.1291,2.7331-1.7473,4.2667-5.3705,6.3577-8.1222l-1.42-1.5052ZM444.2407,628.0446c22.6215,7.8457,38.9509-4.2657,56.1218-14.3453-15.3433-5.1439-26.5724,2.353-38.74,11.458l8.9518-1.4711.2955,1.9843-14.3012,2.3578-1.0152-2.9,20.6077-12.5046c-14.72-4.6295-22.2073,5.8465-31.54,11.5981l8.7743-3.0962.5231,1.123Zm-162.9293-47.426,13.9817-19.4252-12.6-7.0552L269.72,573.6409Zm85.5854-16.0163-13.891,20.3544,1.0737,1.12,9.6246-7.8476.73.9653-7.5944,8.6774h4.59l-2.0125,3.394.9977.6777,15.3541-12.0672Zm163.841,47.34-.9957-2.9283-30.4705,12.853a13.356,13.356,0,0,1,5.7258-5.0136c1.9347-1.0634,3.9183-2.0376,5.88-3.0512l-1.1842-1.96L483.39,626.4138C501.5527,628.8758,515.467,618.4556,530.7378,611.9427Zm82.7963-45.6638c-14.2666,1.6473-14.2666,1.6473-20.525,13.1253l5.6105-3.9261.5705.7232L589.9277,587.4l1.5549,1.4064C601.2043,584.7222,604.3306,573.9651,613.5342,566.2789Zm-38.66,19.0393,20.9822-16.2056C581.39,565.4252,579.38,576.9967,574.8745,585.3181Zm-293.5477-32.636c-1.6809-.801-3.8186-2.1666-4.0637-1.8849q-6.38,7.3307-12.2383,15.1032c-.3191.4223.8405,2.8307,1.383,2.8566a4.8006,4.8006,0,0,0,3.5388-1.389C273.7535,562.7173,277.336,557.883,281.3268,552.6822Zm46.2021,26.7184,1.67,1.8183,20.1259-19.0513C336.58,562.7782,334.5222,573.8641,327.5289,579.4006Zm23.1792-7.1936c13.016-3.7909,15.4213-6.4654,13.2473-12.5337Z"/><path d="M792.472,642.5476c2.2877,8.9732-.97,17.6139-9.9581,20.23-8.448,2.4584-17.7226,3.0109-26.6026,2.8356-13.9008-.2744-18.1191-4.0353-21.6479-16.1848-5.4962-18.9231,6.4911-34.06,26.1793-33.0584C776.1852,617.1705,788.5861,627.306,792.472,642.5476Zm-54.6656-2.0685c.4722,11.0181,7.9011,17.9236,19.0139,17.6742,12.0768-.271,22.5888-9.9331,22.22-20.4235-.3773-10.7275-8.2783-17.48-19.9262-17.0286C744.4021,621.2708,737.267,627.8937,737.8064,640.4791Z"/><path d="M81.2547,427.2008c-16.1856-11.3932-27.1292-24.84-32.1087-42.1739-11.3973-39.6751,5.3645-86,56.9924-94.1311,8.332-1.3123,17.091-.37,25.6135.1593,4.9174.3054,8.05-.5095,5.9731-5.9532-7.9879-20.9364,10.7919-55.4036,31.022-62.9809,19.0656-7.1411,37.719-13.7429,58.0509-6.5957,5.629,1.9787,10.8747,5.1667,16.1,8.1439,6.04,3.4412,8.6372,2.7111,11.3872-3.6129a60.6676,60.6676,0,0,1,3.302-5.8c-3.9684-4.5236-1.2527-11.3535,2.4-16.2365a77.0525,77.0525,0,0,1,18.8156-18.2851c21.2487-13.9133,43.888-25.3681,69.2865-29.4047,9.8256-1.5616,20.0754-1.1162,30.088-.6463,9.4608.4441,18.81-.1447,28.4193,2.54,36.7,10.2522,66.1257,29.7517,85.6926,62.9731,1.6585,2.8157,2.4564,6.2229,4.4432,8.73,1.2536,1.5819,4.2075,3.0567,5.9787,2.6676,2.1175-.4652,5.1086-2.7307,5.4531-4.6283,5.7623-31.7327,44.6845-53.1171,70.9171-50.7819,24.2557,2.1591,42.6059,16.2273,50.4124,39.3358,5.8545,17.3306,7.3406,36.137,10.8282,54.5858,29.6855,1.7959,60.4933,3.0366,86.6678,23.5776,34.1258,26.7809,42.432,65.36,30.3637,104.8278-2.95,9.6479-10.0531,15.4275-19.1444,19.2526-3.2711,1.3762-6.1638,3.6519-9.6364,5.7648,6.2163,4.3529,12.1579,7.1093,16.1913,11.5853,15.8925,17.6364,16.2328,38.4643,2.4692,60.71-9.9656,16.1069-24,27.4064-40.8413,35.1011-19.0843,8.72-38.4265,16.9517-58.0027,24.4974-22.65,8.7306-46.68,11.1617-70.6842,12.5317-4.6038.2628-9.388-3.7974-14.2085-5.5305-1.6639-.5982-4.6866-.93-5.3317-.0687-1.1146,1.4887-1.7405,4.3809-1.039,6.0338,8.3309,19.6282-7.5795,39.1047-29.0925,38.0572-15.0772-.7342-30.2913,1.7511-45.41,1.3889-31.9575-.7655-62.3216-9.3819-92.098-20.4538-11.418-4.2456-14.4716-13.91-16.5861-24.21-.8037-3.9154-.2126-8.1108-.95-12.0488-.36-1.9213-1.9825-4.4474-3.6329-5.0453-1.6-.58-4.5236.3623-5.9177,1.6569-30.6955,28.5053-57.4468,21.0012-84.7682-1.6851-2.8354-2.3544-3.3932-7.5242-4.8405-11.4493-.7927-2.15-1.2519-6.3314-1.8327-6.3262-2.8169.0248-6.2.41-8.32,2.045-5.1881,4.0006-9.7242,8.8353-14.6412,13.2009-23.55,20.9088-51.7125,28.2539-82.2064,25.2507-16.64-1.6386-33.8078-4.7436-49.1751-11.0156-29.8986-12.2027-51.58-33.3938-58.5523-66.4953-1.454-6.9033-1.8934-14.0462-2.4556-21.1061-1.15-14.4449,3.9617-25.7028,17.1567-32.7378C76.1014,431.1883,78.1125,429.4228,81.2547,427.2008Z" fill="#fff"/><path d="M196.3934,574.6766c-5.8106,4.7237-12.15,8.95-17.2364,14.3549-3.1242,3.32-5.8772,4.3966-10.2291,4.57-35.2921,1.4064-62.7261-14.447-85.9-39.6121L100.45,565.6c5.3352-11.2586,13.183-3.4972,21.6466-2.6735L113.05,575.5427l2.01,1.7935c1.3514-1.7034,2.8233-3.3264,4.0258-5.1291,1.773-2.6581,3.3542-5.4442,5.128-8.358l9.18,3.5533-10.2718,10.8018,1.13,2.0264c3.3536-1.8517,7.6931-2.9363,9.855-5.7151,4.4711-5.7468,9.6066-5.2455,16.898-2.2767l-12.8208,8.5574,2.6985,3.0065c3.1907-1.29,7.6824.1379,7.866-6.87.0516-1.968,4.5412-5.088,7.2807-5.437,4.7942-.6108,9.81.5141,15.3238.9594l-13.9911,16.7277,1.5274,2.1148,9.5641-3.4848-.4848-1.5992-4.9925,1.56c5.7788-13.3405,16.6285-18.4644,35.1963-16.5533-.6957,1.2848-1.3568,2.5059-2.0216,3.732C196.1477,574.9565,196.3934,574.6766,196.3934,574.6766Z" fill="#fff"/><path d="M427.8294,603.485,407.7879,619.47c7.7755,5.3894,12.0686.2516,16.7235-3.1157l-7.5947,1.6879c10.8927-13.735,14.8321-15.2379,25.9275-9.98l-20.4082,13.8236,1.0727,3.0027,12.9181-2.8653q-.119-.9161-.2379-1.8322h-6.0433c5.5907-3.6426,9.4505-7.0945,13.97-8.8383s9.6972-1.7795,14.5864-2.5639q.1494.9738.2988,1.9476c-8.6243,5.56-17.2311,11.1474-25.9035,16.6312a4.2967,4.2967,0,0,1-2.9238.3469c-13.4414-2.9265-26.8657-5.9312-40.2942-8.9173q.0609-1.2788.1219-2.5576l12.0522-8.7724-.65-1.1912-15.8152,9.0374-23.832-16.8464,17.2837-7.3242,1.4343,1.4158L368.6049,600.68l2.0812,2.6359c8.239,1.9575,13.2329-6.126,20.8957-7.0054l-14.988,11.6759c11.2662,3.2371,16.7531-4.39,23.3462-8.7142L389.27,603.4238c7.8528-8.9011,11.0078-9.0464,28.6314-1.1219-3.31,1.9645-6.0591,3.5081-8.7154,5.1979-2.6206,1.6672-5.147,3.4824-9.14,6.2044C413.1009,616.8812,415.8393,599.9538,427.8294,603.485Z" fill="#fff"/><path d="M673.1575,559.5313l42.12-26.305,1.42,1.5052c-2.0909,2.7517-3.6246,6.3749-6.3577,8.1222-32.6243,20.8572-67.528,36.3281-105.8835,44.1291,5.5985-20.1268,11.8241-23.6353,25.6-23.4781l2.0368,2.013a90.9694,90.9694,0,0,0-8.6356,5.9372c-2.5627,2.2022-4.6445,4.964-6.9375,7.48l1.69,1.7986c3.2379-3.0338,7.2548-5.5742,9.5535-9.203,4.9558-7.8234,11.5916-12.3356,22.1577-13.58l-16.1836,15.27,1.9056,2.1305L660.586,553.06l.8563,1.0275L651.19,565.365l1.3777,1.5651c10.4845-3.3725,16.746-13.0627,26.2013-18.3245l-7.05,8.9268Z" fill="#fff"/><path d="M258.13,565.025c-11.9272,11.5173-26.8835,17.0456-42.8774,22.1794l49.149-52.0324c1.6546,17.0213-14.0353,23.39-18.2524,36.7969L256.4863,559.88l1.5762,1.1811v4.156Z" fill="#fff"/><path d="M444.2407,628.0446l9.6782-5.7962-.5231-1.123-8.7743,3.0962c9.3324-5.7516,16.82-16.2276,31.54-11.5981l-20.6077,12.5046,1.0152,2.9,14.3012-2.3578-.2955-1.9843-8.9518,1.4711c12.1677-9.105,23.3968-16.6019,38.74-11.458C483.1916,623.779,466.8622,635.89,444.2407,628.0446Z" fill="#fff"/><path d="M318.0895,568.0134l14.1231-1.2727c-2.9773,4.9829-5.8538,9.916-8.8916,14.7477a4.0284,4.0284,0,0,1-2.5125,1.2952c-11.6442,2.1682-23.2091,2.5183-33.3006-.5707,1.3362-4.2044,2.2821-7.6695,3.5335-11.02,2.991-8.0087,7.1489-9.3482,16.0843-4.87l-10.6322,13.1142,1.55,1.5169c1.4965-1.6688,3.0466-3.2931,4.4794-5.015,4.0974-4.924,6.8127-12.5563,15.75-7.8089q-4.9885,6.75-10.0523,13.4276l2.0856,1.7777,10.2546-8.9663Z" fill="#fff"/><path d="M281.3115,580.6186,269.72,573.6409l12.9731-19.5028,12.6,7.0552Z" fill="#fff"/><path d="M366.8968,564.6023l8.8716,15.274-15.3541,12.0672-.9977-.6777,2.0125-3.394h-4.59l7.5944-8.6774-.73-.9653-9.6246,7.8476-1.0737-1.12Z" fill="#fff"/><path d="M216.2739,570.5724l25.3436-15.3576,1.1273,1.4434c-3.6144,3.1491-7.33,6.1908-10.8217,9.47-6.8,6.3858-13.272,13.1385-20.2966,19.261-3.0944,2.6971-7.2078,4.2252-10.8585,6.284l-1.2121-1.9878,20.6712-17.1438-7.4044,1.04Z" fill="#fff"/><path d="M216.2739,570.5724l-3.4512,3.009c-6.0738,4.5328-12.1251,9.0961-18.23,13.5862-3.404,2.5035-6.8977,4.8852-10.3509,7.3217l-1.7243-2.3545,14.0209-10.426-.7851-1.2659-9.7212,6.4887-1.9781-2.1676q6.1671-5.0389,12.3368-10.0825c.0026-.0049-.2431.2751-.2395.27,5.7276-2.4631,11.4158-5.0156,17.236-7.22C213.9152,567.5318,215.2916,569.5723,216.2739,570.5724Z" fill="#fff"/><path d="M530.7378,611.9427c-15.2708,6.5129-29.1851,16.933-47.3479,14.4711l26.3037-14.5708,1.1842,1.96c-1.9621,1.0135-3.9457,1.9878-5.88,3.0512a13.356,13.356,0,0,0-5.7258,5.0136l30.4705-12.853Z" fill="#fff"/><path d="M613.5342,566.2789c-9.2036,7.6862-12.33,18.4433-22.0516,22.528L589.9277,587.4l9.2625-11.1992-.5705-.7232-5.6105,3.9261C599.2676,567.9262,599.2676,567.9262,613.5342,566.2789Z" fill="#fff"/><path d="M574.8745,585.3181c4.5055-8.3215,6.5156-19.893,20.9822-16.2056Z" fill="#fff"/><path d="M281.3268,552.6822c-3.9908,5.2008-7.5733,10.0351-11.38,14.6859a4.8006,4.8006,0,0,1-3.5388,1.389c-.5424-.026-1.7021-2.4344-1.383-2.8566q5.86-7.755,12.2383-15.1032C277.5082,550.5156,279.646,551.8812,281.3268,552.6822Z" fill="#fff"/><path d="M258.0625,565.2167l12.5016-22.4052,5.7549,6.43c-6.3771,5.525-12.2737,10.6337-18.18,15.763C258.13,565.025,258.0625,565.2167,258.0625,565.2167Z" fill="#fff"/><path d="M327.5289,579.4006c6.9933-5.5365,9.0513-16.6223,21.7959-17.233l-20.1259,19.0513Z" fill="#fff"/><path d="M350.7082,572.207l13.2473-12.5337C366.1294,565.7416,363.7242,568.4161,350.7082,572.207Z" fill="#fff"/><path d="M759.1139,620.7012c-14.7118.57-21.847,7.1925-21.3076,19.7779.4722,11.0181,7.9011,17.9236,19.0139,17.6742,12.0768-.271,22.5888-9.9331,22.22-20.4235C778.6629,627.0022,770.7619,620.25,759.1139,620.7012Z" fill="#fff"/><path d="M879.9781,707.9061c-.2854,7.7851-4.967,13.9845-12.8422,13.96-7.4018-.0229-15.0178-1.78-22.1425-4.0314-11.1531-3.5238-13.6639-7.561-13.6255-18.2043.06-16.5771,13.33-25.9454,28.9808-20.46A28.6289,28.6289,0,0,1,879.9781,707.9061ZM836.353,693.25c-2.2364,9.0041,2.1184,16.3417,11.146,18.78,9.8106,2.65,20.5894-2.65,22.7838-11.2037,2.244-8.747-2.5283-16.0731-12.0356-18.4762C846.2391,679.3157,838.9075,682.9655,836.353,693.25Z"/><path d="M858.2472,682.3509c-12.0081-3.0352-19.34.6146-21.8942,10.8994-2.2364,9.0041,2.1184,16.3417,11.146,18.78,9.8106,2.65,20.5894-2.65,22.7838-11.2037C872.5268,692.08,867.7546,684.754,858.2472,682.3509Z" fill="#fff"/><path d="M318.0895,568.0133l2.4709,6.3552-10.2546,8.9663L308.22,581.557q5.045-6.696,10.0523-13.4276A1.5321,1.5321,0,0,0,318.0895,568.0133Z"/></svg>