<?xml version="1.0" encoding="utf-8"?>
<!-- Generator: Adobe Illustrator 21.1.0, SVG Export Plug-In . SVG Version: 6.00 Build 0)  -->
<svg version="1.1" id="图层_1" xmlns="http://www.w3.org/2000/svg" xmlns:xlink="http://www.w3.org/1999/xlink" x="0px" y="0px"
	 viewBox="0 0 15 15" style="enable-background:new 0 0 15 15;" xml:space="preserve">
<style type="text/css">
	.st0{fill:#DDBA62;}
	.st1{fill:#351C17;}
	.st2{fill:#FDFDFD;}
</style>
<title>Ferrero_1</title>
<g>
	<path class="st0" d="M1,7c0.1-0.2,0.1-0.3,0.1-0.5c0-0.6,0.1-1.1,0.1-1.7c0-0.1,0-0.3,0.2-0.3c0.1,0,0.2-0.1,0.2-0.2
		c0-0.3,0.1-0.4,0.2-0.6C2,3.6,2,3.4,2.1,3.3c0.1,0,0.1-0.1,0.1-0.1c-0.1,0-0.1,0.1-0.1,0.1C2,3.3,2,3.4,1.8,3.5
		C2,3,2.2,2.6,2.7,2.3C3,2.1,3.3,1.9,3.5,1.5C3.6,1.3,3.8,1.2,3.9,1C4,0.9,4.2,0.9,4.2,0.9c0.1-0.2,0.3-0.1,0.4-0.1
		c0.2,0,0.4-0.1,0.6-0.2c0,0.1,0,0.2,0,0.2c0.2,0,0.3-0.1,0.4-0.3c-0.2-0.1-0.3,0.1-0.4,0c0-0.2,0.2-0.2,0.3-0.2
		c0.2,0,0.4-0.1,0.6-0.2C6.5,0,6.8,0.1,7.1,0.1C7,0.3,6.9,0.3,6.7,0.2c-0.1-0.1-0.3,0-0.4,0c0.2,0,0.3,0,0.5,0.1
		C7,0.5,7.2,0.3,7.2,0.1c0.4,0,0.9,0,1.3,0.2c0.3,0.1,0.6,0.1,0.9,0.1c0.3,0,0.6,0.1,0.8,0.3c0.2,0.1,0.4,0.1,0.6,0.3
		c0,0,0.1,0,0.1,0.1c0.1,0.3,0.3,0.3,0.6,0.3c0.1,0,0.2,0,0.3,0.1c0.1,0.1,0.2,0.2,0.4,0.3c0.2,0.2,0.4,0.4,0.6,0.6c0,0,0,0,0,0
		c0,0,0.1,0,0.1,0c0.2,0.3,0.5,0.6,0.6,1.1c0,0.1,0.1,0.3,0,0.5c0,0.2,0,0.4,0.1,0.5c0.1-0.1,0.1-0.2,0-0.4c0-0.1,0-0.1,0-0.2
		c0.1,0,0.1,0,0.1,0.1C14,4.4,14.1,4.7,14.1,5c0.1,0.6,0.2,1.3,0.2,1.9c0,0.1,0.1,0.2,0.1,0.2c-0.1,0.3-0.2,0.6-0.2,0.9
		c0,0.3-0.1,0.5-0.1,0.7c0,0.1-0.1,0.2-0.2,0.4c0-0.1,0-0.2-0.1-0.3c0,0.3-0.1,0.5-0.3,0.6c-0.1,0-0.1,0.1-0.1,0.2
		c-0.1,0.1-0.2,0.3-0.3,0.4C13,10,13,9.9,13,9.9c0-0.2-0.1-0.3-0.3-0.3c-0.1,0-0.1,0.2-0.1,0.3c0,0,0,0.1,0,0.1l0,0
		c-0.1,0-0.1,0.1-0.1,0.2c-0.1,0.1-0.2,0-0.3,0.1c0,0,0,0.1-0.1,0.1c-0.1,0,0-0.1,0-0.2c-0.1,0-0.1,0.2-0.2,0.2
		c-0.2,0-0.4,0.1-0.6,0.2c0-0.1,0-0.2,0-0.3c0,0,0.1,0,0-0.1c0,0,0,0,0,0.1c-0.1,0.3-0.3,0.1-0.4,0c-0.1-0.1-0.2,0-0.2,0.1
		c0,0.1,0,0.2-0.1,0.4c0,0.1-0.1,0.2-0.1,0c0-0.1-0.1-0.1-0.1,0C10.4,11,10.2,11,10,11c0,0-0.1,0-0.1-0.1c0-0.2-0.1-0.1-0.2-0.1
		c-0.1,0-0.1,0.1-0.2,0.2c0,0.1-0.1,0.1-0.1,0C9.4,10.9,9.3,11,9.2,11c-0.1,0-0.3,0-0.3,0.2c0,0.1-0.1,0.2-0.2,0.2
		c-0.3,0-0.6,0.2-1,0c-0.1,0-0.1,0-0.2,0c-0.1,0.3-0.3,0.2-0.5,0.2c-0.1,0-0.2,0.1-0.3,0.1c-0.1-0.1-0.3-0.1-0.4-0.2
		c-0.1,0-0.2-0.1-0.2-0.2c0-0.2-0.2-0.2-0.2-0.3c0,0-0.1-0.1-0.2,0c-0.1,0.1,0,0.1,0.1,0.1c0.1,0.1,0.1,0.2,0,0.2
		c-0.1,0-0.2,0.1-0.3,0.1c0,0-0.1,0.1-0.1,0c0,0-0.1-0.1,0-0.2c0.1-0.1,0.1-0.1,0.1-0.2c-0.1,0-0.1,0.1-0.1,0.2
		c-0.2-0.1-0.2-0.2-0.3-0.3c-0.1-0.1-0.3,0.1-0.4-0.1c0.1,0.1,0,0.2,0,0.3c-0.1,0-0.2-0.1-0.2-0.2c-0.1-0.3-0.1-0.6-0.4-0.7
		c0,0,0-0.1,0-0.1c0.1-0.1,0.1-0.2,0.1-0.3c0-0.1-0.1-0.1-0.1-0.1c-0.1,0-0.1,0-0.1,0.1C3.7,9.9,3.9,9.9,3.9,9.9
		C3.9,10,4,10.1,4,10.1c-0.1,0.1-0.1,0.1-0.1,0.2c0,0.2-0.2,0.3-0.3,0.3c-0.1,0-0.2-0.1-0.2-0.2c0-0.1-0.1-0.2-0.2-0.2
		C3,10.3,3,10.2,3,10.1C3,10,3,10,3,10c-0.1,0-0.1,0.1-0.1,0.1c0,0.2-0.1,0.2-0.2,0.2c-0.2,0-0.5-0.1-0.7-0.1
		c-0.2,0-0.2-0.3-0.4-0.3c0,0,0,0,0,0c0.1-0.1,0-0.1,0-0.2c0-0.1,0-0.2,0.1-0.2c0,0,0.1,0,0.1-0.1c0-0.1,0-0.1,0-0.2
		C2,8.9,1.7,8.7,1.8,8.4c0,0,0,0,0,0c-0.1,0-0.1,0.1,0,0.1c0.1,0.2,0,0.4,0,0.6c0,0.1,0,0.2-0.1,0.2c0-0.2,0-0.4,0-0.6
		c0.1-0.1,0-0.2-0.1-0.2c0,0.2,0,0.5-0.1,0.7C1.4,9.1,1.4,9.1,1.4,9C1.2,9,1.1,8.8,1.1,8.7c-0.1-0.2-0.1-0.4,0-0.6
		c0-0.2-0.1-0.3,0-0.4c0,0,0,0,0,0l0,0c0,0-0.1,0-0.1,0C1,7.4,1,7.2,1,7z M7.1,4.3c0,0,0.1,0.1,0.1,0c0,0,0.1-0.1,0-0.1
		C7.2,4.2,7.1,4.2,7.1,4.3C7,4.3,7,4.3,7.1,4.3C7,4.3,7,4.4,7.1,4.3C7.1,4.4,7.1,4.3,7.1,4.3z M5,6.2c0.1,0,0.1-0.1,0.1-0.2
		C5,6,5,6.1,5,6.2C5,6.2,4.9,6.3,5,6.4C5.1,6.3,5,6.2,5,6.2z M13.8,5C13.8,5,13.8,5,13.8,5C13.8,5,13.8,5,13.8,5c0-0.1,0-0.1,0-0.2
		c0,0,0-0.1,0-0.1c-0.1,0-0.1,0-0.1,0.1C13.7,4.8,13.7,4.9,13.8,5z M10.5,1.2C10.5,1.2,10.5,1.2,10.5,1.2
		C10.5,1.2,10.4,1.2,10.5,1.2C10.5,1.2,10.5,1.2,10.5,1.2c0,0.1,0.1,0.2,0.2,0.3c0.1,0.1,0.1,0,0.1,0C10.9,1.4,10.6,1.2,10.5,1.2z
		 M9.1,8.7c0-0.2-0.2-0.3-0.3-0.4C9,8.4,8.9,8.7,9.1,8.7c0,0.4,0.1,0.7,0,0.9C9.3,9.4,9.3,8.9,9.1,8.7z M5.2,5.9
		C5.2,5.9,5.2,5.9,5.2,5.9C5.2,5.9,5.2,5.9,5.2,5.9c0.2-0.2,0.1-0.4,0.1-0.6c0,0,0-0.1,0-0.1c0.1-0.1,0-0.2,0-0.2c0,0,0-0.1-0.1-0.1
		c0,0,0,0.1,0,0.1c-0.1,0.1,0,0.2,0,0.3C5.1,5.5,5.2,5.6,5.2,5.9C5.1,5.8,5.1,5.9,5.2,5.9z M4.3,2L4.3,2C4.3,2.1,4.3,2.1,4.3,2
		C4.2,2.1,4.2,2.1,4.3,2c0,0.2-0.1,0.3-0.2,0.4c0,0,0,0.1,0.1,0.1c0.2,0,0.2,0,0.2,0.2c0,0.2,0.1,0.4,0.3,0.5
		c0.3,0.1,0.2,0.3,0.3,0.5c0.2-0.2,0.2-0.3,0-0.4c0.2,0,0.3,0,0.5,0C5.2,3,5,2.6,4.8,2.3c0,0.3,0,0.3-0.4,0.2c0.1-0.1,0.1-0.2,0.3,0
		c0-0.3,0-0.3-0.3-0.2C4.2,2.3,4.3,2.2,4.3,2c0.2,0,0.4-0.3,0.3-0.5c0-0.1-0.1-0.1-0.1,0c0,0.2-0.2,0.1-0.2,0.2C4.1,1.8,4,1.8,4,1.9
		c0,0,0,0,0,0c0,0,0,0,0,0c0,0,0,0,0,0C4.2,1.8,4.1,2.1,4.3,2z M1.8,4.3C1.8,4.3,1.8,4.3,1.8,4.3c0-0.2,0.1-0.1,0.2-0.1
		C2,4.2,2,4.2,2,4.1C2,4.1,2,4.1,2,4.1C1.9,4,1.8,4,1.8,4.1C1.6,4.2,1.6,4.4,1.6,4.6c0,0.1,0,0.2,0.1,0.2c0.2,0,0.1-0.2,0.2-0.4
		C1.9,4.4,1.8,4.4,1.8,4.3z M1.6,5.7L1.6,5.7C1.7,5.7,1.6,5.7,1.6,5.7c-0.1,0.2,0,0.3,0,0.3c0.1,0,0.1-0.1,0.1-0.1
		C1.7,5.5,1.9,5.3,2,5c0.2-0.1,0.3-0.3,0.4-0.4c0.2-0.3,0.3-0.7,0.5-1c-0.2,0-0.3,0.1-0.5,0.2c0,0-0.1,0.1,0,0.2c0,0.1,0.1,0,0.1,0
		C2.4,4.2,2.3,4.4,2.2,4.6C2.1,4.7,2,4.8,2,5C1.9,4.9,1.8,4.9,1.7,5C1.7,5.2,1.6,5.4,1.6,5.7C1.6,5.6,1.6,5.7,1.6,5.7z M7.9,4.2
		c-0.1,0.2-0.1,0.3,0,0.4C8,4.9,8,5.1,8.1,5.3c0,0.1,0,0.3,0.1,0.3c0.2,0.1,0.2,0.2,0.3,0.3c0.1,0,0-0.1,0.1-0.1
		c0,0,0.1,0.1,0.1,0.1c0.1,0.1,0,0.3,0,0.4c0.1,0.3,0.2,0.5,0.3,0.8c0,0,0.1,0.1,0.1,0c0,0,0-0.1,0-0.1C9,6.8,9,6.6,8.9,6.3
		c0-0.3-0.1-0.5-0.2-0.8C8.6,5.4,8.6,5.2,8.5,5c0-0.1-0.2-0.3-0.4-0.3C8.1,4.6,8,4.6,8,4.5C8,4.4,8,4,7.9,3.9c0,0-0.1,0-0.1,0
		c0,0,0,0,0,0.1C7.9,4.1,7.9,4.2,7.9,4.2z M10.5,4.7c0,0,0,0.1,0,0.1C10.5,4.8,10.5,4.8,10.5,4.7C10.5,4.7,10.5,4.7,10.5,4.7
		c0.1-0.1-0.1-0.1-0.1-0.2c0,0,0.1,0,0-0.1c0,0-0.1,0-0.2,0c-0.2,0.1-0.3,0-0.2-0.2c0.1,0,0.1,0.1,0.2,0.1C10.1,4,10.2,4,10.3,4
		c0.1,0,0.1,0.1,0.2,0.1c0-0.1,0-0.1,0-0.2c0-0.1-0.1-0.2-0.1-0.2c0,0-0.1,0-0.2,0.1c0,0-0.1,0-0.1,0c0,0,0-0.1,0-0.1
		c0,0,0.1,0,0.1-0.1c0,0,0-0.1,0-0.1c0,0-0.1,0-0.1,0c0,0-0.1,0.1-0.1,0.1C9.9,3.8,9.7,3.9,9.6,4c0.1,0.2,0.4,0.4,0.4,0.6
		c0,0,0,0,0.1,0C10.2,4.6,10.3,4.7,10.5,4.7z M7.7,4.7C7.7,4.7,7.7,4.7,7.7,4.7C7.7,4.7,7.7,4.7,7.7,4.7c-0.1-0.1,0-0.3-0.2-0.4
		c0.1,0.2,0,0.3-0.2,0.3c0,0.1,0.1,0.2,0,0.2C7.2,5,7.1,5.1,7.3,5.3c0,0,0,0,0,0.1c0,0.3,0.1,0.5,0.1,0.8c0,0.1,0,0.1,0.1,0.2
		c0.1,0.2,0.3,0.3,0.4,0.6C7.9,6.9,8,7,8,7c0,0,0.1,0,0.1,0c0,0,0.1-0.1,0-0.1C8,6.8,8,6.7,7.9,6.6C7.7,6.4,7.7,6.2,7.7,6
		c0-0.2,0-0.3-0.1-0.5C7.5,5.4,7.4,5.2,7.4,5.1l0,0c0.1,0,0,0,0.1,0.1c0,0.1,0.2,0,0.1,0C7.5,5,7.6,4.9,7.7,4.7
		C7.5,4.7,7.6,4.7,7.7,4.7z M4.2,5.1c0,0,0,0.1,0,0.1c0,0,0,0,0,0c0,0.2,0.2,0.2,0.2,0.4C4.7,5.4,4.9,5.2,5,4.9c0,0,0-0.1,0.1-0.1
		c0.2-0.1,0.3-0.3,0.5-0.5c0.1-0.1,0.1-0.3,0-0.4C5.5,3.9,5.5,3.8,5.4,3.7c-0.1-0.1,0-0.2,0-0.3C5.2,3.5,5.1,3.7,5,3.8
		c0,0-0.1,0.1,0,0.1c0.1,0,0,0.1,0,0.1C4.8,4,4.8,4.2,4.9,4.4c0.1,0.2,0,0.3-0.2,0.3c-0.1,0-0.2,0.1-0.2,0.2c0,0.2-0.1,0-0.2,0
		C4.4,5,4.3,5,4.2,5.1C4.3,5.1,4.3,5.1,4.2,5.1z M1.9,6C1.9,6,1.9,5.9,1.9,6C1.8,6.3,1.8,6.5,1.7,6.7C1.6,6.9,1.5,7,1.7,7.1
		C1.8,7,1.8,6.7,2.1,6.7c0,0,0.1-0.1,0-0.1C2,6.6,2.1,6.5,2.2,6.4C2.3,6.3,2.3,6.2,2.3,6C2.4,6,2.4,6,2.5,6c0.1,0,0,0.1,0,0.1
		c0,0.1-0.1,0.1-0.1,0.2c0.2,0,0.3,0,0.5-0.1C3,6.2,3,6.1,3.1,6.1c0,0,0,0,0,0.1c0,0,0,0,0,0c0,0,0,0,0-0.1C3.1,6.1,3,6,3,6
		c0.1-0.1,0-0.2,0-0.2c0,0,0,0,0-0.1c0,0,0.1,0,0.1,0c0-0.1,0-0.3-0.2-0.3c-0.1,0-0.1-0.1,0-0.2C3.1,5.1,3.5,5,3.7,5.1
		c-0.2-0.2-0.2-0.4,0-0.6c0.1-0.2,0.4-0.1,0.5-0.3c-0.1,0-0.1,0-0.2,0c0.1,0,0.2-0.1,0.3-0.1c0.2,0,0.3,0,0.2-0.3
		C4.5,3.6,4.3,3.5,4.2,3.3C4.2,3.1,4.1,3,4.2,2.9c0-0.1,0-0.1,0-0.1c0,0,0-0.1-0.1,0c0,0.1,0,0.1-0.1,0c0-0.1-0.1-0.2-0.1-0.3
		c0-0.1-0.1-0.1,0-0.2c0.1-0.1,0-0.2,0-0.2C3.7,2,3.5,2,3.5,2.1c0,0.1-0.1,0.1-0.2,0.1c-0.2,0-0.4,0.2-0.4,0.4
		c0,0.2-0.1,0.3-0.3,0.5c0,0-0.1,0-0.1,0.1c0.2,0,0.4,0,0.5-0.3c0-0.1,0.2,0,0.2-0.2c0.2,0,0-0.1,0-0.1c0,0-0.1,0-0.1-0.1
		c0.1,0.1,0.2,0,0.3,0c0.1,0,0.1,0,0.1,0.1c0,0.2-0.1,0.3-0.3,0.4c-0.1,0.1-0.1,0.2,0,0.2c0.1,0,0.1,0.1,0.1,0.2
		c0,0.1-0.1,0.2-0.1,0.3c0.1,0.1,0,0.2-0.1,0.3C3,4.1,2.9,4.5,2.7,4.7C2.6,4.8,2.5,4.9,2.5,5c0,0-0.1,0-0.1,0.1c0,0,0,0,0,0
		c0,0,0,0,0-0.1c0.1,0,0.1,0,0.2-0.1c0.1-0.1,0.2,0,0.3,0C3.1,4.9,2.9,5,2.9,5C2.8,5.2,2.7,5.3,2.6,5.4C2.4,5.5,2.4,5.5,2.3,5.3
		C2.2,5.5,2,5.6,2,5.9C2,5.9,2,6,1.9,6L1.9,6z M6.2,3.3L6.2,3.3c0.1,0.1,0.3,0.2,0.5,0.2C7.1,3.7,7.5,3.6,8,3.6c0.5,0,1-0.1,1.5-0.4
		c0.3-0.2,0.7-0.4,0.8-0.8c0.2-0.5,0-1-0.5-1.3C9.3,0.7,8.6,0.6,7.9,0.5c-0.3,0-0.5,0-0.8,0c-0.5,0.1-1,0.2-1.4,0.5
		C5.3,1.3,5,1.6,5,2.1c0,0.1,0,0.2,0.1,0.2c0.1,0,0.1,0.1,0.1,0.1c-0.2,0.1,0,0.2,0,0.3C5.5,3,5.8,3.2,6.2,3.3z M3.7,6.9
		c0.1-0.2-0.1-0.4,0.2-0.5c0,0,0.1-0.1,0-0.1C3.7,6.2,3.8,6,3.8,5.9c0.1-0.1-0.1-0.1-0.1-0.1c0,0,0-0.1,0,0C3.6,5.9,3.5,6.1,3.5,6.2
		c0,0.2,0,0.4,0,0.5c0.1,0.2,0,0.3-0.2,0.4c-0.1,0-0.1,0.1-0.2,0.2c0,0,0,0.1,0,0.1c0.1-0.1,0.1,0,0.1,0c0,0.1,0.1,0.2,0.2,0.2
		c0.1,0,0.2,0,0.2-0.1c0-0.2,0-0.4-0.1-0.5C3.7,6.8,3.7,7,3.7,6.9z M11.5,4.4C11.5,4.4,11.5,4.4,11.5,4.4c0,0.2,0.1,0.4,0.3,0.5
		c0.1,0,0.1,0,0.1-0.1c0,0,0-0.1,0-0.1c0-0.1,0-0.1,0-0.1c0.1,0,0.1,0,0.1,0.1c0.1,0.1,0.2,0.3,0.3,0.4c0.1,0.1,0.1,0,0.2,0
		c0.1-0.1,0-0.1,0-0.2c-0.1-0.1-0.1-0.2-0.2-0.3c-0.1-0.1-0.2-0.3-0.3-0.1c0,0-0.1,0-0.1,0c0,0,0,0,0-0.1c0,0,0-0.1,0-0.1
		c-0.2,0-0.3-0.2-0.5-0.3c0,0-0.1,0-0.1,0c0,0,0,0.1,0,0.1c0,0,0.1,0.1,0.1,0.1c0.1,0.1,0.2,0.2,0.1,0.4C11.5,4.5,11.5,4.5,11.5,4.4
		z M13,4.3c0,0.2,0.1,0.4,0.1,0.6c0.1,0.3,0.2,0.6,0,1c0,0,0,0,0,0.1c0,0,0.1,0.1,0.1,0.1c0.1,0,0.1-0.1,0.1-0.1
		c0.1-0.2-0.1-0.4-0.1-0.6C13.3,5,13.2,4.6,13,4.3z M12.5,3.9c0.1,0.1,0.1,0.3,0.2,0.4c0.1,0.3,0.3,0.7,0.3,1c0,0.1,0,0.2,0,0.3
		c0,0.1,0.1,0.1,0.1,0.1c0.1,0,0-0.1,0-0.1c0-0.3-0.2-0.5-0.1-0.8c0-0.1,0-0.1-0.1-0.1c-0.1,0-0.1-0.1-0.1-0.2
		C12.8,4.3,12.6,4.1,12.5,3.9z M9.2,10.6c-0.1-0.1,0-0.2,0-0.2c0,0,0-0.1,0-0.1C9,10.2,9,10.3,9,10.3c0,0.2,0,0.3,0,0.5
		c0,0.1,0.1,0.1,0.1,0.2c0.1,0.1,0.1,0,0.1-0.1c0.1-0.1,0.1-0.2,0.2-0.3c0-0.1,0-0.2-0.1-0.2C9.3,10.3,9.2,10.4,9.2,10.6
		C9.2,10.5,9.2,10.6,9.2,10.6z M10.8,5.9c0-0.4-0.1-0.7-0.2-1c0-0.1-0.1-0.1-0.1-0.1c-0.1,0-0.1,0-0.1,0.1c0,0,0,0.1,0,0.1
		c0.2,0,0.2,0.2,0.2,0.3c-0.1,0.2,0.1,0.3,0.2,0.4C10.7,5.8,10.7,5.8,10.8,5.9z M7.5,4C7.2,3.8,7,3.8,6.7,3.7c0,0-0.1,0-0.1,0
		c0,0,0,0.1,0,0.1C6.8,4,7,4,7.2,4.1C7.4,4.2,7.4,4,7.5,4z M5.6,3.5c0,0.1,0.1,0.1,0.1,0.2c0,0.1,0.1,0.1,0.1,0.1
		c0.1,0,0.3,0,0.4-0.1c0,0,0,0,0-0.1C6.1,3.5,5.7,3.4,5.6,3.5z M4,9.4C4,9.3,3.9,9.2,3.8,9.2c0,0-0.1,0-0.1,0
		C3.6,9.3,3.5,9.4,3.4,9.6c0,0,0,0.1,0,0.1c0,0,0,0,0.1,0c0.1-0.1,0.2-0.1,0.3-0.1C3.9,9.5,4,9.5,4,9.4z M9.7,4.5
		C9.7,4.5,9.6,4.5,9.7,4.5C9.6,4.5,9.6,4.5,9.7,4.5c0.1,0.2,0.2,0.3,0.2,0.4c0.1,0.2,0.2,0.4,0.3,0.6c0,0.1,0.1,0.1,0.1,0.1
		c0.1,0,0-0.1,0-0.1c-0.1,0-0.1-0.1-0.1-0.2C10,5,9.9,4.8,9.8,4.5C9.8,4.5,9.7,4.4,9.7,4.5z M10.7,7c0-0.3-0.1-0.6-0.2-0.8
		c0-0.1,0-0.2-0.1-0.1c-0.1,0-0.1,0.1,0,0.2c0.1,0.2,0.2,0.4,0.2,0.6C10.6,6.9,10.7,7,10.7,7z M12.6,3.2c-0.1,0.3,0.2,0.6,0.3,0.8
		C12.9,3.7,12.6,3.5,12.6,3.2z M3.1,9.3C3,9.4,3,9.5,3,9.7c0,0,0.1,0.1,0.2,0.1c0.1-0.1,0.1-0.2,0.1-0.3c-0.1,0-0.1,0.1-0.2,0
		C3.1,9.4,3.2,9.4,3.1,9.3z M2.3,3.1C2.4,3,2.8,2.5,2.8,2.4C2.5,2.5,2.4,2.7,2.3,3.1z M12,9.8c0,0.1-0.1,0.3,0.1,0.3
		c0.1,0.1,0.2,0,0.2-0.1c0,0,0.1-0.1,0-0.1c0,0-0.1,0-0.1,0C12,10,12,9.9,12,9.8z M12.6,3c0-0.1-0.1-0.1-0.2-0.1
		c-0.1,0-0.1,0-0.1,0.1c0.1,0.1,0,0.3,0.1,0.3C12.6,3.2,12.5,3,12.6,3z M11.5,5.6c-0.1,0.2,0,0.3,0.1,0.5
		C11.7,5.9,11.6,5.7,11.5,5.6z M11.2,4.8c0-0.2-0.1-0.4-0.2-0.6C11,4.4,11.1,4.6,11.2,4.8z M11.1,3.8c0-0.2-0.1-0.3-0.1-0.4
		c0,0-0.1-0.1-0.1,0c0,0,0,0.1,0,0.1C10.9,3.6,11,3.7,11.1,3.8z M4,5.6C4,5.4,3.8,5.3,3.7,5.2C3.7,5.4,3.8,5.5,4,5.6z M12.9,2.8
		c-0.1-0.1-0.2-0.3-0.4-0.3C12.6,2.7,12.7,2.8,12.9,2.8z M10.4,8.8c0.1,0.2,0,0.3,0.1,0.5C10.6,9,10.6,9,10.4,8.8z M9.5,4.7
		c0-0.2-0.1-0.4-0.2-0.5C9.3,4.3,9.4,4.5,9.5,4.7z M3.5,8.6c0.1-0.1,0.2-0.4,0.1-0.5C3.5,8.2,3.6,8.4,3.5,8.6z M2.5,9
		c0.1-0.1,0.1-0.2,0.1-0.3c0,0,0-0.1,0-0.1c0,0-0.1,0-0.1,0.1C2.5,8.8,2.5,8.9,2.5,9z M11.8,3.9c0-0.1-0.1-0.3-0.2-0.3c0,0,0,0,0,0
		C11.6,3.8,11.7,3.8,11.8,3.9C11.8,3.9,11.8,3.9,11.8,3.9z M8.5,7.8c0,0.2,0.1,0.3,0.2,0.4C8.6,8,8.6,7.9,8.5,7.8z M10.8,3.8
		c-0.2,0.2,0.1,0.2,0.1,0.4C10.9,4.1,10.9,3.9,10.8,3.8z M11.3,4.9c0,0.2,0,0.3,0.1,0.4C11.4,5.1,11.4,5,11.3,4.9z M4.4,9.2
		c-0.2,0.1-0.1,0.2,0,0.4C4.4,9.5,4.5,9.4,4.4,9.2z M9,4.2c0,0.1,0.1,0.2,0.2,0.3C9.2,4.3,9.1,4.3,9,4.2z M5.7,6.5
		c0.1,0.2,0.1,0.2,0.2,0.1C5.9,6.5,5.8,6.6,5.7,6.5z M12.1,3.1c0,0,0.1,0,0.2-0.1c0-0.1,0,0-0.1,0C12.1,2.9,12,2.9,12.1,3.1
		C12,3.1,12,3.1,12.1,3.1z M11.9,5.5c0.1-0.1,0.1-0.2,0-0.3C11.9,5.3,11.9,5.4,11.9,5.5z M7.3,7c0-0.1-0.1-0.1-0.2-0.1c0,0,0,0,0,0
		C7.1,7.1,7.3,6.9,7.3,7z M10.9,5.5c0-0.1,0.1-0.2,0-0.3c0,0,0,0-0.1,0C10.8,5.4,10.9,5.4,10.9,5.5z M6.4,3.8
		C6.5,3.7,6.4,3.7,6.4,3.8c-0.2-0.1-0.2-0.1-0.2,0c0,0.1,0,0.1,0.1,0C6.3,3.8,6.4,3.9,6.4,3.8z M2.8,9.6c0,0.2,0,0.3,0,0.4
		C2.9,9.8,2.9,9.8,2.8,9.6z M10.5,4.3c0,0.1,0,0.2,0.1,0.2c0,0,0,0,0,0C10.6,4.4,10.6,4.3,10.5,4.3z M3.1,6.3C3.1,6.3,3,6.3,3.1,6.3
		C3,6.3,3,6.3,3,6.3C3,6.4,3,6.4,3.1,6.3C3.1,6.4,3.1,6.4,3.1,6.3z M7.6,4.2c0,0-0.1-0.1-0.1-0.1c0,0,0,0,0,0
		C7.5,4.2,7.5,4.2,7.6,4.2z M9.5,4.3C9.5,4.3,9.6,4.3,9.5,4.3c0-0.1,0-0.1-0.1-0.2c0,0,0,0,0,0C9.5,4.2,9.5,4.3,9.5,4.3z M7.3,7.4
		c0,0.1,0,0.1,0.1,0.2C7.4,7.5,7.3,7.5,7.3,7.4z M1.9,7.7C1.9,7.7,1.9,7.7,1.9,7.7c-0.1,0-0.1,0-0.1,0C1.9,7.7,1.9,7.8,1.9,7.7
		C1.9,7.8,1.9,7.7,1.9,7.7z M4.3,5.8C4.2,5.8,4.2,5.7,4.3,5.8C4.2,5.7,4.2,5.8,4.3,5.8C4.2,5.8,4.2,5.8,4.3,5.8
		C4.2,5.8,4.3,5.8,4.3,5.8z M4,6.9C4,6.9,4.1,6.9,4,6.9C4.1,6.9,4,6.9,4,6.9C4,6.9,4,6.9,4,6.9C4,6.9,4,6.9,4,6.9z M4,6.8
		C4,6.8,4,6.8,4,6.8C3.9,6.8,3.9,6.8,4,6.8C4,6.8,4,6.8,4,6.8C4,6.8,4,6.8,4,6.8z M3.3,3.5L3.3,3.5L3.3,3.5L3.3,3.5z M7.3,4.3
		L7.3,4.3L7.3,4.3L7.3,4.3z"/>
	<path class="st1" d="M4,10.1C4,10.2,4,10.2,4,10.1c0.3,0.2,0.4,0.5,0.4,0.8c0,0.1,0.1,0.2,0.2,0.2c0.1,0,0.1-0.1,0-0.3
		c0.1,0.2,0.3,0,0.4,0.1c0.1,0.1,0.2,0.3,0.3,0.3c0.1,0,0-0.2,0.1-0.2c0,0.1,0,0.2-0.1,0.2c0,0.1,0,0.1,0,0.2c0,0.1,0.1,0,0.1,0
		c0.1,0,0.2-0.1,0.3-0.1c0.1,0,0.1-0.1,0-0.2c0,0-0.1-0.1-0.1-0.1c0.1-0.1,0.1,0,0.2,0c0.1,0.1,0.3,0.1,0.2,0.3c0,0,0.1,0.1,0.2,0.2
		c0.1,0.1,0.3,0.1,0.4,0.2c0.1,0.1,0.1-0.1,0.3-0.1c0.2,0,0.4,0.1,0.5-0.2c0,0,0.1-0.1,0.2,0c0.3,0.2,0.6,0.1,1,0
		c0.1,0,0.2-0.1,0.2-0.2c0-0.1,0.2-0.1,0.3-0.2c0.1,0,0.2-0.1,0.3,0.1c0,0.1,0.1,0,0.1,0c0-0.1,0.1-0.1,0.2-0.2
		c0.1,0,0.2-0.2,0.2,0.1C9.9,11,10,11.1,10,11c0.1-0.1,0.3,0,0.4-0.2c0,0,0.1-0.1,0.1,0c0.1,0.2,0.1,0,0.1,0c0-0.1,0-0.2,0.1-0.4
		c0-0.1,0.1-0.2,0.2-0.1c0.1,0.1,0.3,0.3,0.4,0l0,0c0,0.1-0.1,0.2,0,0.3c0.2-0.1,0.4-0.2,0.6-0.2c0.1,0,0.1-0.2,0.2-0.2
		c0,0.1,0,0.2,0,0.2c0.1,0,0.1-0.1,0.1-0.1c0.1-0.1,0.2,0,0.3-0.1c0-0.1,0-0.2,0.1-0.2c0,0,0,0.1,0,0.1c0-0.1,0-0.1,0-0.1
		c0,0,0-0.1,0-0.1c0-0.1-0.1-0.2,0.1-0.3c0.1,0,0.3,0.1,0.3,0.3c0,0,0,0.1,0,0.1c0.1-0.1,0.2-0.3,0.3-0.4c0-0.1,0.1-0.2,0.1-0.2
		c0.3-0.1,0.4-0.3,0.3-0.6c0.1,0.1,0.1,0.2,0.1,0.3C14,9,14.1,8.9,14.1,8.8c0.1-0.2,0.1-0.5,0.1-0.7c0-0.3,0.1-0.6,0.2-0.9
		c0.1,0.1,0.2,0.3,0.4,0.4c0.1,0.1,0.1,0.1,0.1,0.2c0,0.2,0,0.4,0.1,0.6c0,0.1,0,0.2,0,0.3c-0.3,0.5-0.5,1-0.8,1.4
		c-0.2,0.1-0.2,0.3-0.3,0.5c-0.1,0.1-0.1,0.1-0.2,0.1c-0.2-0.1-0.3,0-0.4,0.2c0,0.1-0.1,0.1-0.1,0.2c0,0.1-0.1,0.1-0.2,0.1
		c-0.1,0-0.2,0-0.3-0.1c-0.1,0-0.1,0-0.2,0.1c-0.1,0.1-0.2,0.3-0.2,0.4c-0.1,0-0.2,0.1-0.3,0c-0.4-0.1-0.5-0.1-0.6,0.2
		c0,0.1,0,0.1,0.1,0.1c0.2,0,0.3,0.1,0.4,0.1c0.1,0,0.2,0,0.1,0.2c-0.1,0.2,0,0.2,0.2,0.2c0.1,0,0.1,0,0.2,0c0.2,0,0.2,0.1,0.1,0.2
		c0,0.1,0,0.1,0.1,0.1c0,0,0.1,0,0.1,0c0,0.1-0.1,0.2-0.1,0.4c0,0-0.1,0-0.1,0c-0.2,0-0.3,0.1-0.3,0.3c0,0.2,0.2,0.1,0.2,0.1
		c0,0,0,0.1,0,0.1c-0.1,0.1-0.3,0.2-0.4,0.2c0-0.1,0.2-0.2,0.1-0.3c-0.1-0.1-0.2,0-0.3,0c-0.1,0-0.2,0.1-0.2,0.2
		c0,0.1,0.1,0.1,0.2,0.1c0.1,0,0.1,0,0.2,0c0,0,0,0.1,0,0.1c-0.2,0.2-0.4,0.2-0.6,0.2c0.1-0.3,0.1-0.3-0.2-0.3c-0.1,0-0.2,0-0.2,0
		c0,0-0.1,0-0.1,0c0.1-0.3-0.2-0.2-0.3-0.3c-0.2-0.1-0.4,0-0.5,0.1c-0.1,0.2-0.3,0.2-0.5,0.1c-0.2-0.1-0.3-0.1-0.5,0
		c-0.2,0.1-0.4,0.2-0.6,0c-0.1-0.1-0.3-0.1-0.4,0c-0.2,0.1-0.5,0.2-0.7,0c-0.2-0.1-0.3-0.1-0.4,0c-0.2,0.1-0.5,0.1-0.7-0.1
		c-0.1-0.1-0.2-0.1-0.4-0.1c-0.3,0.1-0.3,0.1-0.6-0.1c-0.1-0.1-0.2-0.1-0.3-0.1c-0.1,0.1-0.2,0.1-0.3,0.1c-0.1,0-0.1,0-0.1,0.1
		c0,0.1,0.1,0.2,0.2,0.1c0,0,0.1,0,0.1,0c0.3-0.1,0.5-0.1,0.7,0.2c0.1,0.1,0.2,0.1,0.3,0.1c0.2-0.1,0.4-0.1,0.6,0
		c0.1,0.1,0.3,0.1,0.5,0C7,14,7.2,14,7.4,14.1c0.2,0.1,0.4,0.1,0.6,0c0.2-0.1,0.4-0.1,0.6,0c0.1,0.1,0.3,0.1,0.4,0
		c0.2-0.1,0.3-0.2,0.5-0.1c0.2,0.1,0.3,0.1,0.5-0.1c0.2-0.2,0.5-0.1,0.7-0.1c0,0,0.1,0,0,0.1c-0.1,0.1,0,0.1,0.1,0.1
		c0.2,0,0.3,0,0.5,0.1c0,0.1-0.1,0.1-0.2,0.2c-0.1,0.1-0.2,0.1-0.3,0.1c-0.1-0.1-0.2-0.1-0.3,0c-0.1,0.1-0.2,0.1-0.3,0.1
		c-0.2,0-0.4,0.1-0.6,0.2c0,0,0,0-0.1,0c-0.2-0.1-0.5-0.1-0.7,0c-0.1,0.1-0.3,0.1-0.4,0c-0.1-0.1-0.3-0.1-0.4,0
		c-0.2,0.1-0.4,0.1-0.7,0c-0.1,0-0.2-0.1-0.4,0c0,0,0,0,0,0c-0.3,0.1-0.5,0.1-0.7-0.1c0,0,0,0-0.1,0c-0.1,0-0.1,0-0.2,0
		c0,0-0.1,0-0.1,0c0,0-0.1,0-0.1,0c-0.3-0.1-0.6-0.2-0.9-0.2c0,0-0.1,0-0.2-0.1c-0.1-0.2-0.3-0.2-0.5-0.2c-0.1,0-0.1,0-0.2,0
		c-0.1-0.2-0.2-0.2-0.3-0.3c0,0-0.1,0-0.1,0c0,0,0,0.1,0,0.1c0.1,0,0.2,0.2,0.4,0.2c0,0,0,0.1,0,0.1c-0.4-0.1-0.7-0.3-1-0.5
		c0.1-0.1,0.2,0.1,0.2,0c0.1-0.1,0.2-0.1,0.3-0.1c0.1,0,0.3,0.1,0.2-0.2c0,0,0-0.1,0.1-0.1c0.3-0.1,0.6-0.3,0.9-0.4
		C5.1,13,5.1,13,5.3,13.3c0.1,0.1,0.1,0.2,0.3,0.1c0.2-0.1,0.4-0.3,0.6,0c0.2,0.2,0.4,0.2,0.7,0c0.2-0.2,0.4-0.1,0.6,0
		c0.2,0.1,0.3,0.2,0.5,0.1c0.2-0.2,0.5-0.2,0.7,0c0.1,0.1,0.2,0.1,0.3,0c0.2-0.2,0.5-0.3,0.7-0.1c0,0,0,0,0,0c0.1,0.1,0.2,0.1,0.3,0
		c0.3-0.3,0.6-0.4,0.9-0.1c0.1,0.1,0.3,0.1,0.5,0.2c0.2,0.1,0.2,0,0.3-0.2c0,0,0-0.1,0-0.1c-0.2-0.1-0.4,0-0.6-0.2
		c-0.2-0.2-0.4-0.2-0.6-0.3c-0.1-0.1-0.2,0-0.2,0.1c-0.3,0.4-0.3,0.4-0.7,0.1c-0.2-0.1-0.3,0-0.4,0.1c-0.3,0.3-0.3,0.3-0.7,0.1
		C8.3,13,8.2,13,8,13.1c-0.1,0.1-0.3,0.3-0.5,0.1c-0.1,0-0.2-0.1-0.2-0.1C7.1,13,7,13,6.8,13.1c-0.3,0.2-0.4,0.2-0.7-0.1
		C6,12.9,5.8,12.9,5.6,13c-0.3,0.2-0.4,0.2-0.6-0.1c-0.1-0.2-0.2-0.1-0.4-0.1c-0.3,0.1-0.5,0.4-0.9,0.4c-0.1,0-0.1,0.1-0.1,0.1
		c0,0.2-0.1,0.2-0.2,0.2c-0.1,0-0.2,0-0.3,0.1c0,0.1,0.1,0.1,0.1,0.2c-0.1,0.1-0.1,0-0.2,0c0,0,0,0,0,0c0,0,0,0-0.1-0.1
		c0-0.1-0.1-0.1-0.1-0.2c0.2,0,0.3,0,0.2-0.2c0-0.1,0.1-0.1,0.1-0.1c0.2,0,0.4,0,0.4-0.2c0,0,0,0,0,0c0.4-0.1,0.6-0.4,1-0.5
		c0.4-0.1,0.3-0.1,0.5,0.2c0,0,0.1,0.1,0.1,0.1c0.1,0.1,0.1,0.1,0.3,0.1c0.4-0.3,0.5-0.3,0.9,0.1c0,0,0,0,0.1,0.1
		c0.1,0.1,0.2,0.1,0.3,0c0.3-0.3,0.6-0.3,0.9,0c0.1,0.1,0.2,0.1,0.3,0c0.4-0.3,0.4-0.3,0.9,0c0.2,0.1,0.3,0.1,0.4,0
		c0.3-0.3,0.4-0.3,0.7-0.2c0.3,0.2,0.3,0.2,0.5-0.1c0,0,0-0.1,0-0.1c0.1-0.1,0.2-0.2,0.3-0.1c0.2,0.1,0.4,0.1,0.5,0.3
		c0,0,0.1,0,0.1,0c0.1,0,0.2,0.1,0.3,0.1c0.1,0,0.2,0.1,0.1,0.2c0,0.1,0,0.1,0.1,0.1c0.1,0,0.1,0,0.2,0c0.2,0,0.3-0.2,0.3-0.3
		c0-0.1-0.2,0-0.2-0.1c0,0-0.1,0-0.1,0c-0.1,0-0.1,0-0.1-0.1c0.1-0.2,0-0.2-0.2-0.3c-0.1,0-0.2,0-0.2-0.1c-0.1,0-0.2,0-0.1-0.2
		c0,0,0-0.1,0-0.1c-0.2,0-0.4-0.1-0.5-0.2c-0.2-0.1-0.3,0-0.4,0.1c-0.1,0.1-0.2,0.2-0.2,0.4c0,0.1-0.1,0.1-0.2,0
		c-0.1-0.1-0.2-0.2-0.4-0.3c0,0-0.1-0.1-0.2,0c-0.1,0.1-0.3,0.2-0.3,0.3c-0.2,0.3-0.2,0.3-0.4,0.1c0,0-0.1-0.1-0.1-0.1
		c-0.3-0.3-0.4-0.3-0.7,0c-0.3,0.3-0.3,0.3-0.6,0C6.9,12,7,12,6.6,12.3c-0.3,0.2-0.3,0.2-0.5-0.1c-0.3-0.3-0.2-0.3-0.6-0.1
		c0,0,0,0,0,0c-0.1,0-0.2,0.2-0.4,0.2c-0.2,0-0.1-0.2-0.2-0.4c-0.1-0.1-0.1-0.2-0.3-0.1C4.4,11.9,4.2,12,4.1,12c0,0-0.1,0-0.1,0.1
		c0,0.2-0.1,0.2-0.2,0.2c-0.1,0.1-0.2,0.1-0.3,0.1c-0.1,0-0.1,0.1-0.1,0.1c0.1,0.2,0,0.2-0.1,0.2c-0.1,0-0.1,0-0.2,0
		c-0.1,0-0.2,0.1-0.1,0.2c0,0,0.1,0.1,0,0.1c-0.3,0-0.3,0.1-0.2,0.3c0,0,0,0,0,0c-0.1-0.1-0.2-0.3-0.1-0.5c0-0.1-0.1-0.2-0.1-0.3
		c0,0,0.1,0,0.1,0c0.1,0,0.3,0.1,0.2-0.2c0-0.1,0-0.1,0.1-0.1c0.1,0,0.2,0,0.2,0c0.1,0,0.2,0,0.1-0.2c0-0.1,0-0.1,0.1-0.1
		c0.1,0,0.3-0.1,0.4-0.2c0.1-0.1,0.2-0.2,0.1-0.4c-0.1-0.1-0.2,0-0.2,0c-0.1,0-0.2,0.1-0.4,0.1c-0.2,0-0.2,0.1-0.1,0.2
		C3,12,3,12,2.9,12c-0.1,0-0.1,0-0.2,0c-0.1,0-0.2,0-0.1,0.2c0,0.1,0,0.1-0.1,0.1c-0.3,0-0.2,0.1-0.2,0.3c-0.1-0.1-0.2-0.2-0.2-0.3
		c0.2,0,0.1-0.1,0.1-0.2C2,12,2.1,12,2.2,12c0.1,0,0.2,0,0.1-0.2c-0.1-0.1,0-0.1,0.1-0.2c0.1,0,0.1,0,0.2,0c0.1,0,0.2,0,0.2-0.1
		c0-0.1,0-0.3-0.2-0.4c-0.1,0-0.3,0-0.4,0.1c-0.1,0-0.1,0.1-0.1,0.1c0.1,0.3,0.1,0.3-0.2,0.3c0,0-0.1,0-0.1,0c0,0.1,0.1,0.1,0.1,0.2
		C2,12,1.9,12,1.9,12c-0.1-0.1-0.2-0.3-0.1-0.5c0.1-0.1,0-0.1-0.1-0.2c0-0.1,0-0.1,0.1-0.1c0.2,0,0.2-0.1,0.1-0.3
		c0,0-0.1-0.1-0.1-0.1c-0.1-0.2-0.2-0.2-0.4-0.1c-0.2,0.1,0,0.2,0,0.3c0,0,0,0.1,0.1,0.1c0.1,0.1,0,0.1-0.1,0.1
		c-0.2-0.1-0.2-0.3-0.2-0.5c0-0.1,0-0.1,0-0.2c0-0.1-0.1-0.2-0.1-0.3c0-0.1,0-0.1-0.1-0.1c-0.1,0-0.2-0.1-0.3-0.2
		C0.6,9.6,0.5,9.2,0.4,8.8c0-0.1-0.1-0.1-0.1-0.2c0-0.1-0.3-0.2,0-0.3c0,0,0,0,0-0.1C0.1,8,0.3,7.9,0.4,7.8c0.1-0.1,0.1-0.1,0.1-0.2
		c0-0.1,0-0.2,0.2-0.2c0.1,0,0.1-0.1,0.1-0.1C0.8,7.1,0.9,7,1,7c0,0.2,0,0.4,0,0.6c0,0.1,0,0.1,0.1,0l0,0c-0.1,0.1,0,0.3,0,0.4
		c0,0.2,0,0.4,0,0.6C1.1,8.8,1.2,9,1.4,9c0.1,0,0,0.1,0.1,0.1c0-0.2,0-0.5,0.1-0.7c0.1,0.1,0.1,0.1,0.1,0.2c-0.1,0.2-0.1,0.4,0,0.6
		c0.1,0,0.1-0.1,0.1-0.2c0-0.2,0-0.4,0-0.6c0,0,0-0.1,0-0.1c0,0,0,0,0,0c0,0.3,0.2,0.5,0.1,0.8c0,0.1-0.1,0.1,0,0.2
		c0,0.1,0,0.1-0.1,0.1c-0.2,0-0.2,0.1-0.1,0.2c0,0.1,0.1,0.1,0,0.2c0,0,0,0,0,0c0.2-0.1,0.2,0.3,0.4,0.3c0.2,0,0.5,0.2,0.7,0.1
		c0.1,0,0.2,0,0.2-0.2c0,0,0-0.1,0.1-0.1C3,10,3,10,3,10.1c0,0.1,0,0.2,0.2,0.2c0.1,0,0.2,0.1,0.2,0.2c0,0.1,0.1,0.3,0.2,0.2
		c0.1,0,0.3-0.1,0.3-0.3C3.9,10.3,3.9,10.2,4,10.1L4,10.1z M4.6,14C4.6,14,4.6,14,4.6,14C4.6,14,4.6,14,4.6,14C4.6,14,4.6,14,4.6,14
		c0-0.2-0.1-0.3-0.3-0.2c-0.1,0-0.1,0-0.2,0.1c-0.1,0-0.2,0-0.1,0.1c0,0.1,0.1,0.1,0.2,0.2C4.3,14.1,4.4,14,4.6,14z M10.6,14.2
		c-0.3-0.1-0.6-0.1-0.8,0.1c-0.1,0.1-0.2,0.1-0.3,0c-0.2-0.1-0.4-0.1-0.5,0c-0.2,0.1-0.3,0.1-0.5,0c-0.1-0.1-0.3-0.1-0.4,0
		c-0.3,0.2-0.5,0.1-0.8-0.1c-0.1,0-0.2,0-0.3,0c-0.2,0.1-0.5,0.2-0.7,0c-0.1-0.1-0.3-0.1-0.4,0c-0.1,0.1-0.2,0.1-0.3-0.1
		c-0.2-0.3-0.4-0.2-0.7-0.1c0,0-0.1,0-0.1,0.1c0,0.1,0,0.1,0.1,0.1c0.1,0,0.2,0,0.3-0.1c0.1-0.1,0.3,0,0.4,0.1
		c0.1,0.2,0.3,0.2,0.5,0.2c0.1,0,0.3,0,0.4,0c0.2,0.1,0.4,0.1,0.5,0c0.2-0.1,0.4-0.1,0.6,0c0.2,0.1,0.3,0.1,0.5,0
		c0.2-0.1,0.3-0.1,0.5,0c0.2,0.1,0.3,0,0.4-0.1c0.2-0.1,0.3-0.1,0.5,0c0.1,0,0.2,0,0.3,0c0.2-0.1,0.3-0.2,0.5-0.1
		C10.5,14.4,10.5,14.3,10.6,14.2z"/>
	<path class="st0" d="M2.6,13.5C2.6,13.5,2.7,13.5,2.6,13.5c0-0.2,0-0.4,0.3-0.3c0.1,0,0-0.1,0-0.1c-0.1-0.1,0-0.2,0.1-0.2
		c0.1,0,0.1,0,0.2,0c0.1,0,0.2,0,0.1-0.2c0-0.1,0-0.1,0.1-0.1c0.1,0,0.2-0.1,0.3-0.1c0.1-0.1,0.3,0,0.2-0.2c0,0,0.1-0.1,0.1-0.1
		c0.2-0.1,0.3-0.1,0.5-0.2c0.2-0.1,0.2,0,0.3,0.1c0.1,0.1,0,0.3,0.2,0.4c0.1,0,0.2-0.1,0.4-0.2c0,0,0,0,0,0c0.4-0.2,0.3-0.2,0.6,0.1
		c0.2,0.3,0.2,0.3,0.5,0.1C7,12,6.9,12,7.3,12.3c0.3,0.3,0.3,0.3,0.6,0c0.3-0.3,0.3-0.3,0.7,0c0,0,0.1,0.1,0.1,0.1
		c0.2,0.2,0.2,0.2,0.4-0.1c0.1-0.1,0.2-0.2,0.3-0.3c0.1-0.1,0.1,0,0.2,0c0.1,0.1,0.3,0.2,0.4,0.3c0.1,0.1,0.1,0.1,0.2,0
		c0.1-0.1,0.2-0.2,0.2-0.4c0.1-0.2,0.2-0.2,0.4-0.1c0.2,0.1,0.3,0.2,0.5,0.2c0,0,0,0,0,0.1c-0.1,0.2,0,0.2,0.1,0.2
		c0.1,0,0.2,0,0.2,0.1c0.1,0,0.3,0.1,0.2,0.3c0,0.1,0,0.1,0.1,0.1c0,0,0.1,0,0.1,0c0.1,0,0.2-0.1,0.2,0.1c0,0.1-0.1,0.3-0.3,0.3
		c-0.1,0-0.1,0-0.2,0c-0.1,0-0.1,0-0.1-0.1c0.1-0.1,0-0.2-0.1-0.2c-0.1,0-0.2,0-0.3-0.1c0,0-0.1,0-0.1,0c-0.1-0.2-0.3-0.2-0.5-0.3
		c-0.2-0.1-0.3,0-0.3,0.1c0,0,0,0.1,0,0.1c-0.2,0.3-0.2,0.3-0.5,0.1c-0.3-0.2-0.3-0.2-0.7,0.2c-0.2,0.2-0.3,0.1-0.4,0
		c-0.4-0.3-0.5-0.3-0.9,0c-0.1,0.1-0.2,0.1-0.3,0c-0.3-0.3-0.6-0.3-0.9,0c-0.1,0.1-0.2,0.1-0.3,0c0,0,0,0-0.1-0.1
		c-0.4-0.4-0.4-0.4-0.9-0.1c-0.1,0.1-0.2,0.1-0.3-0.1c0,0-0.1-0.1-0.1-0.1c-0.2-0.3-0.2-0.3-0.5-0.2c-0.3,0.1-0.6,0.5-1,0.5
		c0,0,0,0,0,0c0,0.3-0.2,0.2-0.4,0.2c-0.1,0-0.2,0-0.1,0.1c0.1,0.2,0,0.3-0.2,0.2c0,0.1,0.1,0.1,0.1,0.2C2.8,13.7,2.7,13.6,2.6,13.5
		z"/>
	<path class="st0" d="M2.9,13.8C2.9,13.8,3,13.8,2.9,13.8c0.1,0,0.2,0.1,0.2,0c0.1-0.1,0-0.1-0.1-0.2c0.1-0.1,0.2,0,0.3-0.1
		c0.1,0,0.3,0,0.2-0.2c0,0,0.1-0.1,0.1-0.1c0.4,0,0.6-0.3,0.9-0.4c0.2,0,0.2-0.1,0.4,0.1c0.2,0.3,0.2,0.3,0.6,0.1
		c0.2-0.1,0.3-0.1,0.5,0.1c0.3,0.3,0.3,0.3,0.7,0.1C7,13,7.1,13,7.3,13.1c0.1,0.1,0.1,0.1,0.2,0.1c0.2,0.1,0.4,0,0.5-0.1
		c0.2-0.2,0.3-0.1,0.4,0c0.4,0.2,0.4,0.2,0.7-0.1C9.3,13,9.4,12.9,9.5,13c0.4,0.3,0.4,0.3,0.7-0.1c0.1-0.1,0.1-0.1,0.2-0.1
		c0.2,0.1,0.4,0.1,0.6,0.3c0.1,0.2,0.4,0.1,0.6,0.2c0,0,0,0.1,0,0.1c0,0.1-0.1,0.2-0.3,0.2c-0.2-0.1-0.3-0.1-0.5-0.2
		c-0.3-0.2-0.6-0.2-0.9,0.1c-0.1,0.1-0.2,0.1-0.3,0c0,0,0,0,0,0c-0.3-0.2-0.5-0.1-0.7,0.1c-0.1,0.1-0.2,0.1-0.3,0
		c-0.2-0.2-0.5-0.2-0.7,0c-0.2,0.2-0.4,0.1-0.5-0.1c-0.2-0.2-0.4-0.2-0.6,0c-0.2,0.2-0.5,0.2-0.7,0c-0.2-0.2-0.4-0.1-0.6,0
		c-0.2,0.1-0.2,0-0.3-0.1C5.1,13,5.1,13,4.7,13.2c-0.3,0.1-0.5,0.4-0.9,0.4c0,0-0.1,0-0.1,0.1c0.1,0.2-0.1,0.2-0.2,0.2
		c-0.1,0-0.2,0-0.3,0.1c0,0.1-0.1-0.1-0.2,0C3,13.9,2.9,13.9,2.9,13.8z"/>
	<path class="st0" d="M12.3,11.6c0-0.2,0.1-0.3,0.2-0.4c0-0.1,0.1-0.1,0.2-0.1c0.1,0,0.2,0,0.3,0.1c0.1,0,0.2,0,0.2-0.1
		c0-0.1,0.1-0.1,0.1-0.2c0.1-0.2,0.2-0.3,0.4-0.2c0.1,0,0.1,0,0.2-0.1c0.1-0.2,0.1-0.4,0.3-0.5c-0.1,0.3-0.2,0.5-0.3,0.7
		c-0.1,0.3-0.3,0.6-0.4,0.9c-0.1,0.2-0.1,0.3-0.3,0.4c-0.1,0-0.2,0-0.3,0c-0.1-0.1,0.1-0.2,0.1-0.3c0-0.1,0-0.1-0.1-0.1
		C12.6,11.6,12.5,11.6,12.3,11.6L12.3,11.6z M13.3,11.2c-0.2-0.1-0.2,0.1-0.3,0.3c-0.1,0.1,0,0.1,0.1,0.1c0.2,0,0.2-0.1,0.3-0.2
		C13.5,11.2,13.5,11.1,13.3,11.2z"/>
	<path class="st0" d="M12.7,12.8c0,0-0.1,0-0.1,0c-0.1,0-0.1,0-0.1-0.1c0-0.1,0-0.2-0.1-0.2c-0.1,0-0.1,0-0.2,0
		c-0.1,0-0.3,0-0.2-0.2c0.1-0.1-0.1-0.1-0.1-0.2c-0.1,0-0.3-0.1-0.4-0.1c-0.1,0-0.1-0.1-0.1-0.1c0.1-0.3,0.2-0.3,0.6-0.2
		c0.1,0.1,0.2,0,0.3,0c0,0,0,0,0,0c-0.1,0.4-0.1,0.4,0.3,0.5c0.1,0,0.1,0,0.1,0.1c0,0.1-0.1,0.1,0,0.2c0.1,0.1,0.2,0,0.3,0
		c0,0,0-0.1,0.1-0.1C13,12.5,12.9,12.7,12.7,12.8z"/>
	<path class="st0" d="M2.3,12.7c0-0.2-0.1-0.3,0.2-0.3c0.1,0,0.1,0,0.1-0.1c-0.1-0.2,0-0.2,0.1-0.2c0.1,0,0.1,0,0.2,0
		C3,12,3,12,3,11.9c-0.1-0.2,0-0.2,0.1-0.2c0.1,0,0.2-0.1,0.4-0.1c0.1,0,0.2-0.1,0.2,0c0.1,0.2,0.1,0.4-0.1,0.4
		c-0.1,0.1-0.3,0.1-0.4,0.2c-0.1,0-0.1,0.1-0.1,0.1c0.1,0.2,0,0.2-0.1,0.2c-0.1,0-0.2,0-0.2,0c0,0-0.1,0-0.1,0.1
		c0.1,0.2-0.1,0.2-0.2,0.2c0,0-0.1,0-0.1,0C2.3,12.8,2.3,12.7,2.3,12.7z"/>
	<path class="st0" d="M1.9,12c0.1,0,0.2,0,0.1-0.1c0-0.1-0.1-0.1-0.1-0.2c0,0,0.1,0,0.1,0c0.3,0,0.3,0,0.2-0.3c0-0.1,0-0.1,0.1-0.1
		c0.1,0,0.3-0.1,0.4-0.1c0.2,0,0.2,0.2,0.2,0.4c0,0.1-0.1,0.1-0.2,0.1c-0.1,0-0.1,0-0.2,0c-0.1,0-0.2,0.1-0.1,0.2
		C2.5,12,2.4,12,2.2,12c-0.1,0-0.2,0-0.1,0.2c0,0.1,0.1,0.2-0.1,0.2C1.9,12.3,2,12.1,1.9,12z"/>
	<path class="st1" d="M13,12.3C12.9,12.3,12.9,12.4,13,12.3c-0.2,0.1-0.3,0.1-0.4,0.1c-0.1-0.1,0-0.1,0-0.2c0-0.1,0.1-0.1-0.1-0.1
		c-0.4-0.1-0.4-0.1-0.3-0.5c0.2,0,0.3,0.1,0.5,0.1c0,0,0.1,0,0.1,0.1c0,0.1-0.2,0.2-0.1,0.3c0.1,0.1,0.2,0,0.3,0
		C13.1,12.1,13,12.2,13,12.3z"/>
	<path class="st0" d="M4,14.4c0.1,0,0.1,0,0.2,0c0.2,0,0.4,0,0.5,0.2c0,0,0.1,0.1,0.2,0.1c0.3-0.1,0.6,0.1,0.9,0.2
		c0,0.1-0.1,0.1-0.2,0.1C5.1,14.8,4.6,14.7,4,14.4C4.1,14.5,4.1,14.4,4,14.4C4,14.4,4,14.4,4,14.4z"/>
	<path class="st0" d="M1.5,11.2c0.1,0,0.1,0,0.1-0.1c0,0-0.1-0.1-0.1-0.1c0-0.1-0.2-0.2,0-0.3c0.1-0.1,0.3-0.1,0.4,0.1
		c0,0.1,0,0.1,0.1,0.1C2,11.1,2,11.2,1.8,11.2c-0.1,0-0.1,0-0.1,0.1C1.6,11.3,1.5,11.2,1.5,11.2z"/>
	<path class="st0" d="M7,14.8c0.1,0,0.2,0,0.4,0c0.2,0.1,0.4,0.1,0.7,0c0.1,0,0.3,0,0.4,0c0.1,0.1,0.3,0.1,0.4,0
		c0.2-0.1,0.5-0.1,0.7,0c-0.1,0.1-0.3,0.1-0.4,0.1c-0.3,0-0.6,0.1-0.8-0.1c-0.1,0-0.2,0-0.3,0.1C7.6,15,7.3,14.8,7,14.8z"/>
	<path class="st0" d="M11.1,14.4c0.1-0.1,0.2-0.1,0.2-0.2l0,0c0.2,0,0.4,0,0.6-0.2c0,0,0.1-0.1,0-0.1l0,0c0.2,0,0.3-0.1,0.4-0.2
		c0,0.1-0.1,0.1-0.1,0.2C11.9,14.1,11.6,14.3,11.1,14.4C11.2,14.4,11.1,14.4,11.1,14.4z"/>
	<path class="st0" d="M9.6,14.8c0.2-0.1,0.4-0.2,0.6-0.2c0.1,0,0.3,0,0.3-0.1c0.1-0.2,0.2-0.1,0.3,0C10.4,14.7,10,14.8,9.6,14.8z"/>
	<path class="st0" d="M12.4,13.6c0-0.1-0.2,0-0.2-0.1c0-0.1,0.1-0.3,0.3-0.3c0,0,0.1,0,0.1,0C12.5,13.3,12.5,13.5,12.4,13.6z"/>
	<path class="st1" d="M7.2,0.1c0,0.2-0.3,0.3-0.4,0.3C6.7,0.3,6.5,0.3,6.3,0.3c0.1-0.1,0.2-0.1,0.4,0C6.9,0.3,7,0.3,7.2,0.1
		C7.2,0.1,7.2,0.1,7.2,0.1z"/>
	<path class="st0" d="M6.2,14.7C6.2,14.7,6.2,14.7,6.2,14.7c0.3,0.2,0.5,0.2,0.8,0.1C6.7,15,6.5,15,6.2,14.7z"/>
	<path class="st1" d="M1.8,3.5C2,3.4,2,3.3,2.1,3.2c0,0,0,0,0,0C2,3.4,2,3.6,1.8,3.6C1.8,3.5,1.8,3.5,1.8,3.5z"/>
	<path class="st0" d="M5.9,14.8C5.9,14.7,6,14.8,5.9,14.8C6,14.8,5.9,14.8,5.9,14.8z"/>
	<path class="st1" d="M12.8,2.5C12.8,2.5,12.8,2.5,12.8,2.5C12.8,2.5,12.8,2.5,12.8,2.5z"/>
	<path class="st2" d="M6.2,3.3C5.8,3.2,5.5,3,5.3,2.7C5.2,2.6,5,2.5,5.2,2.4c0,0,0-0.1-0.1-0.1C5,2.3,5,2.2,5,2.1
		c0-0.5,0.3-0.8,0.6-1c0.4-0.3,0.9-0.4,1.4-0.5c0.3,0,0.5-0.1,0.8,0c0.7,0.1,1.3,0.2,1.9,0.6c0.5,0.4,0.6,0.8,0.5,1.3
		c-0.1,0.4-0.5,0.6-0.8,0.8C9,3.5,8.5,3.6,8,3.6c-0.4,0-0.9,0-1.3-0.1C6.5,3.5,6.3,3.4,6.2,3.3c0,0,0.1,0,0.1,0
		C6.2,3.3,6.2,3.3,6.2,3.3C6.2,3.3,6.2,3.3,6.2,3.3c0-0.1,0-0.1-0.1-0.1c0,0,0,0,0,0C6.1,3.3,6.1,3.2,6.2,3.3
		C6.2,3.3,6.2,3.3,6.2,3.3z M5.5,2.8C5.5,2.8,5.5,2.8,5.5,2.8C5.5,2.8,5.5,2.8,5.5,2.8C5.5,2.8,5.5,2.8,5.5,2.8
		C5.5,2.9,5.6,2.9,5.5,2.8C5.6,2.9,5.6,2.9,5.6,3C5.7,3,5.7,3,5.8,3c0,0,0,0,0,0c0,0,0,0,0,0c0,0,0,0-0.1,0C5.8,3,5.7,3,5.6,3
		C5.6,2.9,5.6,2.9,5.5,2.8C5.6,2.9,5.6,2.8,5.5,2.8z M5.3,1.6c-0.1,0-0.1,0.1-0.1,0.2C5.3,1.8,5.3,1.7,5.3,1.6
		c0.1,0,0.1-0.1,0.1-0.1c0.1,0,0.2-0.1,0.2-0.2c0,0,0,0,0,0c0,0,0,0,0,0c0,0,0,0,0,0c-0.1,0-0.2,0.1-0.2,0.2
		C5.3,1.5,5.3,1.6,5.3,1.6z M5.4,2.7C5.4,2.7,5.4,2.8,5.4,2.7C5.4,2.7,5.4,2.7,5.4,2.7c0-0.1,0-0.1-0.1-0.2C5.3,2.6,5.3,2.7,5.4,2.7
		z M8,1.6C8,1.6,8.1,1.6,8,1.6c0.2,0,0.3,0,0.3-0.1c0-0.1-0.1,0-0.2,0c0,0-0.1,0-0.1,0C7.9,1.3,7.8,1.2,7.6,1.2c0,0-0.1,0-0.1,0
		c0,0-0.1,0-0.1,0c0,0,0,0,0,0c0,0,0,0,0,0c0,0,0,0,0,0c0,0.1,0,0.2,0,0.2c0,0.1,0.1,0.2,0,0.2C7.2,1.7,7.2,1.6,7.1,1.6c0,0,0,0,0,0
		c0,0.1,0,0.1,0.1,0.1c0.1,0.1,0.1,0.2,0.2,0.1c0.1,0,0.1-0.1,0.1-0.2c0,0,0-0.1,0-0.1c0.1,0,0.1,0,0.2,0.1c0.1,0.2,0.3,0.3,0.5,0.3
		c0.1,0,0.2,0,0.3,0c0.1,0,0-0.1,0-0.2c0,0,0-0.1,0-0.1c0,0,0.1,0,0.1,0C8.8,1.7,8.8,1.9,9,1.9c0.1,0,0.3,0.1,0.4,0
		c-0.2,0-0.3-0.1-0.4,0c0-0.1-0.1-0.3,0-0.4c0,0,0-0.1,0-0.1c0,0-0.1,0-0.1,0C8.9,1.4,8.9,1.5,8.9,1.6c0,0,0,0,0,0.1
		C8.8,1.6,8.7,1.6,8.8,1.4C8.6,1.5,8.5,1.5,8.5,1.3c0,0,0-0.1,0-0.1c-0.1,0-0.1,0-0.1,0.1c0,0.1,0,0.2,0,0.3c0,0.1,0,0.1-0.1,0.2
		c-0.1,0-0.2,0-0.2,0C8,1.7,8,1.7,8,1.6C8,1.6,8,1.6,8,1.6C8,1.6,8,1.6,8,1.6z M6.5,2.7C6.4,2.5,6.4,2.4,6.4,2.2c0,0,0-0.1,0-0.1
		c0,0-0.1,0-0.1,0.1c-0.1,0.1,0,0.3-0.1,0.4C6.1,2.4,6,2.4,5.8,2.2c0,0.2,0,0.3,0,0.5c0.1,0,0-0.1,0-0.1c0-0.1,0-0.2,0.1-0.3
		C6,2.4,6,2.5,6.1,2.6c0.1,0.1,0.1,0.2,0.3,0.2c0.2,0,0.3,0.1,0.5-0.1C7,2.7,7,2.5,7.1,2.4c0.1,0.1,0.1,0.3,0.3,0.3
		C7.2,2.6,7.2,2.3,7.3,2.1c0.1-0.1,0.2-0.1,0.3,0c0.1,0.1,0.2,0,0.2,0c0,0.2,0,0.4,0,0.6c0,0,0,0.1,0,0.1c0,0,0.1,0,0.1,0
		c0.1,0,0-0.1,0-0.1c0-0.1-0.1-0.2,0.1-0.2c0.2-0.1,0.2,0,0.2,0.2c0,0,0,0.1,0.1,0.1c0.1,0,0.1,0,0.1-0.1c0-0.2,0-0.4,0-0.6
		c0,0,0,0,0,0c0,0-0.1,0-0.1,0c0,0-0.1,0-0.1,0c0,0,0,0.1,0,0.1c0.1,0.2,0,0.2-0.2,0.2l0,0l0,0C8,2.3,8,2.2,8,2.2C8.1,2,8,2,7.9,2
		C7.8,2,7.7,2,7.6,2C7.5,2,7.3,2,7.3,2.1c-0.1,0-0.1,0.2-0.2,0.2C7,2,6.8,1.9,6.6,2c0.3,0,0.4,0.1,0.4,0.2c0,0.2,0,0.3-0.2,0.4
		C6.7,2.7,6.6,2.7,6.5,2.7z M9.8,2.8C9.7,2.6,9.5,2.5,9.4,2.4c0,0-0.1,0-0.1,0c0,0,0,0,0,0.1C9.5,2.6,9.5,2.8,9.8,2.8
		c0,0.2-0.2,0.1-0.2,0.3C9.8,3,9.9,2.8,10,2.6C9.9,2.7,9.9,2.8,9.8,2.8z M6.5,1.8c-0.1,0-0.1-0.1-0.1-0.1c0.1-0.1,0-0.3,0.1-0.4
		c0,0,0.1,0,0.1,0c0.1,0,0.1,0.1,0.1,0c0-0.1-0.1-0.1-0.2-0.1c0,0,0,0-0.1,0C6.3,1.3,6.4,1.5,6.3,1.7C6.3,1.8,6.3,1.9,6.5,1.8
		c0,0.1,0.1,0.1,0.1,0.1c0.1,0,0.2,0,0.3,0c0,0,0.1,0,0.1-0.1C6.9,1.7,7,1.5,6.9,1.4c0,0,0.1-0.2,0-0.2c-0.1,0,0,0.1-0.1,0.2
		C6.8,1.6,6.9,1.8,6.5,1.8C6.6,1.8,6.5,1.8,6.5,1.8z M5.9,1.4c0,0.1,0,0.2,0,0.3c0,0.1,0,0.1,0.1,0.1c0.1,0,0.1-0.1,0.1-0.1
		C6,1.6,6,1.4,6,1.3c0,0,0.1,0,0.1,0c0.1,0,0.1,0,0.1,0c0-0.1-0.1-0.1-0.1-0.1c-0.1,0-0.1,0-0.1,0c0,0-0.1,0-0.1,0
		C5.8,1.2,5.9,1.3,5.9,1.4z M8.7,2.8c0.1,0.1,0.1,0,0.2,0c0.1,0,0.1,0,0.1-0.1c0-0.1-0.1,0-0.1,0C8.9,2.7,8.8,2.7,8.7,2.8
		C8.7,2.7,8.7,2.6,8.7,2.5c0-0.1,0.2,0,0.2-0.2c-0.2,0-0.3,0-0.2-0.2c0-0.1,0-0.1-0.1-0.1c-0.1,0-0.1,0-0.1,0.1c0,0.2,0.1,0.3,0,0.5
		C8.6,2.8,8.6,2.8,8.7,2.8z M9.3,2C9.2,2.1,9,2,9,2.1c0,0.2,0,0.5,0.1,0.7c0,0,0.1,0,0.1,0.1c0,0,0,0,0,0c-0.1-0.1,0-0.3,0-0.4
		C9.2,2.2,9.2,2.2,9.3,2z M9.4,1.9c0.2,0,0.2-0.1,0.2-0.3c0-0.1,0-0.2-0.2-0.3C9.5,1.5,9.6,1.7,9.4,1.9z M9.3,3.2
		c-0.2,0-0.4,0.1-0.5,0.2C9,3.4,9.1,3.3,9.3,3.2z M8,0.7c-0.3-0.1-0.5-0.1-0.7,0C7.5,0.7,7.7,0.7,8,0.7z M10.3,2.1
		c-0.1,0.2-0.2,0.3-0.2,0.5C10.2,2.4,10.3,2.3,10.3,2.1z M9.3,2.1c0,0.1,0.1,0.1,0.1,0.1c0,0,0,0.1,0.1,0.1c0.1,0,0-0.1,0-0.2
		C9.5,2,9.4,2,9.3,2.1z M5.9,1.1C6,1.1,6.1,1,6.3,0.9C6.1,0.9,6,1,5.9,1.1z M8,3.6c-0.2,0-0.3-0.1-0.5,0C7.6,3.6,7.8,3.6,8,3.6z
		 M6.5,3.4c-0.1-0.1-0.1-0.1-0.2,0C6.4,3.4,6.4,3.4,6.5,3.4z M6,2c-0.1,0-0.2,0-0.2,0.1C5.8,2.1,5.9,2.1,6,2z M5.8,1.2
		C5.8,1.2,5.8,1.2,5.8,1.2C5.7,1.2,5.7,1.2,5.8,1.2C5.7,1.2,5.7,1.2,5.8,1.2C5.7,1.2,5.8,1.2,5.8,1.2z M5.9,3.2C6,3.1,6,3.1,5.9,3.2
		C6,3.1,5.9,3.1,5.9,3.2C5.9,3.1,5.9,3.1,5.9,3.2C5.9,3.1,5.9,3.1,5.9,3.2z"/>
	<path class="st1" d="M3.1,5.8c0,0.1,0.1,0.2,0,0.2C3,6,3.1,6.1,3.1,6.1l0,0C3,6.1,3,6.2,2.9,6.2C2.8,6.3,2.6,6.3,2.4,6.3
		c0-0.1,0-0.1,0.1-0.2c0,0,0-0.1,0-0.1C2.4,6,2.4,6,2.3,6C2.3,6.2,2.3,6.3,2.2,6.4C2.1,6.5,2,6.6,2.1,6.7c0,0,0,0.1,0,0.1
		C1.8,6.7,1.8,7,1.7,7.1C1.5,7,1.6,6.9,1.7,6.7C1.8,6.5,1.8,6.3,1.9,6c0-0.1,0.1,0,0.1,0c0,0,0,0,0,0c0,0,0,0,0,0C2,6,2,5.9,2,5.9
		c0-0.2,0.1-0.4,0.3-0.5c0.1,0.1,0.1,0.2,0.3,0.1C2.7,5.3,2.8,5.2,2.9,5c0,0,0.2-0.1,0.1-0.1c0,0-0.2-0.1-0.3,0C2.7,4.9,2.6,5,2.5,5
		l0,0c0-0.1,0.1-0.2,0.1-0.2C2.9,4.5,3,4.1,3.4,3.9c0.1-0.1,0.2-0.1,0.1-0.3c0,0,0.1-0.1,0.1-0.3c0-0.1,0-0.1-0.1-0.2
		c-0.2,0-0.1-0.1,0-0.2c0.1-0.1,0.2-0.2,0.3-0.4c0-0.1,0-0.2-0.1-0.1c-0.1,0-0.2,0.1-0.3,0c0,0.1,0,0.1,0.1,0.1c0,0,0.2,0.1,0,0.1
		C3.3,2.9,3,2.8,3,2.9C3,3.2,2.7,3.1,2.6,3.2c0-0.1,0.1-0.1,0.1-0.1c0.2-0.1,0.3-0.2,0.3-0.5c0-0.2,0.2-0.4,0.4-0.4
		c0.1,0,0.2,0,0.2-0.1c0-0.1,0.2-0.1,0.3,0c0.1,0,0.1,0.1,0,0.2c0,0.1,0,0.1,0,0.2C3.9,2.6,4,2.7,4,2.8c0,0.1,0,0,0.1,0
		c0-0.1,0,0,0.1,0c0,0,0.1,0.1,0,0.1C4.1,3,4.2,3.1,4.2,3.3c0.1,0.2,0.2,0.4,0.3,0.6c0.1,0.2,0,0.3-0.2,0.3C4.2,4.1,4.1,4.2,4,4.2
		c0,0.1,0.1,0,0.2,0C4.1,4.4,3.8,4.4,3.7,4.6c-0.1,0.2-0.2,0.4,0,0.6C3.5,5,3.1,5.1,3,5.3C2.9,5.3,2.9,5.4,3,5.4
		c0.2,0,0.2,0.2,0.2,0.3C3.2,5.7,3.2,5.7,3.1,5.8c0-0.1,0-0.1,0-0.1c0,0,0,0,0,0c0,0,0,0,0,0C3,5.7,3,5.8,3.1,5.8z M4.4,3.9
		C4.3,3.7,4.2,3.4,3.9,3.4c0,0-0.1,0-0.1,0c0,0,0,0.1,0,0.1C3.8,3.7,4.3,3.9,4.4,3.9z M3.4,4.7C3.4,4.7,3.5,4.7,3.4,4.7
		C3.5,4.7,3.5,4.7,3.4,4.7C3.4,4.7,3.4,4.7,3.4,4.7C3.4,4.7,3.4,4.7,3.4,4.7z"/>
	<path class="st1" d="M4.3,5.3c0,0,0-0.1,0-0.1C4.3,5.2,4.3,5.2,4.3,5.3c0.1-0.1,0-0.2,0-0.2C4.3,5,4.4,5,4.3,4.9
		c0.1,0.1,0.1,0.2,0.2,0c0-0.1,0.1-0.1,0.2-0.2c0.2,0,0.3-0.1,0.2-0.3C4.8,4.2,4.8,4,5,3.9c0,0,0.1-0.1,0-0.1C5,3.8,5,3.8,5,3.8
		c0.1-0.1,0.2-0.2,0.4-0.3c0,0.1-0.2,0.2,0,0.3c0.1,0.1,0.1,0.2,0.2,0.2c0.1,0.1,0.1,0.3,0,0.4C5.4,4.5,5.3,4.7,5,4.8
		c0,0,0,0.1-0.1,0.1C4.9,5.2,4.7,5.4,4.5,5.7C4.4,5.5,4.2,5.5,4.3,5.3C4.3,5.3,4.3,5.4,4.3,5.3C4.4,5.3,4.3,5.3,4.3,5.3z"/>
	<path class="st1" d="M4.3,2.1c0,0,0,0.1,0.1,0.1c0.3-0.1,0.3,0,0.3,0.2c-0.1-0.2-0.2-0.1-0.3,0c0.4,0,0.5,0,0.4-0.2
		C5,2.6,5.2,3,5.4,3.2c-0.2,0-0.3,0-0.5,0c0.2,0.2,0.2,0.2,0,0.4c-0.1-0.2,0-0.4-0.3-0.5C4.4,3.2,4.4,3,4.4,2.8
		c0-0.2-0.1-0.2-0.2-0.2c0,0-0.1,0-0.1-0.1C4.1,2.4,4.2,2.3,4.3,2.1C4.2,2.1,4.2,2.1,4.3,2.1C4.3,2.1,4.3,2.1,4.3,2.1z M4.8,2.6
		c-0.2,0-0.3,0.1-0.2,0.3c0,0,0,0.1,0,0.1c0,0.1,0,0.1,0.1,0.1c0,0,0.1,0,0.1,0c0,0,0.1-0.1,0-0.2C4.7,2.9,4.7,2.7,4.8,2.6z"/>
	<path class="st2" d="M7.4,5.1c-0.1,0.2,0,0.3,0.1,0.4C7.7,5.6,7.7,5.8,7.7,6c0,0.2,0,0.5,0.2,0.6C8,6.7,8,6.8,8.2,6.9
		c0,0,0,0.1,0,0.1C8.1,7,8,7,8,7c0,0-0.1-0.1-0.1-0.1C7.8,6.6,7.6,6.5,7.5,6.3c0-0.1-0.1-0.1-0.1-0.2c0-0.3-0.2-0.5-0.1-0.8
		c0,0,0-0.1,0-0.1C7.1,5.1,7.2,5,7.3,4.9c0.1-0.1,0-0.1,0-0.2c0.2,0,0.3-0.1,0.2-0.3c0.2,0.1,0.1,0.3,0.2,0.4l0,0c0,0-0.2,0-0.1,0.1
		c0.1,0.1,0,0.2,0.1,0.3C7.7,5.1,7.5,5.2,7.4,5.1C7.5,5.1,7.5,5.1,7.4,5.1c0,0,0-0.1-0.1-0.1c0,0-0.1,0-0.1,0.1
		C7.3,5.1,7.4,5.1,7.4,5.1z M7.6,6.1C7.6,6.1,7.6,6.1,7.6,6.1C7.6,6.1,7.6,6.1,7.6,6.1C7.6,6.1,7.5,6.1,7.6,6.1
		C7.5,6.1,7.6,6.1,7.6,6.1z"/>
	<path class="st1" d="M3.7,6.9c0.1,0,0.1-0.1,0.1,0c0.1,0.2,0,0.4,0.1,0.5c0,0.1-0.2,0.1-0.2,0.1c-0.1,0-0.2-0.1-0.2-0.2
		c0,0,0-0.1-0.1,0c0,0-0.1,0,0-0.1c0-0.1,0.1-0.1,0.2-0.2C3.5,7,3.6,6.9,3.6,6.7c-0.1-0.2,0-0.3,0-0.5c0-0.1,0.1-0.3,0.2-0.4
		c0,0,0,0,0,0c0,0.1,0.2,0,0.1,0.1C3.8,6,3.7,6.2,3.9,6.3c0,0,0,0.1,0,0.1C3.6,6.5,3.7,6.8,3.7,6.9z"/>
	<path class="st2" d="M10.5,4.7c-0.1,0-0.2-0.1-0.3,0.1c0,0-0.1,0-0.1,0C10,4.4,9.7,4.3,9.6,4c0.1-0.2,0.3-0.3,0.4-0.4
		c0,0,0.1-0.1,0.1-0.1c0,0,0.1,0,0.1,0c0,0,0,0.1,0,0.1c0,0-0.1,0-0.1,0.1c0,0-0.1,0.1,0,0.1c0,0,0.1,0,0.1,0c0-0.1,0.1-0.1,0.2-0.1
		c0.1,0.1,0.1,0.2,0.1,0.2c0,0.1,0,0.1,0,0.2c-0.1,0.1-0.1-0.1-0.2-0.1c-0.2,0-0.2,0-0.2,0.2c-0.1,0-0.1-0.1-0.2-0.1
		c0,0.2,0.1,0.3,0.2,0.2c0.1,0,0.1,0,0.2,0c0.1,0.1,0,0.1,0,0.1C10.3,4.6,10.5,4.6,10.5,4.7L10.5,4.7z"/>
	<path class="st2" d="M11.5,4.4c0,0,0,0.1,0.1,0.1c0.1-0.2-0.1-0.3-0.1-0.4c0,0-0.1-0.1-0.1-0.1c0,0,0-0.1,0-0.1c0,0,0.1,0,0.1,0
		c0.1,0.1,0.3,0.3,0.5,0.3c0,0,0,0,0,0.1c0,0,0,0,0,0.1c0,0,0.1,0,0.1,0c0.2-0.2,0.3,0,0.3,0.1c0.1,0.1,0.2,0.2,0.2,0.3
		c0,0,0.1,0.1,0,0.2c-0.1,0-0.1,0.1-0.2,0c-0.1-0.1-0.3-0.2-0.3-0.4c0,0,0-0.1-0.1-0.1c-0.1,0-0.1,0.1,0,0.1c0,0,0,0.1,0,0.1
		c0,0.1,0,0.1-0.1,0.1C11.6,4.8,11.5,4.6,11.5,4.4C11.5,4.4,11.5,4.4,11.5,4.4z"/>
	<path class="st2" d="M8.1,4.6c0.1,0,0.3,0.2,0.4,0.3c0.1,0.2,0.1,0.4,0.2,0.6c0.1,0.2,0.2,0.5,0.2,0.8C9,6.6,9,6.8,9.2,7
		c0,0,0.1,0.1,0,0.1c-0.1,0-0.1,0-0.1,0C8.9,6.8,8.8,6.6,8.7,6.3c0-0.1,0.1-0.3,0-0.4c0,0,0-0.1-0.1-0.1C8.5,5.4,8.3,5,8.1,4.6z"/>
	<path class="st1" d="M8.1,4.6C8.3,5,8.5,5.4,8.6,5.8c-0.1,0,0,0.1-0.1,0.1C8.4,5.8,8.4,5.7,8.2,5.6c-0.1,0-0.1-0.2-0.1-0.3
		C8,5.1,8,4.9,7.9,4.7c-0.1-0.1-0.1-0.3,0-0.4c0,0,0,0,0,0c0,0,0,0,0,0.1l0,0c0,0.1,0,0.1,0,0.1l0,0C8,4.6,8.1,4.6,8.1,4.6z"/>
	<path class="st1" d="M2,5c0-0.1,0.1-0.2,0.2-0.4C2.3,4.4,2.4,4.2,2.5,4c0-0.1-0.1,0.1-0.1,0c0-0.1,0-0.2,0-0.2
		c0.2-0.1,0.3-0.2,0.5-0.2c-0.2,0.3-0.3,0.7-0.5,1C2.3,4.7,2.2,4.9,2,5C2,5,2,5,2,5z"/>
	<path class="st2" d="M13,4.3c0.2,0.3,0.3,0.6,0.4,1c0,0.2,0.1,0.4,0.1,0.6c0,0.1,0,0.1-0.1,0.1c-0.1,0-0.1-0.1-0.1-0.1
		c0,0,0,0,0-0.1c0.2-0.3,0.1-0.6,0-1C13.1,4.7,13,4.5,13,4.3z"/>
	<path class="st2" d="M12.5,3.9c0.2,0.2,0.3,0.4,0.3,0.7c0,0.1,0,0.1,0.1,0.2c0,0,0.1,0,0.1,0.1c0,0.3,0.1,0.5,0.1,0.8
		c0,0,0.1,0.1,0,0.1c-0.1,0-0.1,0-0.1-0.1c0-0.1-0.1-0.2,0-0.3c0-0.4-0.2-0.7-0.3-1C12.6,4.2,12.5,4,12.5,3.9z"/>
	<path class="st1" d="M9.2,10.6C9.2,10.6,9.2,10.5,9.2,10.6c0-0.2,0.1-0.2,0.2-0.2c0.1,0,0.1,0.1,0.1,0.2c0,0.1-0.1,0.2-0.2,0.3
		c0,0-0.1,0.2-0.1,0.1c0-0.1-0.2,0-0.1-0.2c0-0.1,0-0.3,0-0.5c0,0,0-0.1,0.1-0.1c0.1,0,0,0.1,0,0.1C9.1,10.4,9.1,10.5,9.2,10.6z"/>
	<path class="st1" d="M1.6,5.7C1.6,5.7,1.6,5.6,1.6,5.7c0-0.2,0-0.4,0.1-0.6C1.8,4.9,1.9,4.9,2,5c0,0,0,0,0,0c0,0.3-0.2,0.5-0.2,0.8
		c0,0,0,0.1-0.1,0.1C1.6,5.9,1.5,5.8,1.6,5.7C1.6,5.7,1.7,5.7,1.6,5.7c0.1,0,0.1,0,0.1-0.1C1.7,5.6,1.7,5.6,1.6,5.7
		C1.7,5.6,1.7,5.6,1.6,5.7z"/>
	<path class="st2" d="M10.8,5.9c-0.1-0.1-0.1-0.2-0.1-0.2c-0.1-0.1-0.2-0.2-0.2-0.4c0-0.1,0-0.3-0.2-0.3c0,0,0,0,0-0.1
		c0-0.1,0-0.1,0.1-0.1c0.1,0,0.1,0,0.1,0.1C10.6,5.3,10.8,5.6,10.8,5.9z"/>
	<path class="st1" d="M1.8,4.3c0.1,0,0.2,0.1,0.1,0.1C1.8,4.6,1.8,4.8,1.7,4.8c-0.1,0-0.1-0.1-0.1-0.2c0-0.2,0.1-0.4,0.2-0.5
		C1.8,4,1.9,4,2,4.1c0,0,0.1,0,0.1,0.1C2,4.2,2,4.2,1.9,4.2C1.8,4.2,1.7,4.2,1.8,4.3C1.7,4.3,1.7,4.4,1.8,4.3
		C1.7,4.4,1.7,4.4,1.8,4.3C1.8,4.4,1.8,4.4,1.8,4.3z"/>
	<path class="st1" d="M4.3,2C4.1,2.1,4.2,1.8,4,1.9l0,0c0-0.1,0.1-0.1,0.1-0.2c0.1-0.1,0.2,0,0.2-0.2c0-0.1,0.1-0.1,0.1,0
		C4.7,1.7,4.5,2.1,4.3,2C4.3,2.1,4.3,2.1,4.3,2C4.3,2.1,4.3,2.1,4.3,2C4.3,2,4.3,2,4.3,2C4.3,2,4.3,2,4.3,2C4.3,2,4.3,2,4.3,2z
		 M4.4,1.9C4.4,1.9,4.4,1.9,4.4,1.9C4.4,1.9,4.4,1.9,4.4,1.9C4.4,2,4.4,2,4.4,1.9C4.4,2,4.4,1.9,4.4,1.9z"/>
	<path class="st1" d="M5.2,5.9C5.1,5.9,5.1,5.8,5.2,5.9c0-0.2-0.1-0.4,0-0.6c0-0.1-0.1-0.2,0-0.3c0,0,0-0.1,0-0.1c0,0,0.1,0,0.1,0.1
		c0,0.1,0.1,0.1,0,0.2c0,0,0,0.1,0,0.1C5.3,5.5,5.3,5.7,5.2,5.9L5.2,5.9z"/>
	<path class="st1" d="M7.5,4C7.4,4,7.4,4.2,7.2,4.1C7,4,6.8,4,6.7,3.8c0,0,0-0.1,0-0.1c0,0,0.1,0,0.1,0C7,3.8,7.2,3.8,7.5,4z"/>
	<path class="st1" d="M5.6,3.5c0.1-0.1,0.6,0,0.6,0.1c0,0,0,0.1,0,0.1C6.1,3.8,5.9,3.8,5.8,3.8c0,0-0.1,0-0.1-0.1
		C5.7,3.6,5.6,3.6,5.6,3.5z"/>
	<path class="st1" d="M4,9.4C4,9.5,3.9,9.5,3.8,9.6c-0.1,0-0.2,0-0.3,0.1c0,0-0.1,0-0.1,0c0,0,0-0.1,0-0.1c0.1-0.1,0.1-0.3,0.2-0.4
		c0-0.1,0.1-0.1,0.1,0C3.9,9.2,4,9.3,4,9.4z"/>
	<path class="st2" d="M9.7,4.5c0.1,0,0.1,0,0.1,0.1C9.9,4.8,10,5,10.1,5.2c0,0.1,0,0.2,0.1,0.2c0.1,0,0.1,0.1,0,0.1
		c-0.1,0-0.1,0-0.1-0.1C10.1,5.3,10,5.1,9.9,4.9C9.8,4.8,9.8,4.6,9.7,4.5C9.6,4.5,9.6,4.5,9.7,4.5C9.6,4.5,9.7,4.5,9.7,4.5z"/>
	<path class="st1" d="M9.1,8.7c0.2,0.3,0.2,0.7,0,0.9C9.2,9.3,9.1,9,9.1,8.7C9.1,8.7,9.1,8.7,9.1,8.7z"/>
	<path class="st2" d="M10.7,7c-0.1-0.1-0.1-0.1-0.1-0.2c0-0.2-0.1-0.4-0.2-0.6c0-0.1-0.1-0.2,0-0.2c0.1,0,0.1,0.1,0.1,0.1
		C10.7,6.4,10.7,6.7,10.7,7z"/>
	<path class="st2" d="M12.6,3.2c0,0.3,0.3,0.5,0.3,0.8C12.8,3.8,12.5,3.6,12.6,3.2z"/>
	<path class="st1" d="M3.1,9.3c0.1,0.1-0.1,0.1,0,0.2c0.1,0.1,0.1,0,0.2,0c0,0.1,0,0.2-0.1,0.3C3.1,9.8,3,9.7,3,9.7
		C3,9.5,3,9.4,3.1,9.3z"/>
	<path class="st1" d="M2.3,3.1c0.1-0.4,0.3-0.5,0.5-0.7C2.8,2.5,2.4,3,2.3,3.1z"/>
	<path class="st1" d="M5.2,0.6c0.1,0,0.3-0.1,0.4,0C5.6,0.7,5.5,0.8,5.3,0.8C5.3,0.7,5.3,0.7,5.2,0.6C5.2,0.6,5.2,0.6,5.2,0.6z"/>
	<path class="st1" d="M4,10.1c0-0.1-0.1-0.1-0.1-0.2c0,0-0.2,0-0.1-0.1c0,0,0.1-0.1,0.1-0.1c0.1,0,0.1,0.1,0.1,0.1
		C4.1,10,4.1,10.1,4,10.1C4,10.1,4,10.1,4,10.1z"/>
	<path class="st1" d="M12,9.8c0,0.1,0.1,0.2,0.2,0.1c0,0,0.1,0,0.1,0c0,0,0,0.1,0,0.1c-0.1,0.1-0.1,0.1-0.2,0.1
		C11.9,10,11.9,9.9,12,9.8z"/>
	<path class="st1" d="M10.5,1.2c0.1,0,0.4,0.2,0.3,0.3c0,0.1-0.1,0.1-0.1,0C10.6,1.4,10.5,1.3,10.5,1.2L10.5,1.2z"/>
	<path class="st2" d="M12.6,3c-0.1,0,0,0.3-0.1,0.3c-0.1,0-0.1-0.2-0.1-0.3c0-0.1,0.1-0.1,0.1-0.1C12.5,2.8,12.6,2.9,12.6,3z"/>
	<path class="st2" d="M9.1,8.7C9.1,8.7,9.1,8.7,9.1,8.7C8.9,8.7,9,8.4,8.8,8.3C9,8.4,9.1,8.5,9.1,8.7z"/>
	<path class="st2" d="M11.5,5.6c0.1,0.2,0.2,0.3,0.1,0.5C11.5,5.9,11.5,5.8,11.5,5.6z"/>
	<path class="st2" d="M8,4.5C8,4.5,8,4.5,8,4.5c0-0.1,0-0.1,0-0.2c0,0,0,0,0,0c0,0,0,0,0-0.1c0,0,0,0,0,0c0-0.1,0-0.2-0.1-0.3
		c0,0,0-0.1,0-0.1c0,0,0.1,0,0.1,0C8,4,8,4.4,8,4.5z"/>
	<path class="st2" d="M11.2,4.8C11.1,4.6,11,4.4,11,4.2C11.1,4.4,11.2,4.5,11.2,4.8z"/>
	<path class="st2" d="M11.1,3.8c-0.1-0.1-0.2-0.2-0.2-0.3c0,0-0.1-0.1,0-0.1c0.1-0.1,0.1,0,0.1,0C11,3.5,11.1,3.6,11.1,3.8z"/>
	<path class="st1" d="M4,5.6C3.8,5.5,3.7,5.4,3.7,5.2C3.8,5.3,4,5.4,4,5.6z"/>
	<path class="st1" d="M12.9,2.8c-0.1-0.1-0.3-0.1-0.4-0.3C12.7,2.6,12.8,2.7,12.9,2.8z"/>
	<path class="st1" d="M10.4,8.8C10.6,9,10.6,9,10.4,9.3C10.4,9.1,10.5,9,10.4,8.8z"/>
	<path class="st1" d="M9.5,4.7C9.4,4.5,9.3,4.3,9.3,4.2C9.4,4.3,9.5,4.5,9.5,4.7z"/>
	<path class="st1" d="M3.5,8.6c0.1-0.2,0-0.3,0.1-0.5C3.7,8.2,3.6,8.5,3.5,8.6z"/>
	<path class="st1" d="M2.5,9c0-0.1,0-0.2,0-0.3c0,0,0-0.1,0.1-0.1c0,0,0.1,0,0,0.1C2.6,8.8,2.6,8.9,2.5,9z"/>
	<path class="st2" d="M11.8,3.9C11.8,3.9,11.8,3.9,11.8,3.9c-0.1-0.1-0.2-0.1-0.2-0.3c0,0,0,0,0,0C11.7,3.7,11.8,3.8,11.8,3.9z"/>
	<path class="st2" d="M8.5,7.8C8.6,7.9,8.6,8,8.7,8.2C8.6,8.1,8.5,8,8.5,7.8z"/>
	<path class="st2" d="M10.8,3.8c0.1,0.1,0.1,0.2,0.1,0.4C10.9,4.1,10.6,4,10.8,3.8z"/>
	<path class="st2" d="M11.3,4.9c0.2,0.1,0.2,0.2,0.1,0.4C11.3,5.2,11.3,5.1,11.3,4.9z"/>
	<path class="st2" d="M13.8,5c0-0.1-0.1-0.1-0.1-0.2c0,0,0-0.1,0.1-0.1c0.1,0,0,0.1,0,0.1C13.8,4.8,13.7,4.9,13.8,5L13.8,5z"/>
	<path class="st1" d="M4.4,9.2c0.1,0.2,0,0.3,0,0.4C4.3,9.5,4.3,9.4,4.4,9.2z"/>
	<path class="st2" d="M9,4.2c0.1,0.1,0.2,0.2,0.2,0.3C9.1,4.4,9,4.3,9,4.2z"/>
	<path class="st1" d="M5.7,6.5c0.1,0.1,0.2,0,0.2,0.1C5.7,6.7,5.7,6.7,5.7,6.5z"/>
	<path class="st2" d="M12.1,3.1C12,3.1,12,3.1,12.1,3.1c-0.1-0.1,0-0.1,0.1-0.1c0,0,0.1,0,0.1,0C12.2,3.1,12.1,3,12.1,3.1z"/>
	<path class="st2" d="M11.9,5.5c0-0.1,0-0.2,0-0.3C12,5.3,12,5.4,11.9,5.5z"/>
	<path class="st2" d="M7.3,7c0-0.1-0.2,0.1-0.2-0.1c0,0,0,0,0,0C7.2,6.9,7.3,6.9,7.3,7z"/>
	<path class="st2" d="M10.9,5.5c0-0.1-0.1-0.2-0.1-0.3c0,0,0,0,0.1,0C11,5.3,11,5.4,10.9,5.5z"/>
	<path class="st1" d="M5,6.2C5,6.1,5,6,5.1,6C5.2,6.1,5.1,6.1,5,6.2L5,6.2z"/>
	<path class="st2" d="M6.4,3.8c0,0.1-0.1,0-0.1,0c-0.1,0-0.1,0-0.1,0C6.3,3.7,6.3,3.7,6.4,3.8C6.4,3.7,6.5,3.7,6.4,3.8z"/>
	<path class="st1" d="M2.8,9.6c0.1,0.2,0.1,0.2,0,0.4C2.8,9.8,2.8,9.7,2.8,9.6z"/>
	<path class="st2" d="M10.5,4.3c0.1,0.1,0.2,0.1,0.1,0.2c0,0,0,0,0,0C10.5,4.5,10.5,4.4,10.5,4.3z"/>
	<path class="st1" d="M7.1,4.3c0-0.1,0.1-0.1,0.1-0.1c0.1,0,0,0.1,0,0.1C7.1,4.4,7.1,4.3,7.1,4.3L7.1,4.3z"/>
	<path class="st1" d="M5,6.2c0,0.1,0,0.2-0.1,0.2C4.9,6.3,5,6.2,5,6.2C5,6.2,5,6.2,5,6.2z"/>
	<path class="st1" d="M3.1,6.3C3.1,6.4,3.1,6.4,3.1,6.3C3,6.4,3,6.4,3,6.3C3,6.3,3,6.3,3.1,6.3C3,6.3,3.1,6.3,3.1,6.3z"/>
	<path class="st2" d="M7.6,4.2c-0.1,0-0.1,0-0.1,0c0,0,0,0,0,0C7.5,4.1,7.6,4.1,7.6,4.2z"/>
	<path class="st1" d="M9.5,4.3c0-0.1-0.1-0.1-0.1-0.2c0,0,0,0,0,0C9.5,4.2,9.5,4.3,9.5,4.3C9.6,4.3,9.5,4.3,9.5,4.3z"/>
	<path class="st2" d="M7.3,7.4c0.1,0.1,0.1,0.1,0.1,0.2C7.3,7.6,7.3,7.5,7.3,7.4z"/>
	<path class="st1" d="M2.1,3.2c0-0.1,0-0.1,0.1-0.1C2.2,3.2,2.2,3.2,2.1,3.2C2.1,3.3,2.1,3.3,2.1,3.2z"/>
	<path class="st2" d="M10.5,4.7C10.5,4.7,10.5,4.7,10.5,4.7c0.1,0.1,0,0.1,0,0.1C10.4,4.8,10.5,4.7,10.5,4.7
		C10.5,4.7,10.5,4.7,10.5,4.7z"/>
	<path class="st1" d="M1.9,7.7C1.9,7.7,1.9,7.8,1.9,7.7c-0.1,0-0.1,0-0.1,0C1.9,7.7,1.9,7.7,1.9,7.7C1.9,7.7,1.9,7.7,1.9,7.7z"/>
	<path class="st1" d="M2.5,5C2.5,5,2.5,5,2.5,5C2.5,5,2.5,5,2.5,5C2.5,5,2.5,5,2.5,5C2.5,5,2.5,5,2.5,5z"/>
	<path class="st1" d="M7.1,4.3C7.1,4.3,7.1,4.4,7.1,4.3C7,4.4,7,4.3,7.1,4.3C7,4.3,7,4.3,7.1,4.3C7.1,4.3,7.1,4.3,7.1,4.3z"/>
	<path class="st1" d="M4.3,5.8C4.3,5.8,4.2,5.8,4.3,5.8C4.2,5.8,4.2,5.8,4.3,5.8C4.2,5.8,4.2,5.7,4.3,5.8C4.2,5.7,4.2,5.8,4.3,5.8z"
		/>
	<path class="st1" d="M11.3,10.4C11.3,10.4,11.3,10.4,11.3,10.4C11.4,10.4,11.3,10.4,11.3,10.4C11.3,10.4,11.3,10.4,11.3,10.4z"/>
	<path class="st1" d="M10.5,1.2C10.5,1.2,10.5,1.2,10.5,1.2C10.4,1.2,10.5,1.2,10.5,1.2C10.5,1.2,10.5,1.2,10.5,1.2
		C10.5,1.2,10.5,1.2,10.5,1.2z"/>
	<path class="st1" d="M4,6.9C4,6.9,4,6.9,4,6.9C4,6.9,4,6.9,4,6.9C4,6.9,4.1,6.9,4,6.9C4.1,6.9,4,6.9,4,6.9z"/>
	<path class="st1" d="M3.1,6.1C3.1,6.2,3.1,6.2,3.1,6.1C3.1,6.2,3.1,6.2,3.1,6.1C3.1,6.2,3.1,6.2,3.1,6.1C3.1,6.1,3.1,6.1,3.1,6.1z"
		/>
	<path class="st1" d="M4,6.8C4,6.8,4,6.8,4,6.8C4,6.8,4,6.8,4,6.8C3.9,6.8,3.9,6.8,4,6.8C4,6.8,4,6.8,4,6.8z"/>
	<path class="st2" d="M13.8,5C13.8,5,13.8,5,13.8,5C13.8,5,13.8,5,13.8,5C13.8,5,13.8,5,13.8,5z"/>
	<path class="st1" d="M4,1.9C4,1.9,4,1.9,4,1.9C4,1.9,4,1.9,4,1.9C4,1.9,4,1.9,4,1.9C4,1.9,4,1.9,4,1.9z"/>
	<polygon class="st1" points="3.3,3.5 3.3,3.5 3.3,3.5 	"/>
	<polygon class="st2" points="7.7,4.7 7.7,4.7 7.7,4.7 	"/>
	<polygon class="st1" points="1.1,7.6 1.1,7.6 1.1,7.6 	"/>
	<polygon class="st1" points="7.3,4.3 7.3,4.3 7.3,4.3 	"/>
	<path class="st1" d="M5.2,5.9C5.2,5.9,5.2,5.9,5.2,5.9C5.2,5.9,5.2,5.9,5.2,5.9C5.2,5.9,5.2,5.9,5.2,5.9z"/>
	<path class="st0" d="M11.3,14.1c-0.1-0.1-0.3-0.1-0.5-0.1c-0.1,0-0.2,0-0.1-0.1c0,0,0-0.1,0-0.1c-0.3,0-0.5-0.2-0.7,0.1
		C9.8,14,9.7,14.1,9.5,14c-0.2-0.1-0.4,0-0.5,0.1c-0.1,0.1-0.3,0.1-0.4,0C8.4,14,8.2,14,8,14.1c-0.2,0.1-0.4,0.1-0.6,0
		C7.2,14,7,14,6.8,14.1c-0.2,0.1-0.3,0.1-0.5,0c-0.2-0.2-0.4-0.2-0.6,0c-0.1,0.1-0.2,0.1-0.3-0.1c-0.2-0.3-0.4-0.3-0.7-0.2
		c0,0-0.1,0-0.1,0c-0.1,0-0.1-0.1-0.2-0.1c0-0.1,0-0.1,0.1-0.1c0.1,0,0.2-0.1,0.3-0.1c0.1,0,0.2,0,0.3,0.1c0.2,0.3,0.2,0.3,0.6,0.1
		c0.1-0.1,0.3,0,0.4,0.1c0.2,0.2,0.4,0.2,0.7,0.1c0.1-0.1,0.3-0.1,0.4,0c0.2,0.2,0.5,0.1,0.7,0c0.2-0.1,0.3-0.1,0.4,0
		C8.6,14,8.8,14,9,13.8c0.1-0.1,0.3-0.1,0.5,0c0.2,0.1,0.4,0.1,0.5-0.1c0.1-0.2,0.3-0.3,0.5-0.1c0.1,0.1,0.4,0,0.3,0.3
		c0,0,0.1,0,0.1,0c0.1,0,0.2,0,0.2,0C11.4,13.9,11.4,13.9,11.3,14.1C11.3,14.1,11.3,14.1,11.3,14.1z"/>
	<path class="st0" d="M10.6,14.2c0,0.2-0.1,0.2-0.3,0.2c-0.2-0.1-0.4,0-0.5,0.1c-0.1,0.1-0.2,0.1-0.3,0c-0.2-0.1-0.3,0-0.5,0
		c-0.1,0.1-0.3,0.1-0.4,0.1c-0.2-0.1-0.3-0.1-0.5,0c-0.2,0.1-0.3,0.1-0.5,0c-0.2-0.1-0.4-0.1-0.6,0c-0.2,0.1-0.4,0.1-0.5,0
		c-0.1-0.1-0.3-0.1-0.4,0c-0.2,0.1-0.4,0-0.5-0.2c-0.1-0.1-0.2-0.1-0.4-0.1c-0.1,0-0.2,0-0.3,0.1c-0.1,0-0.1,0-0.1-0.1
		c0-0.1,0.1-0.1,0.1-0.1c0.3-0.1,0.5-0.2,0.7,0.1c0.1,0.1,0.2,0.1,0.3,0.1c0.1-0.1,0.3-0.1,0.4,0c0.2,0.2,0.5,0.1,0.7,0
		c0.1,0,0.2,0,0.3,0c0.2,0.1,0.5,0.2,0.8,0.1c0.1-0.1,0.3-0.1,0.4,0c0.2,0.1,0.4,0.1,0.5,0c0.2-0.1,0.4-0.1,0.5,0
		c0.1,0.1,0.2,0,0.3,0C10,14.1,10.3,14,10.6,14.2z"/>
	<path class="st0" d="M4.6,14c-0.2,0-0.3,0.1-0.5,0.1c-0.1,0-0.2-0.1-0.2-0.2c0-0.1,0.1-0.1,0.1-0.1c0.1,0,0.1,0,0.2-0.1
		C4.5,13.7,4.5,13.8,4.6,14L4.6,14z"/>
	<path class="st0" d="M11.9,13.8c-0.1,0-0.1,0-0.2,0c-0.1,0-0.2,0-0.2-0.1c0-0.1,0-0.2,0.2-0.2c0.1,0,0.3-0.1,0.3,0
		C12.1,13.7,11.9,13.7,11.9,13.8C11.9,13.8,11.9,13.8,11.9,13.8z"/>
	<path class="st0" d="M4,14.4c-0.2,0-0.3-0.1-0.4-0.2c0,0,0,0,0-0.1c0,0,0.1,0,0.1,0C3.9,14.2,4,14.2,4,14.4C4,14.4,4,14.4,4,14.4z"
		/>
	<path class="st0" d="M12.7,10c0.1,0,0,0.1,0,0.1C12.7,10.1,12.7,10,12.7,10C12.6,10,12.7,10,12.7,10z"/>
	<path class="st0" d="M4.6,14C4.6,14,4.6,14,4.6,14C4.6,14,4.6,14,4.6,14C4.6,14,4.6,14,4.6,14C4.6,14,4.6,14,4.6,14z"/>
	<path class="st1" d="M13.3,11.2c0.2,0,0.2,0.1,0.1,0.2c-0.1,0.1-0.1,0.3-0.3,0.2c-0.1,0-0.1-0.1-0.1-0.1
		C13.1,11.3,13.1,11.1,13.3,11.2z"/>
	<path class="st1" d="M8,1.6C8,1.7,8,1.7,8,1.6c0.1,0.2,0.2,0.2,0.3,0.1c0.1,0,0.1-0.1,0.1-0.2c0-0.1,0-0.2,0-0.3
		c0-0.1,0-0.1,0.1-0.1c0.1,0,0,0.1,0,0.1c0,0.2,0,0.2,0.3,0.1c-0.1,0.2,0,0.2,0.1,0.3c0,0,0,0.1,0.1,0.1c0,0,0-0.1,0-0.1
		C8.9,1.5,8.9,1.4,9,1.3c0,0,0,0,0.1,0c0,0,0,0,0,0.1c-0.1,0.1,0,0.3,0,0.4c0,0,0,0,0,0.1C8.8,1.9,8.8,1.7,8.7,1.6
		c0,0-0.1-0.1-0.1,0c0,0,0,0,0,0.1c0,0.1,0.1,0.2,0,0.2c-0.1,0-0.2,0-0.3,0C7.9,1.9,7.8,1.8,7.7,1.6c0,0-0.1-0.1-0.2-0.1
		c0,0,0,0.1,0,0.1c0,0.1,0,0.2-0.1,0.2c-0.1,0-0.2-0.1-0.2-0.1c0,0-0.1-0.1-0.1-0.1c0,0,0,0,0,0c0.1,0,0.1,0.1,0.2,0.1
		c0.1,0,0-0.1,0-0.2c0-0.1,0-0.2,0-0.2c0,0,0,0,0,0c0,0,0.1,0,0.1,0c0,0,0,0,0,0l0,0C7.4,1.5,7.5,1.5,7.7,1.5c0,0,0,0,0,0
		C7.7,1.6,7.8,1.7,8,1.6C8,1.7,8,1.7,8,1.6z"/>
	<path class="st1" d="M8.1,2.3c0.1,0,0.3,0,0.2-0.2c0,0,0-0.1,0-0.1c0,0,0.1,0,0.1,0c0,0,0,0,0,0l0,0c0,0.2,0,0.4,0,0.6
		c0,0.1,0,0.1-0.1,0.1c-0.1,0-0.1-0.1-0.1-0.1c0-0.3,0-0.3-0.2-0.2C7.9,2.5,8,2.6,8,2.7c0,0,0.1,0.1,0,0.1c0,0-0.1,0-0.1,0
		c-0.1,0,0-0.1,0-0.1c0-0.2,0-0.4,0-0.6c0,0,0,0,0-0.1C8,2,8.1,2,8,2.2C8,2.2,8,2.3,8.1,2.3C8.1,2.3,8.1,2.3,8.1,2.3z"/>
	<path class="st1" d="M6.8,2.7C6.9,2.6,7,2.4,7,2.3c0-0.1-0.1-0.2-0.4-0.2C6.8,1.9,7,2,7.1,2.3c0.1,0,0.1-0.2,0.2-0.2c0,0,0,0,0,0
		c0,0.2-0.1,0.4,0.1,0.6C7.2,2.8,7.2,2.6,7.1,2.4C7,2.5,7,2.7,6.8,2.7C6.8,2.7,6.8,2.7,6.8,2.7z"/>
	<path class="st1" d="M8.7,2.8c-0.1,0-0.2,0-0.2-0.2c0-0.2,0-0.3,0-0.5c0-0.1,0-0.1,0.1-0.1c0,0,0.1,0,0.1,0.1
		c-0.1,0.2,0,0.2,0.2,0.2c0,0.1-0.2,0-0.2,0.2C8.7,2.6,8.7,2.7,8.7,2.8C8.8,2.8,8.8,2.8,8.7,2.8z"/>
	<path class="st1" d="M6.4,2.8c-0.2,0-0.2-0.1-0.3-0.2C6,2.5,6,2.4,5.9,2.4c-0.1,0-0.1,0.2-0.1,0.3c0,0,0,0.1,0,0.1
		c0-0.2,0-0.3,0-0.5C6,2.4,6.1,2.4,6.3,2.6l0,0c0,0,0,0,0,0c0,0,0,0,0,0c0,0,0,0,0,0C6.3,2.7,6.3,2.7,6.4,2.8
		C6.4,2.7,6.4,2.7,6.4,2.8z"/>
	<path class="st1" d="M6.6,1.8c0.3,0,0.2-0.2,0.2-0.4c0-0.1-0.1-0.2,0.1-0.2c0.1,0,0,0.1,0,0.2C7,1.5,6.9,1.7,7,1.8
		c0,0.1,0,0.1-0.1,0.1C6.8,1.9,6.7,1.9,6.6,1.8C6.6,1.8,6.6,1.8,6.6,1.8z"/>
	<path class="st1" d="M9.3,2c-0.1,0.1-0.1,0.2,0,0.3c0.1,0.1,0,0.3,0,0.4c0,0,0,0,0,0c0,0-0.1,0-0.1-0.1C9.1,2.5,9.1,2.3,9,2.1
		C9,2,9.2,2.1,9.3,2z"/>
	<path class="st1" d="M9.4,1.9c0.2-0.2,0.1-0.4,0-0.6c0.2,0.1,0.2,0.2,0.2,0.3C9.6,1.7,9.6,1.8,9.4,1.9z"/>
	<path class="st1" d="M5.9,1.2C6,1.2,6,1.2,5.9,1.2C6,1.2,6,1.2,6,1.3C6,1.4,6,1.6,5.9,1.7c0,0.1,0,0.1-0.1,0.1
		c-0.1,0-0.1-0.1-0.1-0.1c0-0.1,0-0.2,0-0.3C6,1.4,5.9,1.3,5.9,1.2z"/>
	<path class="st1" d="M6.5,1.2c-0.1,0.1,0,0.3-0.1,0.4c0,0.1,0,0.1,0.1,0.1c0,0,0,0,0,0.1c-0.2,0-0.2,0-0.2-0.2
		C6.4,1.5,6.3,1.3,6.5,1.2C6.5,1.2,6.5,1.2,6.5,1.2z"/>
	<path class="st1" d="M9.8,2.8c-0.2,0-0.3-0.2-0.5-0.4c0,0,0,0,0-0.1c0,0,0.1,0,0.1,0C9.5,2.5,9.7,2.6,9.8,2.8
		C9.8,2.8,9.8,2.8,9.8,2.8L9.8,2.8z"/>
	<path class="st1" d="M6.3,2.6c0-0.1,0-0.3,0.1-0.4c0,0,0.1-0.1,0.1-0.1c0,0,0,0.1,0,0.1c0,0.2,0,0.3,0.1,0.4c0,0.1-0.1,0-0.1,0
		C6.4,2.7,6.4,2.6,6.3,2.6C6.3,2.6,6.3,2.6,6.3,2.6C6.3,2.6,6.3,2.5,6.3,2.6L6.3,2.6z"/>
	<path class="st0" d="M7.5,1.2L7.5,1.2C7.5,1.2,7.5,1.2,7.5,1.2C7.5,1.2,7.6,1.2,7.5,1.2c0.3,0,0.4,0.1,0.5,0.2c0,0,0,0-0.1,0
		c-0.1-0.1-0.2,0-0.2,0.1c0,0,0,0,0,0C7.7,1.3,7.7,1.2,7.5,1.2z"/>
	<path class="st0" d="M7.3,2.1C7.3,2.1,7.3,2.1,7.3,2.1C7.3,2,7.5,2,7.6,2c0.1,0,0.2,0,0.3,0c0,0,0,0,0,0.1c-0.1,0-0.1,0.1-0.2,0
		C7.5,2,7.4,2.1,7.3,2.1z"/>
	<path class="st0" d="M9.8,2.8L9.8,2.8C9.8,2.8,9.8,2.8,9.8,2.8c0.1,0,0.2-0.1,0.3-0.2C9.9,2.8,9.8,3,9.6,3.1C9.6,2.9,9.8,3,9.8,2.8
		z"/>
	<path class="st0" d="M6.4,2.7c0,0,0.1,0.1,0.1,0c0.1,0,0.2,0,0.3,0c0,0,0.1,0,0.1,0C6.7,2.8,6.5,2.8,6.4,2.7
		C6.4,2.7,6.4,2.7,6.4,2.7C6.4,2.7,6.4,2.7,6.4,2.7L6.4,2.7z"/>
	<path class="st0" d="M9.3,3.2C9.1,3.3,9,3.4,8.8,3.4C8.9,3.3,9.1,3.2,9.3,3.2z"/>
	<path class="st0" d="M8,0.7c-0.3,0-0.5,0-0.7,0C7.5,0.6,7.7,0.6,8,0.7z"/>
	<path class="st0" d="M10.3,2.1c0,0.2-0.1,0.4-0.2,0.5C10.1,2.4,10.1,2.2,10.3,2.1z"/>
	<path class="st1" d="M9.3,2.1c0.1,0,0.2,0,0.2,0.1c0,0.1,0,0.1,0,0.2C9.4,2.3,9.4,2.2,9.4,2.2C9.4,2.1,9.3,2.1,9.3,2.1z"/>
	<path class="st0" d="M5.9,1.1C6,1,6.1,0.9,6.3,0.9C6.1,1,6,1.1,5.9,1.1z"/>
	<path class="st0" d="M6,1.3C6,1.2,6,1.2,6,1.3c0-0.1,0.1-0.1,0.1-0.1c0.1,0,0.1,0,0.1,0.1c0,0.1-0.1,0.1-0.1,0
		C6.1,1.3,6.1,1.3,6,1.3z"/>
	<path class="st0" d="M9,1.9C9,1.8,9.1,1.8,9,1.9c0.1-0.1,0.3,0,0.4,0C9.3,2,9.2,1.9,9,1.9z"/>
	<path class="st0" d="M8.7,2.8C8.8,2.8,8.8,2.8,8.7,2.8c0.1-0.1,0.1-0.1,0.2-0.1c0,0,0.1-0.1,0.1,0c0,0.1,0,0.1-0.1,0.1
		C8.9,2.8,8.8,2.9,8.7,2.8z"/>
	<path class="st0" d="M6.5,1.2C6.5,1.2,6.5,1.2,6.5,1.2C6.5,1.2,6.5,1.2,6.5,1.2c0.1-0.1,0.2-0.1,0.2,0C6.8,1.4,6.7,1.3,6.5,1.2
		C6.6,1.2,6.6,1.2,6.5,1.2z"/>
	<path class="st0" d="M5.6,1.3c0,0.1-0.1,0.2-0.2,0.2c0,0,0,0,0,0C5.4,1.4,5.5,1.3,5.6,1.3L5.6,1.3z"/>
	<path class="st0" d="M8,3.6c-0.2,0-0.3,0-0.5,0C7.6,3.5,7.8,3.5,8,3.6z"/>
	<path class="st0" d="M5.9,1.2c0,0.1,0.1,0.2-0.1,0.2C5.9,1.3,5.8,1.2,5.9,1.2z"/>
	<path class="st0" d="M8.1,1.5c0.1,0,0.1-0.1,0.2,0c0,0.1-0.1,0.1-0.2,0.1C8.1,1.5,8.1,1.5,8.1,1.5z"/>
	<path class="st1" d="M8.1,1.5c0,0,0,0.1,0,0.1c0,0-0.1,0-0.1,0c0,0,0,0-0.1,0c0-0.1,0-0.1,0-0.2C8,1.4,8,1.4,8.1,1.5
		C8,1.4,8.1,1.4,8.1,1.5z"/>
	<path class="st0" d="M6.5,3.4c-0.1,0-0.1,0-0.2,0C6.4,3.3,6.4,3.3,6.5,3.4z"/>
	<path class="st0" d="M5.4,2.7c-0.1,0-0.1-0.1-0.1-0.2C5.4,2.5,5.4,2.6,5.4,2.7L5.4,2.7z"/>
	<path class="st0" d="M5.3,1.6c0,0.1,0,0.2-0.1,0.2C5.2,1.7,5.2,1.7,5.3,1.6L5.3,1.6z"/>
	<path class="st0" d="M6,2c0,0.1-0.1,0-0.2,0.1C5.8,2,5.9,2.1,6,2z"/>
	<path class="st0" d="M6.2,3.3c0,0-0.1,0-0.1,0C6,3.2,6.1,3.2,6.2,3.3C6.1,3.2,6.1,3.2,6.2,3.3L6.2,3.3z"/>
	<path class="st0" d="M6.5,1.9C6.5,1.8,6.5,1.8,6.5,1.9c0-0.1,0.1-0.1,0.1-0.1c0,0,0,0,0,0.1C6.6,1.9,6.5,1.9,6.5,1.9z"/>
	<path class="st0" d="M8.3,2c0,0,0,0.1,0,0.1C8.2,2.1,8.2,2.1,8.3,2C8.2,2,8.3,2,8.3,2z"/>
	<path class="st0" d="M5.6,3C5.7,3,5.8,3,5.8,3l0,0C5.7,3,5.7,3,5.6,3C5.6,3,5.6,3,5.6,3z"/>
	<path class="st0" d="M5.8,1.2C5.8,1.2,5.7,1.2,5.8,1.2C5.7,1.2,5.7,1.2,5.8,1.2C5.7,1.2,5.7,1.2,5.8,1.2C5.8,1.2,5.8,1.2,5.8,1.2z"
		/>
	<path class="st0" d="M5.3,1.6c0-0.1,0-0.1,0.1-0.1c0,0,0,0,0,0C5.4,1.5,5.4,1.6,5.3,1.6C5.3,1.6,5.3,1.6,5.3,1.6z"/>
	<path class="st0" d="M7.4,1.2C7.4,1.2,7.4,1.2,7.4,1.2C7.3,1.2,7.3,1.2,7.4,1.2C7.3,1.2,7.4,1.2,7.4,1.2C7.4,1.2,7.4,1.2,7.4,1.2z"
		/>
	<path class="st0" d="M5.9,3.2C5.9,3.1,5.9,3.1,5.9,3.2C5.9,3.1,5.9,3.1,5.9,3.2C5.9,3.1,6,3.1,5.9,3.2C6,3.1,6,3.1,5.9,3.2z"/>
	<path class="st0" d="M7.9,1.6C8,1.6,8,1.6,7.9,1.6C8,1.6,8,1.6,7.9,1.6C8,1.6,8,1.6,7.9,1.6C8,1.7,8,1.7,7.9,1.6
		C7.9,1.6,7.9,1.6,7.9,1.6z"/>
	<path class="st0" d="M5.6,2.9C5.6,2.9,5.5,2.9,5.6,2.9L5.6,2.9C5.6,2.8,5.6,2.9,5.6,2.9L5.6,2.9z"/>
	<path class="st0" d="M6.2,3.3C6.2,3.3,6.2,3.3,6.2,3.3c0.1,0,0.1,0,0.1,0C6.2,3.3,6.2,3.3,6.2,3.3C6.2,3.3,6.2,3.3,6.2,3.3
		C6.2,3.3,6.2,3.3,6.2,3.3C6.2,3.3,6.2,3.3,6.2,3.3z"/>
	<path class="st0" d="M5.8,3C5.8,3,5.8,3,5.8,3C5.8,3.1,5.8,3.1,5.8,3C5.8,3.1,5.8,3,5.8,3C5.8,3,5.8,3,5.8,3z"/>
	<path class="st0" d="M5.4,2.7C5.4,2.7,5.4,2.7,5.4,2.7C5.4,2.8,5.4,2.7,5.4,2.7C5.4,2.7,5.4,2.7,5.4,2.7z"/>
	<path class="st0" d="M5.6,1.3C5.6,1.3,5.6,1.3,5.6,1.3C5.6,1.3,5.6,1.3,5.6,1.3C5.6,1.3,5.6,1.3,5.6,1.3C5.6,1.3,5.6,1.3,5.6,1.3z"
		/>
	<path class="st0" d="M5.6,2.9C5.6,2.9,5.6,2.9,5.6,2.9C5.6,3,5.6,3,5.6,2.9C5.6,2.9,5.6,2.9,5.6,2.9C5.6,2.9,5.6,2.9,5.6,2.9z"/>
	<path class="st0" d="M5.5,2.8C5.5,2.8,5.5,2.8,5.5,2.8C5.5,2.8,5.5,2.8,5.5,2.8C5.5,2.8,5.5,2.8,5.5,2.8C5.5,2.8,5.5,2.8,5.5,2.8z"
		/>
	<path class="st0" d="M8.1,2.3C8.1,2.3,8.1,2.3,8.1,2.3C8.1,2.3,8.1,2.3,8.1,2.3L8.1,2.3z"/>
	<path class="st0" d="M8.4,2L8.4,2C8.4,2,8.4,2,8.4,2C8.4,2,8.4,2,8.4,2z"/>
	<path class="st0" d="M4.4,3.9c-0.1,0-0.6-0.2-0.7-0.3c0,0-0.1-0.1,0-0.1c0,0,0.1,0,0.1,0C4.2,3.4,4.3,3.7,4.4,3.9z"/>
	<path class="st0" d="M3,5.6C3.1,5.6,3.1,5.7,3,5.6c0.1,0.1,0.1,0.1,0,0.1C3,5.8,3,5.7,3,5.6C3,5.7,3,5.7,3,5.6z"/>
	<path class="st0" d="M3.4,4.7C3.4,4.7,3.4,4.7,3.4,4.7C3.4,4.7,3.4,4.7,3.4,4.7C3.5,4.7,3.5,4.7,3.4,4.7C3.5,4.7,3.4,4.7,3.4,4.7z"
		/>
	<path class="st0" d="M1.9,6C1.9,6,2,6,1.9,6C1.9,6.1,1.9,6,1.9,6C1.9,6,1.9,6,1.9,6z"/>
	<path class="st0" d="M3,5.7C3,5.7,3,5.6,3,5.7C3,5.6,3,5.6,3,5.7C3,5.7,3,5.7,3,5.7z"/>
	<path class="st0" d="M4.3,5.1C4.3,5.1,4.4,5.1,4.3,5.1C4.3,5.2,4.3,5.2,4.3,5.1C4.3,5.1,4.3,5.1,4.3,5.1z"/>
	<path class="st0" d="M4.3,5.3C4.3,5.3,4.4,5.3,4.3,5.3C4.3,5.4,4.3,5.3,4.3,5.3C4.3,5.3,4.3,5.3,4.3,5.3z"/>
	<path class="st0" d="M4.8,2.6C4.7,2.7,4.7,2.9,4.8,3c0,0,0,0.1,0,0.2c0,0-0.1,0-0.1,0C4.6,3.1,4.6,3.1,4.6,3c0,0,0-0.1,0-0.1
		C4.5,2.7,4.6,2.6,4.8,2.6z"/>
	<path class="st0" d="M7.4,5.1c0,0-0.1,0.1-0.1,0c0,0,0-0.1,0.1-0.1C7.5,4.9,7.4,5,7.4,5.1C7.4,5.1,7.4,5.1,7.4,5.1z"/>
	<path class="st0" d="M7.6,6.1C7.6,6.1,7.5,6.1,7.6,6.1C7.5,6.1,7.6,6.1,7.6,6.1C7.6,6.1,7.6,6.1,7.6,6.1C7.6,6.1,7.6,6.1,7.6,6.1z"
		/>
	<path class="st0" d="M7.9,4.3C8,4.4,8,4.4,8,4.5C7.9,4.5,7.9,4.4,7.9,4.3z"/>
	<path class="st0" d="M7.9,4.3C7.9,4.3,8,4.3,7.9,4.3C7.9,4.3,7.9,4.3,7.9,4.3z"/>
	<path class="st0" d="M1.6,5.7C1.7,5.6,1.7,5.6,1.6,5.7c0.1-0.1,0.1-0.1,0.1-0.1C1.7,5.7,1.7,5.7,1.6,5.7C1.6,5.7,1.6,5.7,1.6,5.7z"
		/>
	<path class="st0" d="M1.8,4.3C1.8,4.4,1.8,4.4,1.8,4.3C1.7,4.4,1.7,4.4,1.8,4.3C1.7,4.4,1.7,4.3,1.8,4.3C1.8,4.3,1.8,4.3,1.8,4.3z"
		/>
	<path class="st0" d="M4.3,2C4.3,2,4.3,2,4.3,2C4.3,2,4.3,2,4.3,2C4.3,2,4.3,2,4.3,2C4.3,2,4.3,2,4.3,2z"/>
	<path class="st0" d="M4.4,1.9C4.4,1.9,4.4,2,4.4,1.9C4.4,2,4.4,2,4.4,1.9C4.4,1.9,4.4,1.9,4.4,1.9C4.4,1.9,4.4,1.9,4.4,1.9z"/>
	<path class="st2" d="M7.5,1.2c0.2,0,0.2,0.1,0.2,0.3C7.5,1.5,7.4,1.5,7.5,1.2z"/>
	<path class="st2" d="M7.9,1.6C7.9,1.6,7.9,1.6,7.9,1.6c-0.2,0.1-0.2,0-0.2-0.1c0.1,0,0.1-0.1,0.2-0.1C7.9,1.5,7.9,1.5,7.9,1.6z"/>
	<path class="st2" d="M8.9,1.6c0,0,0.1,0.1,0,0.1C8.9,1.8,8.9,1.7,8.9,1.6C8.9,1.7,8.9,1.7,8.9,1.6z"/>
	<path class="st2" d="M6.4,2.7L6.4,2.7C6.4,2.7,6.4,2.7,6.4,2.7C6.3,2.7,6.3,2.7,6.4,2.7C6.4,2.6,6.4,2.7,6.4,2.7z"/>
	<path class="st2" d="M6.3,2.6C6.3,2.5,6.3,2.6,6.3,2.6C6.3,2.6,6.3,2.6,6.3,2.6C6.3,2.6,6.3,2.6,6.3,2.6z"/>
</g>
</svg>
