<svg id="图层_1" data-name="图层 1" xmlns="http://www.w3.org/2000/svg" width="14.7314" height="14.844" viewBox="0 0 14.7314 14.844"><title>Ferrero_2</title><path d="M.9868,6.9943a1.1135,1.1135,0,0,0,.13-.5313c-.0208-.5727.0677-1.1388.0946-1.7085a.3542.3542,0,0,1,.17-.3213c.0855-.049.1654-.1258.1563-.2134-.0263-.2523.1355-.4233.2322-.6231.1974-.0222.2725-.1765.3521-.3261.0551-.03.1105-.0593.0975-.141-.0963-.0112-.091.0687-.1159.1194-.1268.02-.1359.1818-.2545.2117a2.02,2.02,0,0,1,.8253-1.1378,1.6237,1.6237,0,0,0,.8267-.7868,2.097,2.097,0,0,1,.44-.5372c.0836-.096.2821-.0747.3026-.1111.1-.1784.2665-.1306.4-.1495.2094-.03.4-.1167.6056-.1535L5.2629.81A.3734.3734,0,0,0,5.6555.539c-.1546-.0621-.267.0788-.4074.0468.0233-.2171.2267-.2.3457-.2081A1.6409,1.6409,0,0,0,6.22.1893,1.8351,1.8351,0,0,1,7.1449.1277c-.0959.1946-.2661.1594-.411.1033a.3778.3778,0,0,0-.3861.0444A1.5841,1.5841,0,0,1,6.81.3848.3231.3231,0,0,0,7.2229.1319,4.2749,4.2749,0,0,1,8.5256.3057,4.62,4.62,0,0,0,9.4714.444a1.7528,1.7528,0,0,1,.8215.3107c.1881.1305.4484.1153.5878.3221.0193.0287.0693.0435.0769.0722.084.3168.335.2652.5641.2593a.2987.2987,0,0,1,.2693.1,1.7028,1.7028,0,0,0,.382.341,2.619,2.619,0,0,1,.6032.65c-.0035.0081,0,.0137.01.0168a.0858.0858,0,0,1,.0914.0414,4.2892,4.2892,0,0,1,.6312,1.0513.8189.8189,0,0,1,.0306.455.7692.7692,0,0,0,.12.54.3533.3533,0,0,0,.0264-.3525c-.0143-.0532-.0364-.131.0168-.1591.08-.0421.1076.0477.14.0962a2.277,2.277,0,0,1,.3.8208,8.4824,8.4824,0,0,1,.1794,1.889c-.0016.094.0636.157.071.2419a3.09,3.09,0,0,0-.1843.9263,2.5839,2.5839,0,0,1-.11.7225,1.1662,1.1662,0,0,1-.1849.3813c-.0423-.1154.0035-.2041-.1094-.2984a.47.47,0,0,1-.3455.5742c-.0575.02-.0843.1261-.1275.1912-.0858.1294-.1732.2579-.2635.392a.1276.1276,0,0,1-.0433-.1352.238.238,0,0,0-.2681-.2832c-.1437.0051-.076.1564-.0714.2548a.5292.5292,0,0,1-.0343.1444l0,0c-.1166.0147-.0821.1344-.13.1988-.0781.105-.2.0387-.28.11-.0367.033-.0368.1333-.1165.09-.0709-.0381-.028-.1256-.0443-.189-.0992.0431-.0784.209-.1572.2118a1.1241,1.1241,0,0,0-.6279.2249c-.0441-.102.0461-.1772.0214-.26.0219-.0146.0517-.0271.0145-.0568l-.0128.0581c-.1305.2508-.2709.0729-.3892-.0039-.1325-.086-.1787-.0187-.2032.0874-.0267.1155-.0228.2384-.0525.3527-.0138.0533-.0619.204-.13.0169-.03-.083-.0852-.0513-.104-.0032-.0729.1868-.2634.1358-.3947.2015a.09.09,0,0,1-.1287-.0757c.0046-.2172-.098-.083-.1635-.0527a.2587.2587,0,0,0-.1506.17c-.0195.0684-.0928.1061-.1133.0237-.0541-.2174-.1613-.1305-.288-.0849-.1085.0391-.2633.0266-.2855.1615a.2.2,0,0,1-.2046.1934,1.3338,1.3338,0,0,1-.9569-.0359.1163.1163,0,0,0-.1543.0289c-.0863.2727-.3436.2368-.5077.2129-.1231-.0179-.1629.1219-.2682.0606-.1355-.0789-.2829-.1379-.4173-.2185-.0713-.0428-.1864-.1244-.1781-.1691.0386-.2066-.1648-.1837-.237-.2793a.1074.1074,0,0,0-.1691-.0224c-.0539.0621.0215.1084.0569.1386.0887.0756.072.15-.0233.1591-.1124.01-.1747.0926-.2673.1252-.0439.0154-.0813.0711-.1307.0189a.1113.1113,0,0,1-.0122-.155.3387.3387,0,0,0,.0893-.2427c-.121.0035-.0613.1249-.1305.1607-.151-.06-.2-.23-.3323-.3171-.13-.0854-.28.1145-.41-.06.0745.12.0348.2322-.0476.2675-.0917.0393-.1538-.08-.1765-.1514-.0834-.2614-.0992-.5584-.423-.6685-.0137-.0047-.0087-.0644-.0124-.0985.1123-.0522.0889-.1689.1025-.2559.0092-.0588-.0524-.1178-.138-.1325a.1371.1371,0,0,0-.139.07c-.0858.1043.0627.0742.0748.12.02.0758.1071.1153.1031.2016a.2458.2458,0,0,0-.0922.2412c.02.2012-.1521.2969-.29.3349-.1345.037-.2007-.1215-.23-.2463-.0238-.1005-.0755-.17-.1769-.1651-.1763.0077-.2141-.0883-.2065-.2351.0022-.0422,0-.096-.0584-.0948-.056.0011-.0669.0546-.0587.0959.0362.1842-.12.1829-.2113.1867-.2464.01-.4651-.1414-.7129-.1491-.1893-.0059-.1591-.3331-.3955-.2742,0-.0139-.0048-.0352.0023-.0407.0831-.0647-.0007-.1118-.0082-.1688-.0119-.091-.0348-.23.1486-.1837.039.01.1066.0019.076-.0585-.0413-.0816.0219-.1218.0473-.1719.145-.2855-.09-.5316-.0786-.8023,0-.01-.0317-.0332-.043-.03-.0554.0153-.0509.0594-.0382.1023a2.6556,2.6556,0,0,1,.0364.5965c.0059.0867.0023.1649-.1072.2022a.913.913,0,0,1,.0271-.5756c.064-.15-.0039-.1781-.0852-.2335l-.0675.712c-.0781-.0455-.0582-.132-.1216-.1432-.1886-.0333-.22-.1935-.2552-.3343A1.453,1.453,0,0,1,1.09,8.0877c.029-.1558-.1381-.2953-.0141-.4451L1.08,7.638l-.0048.0051c-.0447.0151-.0862.0212-.0867-.0452C.9876,7.3967.9874,7.1955.9868,6.9943ZM7.0552,4.2851c.0458.0112.0709.1447.14.0229.016-.0283.0614-.0679.01-.08-.0472-.0111-.1464-.0719-.147.06-.0337-.011-.0676-.0163-.0764.0291-.0022.0113.0184.0387.0283.0386C7.0564,4.3556,7.0547,4.3184,7.0552,4.2851ZM5.0319,6.1759a.1739.1739,0,0,0,.1121-.1986c-.1.0429-.1806.0847-.1088.2018-.0786.0524-.1352.1112-.0687.2172C5.0506,6.3323,5.0086,6.2452,5.0319,6.1759Zm8.737-1.2022.0115.0077-.0133-.0058c-.0218-.081.0379-.1482.0381-.2251,0-.0407.0066-.0946-.05-.1-.06-.0054-.0533.0493-.06.09A.32.32,0,0,0,13.7689,4.9737ZM10.5,1.188l-.0464-.0269-.0075.0169.0567.0066a.6371.6371,0,0,0,.1746.3451c.0585.0814.1207.0331.1424-.0293C10.8573,1.392,10.624,1.1708,10.5,1.188Zm-1.38,7.464c-.0134-.1812-.1573-.2577-.2807-.3528.1283.1261.0943.3552.283.44-.03.2825.12.5644-.0283.8472A.82.82,0,0,0,9.1191,8.652ZM5.164,5.8771c.0074.008.0013.0455.0275.0126l-.03-.0093a.62.62,0,0,0,.1172-.5635A.1087.1087,0,0,1,5.297,5.22c.0739-.0846,0-.1582-.0256-.2324-.0082-.0236-.024-.0712-.0726-.0606-.0451.01-.0321.0636-.0471.0771-.0962.0863-.0058.1774-.0189.2578-.0317.1941.0631.3883-.0128.5791C5.1177,5.8461,5.1485,5.8647,5.164,5.8771ZM4.2577,2.0477l-.0031-.0035.0065.0922-.064,0c.0355.1508-.0486.2459-.145.3449-.0328.0337.0218.0851.0675.0828.1759-.0091.219.0434.2437.2068.0277.1828.0614.4008.2744.4535.27.0668.2436.2845.3017.463.1844-.19.1947-.2845.0326-.4356l.4733-.0249a3.0634,3.0634,0,0,1-.6582-.9617c.0083.2728-.0252.2861-.4478.2488.06-.1493.1421-.18.2531-.0213.0176-.2783-.01-.2982-.2672-.2465-.1035.0208-.05-.0717-.0673-.1127a.4255.4255,0,0,0,.2849-.578c-.0387-.06-.129-.0687-.1229-.0059.0207.2113-.151.1166-.2261.1706-.0559.04-.1509.059-.1472.1592l-.0315.0052.0145.02.0134-.0292C4.186,1.8437,4.131,2.0586,4.2577,2.0477ZM1.77,4.3342,1.7539,4.32c-.008-.1361.0871-.12.1731-.1172.0558.0018.0986-.0158.1078-.0773.01-.069-.0585-.0419-.0844-.0674-.0862-.0848-.1386-.0178-.19.044a1.1851,1.1851,0,0,0-.1982.5015c-.0186.0756.0193.2351.114.2166.1656-.0323.1465-.2378.222-.36C1.9423,4.3886,1.8353,4.3567,1.77,4.3342Zm-.1344,1.33L1.6327,5.66c.0243.04-.0033.06-.0277.0883-.0665.0769.0178.1712.043.181.0765.03.09-.07.0912-.1088.0077-.3041.2017-.5536.239-.8474a1.47,1.47,0,0,0,.3957-.448c.23-.3008.3235-.6787.5437-1-.2114-.0424-.332.1389-.4974.1969-.0374.0131-.0542.1459-.044.2186.013.0929.1089-.0461.1423.0177a4.583,4.583,0,0,1-.3617.6641.8059.8059,0,0,0-.1759.3537c-.0979-.04-.2123-.0747-.2542.0539-.065.1991-.1015.4076-.1472.6128ZM7.8884,4.2474a.409.409,0,0,0,.01.4439,2.2141,2.2141,0,0,1,.2078.6127c.0338.1074.0355.2553.1384.299.1616.0686.18.2216.2629.3364.066-.0106.0414-.1108.1138-.1121.0493.0135.0515.0626.0753.0959.0919.1289-.0274.27.0181.3895.1019.2686.2254.529.343.7915.0219.0488.0681.0853.12.0466.0471-.0352,0-.0669-.0186-.1046a1.8331,1.8331,0,0,1-.2233-.7141,1.62,1.62,0,0,0-.2-.7754,2.7656,2.7656,0,0,1-.2449-.5924.57.57,0,0,0-.3646-.3173C8.0631,4.6155,8,4.5837,7.99,4.5028a.78.78,0,0,0-.083-.57.0881.0881,0,0,0-.0729-.0224c-.0286.0108-.026.0418-.01.0711A.4949.4949,0,0,1,7.8884,4.2474Zm2.5683.4249c0,.04-.0117.0838.0292.11.0079.005.0422-.0111.0454-.0228.0182-.0649-.0208-.0839-.0769-.0847.069-.1168-.1413-.11-.0965-.2186.0171-.0413.1344-.0491.0466-.1255-.0486-.0422-.0944-.025-.1548-.0008-.1541.0617-.2642-.0458-.2442-.2233.0739-.0111.07.0985.157.095-.0806-.2029-.0052-.1965.1631-.1607.08.017.093.1392.1932.0871a.9325.9325,0,0,0-.0322-.1623.5835.5835,0,0,0-.1221-.2418c-.0362-.03-.1282.0446-.1771.1062a.064.064,0,0,1-.0959.0036.07.07,0,0,1,.0133-.1116c.0449-.0329.102-.049.1471-.0816a.0688.0688,0,0,0,.0131-.0964A.0641.0641,0,0,0,10.17,3.53a.8809.8809,0,0,0-.11.1009c-.14.1408-.3318.22-.4451.4149.0734.2333.3619.3693.4369.6463.0051.0188.0462.0279.0706.0415C10.2086,4.5755,10.3494,4.7147,10.4568,4.6723ZM7.66,4.7148l.01.01-.0117-.0083c-.1132-.1014.0265-.3055-.1749-.4172.1045.249-.0111.3165-.193.3357.0021.0774.1188.1515.0409.2229-.1751.16-.1944.2327-.0569.3963a.0857.0857,0,0,1,.0222.0764c-.04.2689.1445.4961.1422.7557a.3568.3568,0,0,0,.0677.1968c.1165.2105.3426.34.4138.58a.42.42,0,0,0,.0924.1429.0773.0773,0,0,0,.1151.0016c.0358-.0294.0644-.0939.0259-.107C8.0017,6.85,8.02,6.682,7.925,6.5973a.7776.7776,0,0,1-.2086-.63.7406.7406,0,0,0-.1356-.47c-.0936-.1309-.2025-.2579-.1359-.4388l-.0024.0028c.0637-.0044.0458.0418.0613.0788.03.0714.166-.0094.1274-.0446-.1025-.0936,0-.2006-.0558-.29C7.5064,4.6961,7.6131,4.729,7.66,4.7148Zm-3.4149.404.038.1316L4.24,5.2986c-.0165.1777.1783.21.22.3735a2.0652,2.0652,0,0,0,.522-.7695c.0076-.0318.0282-.0759.0537-.0856.2409-.0913.3289-.3409.5134-.4916.1-.082.0508-.3131-.0118-.3785s-.0856-.1846-.1663-.2381c-.138-.0915.003-.16.0315-.2671a1.9927,1.9927,0,0,0-.3959.3292c-.02.0152-.0556.051.0056.08.0934.0436.02.078-.0166.0976a.2814.2814,0,0,0-.1285.4268c.0976.19-.0071.2843-.1668.3261-.1024.0268-.1555.0561-.1778.1684-.0344.1731-.1062.0434-.18-.013.1053.13-.0612.1442-.06.2217ZM1.933,6.0105c-.0185.031-.074-.1065-.08.0233a1.2557,1.2557,0,0,1-.184.7017c-.1174.16-.135.263.0116.3781.1685-.1011.1547-.4016.4379-.37.0358.004.0585-.0635.0287-.081-.1518-.0887-.061-.139.0116-.222A1.2985,1.2985,0,0,0,2.3372,6.04a.0941.0941,0,0,1,.1184-.0679c.0684.0225.0443.0837.0345.1277-.0126.0562-.0692.1009-.0534.1752a1.0916,1.0916,0,0,0,.4683-.0693c.0657-.0285.1082-.11.2-.075l.0049.0713.019-.0052L3.1018,6.133c-.0131-.047-.1175-.09-.0608-.1218.1345-.075.0438-.1594.0382-.2411l.0484-.0525.0767-.0006c-.0384-.1149-.0191-.272-.1915-.2941-.144-.0185-.1009-.08-.0458-.1522A.69.69,0,0,1,3.7284,5.14a.4038.4038,0,0,1-.0422-.5768c.1185-.18.3788-.1283.5213-.2918-.0689-.0342-.15.0314-.1978-.0469.1195-.0311.2078-.1348.3383-.1277.19.01.283-.009.1849-.2525-.08-.1979-.1908-.38-.2861-.5642-.0713-.1379-.1622-.2386-.0894-.3954.0293-.063-.027-.09-.0485-.13-.009-.0169-.0418-.05-.0556.0008s-.04.0974-.05.0079a.8135.8135,0,0,0-.1245-.2882c-.0317-.0606-.0679-.127-.0247-.1786a.1391.1391,0,0,0-.04-.2281c-.0909-.0543-.2756-.0637-.2958.0018-.0451.1464-.1415.0981-.2219.1139-.2088.041-.4134.226-.3918.4077.0278.2341-.111.3481-.2612.4694-.0346.0279-.1065.0235-.09.11.1815-.0389.4083.0262.4684-.2522.02-.0936.2339-.0489.1734-.2179.2245-.0344.05-.1034.0054-.1374-.0406-.0312-.0834-.0478-.0716-.1283a.333.333,0,0,0,.3038-.0105c.1422-.0489.1488.0184.1383.12a.6783.6783,0,0,1-.2555.4273c-.0916.0843-.1354.1669.04.1916.1074.0152.1076.0635.13.1626.0268.12-.0915.2112-.056.257.11.1421.0077.222-.07.28a4.7807,4.7807,0,0,0-.7072.8869.338.338,0,0,0-.1121.2261c-.0365,0-.07.0063-.0711.0517,0,.0074.0174.0226.0257.0219.0482-.0041.0448-.0409.0435-.0754a.18.18,0,0,0,.1565-.0969c.0842-.1352.2154-.0279.2613-.0024.0965.0536-.0384.0954-.0661.1424a1.9921,1.9921,0,0,1-.3347.3739c-.1391.1392-.1885.0733-.2658-.0511-.1168.1605-.2737.2908-.2526.5141.007.0742-.0425.1162-.0982.1522ZM6.1538,3.2978l-.0024-.0025a.9767.9767,0,0,0,.4938.2433,4.4217,4.4217,0,0,0,1.3359.0991A3.303,3.303,0,0,0,9.48,3.2518a1.5,1.5,0,0,0,.7927-.78,1.1128,1.1128,0,0,0-.46-1.3147A3.5236,3.5236,0,0,0,7.9048.5466,3.9817,3.9817,0,0,0,7.118.5834a3.0505,3.0505,0,0,0-1.4239.4676A1.2387,1.2387,0,0,0,5.0479,2.1c0,.0846-.0375.1971.1279.1737.0648-.0092.085.0871.0569.1084-.1858.1405-.0182.2344.0478.3181A1.3916,1.3916,0,0,0,6.1538,3.2978ZM3.6526,6.9425c.0512-.1824-.0612-.4122.19-.5183.0412-.0174.0587-.0508.0182-.099a.3368.3368,0,0,1-.015-.4325c.0757-.1212-.0984-.0606-.1007-.13,0-.0081,0-.0694-.0362-.0252a.6075.6075,0,0,0-.1657.4477c.0413.1809-.0323.3514.0246.5274a.3358.3358,0,0,1-.17.3758.871.871,0,0,0-.1615.1686c-.0257.0328.0222.0848.041.0617.09-.1109.0654-.0035.0883.0376a.3425.3425,0,0,0,.2276.1713c.09.0194.2476-.0058.2417-.0693-.0166-.18.04-.3736-.0655-.5417C3.7069,6.8164,3.712,6.95,3.6526,6.9425Zm7.8535-2.5366-.0579.0469a.6124.6124,0,0,0,.3362.4468c.11.0485.1305.0033.12-.0881a.4123.4123,0,0,0-.0445-.12c-.0288-.0616-.0234-.1146.0423-.1426s.0794.0217.1035.0708a1.0272,1.0272,0,0,0,.3241.3623.15.15,0,0,0,.1972-.0141c.0819-.0639.0055-.1109-.0287-.1589a1.58,1.58,0,0,0-.2425-.3213c-.0892-.0733-.1672-.3151-.3475-.0913a.0836.0836,0,0,1-.078.01c-.0406-.02-.005-.0472.0064-.069.0139-.0266.0287-.066-.0032-.0724-.195-.0394-.308-.1963-.4541-.3056a.0574.0574,0,0,0-.0779.0012.0669.0669,0,0,0-.0028.0967c.0376.0418.0938.0685.126.1132.0754.1048.2206.1788.1358.3767Zm1.4811-.09a3.3181,3.3181,0,0,0,.126.5944,1.1913,1.1913,0,0,1,.04.9776.0646.0646,0,0,0,0,.0579c.0407.0463.0521.1294.1268.1329.08.0038.1008-.07.1217-.13.074-.2114-.0538-.4047-.0585-.6064A1.8475,1.8475,0,0,0,12.9872,4.3155Zm-.5186-.4247c.0528.1392.1083.2775.1578.4178a2.668,2.668,0,0,1,.29,1.0375,1.23,1.23,0,0,0,.0465.2926.1044.1044,0,0,0,.12.0965c.1149-.0146.0278-.0844.0292-.1281.0085-.2725-.1658-.5158-.1282-.7937.0073-.0538-.0359-.0712-.0742-.0914a.191.191,0,0,1-.0931-.1549A1.3891,1.3891,0,0,0,12.4686,3.8908ZM9.1549,10.5725c-.0823-.0669-.0384-.1629-.0447-.2487-.0033-.0439.0312-.115-.0383-.1251-.0769-.0111-.0874.0753-.0909.1192a3.0841,3.0841,0,0,1-.0166.4659c-.0352.1464.0962.1328.1425.1828.0593.064.0947-.0462.1247-.0909a1.7673,1.7673,0,0,0,.1651-.29c.0372-.088.04-.1978-.0693-.2308-.037-.0111-.1308.0582-.1174.1537C9.2139,10.5353,9.202,10.5634,9.1549,10.5725Zm1.6158-4.6359a2.5861,2.5861,0,0,0-.2331-.9886c-.0256-.0768-.0869-.0616-.1419-.0581a.1087.1087,0,0,0-.1094.11c-.0018.0225-.02.0609.0261.063a.1916.1916,0,0,1,.1754.2618c-.0892.2062.0584.2893.154.4C10.6892,5.7793,10.7053,5.8477,10.7707,5.9365ZM7.5129,4.0039a5.3581,5.3581,0,0,0-.7817-.2624c-.0343-.0145-.0739-.0244-.0954.0115a.08.08,0,0,0,.0265.0962,1.9081,1.9081,0,0,0,.5707.265C7.3583,4.1745,7.3814,4.0093,7.5129,4.0039ZM5.5513,3.4747c.0118.1018.14.105.12.2048-.0219.11.0876.104.1208.1033a.5109.5109,0,0,0,.3812-.1062c.0255-.0254.0467-.0457.0151-.0871A.84.84,0,0,0,5.5513,3.4747Zm-1.5071,5.91c-.0933-.0763-.176-.1489-.2642-.2141a.0874.0874,0,0,0-.133.0186c-.073.1209-.14.2457-.2039.3716-.01.02.0025.0557.0131.08.003.007.0479.0088.0534,0,.0722-.113.1846-.0777.2877-.0867C3.9022,9.5458,3.9671,9.4692,4.0442,9.3847ZM9.6616,4.4594c-.0064.0029-.0415.0125-.041.02.0015.0252.0093.0653.0259.072.147.0594.1652.2052.2207.3237q.1444.3086.2754.6233c.0281.0673.0711.0956.13.0648.076-.04.0491-.0878-.0085-.128-.0693-.0484-.0837-.1289-.116-.2a3.698,3.698,0,0,0-.3622-.6978C9.756,4.4975,9.7386,4.4486,9.6616,4.4594Zm1.0678,2.5819a2.47,2.47,0,0,0-.1843-.8465c-.0238-.0535.0326-.1728-.0954-.1426-.1118.0264-.0873.11-.0466.1872a1.5348,1.5348,0,0,1,.21.6323C10.6155,6.9176,10.6718,6.9606,10.7294,7.0414Zm1.8493-3.8269c-.0831.34.1919.5551.29.8327C12.9257,3.7186,12.6039,3.5164,12.5787,3.2145ZM3.1481,9.3206c-.1656.0794-.1505.2259-.1191.3487.0117.0457.1165.14.2.103.1268-.0564.1131-.1871.1225-.3032-.073-.0081-.1035.0962-.1818.0332C3.0961,9.4429,3.2141,9.3857,3.1481,9.3206Zm-.8806-6.246a1.6824,1.6824,0,0,0,.5038-.6659C2.5288,2.5318,2.4146,2.6828,2.2674,3.0745Zm9.6844,6.6779c-.0173.1269-.0554.2514.0775.3259.0962.0539.1605-.0126.2246-.068.0256-.0221.0575-.05.0355-.09a.0688.0688,0,0,0-.0944-.02C12.0406,9.9776,11.9828,9.9022,11.9519,9.7524Zm.6451-6.788a.1773.1773,0,0,0-.17-.1252c-.0512.0017-.1407.0446-.1063.0968.065.0989.0381.2957.1335.2975C12.5948,3.2362,12.45,3.0081,12.5969,2.9644ZM11.5224,5.5657a.5891.5891,0,0,0,.0852.4861C11.7483,5.8542,11.639,5.73,11.5224,5.5657Zm-.3591-.8081a.916.916,0,0,0-.1617-.5746A1.2212,1.2212,0,0,0,11.1633,4.7575ZM11.08,3.842a.4606.4606,0,0,0-.1326-.3972c-.0154-.0219-.0747-.0872-.1257-.0334-.0359.038,0,.0783.0253.1129C10.9136,3.6149,10.98,3.7059,11.08,3.842ZM3.9521,5.623c.0922-.2586-.16-.282-.232-.4127A.87.87,0,0,0,3.9521,5.623Zm8.9323-2.7908c-.0742-.14-.15-.2821-.3654-.2823A.967.967,0,0,0,12.8844,2.8322ZM10.3574,8.83c.099.1669.0438.31.0765.4623C10.5745,9.0439,10.5683,8.9777,10.3574,8.83ZM9.52,4.6563a.64.64,0,0,0-.2386-.4819A1.2827,1.2827,0,0,0,9.52,4.6563ZM3.4957,8.5607a.4282.4282,0,0,0,.0669-.4929C3.526,8.2353,3.6054,8.4094,3.4957,8.5607Zm-.9938.4334c.1209-.0859.1074-.2016.1165-.3108.0029-.0344.0019-.078-.0481-.0776a.07.07,0,0,0-.0669.0714C2.4991,8.7825,2.5019,8.8883,2.5019,8.9941Zm9.3226-5.0573c-.0313-.1323-.1389-.2824-.1918-.2807-.0162.0005-.0455.0193-.0456.03-.0013.11.0986.1483.1584.2151C11.7577,3.915,11.7819,3.9183,11.8244,3.9368ZM8.5153,7.797c-.0126.2137.0525.338.1892.3643Zm2.2879-3.9761c-.1636.1754.0906.2381.0638.37A.3943.3943,0,0,0,10.8032,3.8209Zm.4535,1.0807c.0391.155.0261.2806.1267.3871A.3255.3255,0,0,0,11.2567,4.9016ZM4.45,9.224c-.1567.1273-.1058.2486-.0447.3712C4.4018,9.4784,4.5028,9.3776,4.45,9.224ZM8.9874,4.1886c-.01.1273.0686.208.1567.32A.37.37,0,0,0,8.9874,4.1886ZM5.6854,6.4851c.0587.1691.0587.1691.2406.1366C5.8838,6.5069,5.7514,6.5577,5.6854,6.4851ZM12.05,3.063c.0454-.0331.1483-.0046.15-.1083.0008-.0506-.0466-.0476-.08-.0369-.06.0193-.1326.0318-.15.1025C11.961,3.06,11.9981,3.08,12.05,3.063Zm-.16,2.4854a.2949.2949,0,0,0,0-.3456Zm-4.5894,1.5c-.025-.1219-.1118-.1215-.1966-.12-.0091,0-.0276.0322-.0248.0461C7.1091,7.1221,7.2522,6.948,7.3013,7.0483ZM10.9476,5.535c.0151-.092.055-.1919-.0279-.2723a.0639.0639,0,0,0-.0512,0C10.8394,5.3655,10.9063,5.4438,10.9476,5.535ZM6.4392,3.7921c.0187-.0678-.0537-.0654-.0893-.0884-.0615-.04-.094.0047-.1076.0567s-.0079.0753.0628.05C6.336,3.7987,6.3932,3.8862,6.4392,3.7921ZM2.8056,9.5593a.7025.7025,0,0,0,.0212.3716C2.8875,9.7638,2.8875,9.7638,2.8056,9.5593Zm7.6826-5.2816c.0479.1063.024.19.111.2168.02.0062.0337-.0078.0356-.0349C10.64,4.3789,10.5922,4.3395,10.4883,4.2777ZM3.0963,6.3431c-.0045-.0422-.0472-.0418-.0736-.0551a.037.037,0,0,0-.0583.0352.0792.0792,0,0,0,.0542.0835C3.0633,6.419,3.0729,6.3727,3.0963,6.3431ZM7.5925,4.17a.1274.1274,0,0,0-.1061-.0774c-.0029,0-.02.0357-.0148.0454A.0774.0774,0,0,0,7.5925,4.17Zm1.941.1743.0308-.0137L9.4768,4.14l-.0329.0146ZM7.28,7.4268c.0192.0881.0311.1385.0992.1542C7.39,7.5024,7.3384,7.4824,7.28,7.4268ZM1.9379,7.73c-.0255-.0162-.0394-.0318-.0539-.0324s-.0309.0133-.0464.0208c.0132.0137.0245.0345.04.0387C1.8907,7.7605,1.9088,7.744,1.9379,7.73ZM4.2567,5.7653l-.02-.0346c-.0084.0094-.0252.0205-.0236.0278A.1423.1423,0,0,0,4.2377,5.8ZM4.04,6.8989l.0178-.009c-.0052-.0041-.01-.011-.0155-.0115s-.0116.0053-.0174.0083Zm-.0668-.0962c-.0056-.0017-.0116-.0057-.0167-.0047-.021.0041-.0216.0119-.0016.0194a.0247.0247,0,0,0,.017-.0024ZM3.3321,3.546l.0088-.0142L3.326,3.53ZM7.28,4.3067l.0113.0055.001-.0083Z" transform="translate(-0.1934 -0.0992)" fill="#ddba62"/><path d="M4.0013,10.1385c.0037.0341-.0013.0938.0124.0985.3238.11.34.4071.423.6685.0227.0713.0848.1906.1765.1514.0824-.0353.1221-.1471.0476-.2675.1291.1741.28-.0257.41.06.1322.0869.1813.2571.3323.3171.0692-.0358.01-.1572.1305-.1607a.3387.3387,0,0,1-.0893.2427.1113.1113,0,0,0,.0122.155c.0494.0521.0868-.0035.1307-.0189.0926-.0326.155-.1148.2673-.1252.0953-.0088.112-.0835.0233-.1591-.0354-.03-.1108-.0765-.0569-.1386a.1074.1074,0,0,1,.1691.0224c.0721.0956.2756.0726.237.2793-.0084.0447.1067.1263.1781.1691.1344.0806.2817.14.4173.2185.1053.0613.1451-.0785.2682-.0606.1641.0239.4214.06.5077-.2129a.1163.1163,0,0,1,.1543-.0289,1.3338,1.3338,0,0,0,.9569.0359.2.2,0,0,0,.2046-.1934c.0222-.1349.177-.1224.2855-.1615.1266-.0457.2339-.1325.288.0849.0205.0825.0939.0448.1133-.0237a.2587.2587,0,0,1,.1506-.17c.0655-.03.1681-.1644.1635.0527a.09.09,0,0,0,.1287.0757c.1313-.0656.3219-.0147.3947-.2015.0188-.0482.0737-.08.104.0032.0685.1871.1165.0364.13-.0169.03-.1144.0258-.2372.0525-.3527.0245-.1061.0707-.1734.2032-.0874.1182.0768.2586.2547.3892.0039l-.0016-.0013c.0248.0829-.0655.1581-.0214.26a1.1241,1.1241,0,0,1,.6279-.2249c.0788-.0028.0581-.1687.1572-.2118.0162.0633-.0266.1509.0443.189.08.0428.08-.0575.1165-.09.0793-.0712.2016-.005.28-.11.0479-.0644.0134-.1841.13-.1988l.0065.1172c.0377-.0572.0494-.0928-.0062-.1174a.5292.5292,0,0,0,.0343-.1444c-.0046-.0983-.0723-.25.0714-.2548a.238.238,0,0,1,.2681.2832.1276.1276,0,0,0,.0433.1352c.09-.1341.1776-.2625.2635-.392.0431-.065.07-.1714.1275-.1912a.47.47,0,0,0,.3455-.5742c.1129.0943.0671.1831.1094.2984a1.1662,1.1662,0,0,0,.1849-.3813,2.5839,2.5839,0,0,0,.11-.7225,3.09,3.09,0,0,1,.1843-.9263,1.9662,1.9662,0,0,0,.3626.3518c.0932.06.0926.1493.0847.2459a.9946.9946,0,0,0,.063.5822.2857.2857,0,0,1-.03.2654c-.2552.48-.5068.9627-.7595,1.4442-.1977.1035-.2128.334-.3308.4946-.0578.0786-.08.1183-.1665.0828-.202-.0829-.3023.0163-.3716.1928-.0309.0788-.0864.1476-.123.2247a.1525.1525,0,0,1-.2073.0926,2.1942,2.1942,0,0,1-.2667-.0627c-.09-.04-.1215-.0018-.1592.0658a.9117.9117,0,0,0-.1819.44.4206.4206,0,0,1-.3427.0125c-.3731-.14-.4638-.086-.5609.2069-.0273.0825-.0361.1229.0676.1468.1519.035.3.0889.4484.1372.0728.0236.1809.0458.1273.15-.1093.2122.032.2014.1655.2118a1.2434,1.2434,0,0,0,.1689.0236c.1526-.01.1648.0616.116.1784-.0394.0943-.0241.1483.095.1346a1.0219,1.0219,0,0,1,.1485.0037c-.02.1406-.1362.2462-.1439.3913a.9282.9282,0,0,1-.149-.0011c-.2164-.036-.2524.1409-.2884.2725-.0468.1709.1572.0562.2008.1407l-.0148.1215a.8478.8478,0,0,1-.4283.1512c-.0225-.1181.1879-.1775.1065-.27-.065-.0735-.2138-.0119-.3254-.0124-.1266-.0005-.1613.0848-.1628.18-.0018.1144.0947.1017.1728.1013.0709,0,.1417-.0017.2126-.0026.0175.0478-.0079.0783-.0391.1107a.8759.8759,0,0,1-.5656.192c.1-.2505.1-.25-.1938-.2878-.0781-.01-.1566-.0182-.2338-.0332a.215.215,0,0,1-.09-.0419c.0707-.28-.1845-.1917-.295-.2585-.2042-.1233-.36-.044-.4847.1383a.3527.3527,0,0,1-.5186.1223.39.39,0,0,0-.4575.04.54.54,0,0,1-.6214.0427.4378.4378,0,0,0-.4055-.0269.67.67,0,0,1-.717-.0277.3567.3567,0,0,0-.449.0053.5013.5013,0,0,1-.6632-.06.3155.3155,0,0,0-.3752-.0559c-.3413.1453-.3485.1461-.5611-.1461a.2092.2092,0,0,0-.2752-.0907,2.7377,2.7377,0,0,1-.34.1129c-.0643.0215-.1317.0362-.1034.1266.0241.0772.0577.153.1579.1459a.46.46,0,0,0,.1222-.0358.49.49,0,0,1,.6581.164.2154.2154,0,0,0,.3161.0677.493.493,0,0,1,.59.0469.3437.3437,0,0,0,.4577.026.5817.5817,0,0,1,.5724-.02.5772.5772,0,0,0,.5689.0184.5355.5355,0,0,1,.5692-.0055.3394.3394,0,0,0,.4111-.043.4416.4416,0,0,1,.5334-.0834.3572.3572,0,0,0,.4673-.07c.2371-.2351.4955-.0963.7489-.051a.0554.0554,0,0,1,.0452.08c-.0509.1189.0391.1078.1058.1193a1.7864,1.7864,0,0,1,.4618.0812c.0191.1493-.1413.1414-.1972.225A.6116.6116,0,0,1,10.8,14.45c-.0986-.09-.1808-.14-.2748.021a.3368.3368,0,0,1-.3392.1379.8971.8971,0,0,0-.61.2026l-.0656.0109a.938.938,0,0,0-.6856.0242.466.466,0,0,1-.3963.0018.5594.5594,0,0,0-.4-.0083.9843.9843,0,0,1-.6519-.0046.4973.4973,0,0,0-.3563-.01l-.0132.002a.8566.8566,0,0,1-.745-.0807c-.0143-.01-.0408-.0017-.0617-.0019a.3784.3784,0,0,0-.2162.0186c-.0327-.0131-.062-.0151-.0789.024l-.0856.0341a1.5143,1.5143,0,0,0-.9026-.1856.1881.1881,0,0,1-.1521-.0624.501.501,0,0,0-.5292-.1658,1.0117,1.0117,0,0,1-.1922-.01.4189.4189,0,0,0-.3467-.2659c-.0324-.0048-.0727-.0059-.089.0363a.0468.0468,0,0,0,.0359.065c.1457.0265.2424.1745.4032.1608l.042.0843a2.3642,2.3642,0,0,1-1.0335-.5222c.0711-.0608.1674.0776.2118-.007.0683-.13.1834-.0825.2791-.11.0981-.0281.2988.0577.2055-.1867-.0122-.0319.0278-.0671.065-.0731.3384-.0541.5758-.3169.8883-.4262.3638-.1271.366-.1347.5672.1927.0775.126.13.178.295.0923.1778-.0922.39-.2642.5979-.0255a.4237.4237,0,0,0,.6532.0493.3951.3951,0,0,1,.5654.0216.4008.4008,0,0,0,.5436.0607.4945.4945,0,0,1,.7085.04.1805.1805,0,0,0,.3052-.0186.5019.5019,0,0,1,.7442-.1249c.0115.008.0265.0109.0388.0181a.1876.1876,0,0,0,.274-.05.5725.5725,0,0,1,.868-.1058c.1483.1462.3168.139.4727.2091.1932.0869.238-.0108.2767-.1577.0088-.0334.0233-.0654.0351-.0979-.1846-.1023-.4336-.0043-.5679-.16-.16-.1854-.3865-.1884-.5732-.2909-.1032-.0567-.1593-.036-.2395.06-.32.3838-.3294.384-.7409.1294a.2835.2835,0,0,0-.3811.0637c-.3253.2861-.3246.2844-.7051.0592-.1525-.09-.29-.14-.4485.0281-.1317.14-.3042.2747-.525.1313a1.4951,1.4951,0,0,1-.2139-.1425.3157.3157,0,0,0-.4538-.0211c-.3441.2323-.3634.2341-.6689-.0525a.3832.3832,0,0,0-.5219-.06c-.334.18-.3512.1716-.5651-.1265-.1083-.1509-.198-.1264-.3531-.0768-.325.104-.5464.4141-.9078.4351-.06.0035-.1262.06-.119.1075.0314.2046-.12.1764-.2357.2176-.1018.0364-.2148-.0066-.3209.065.0329.064.128.13.0586.2-.0525.0533-.1337.01-.2-.0151a.1059.1059,0,0,0-.042.0032L2.8691,13.75c.0381-.0974-.1157-.1176-.0876-.22.1739.0113.3012-.0127.2085-.24-.0369-.0906.0643-.0931.1211-.1065.1521-.0357.3609.0173.361-.2447,0-.0128.0306-.0343.0491-.037.3848-.0558.6183-.39.9663-.52.3516-.1321.3445-.15.5242.1785.0236.0432.0558.0816.0814.1238.0677.1117.13.1447.26.0548.4422-.3043.4758-.2955.866.0606a.6234.6234,0,0,1,.0624.0591.1736.1736,0,0,0,.2808.0246c.3141-.3433.61-.2949.92.0043a.21.21,0,0,0,.3043-.0015c.4174-.3195.441-.32.8759-.02.157.1081.2537.131.4071-.0273.3374-.3484.35-.3361.6595-.1565.3332.1934.3339.1934.5488-.1309.0156-.0236.0229-.0531.04-.0748.0917-.1136.1925-.1875.3479-.1031.18.0976.4285.0776.5248.319.01.0256.0758.0319.1169.042a2.857,2.857,0,0,0,.3141.0694c.15.0189.2113.0893.1481.2314-.048.1078-.0012.1257.09.1224a.9276.9276,0,0,1,.1718,0c.2181.0335.2687-.15.2761-.2757.0081-.1364-.15-.0416-.2311-.0659-.046-.0138-.1012.0053-.1493-.0045-.0588-.012-.1135-.0433-.07-.1177.1184-.2014-.025-.24-.17-.2783-.0829-.022-.1659-.0434-.2487-.0655-.0973-.0259-.212-.0383-.1345-.19.0106-.0207.0123-.0614-.03-.0642a1.5669,1.5669,0,0,1-.5428-.2263.2448.2448,0,0,0-.365.1142,3.0172,3.0172,0,0,0-.2269.36c-.0421.1046-.1029.1086-.18.0447-.1268-.1048-.2489-.2154-.378-.3173-.0446-.0352-.0916-.1145-.1632-.0488a1.8556,1.8556,0,0,0-.34.3415c-.1619.2577-.1636.269-.4028.0723-.0332-.0273-.0669-.0539-.1-.0819-.3126-.2679-.3547-.2677-.66.0042-.3131.279-.3127.2787-.6139-.0122-.3615-.3492-.2606-.3477-.6912-.0556-.3022.205-.3042.2059-.5433-.059-.3069-.34-.21-.2793-.5989-.1134-.0131.0056-.0252.014-.0386.0188-.1328.048-.226.2217-.372.1826-.1655-.0442-.1375-.2459-.2022-.3743-.0709-.1407-.1483-.221-.3162-.1259-.1487.0842-.3075.1505-.4628.2228-.0459.0214-.1194.0447-.11.0888.0456.2152-.1366.1952-.2441.2457-.1094.0515-.2268.0857-.3387.1323-.0525.0218-.1159.0531-.0693.126.1067.1668-.0028.1725-.1249.182-.0708.0055-.14.0326-.2108.04-.1317.0135-.1516.0755-.0921.1831.0221.04.0648.1268,0,.1171-.3042-.0459-.28.1206-.2306.318.0018.0073-.0184.02-.0284.03-.1036-.1321-.2088-.2511-.1382-.4519.027-.0769-.0586-.1934-.0929-.2918.0426-.0044.0856-.0062.1276-.0138.0949-.0172.2909.0626.161-.1736-.0323-.0587.04-.0816.089-.0905.0772-.0142.1565-.0176.2334-.0331.11-.0221.2272-.0438.1251-.2016-.05-.0771-.0122-.11.0651-.1366a3.7716,3.7716,0,0,0,.4183-.1627c.1412-.0675.1563-.2274.0535-.4208-.0715-.1344-.1538-.032-.2305-.0091-.12.0356-.2356.0854-.357.1114-.1553.0333-.2207.0871-.109.24.0754.1031.053.17-.0878.1795-.0631.0044-.124.0346-.1872.0441-.1277.0192-.23.04-.1386.2114.04.076-.0332.1218-.1033.1107-.2589-.0411-.2132.1072-.1683.2587a.3577.3577,0,0,1-.2411-.3042c.1713.0129.1113-.1014.0751-.1646-.0922-.1609-.0026-.1817.1233-.18.1432.0016.2163-.0393.1174-.1849-.0782-.1151-.0153-.15.0862-.169.063-.012.1257-.026.1889-.0374.0866-.0157.1986-.035.1579-.1478-.0475-.1313-.0293-.3342-.2173-.3586a1.5678,1.5678,0,0,0-.4113.0577c-.1037.0156-.1009.0589-.0594.1451.1253.26.1207.2619-.1686.3-.0272.0036-.0537.0125-.097.0229.038.0711.067.1356.105.1943.0779.12-.0113.1272-.0916.1425-.1155-.134-.2444-.2584-.1018-.4581.05-.07-.0275-.1469-.0619-.2159-.0166-.0829.0288-.12.102-.1241.2473-.0133.2335-.13.1214-.292a.5932.5932,0,0,1-.078-.1488c-.0669-.2049-.2377-.1672-.3581-.1151-.17.0735-.0178.1863.0135.28a.8622.8622,0,0,0,.0673.1327c.0544.1-.0223.1021-.0852.1148a.4043.4043,0,0,1-.1618-.5284c.02-.0621-.02-.109-.04-.16-.04-.1041-.1379-.1834-.1274-.3107.0059-.0706-.05-.0784-.1026-.0742-.1485.0117-.21-.09-.2758-.1971A2.726,2.726,0,0,1,.4373,8.8211a.7208.7208,0,0,0-.101-.2075C.2894,8.51.0654,8.4232.2956,8.2831a.0632.0632,0,0,0,.0056-.0606c-.1623-.222.0255-.326.1483-.4543a.2488.2488,0,0,0,.0774-.2126c-.0148-.12.0128-.2137.1665-.206.0746.0038.0824-.0555.0992-.1141a.3588.3588,0,0,1,.1942-.2413c.0006.2012.0007.4024.0022.6037,0,.0664.042.06.0867.0452l0-.0005c-.124.15.043.2894.0141.4451a1.453,1.453,0,0,0,.0153.6181c.0357.1408.0666.301.2552.3343.0635.0112.0435.0977.1216.1432l.0675-.712c.0812.0554.1492.0836.0852.2335a.913.913,0,0,0-.0271.5756c.1094-.0373.113-.1155.1072-.2022a2.6556,2.6556,0,0,0-.0364-.5965c-.0127-.0429-.0172-.087.0382-.1023.0114-.0031.0434.02.043.03-.011.2707.2235.5168.0786.8023-.0254.05-.0886.09-.0473.1719.0306.06-.0371.0683-.076.0585-.1834-.0462-.16.0927-.1486.1837.0074.057.0913.1041.0082.1688-.0071.0055-.0018.0268-.0023.0407.2364-.0589.2062.2683.3955.2742.2477.0077.4665.1594.7129.1491.091-.0038.2475-.0026.2113-.1867-.0081-.0413.0027-.0948.0587-.0959.0589-.0011.0606.0526.0584.0948-.0076.1468.03.2428.2065.2351.1014-.0044.1531.0646.1769.1651.03.1248.0957.2833.23.2463.1381-.038.31-.1337.29-.3349a.2458.2458,0,0,1,.0922-.2412Zm.56,3.871.0092.0133.01,0-.022-.01c-.01-.1956-.0988-.2824-.2994-.2221-.0685.0206-.1412.0288-.2076.0541-.0546.0208-.1662-.0241-.1423.1033a.17.17,0,0,0,.1727.1541A1.93,1.93,0,0,0,4.5609,14.01Zm6.0118.165a.7138.7138,0,0,0-.8158.1339.2384.2384,0,0,1-.2818.0271.4821.4821,0,0,0-.5456.0317.47.47,0,0,1-.5224.0344A.4167.4167,0,0,0,8,14.4005a.7483.7483,0,0,1-.782-.0705.2661.2661,0,0,0-.2533-.0117c-.2342.0885-.481.205-.7193-.0045a.308.308,0,0,0-.3772-.0024.231.231,0,0,1-.3259-.0531c-.2014-.2811-.45-.2073-.7034-.1047-.04.0162-.1177.0109-.0981.0851.0157.0593.0449.1253.1317.1087a1.6382,1.6382,0,0,0,.2933-.06.2772.2772,0,0,1,.3586.09.405.405,0,0,0,.4872.1518.4705.4705,0,0,1,.3733.0351.617.617,0,0,0,.5361.0171.7172.7172,0,0,1,.5795.021.5914.5914,0,0,0,.4988.01.6484.6484,0,0,1,.5206-.0069.4862.4862,0,0,0,.4481-.0508.5249.5249,0,0,1,.4732-.0426.2964.2964,0,0,0,.3015-.0249.6019.6019,0,0,1,.5418-.135C10.473,14.4184,10.546,14.3364,10.5727,14.1745Z" transform="translate(-0.1934 -0.0992)" fill="#351c17"/><path d="M2.6292,13.5043c.01-.01.03-.0232.0284-.03-.0494-.1974-.0736-.364.2306-.318.0645.01.0218-.077,0-.1171-.0594-.1076-.04-.17.0921-.1831.0709-.0073.14-.0343.2108-.04.1222-.01.2316-.0153.1249-.182-.0466-.0728.0168-.1041.0693-.126.1119-.0466.2293-.0808.3387-.1323.1075-.0506.29-.0306.2441-.2457-.0094-.0442.0642-.0675.11-.0888.1553-.0723.3141-.1386.4628-.2228.1679-.0951.2453-.0149.3162.1259.0647.1284.0367.33.2022.3743.1461.0391.2392-.1346.372-.1826.0134-.0048.0254-.0132.0386-.0188.3889-.1659.292-.2266.5989.1134.2391.2649.2411.264.5433.059.4307-.2921.33-.2936.6912.0556.3011.2909.3008.2912.6139.0122.3051-.2719.3472-.2721.66-.0042.0326.028.0664.0546.1.0819.2393.1967.2409.1854.4028-.0723a1.8556,1.8556,0,0,1,.34-.3415c.0716-.0657.1187.0136.1632.0488.129.1019.2511.2125.378.3173.0773.0638.1381.06.18-.0447a3.0172,3.0172,0,0,1,.2269-.36.2448.2448,0,0,1,.365-.1142,1.5669,1.5669,0,0,0,.5428.2263c.0421.0028.04.0435.03.0642-.0775.1521.0371.1645.1345.19.0829.022.1659.0434.2487.0655.145.0386.2884.0769.17.2783-.0438.0745.0109.1058.07.1177.0482.01.1033-.0094.1493.0045.0808.0243.2393-.07.2311.0659-.0075.1253-.0581.3092-.2761.2757a.9276.9276,0,0,0-.1718,0c-.0911.0032-.1378-.0146-.09-.1224.0632-.1421.0017-.2125-.1481-.2314a2.857,2.857,0,0,1-.3141-.0694c-.0412-.01-.1067-.0163-.1169-.042-.0963-.2414-.3452-.2214-.5248-.319-.1554-.0845-.2562-.0105-.3479.1031-.0175.0217-.0248.0513-.04.0748-.2149.3242-.2156.3243-.5488.1309-.3093-.18-.3221-.1919-.6595.1565-.1534.1584-.25.1355-.4071.0273-.4349-.3-.4585-.2994-.8759.02a.21.21,0,0,1-.3043.0015c-.31-.2992-.6062-.3476-.92-.0043a.1736.1736,0,0,1-.2808-.0246.6234.6234,0,0,0-.0624-.0591c-.39-.3561-.4237-.3649-.866-.0606-.1306.09-.1925.0569-.26-.0548-.0256-.0422-.0577-.0806-.0814-.1238-.18-.328-.1726-.3105-.5242-.1785-.348.1307-.5815.4646-.9663.52-.0185.0027-.0491.0242-.0491.037,0,.2619-.2089.209-.361.2447-.0568.0133-.158.0158-.1211.1065.0927.2277-.0346.2517-.2085.24-.0281.1026.1256.1228.0876.22A.387.387,0,0,1,2.6292,13.5043Z" transform="translate(-0.1934 -0.0992)" fill="#ddba62"/><path d="M2.9251,13.8126a.1059.1059,0,0,1,.042-.0032c.0667.025.1479.0684.2.0151.0694-.07-.0257-.1359-.0586-.2.1061-.0716.2191-.0286.3209-.065.1154-.0413.2671-.013.2357-.2176-.0072-.0471.0591-.104.119-.1075.3614-.021.5828-.3311.9078-.4351.155-.05.2448-.0741.3531.0768.2139.2981.2311.3061.5651.1265a.3832.3832,0,0,1,.5219.06c.3055.2866.3248.2848.6689.0525a.3157.3157,0,0,1,.4538.0211,1.4951,1.4951,0,0,0,.2139.1425c.2209.1434.3933.0088.525-.1313.1583-.1684.296-.1183.4485-.0281.3805.2252.38.2269.7051-.0592a.2835.2835,0,0,1,.3811-.0637c.4115.2546.4206.2544.7409-.1294.08-.096.1363-.1166.2395-.06.1868.1026.4132.1055.5732.2909.1343.1555.3833.0576.5679.16-.0118.0326-.0263.0645-.0351.0979-.0387.1468-.0835.2445-.2767.1577-.1559-.07-.3244-.0629-.4727-.2091a.5725.5725,0,0,0-.868.1058.1876.1876,0,0,1-.274.05c-.0123-.0071-.0273-.01-.0388-.0181a.5019.5019,0,0,0-.7442.1249.1805.1805,0,0,1-.3052.0186.4945.4945,0,0,0-.7085-.04.4008.4008,0,0,1-.5436-.0607.3951.3951,0,0,0-.5654-.0216.4237.4237,0,0,1-.6532-.0493c-.208-.2387-.42-.0667-.5979.0255-.1654.0857-.2175.0338-.295-.0923-.2012-.3274-.2033-.32-.5672-.1927-.3126.1092-.55.3721-.8883.4262-.0372.006-.0772.0412-.065.0731.0932.2444-.1075.1587-.2055.1867-.0956.0274-.2108-.02-.2791.11-.0444.0846-.1408-.0538-.2118.007A.1727.1727,0,0,1,2.9251,13.8126Z" transform="translate(-0.1934 -0.0992)" fill="#ddba62"/><path d="M12.3071,11.5591a.9116.9116,0,0,1,.1819-.44c.0377-.0676.0692-.1057.1592-.0658a2.1942,2.1942,0,0,0,.2667.0627.1525.1525,0,0,0,.2073-.0926c.0365-.0771.092-.1459.123-.2247.0693-.1765.17-.2758.3716-.1928.0864.0355.1087-.0042.1665-.0828.118-.1606.1331-.3912.3308-.4946a4.5008,4.5008,0,0,1-.3225.7363c-.1248.2981-.3269.556-.429.866a.8742.8742,0,0,1-.2682.4236c-.1009-.0371-.2414.0428-.3032-.0394-.069-.0918.05-.19.0833-.2862.0326-.0948-.0412-.0842-.0887-.0927-.16-.0288-.3205-.0532-.4809-.0793Zm.9839-.3892c-.23-.0663-.2292.1372-.297.2558-.0547.0956-.0126.1247.0917.1485.1923.0438.2408-.0666.31-.2072C13.4654,11.2239,13.5094,11.1377,13.2909,11.17Z" transform="translate(-0.1934 -0.0992)" fill="#ddba62"/><path d="M12.74,12.7647a1.0219,1.0219,0,0,0-.1485-.0037c-.119.0137-.1344-.04-.095-.1346.0488-.1167.0366-.1884-.116-.1784a1.2434,1.2434,0,0,1-.1689-.0236c-.1334-.01-.2747,0-.1655-.2118.0537-.1042-.0545-.1264-.1273-.15-.1487-.0483-.2964-.1022-.4484-.1372-.1037-.0239-.0949-.0643-.0676-.1468.0971-.2929.1878-.3471.5609-.2069a.4206.4206,0,0,0,.3427-.0125l-.0023-.0025c-.1442.4239-.1458.4343.2887.5009.12.0185.0839.0487.0621.1143-.021.0633-.1044.1355-.0356.1922.0726.06.179.0335.2684.0132.04-.0092.0249-.1.0964-.0913A.5776.5776,0,0,1,12.74,12.7647Z" transform="translate(-0.1934 -0.0992)" fill="#ddba62"/><path d="M2.2893,12.6741c-.0449-.1515-.0906-.3.1683-.2587.07.0111.1435-.0347.1033-.1107-.091-.1719.011-.1923.1386-.2114.0632-.0095.1241-.04.1872-.0441.1407-.01.1631-.0763.0878-.1795-.1116-.1528-.0462-.2066.109-.24.1214-.026.2375-.0758.357-.1114.0768-.0228.1591-.1252.2305.0091.1029.1934.0878.3533-.0535.4208a3.7716,3.7716,0,0,1-.4183.1627c-.0773.0262-.1151.06-.0651.1366.1022.1578-.0154.18-.1251.2016-.0769.0155-.1562.0189-.2334.0331-.0486.009-.1213.0319-.089.0905.13.2361-.0661.1563-.161.1736-.042.0076-.085.0094-.1276.0138C2.3228,12.7808,2.3228,12.7064,2.2893,12.6741Z" transform="translate(-0.1934 -0.0992)" fill="#ddba62"/><path d="M1.8568,11.99c.08-.0154.1695-.0225.0916-.1425-.038-.0586-.067-.1231-.105-.1943.0433-.01.07-.0193.097-.0229.2893-.0381.2939-.04.1686-.3-.0415-.0862-.0443-.1295.0594-.1451a1.5678,1.5678,0,0,1,.4113-.0577c.188.0244.17.2273.2173.3586.0408.1128-.0713.1321-.1579.1478-.0631.0114-.1258.0254-.1889.0374-.1015.0194-.1644.0538-.0862.169.0989.1455.0258.1865-.1174.1849-.126-.0014-.2156.0194-.1233.18.0362.0632.0962.1774-.0751.1646C1.91,12.2807,1.9595,12.0969,1.8568,11.99Z" transform="translate(-0.1934 -0.0992)" fill="#ddba62"/><path d="M12.9847,12.2859c-.0716-.0088-.056.0821-.0964.0913-.0894.02-.1959.0466-.2684-.0132-.0688-.0567.0146-.1289.0356-.1922.0218-.0656.0583-.0959-.0621-.1143-.4345-.0666-.433-.077-.2887-.5009.16.0261.321.0506.4809.0793.0474.0085.1212-.0021.0887.0927-.0331.0964-.1523.1944-.0833.2862.0618.0822.2023.0023.3032.0394Z" transform="translate(-0.1934 -0.0992)" fill="#351c17"/><path d="M4.0433,14.3989a1.0107,1.0107,0,0,0,.1922.01.501.501,0,0,1,.5292.1658.1881.1881,0,0,0,.1521.0624,1.5143,1.5143,0,0,1,.9026.1856.1382.1382,0,0,1-.1759.0854,6.0963,6.0963,0,0,1-1.5549-.4282l-.0419-.0843Z" transform="translate(-0.1934 -0.0992)" fill="#ddba62"/><path d="M1.476,11.163c.0628-.0127.14-.0146.0852-.1148a.8622.8622,0,0,1-.0673-.1327c-.0312-.0934-.183-.2063-.0135-.28.12-.0522.2912-.09.3581.1151a.5932.5932,0,0,0,.078.1488c.112.1624.1258.2787-.1214.292-.0732.0039-.1186.0413-.102.1241A.5636.5636,0,0,1,1.476,11.163Z" transform="translate(-0.1934 -0.0992)" fill="#ddba62"/><path d="M7.02,14.8261a.4973.4973,0,0,1,.3563.01.9843.9843,0,0,0,.6519.0046.5594.5594,0,0,1,.4.0083.466.466,0,0,0,.3963-.0018.938.938,0,0,1,.6856-.0242.6476.6476,0,0,1-.4289.0942,2.7922,2.7922,0,0,1-.849-.0522c-.0786-.03-.1935.0264-.2892.0523A2.6279,2.6279,0,0,1,7.02,14.8261Z" transform="translate(-0.1934 -0.0992)" fill="#ddba62"/><path d="M11.1194,14.3642c.0559-.0836.2162-.0757.1972-.225l-.0008.0008a.8759.8759,0,0,0,.5656-.192c.0312-.0324.0566-.0629.0391-.1107l-.0036.0035a.8479.8479,0,0,0,.4283-.1512.2368.2368,0,0,1-.1174.17,3.8144,3.8144,0,0,1-1.022.537C11.1685,14.4092,11.1219,14.4459,11.1194,14.3642Z" transform="translate(-0.1934 -0.0992)" fill="#ddba62"/><path d="M9.5759,14.8119a.8971.8971,0,0,1,.61-.2026.3368.3368,0,0,0,.3392-.1379c.094-.1607.1762-.1109.2748-.021A2.2645,2.2645,0,0,1,9.5759,14.8119Z" transform="translate(-0.1934 -0.0992)" fill="#ddba62"/><path d="M12.36,13.5681c-.0436-.0845-.2476.03-.2008-.1407.036-.1316.072-.3086.2884-.2725a.9282.9282,0,0,0,.149.0011C12.4982,13.2823,12.5386,13.4881,12.36,13.5681Z" transform="translate(-0.1934 -0.0992)" fill="#ddba62"/><path d="M7.2229.1319A.3231.3231,0,0,1,6.81.3848,1.5841,1.5841,0,0,0,6.3478.2754.3778.3778,0,0,1,6.7339.231c.1449.0561.3151.0913.411-.1033Z" transform="translate(-0.1934 -0.0992)" fill="#351c17"/><path d="M6.2,14.7455c.0208,0,.0474-.0079.0617.0019a.8566.8566,0,0,0,.745.0807A.6462.6462,0,0,1,6.2,14.7455Z" transform="translate(-0.1934 -0.0992)" fill="#ddba62"/><path d="M1.8489,3.4605c.1186-.03.1277-.1916.2545-.2117l.0185.0217c-.08.1494-.1548.3038-.3522.3259C1.7569,3.5283,1.8026,3.4942,1.8489,3.4605Z" transform="translate(-0.1934 -0.0992)" fill="#351c17"/><path d="M5.9049,14.7881c.0169-.0391.0462-.0371.0789-.024C5.9707,14.8159,5.9486,14.8376,5.9049,14.7881Z" transform="translate(-0.1934 -0.0992)" fill="#ddba62"/><path d="M12.7862,2.5151c-.01-.0031-.0136-.0087-.01-.0168Z" transform="translate(-0.1934 -0.0992)" fill="#351c17"/><path d="M6.1538,3.2978A1.3916,1.3916,0,0,1,5.2806,2.7c-.0661-.0837-.2336-.1776-.0478-.3181.0281-.0213.0078-.1175-.0569-.1084C5.01,2.297,5.0481,2.1845,5.0479,2.1a1.2387,1.2387,0,0,1,.6462-1.049A3.0505,3.0505,0,0,1,7.118.5834,3.9817,3.9817,0,0,1,7.9048.5466a3.5236,3.5236,0,0,1,1.9078.6109,1.1128,1.1128,0,0,1,.46,1.3147,1.5,1.5,0,0,1-.7927.78,3.303,3.303,0,0,1-1.4985.3859,4.4217,4.4217,0,0,1-1.3359-.0991.9767.9767,0,0,1-.4938-.2433l.1242-.01a.3231.3231,0,0,0-.06-.0282.5.5,0,0,0-.0643-.0023c-.0108-.0431-.0251-.0837-.0819-.0739-.0093.0016-.0246.02-.0226.0263.0176.0548.0709.03.1069.0451Zm-.6471-.4733a.0658.0658,0,0,0-.0061-.016L5.49,2.8043l.0189.0184a.143.143,0,0,0,.0855.0858l.0435.0435a.1492.1492,0,0,0,.1281.0859l.0423.0327.011-.021L5.7638,3.04c-.0077-.0809-.0718-.0778-.1283-.0862L5.5923,2.91A.0794.0794,0,0,0,5.5066,2.8246ZM5.2933,1.62a.3315.3315,0,0,0-.1085.201c.1251-.0419.0967-.1308.1064-.203.0807-.0087.0826-.07.0858-.13a.2852.2852,0,0,0,.2151-.2148l.0235-.0169-.013.0021a.0671.0671,0,0,0-.0084.0171.3072.3072,0,0,0-.215.2144A.1446.1446,0,0,0,5.2933,1.62Zm.0853,1.074c.0148.0156.02.06.054.0186l-.0558-.0164a.2247.2247,0,0,0-.1149-.2012A.2529.2529,0,0,0,5.3785,2.6937ZM7.997,1.5945l.0973-.0324c.0726.0072.1674.0005.155-.083-.0114-.0762-.1016-.0269-.1586-.0169l-.0914-.0363a.5808.5808,0,0,0-.4-.268c-.04-.0057-.0867-.0046-.1034.0489l-.1.0012c.0007-.0264-.0142-.0365-.0382-.0344a.0206.0206,0,0,0-.0145.013c-.0038.0241.0063.039.0324.04-.0065.0781-.0125.1563-.02.2344-.0068.0737.06.1675-.0287.217s-.1112-.0812-.1822-.0956c-.0112-.0023-.0245.006-.0386.01-.0291.0714.0357.1.0687.14.059.0721.1287.1694.2208.1462.0834-.021.0712-.1355.0725-.2178.0005-.035-.0043-.0777.0383-.0892a.1424.1424,0,0,1,.1513.0552c.1387.16.2749.3165.5268.2607a2.8058,2.8058,0,0,0,.3452-.03c.0639-.0236-.0173-.1282-.0058-.1971.0044-.0263.0106-.0653.0281-.0739.0485-.0239.0728.0257.1058.05.1225.09.1787.2919.39.2314.13.014.2643.135.4269-.0261-.1678.01-.2856-.0828-.4226-.0409.0059-.1491-.0906-.3017.0172-.4478a.0421.0421,0,0,0-.0179-.0685.0548.0548,0,0,0-.07.0275.3153.3153,0,0,0-.0593.3349l-.0458.0551c-.09-.0687-.209-.1243-.0984-.29-.2235.13-.24.123-.2532-.0931-.0027-.0439.0111-.0889-.0489-.0948-.07-.0069-.078.0424-.0768.0967.0024.1064.0023.2129.0064.3192a.1307.1307,0,0,1-.1129.1517c-.0872.0213-.1691.036-.2306-.0456-.0236-.0314-.0134-.0859-.0653-.1.0046-.0052.0137-.0112.0129-.0154A.2011.2011,0,0,0,7.997,1.5945Zm-1.49,1.072a.55.55,0,0,1-.0733-.4428c.0071-.0307.0435-.0625.0055-.0831-.0453-.0245-.0784.015-.1009.0519-.0711.1169-.0232.2521-.0556.3752a4.3648,4.3648,0,0,0-.47-.3215l-.0414.5084c.0734-.021.0263-.06.0338-.0848.0277-.0911.0416-.2218.1055-.2576.0782-.0438.1281.0838.1837.1442.0783.085.1153.2254.2738.1993.1719.0273.347.0828.5006-.0555.1307-.0345.1488-.1741.2337-.27.0947.1245.109.3385.3424.2734-.2583-.1439-.1957-.3586-.1487-.57.1083-.0562.2341-.1188.3357-.0354s.16.0256.2342-.0182a1.4394,1.4394,0,0,1,.0137.59c-.0071.0418-.0359.0844.025.1023a.1677.1677,0,0,0,.1048.0033c.0629-.0277.0038-.0688.0028-.1048-.0024-.0861-.0826-.1929.0748-.2382.1892-.0544.208-.0413.206.224,0,.05-.0268.1046.0523.1055.0664.0008.0721-.0433.07-.1017-.0061-.2063-.0053-.4129-.0071-.6193.0174-.0277.01-.0308-.0162-.0167L8.298,2.0223c-.03-.02-.0645-.0328-.08.0111a.0752.0752,0,0,0,.0461.0977c.08.2009-.0412.21-.1866.1954l-.0107-.0092-.0108.0091c-.0939-.0236-.0707-.11-.0529-.1523.0706-.1666-.0249-.1682-.1406-.16-.091-.0157-.1814-.0387-.2731-.0455-.1328-.01-.2555.0116-.3023.1651-.1277.0051-.0869.1711-.1868.2082-.1292-.3227-.2906-.4128-.54-.3079.26.044.3626.1021.3937.2433a.3451.3451,0,0,1-.1616.3882Zm3.2662.124c-.0832-.1766-.2741-.243-.3932-.3833a.0474.0474,0,0,0-.0745-.0025c-.0095.0116-.01.0487-.0017.0539.1654.1046.227.3466.4658.3532.0332.14-.1962.08-.1618.2406a1.0489,1.0489,0,0,0,.4365-.4217C9.94,2.6673,9.89,2.7816,9.7729,2.79ZM6.5186,1.7888c-.0589-.0266-.1391-.077-.0924-.1322.1093-.1292.03-.2974.1147-.4247a.4074.4074,0,0,1,.0776.028c.0575.0347.1438.1.1258-.0313-.0111-.0808-.1333-.0786-.217-.0717a.2228.2228,0,0,0-.07.0333c-.1175.1413-.077.3211-.1186.4807-.0386.1481.0045.2124.16.1867a.1026.1026,0,0,0,.125-.001c.0858.0023.1716.0062.2574.0062.0421,0,.1069-.0116.07-.0659-.0873-.1292.0817-.2558-.0128-.3878-.0342-.0478.1241-.1852-.0237-.1944-.1419-.0088-.0434.1464-.0642.2239-.0406.1515.0334.3678-.2441.351A.0794.0794,0,0,0,6.5186,1.7888ZM5.863,1.3949a1.0288,1.0288,0,0,1-.0475.3275c-.0226.0536-.0089.1309.0558.1378.0715.0076.0578-.0677.0719-.1206a1.9935,1.9935,0,0,1,.1025-.4722.4328.4328,0,0,1,.123.0109c.0571.0223.12.0457.1358-.03.0182-.0882-.0605-.0975-.1246-.0946-.0507.0022-.1149-.0288-.1474.0419l-.0933.0128C5.7783,1.2151,5.8763,1.3277,5.863,1.3949ZM8.7442,2.7806c.0531.07.1278.0393.1922.0336.0551-.0049.1231-.0358.103-.1039-.0269-.0913-.0837-.0258-.1316-.0085a1.2346,1.2346,0,0,1-.1412.0339c-.0869-.0662-.0739-.1629-.0747-.2536-.0013-.1314.1667-.03.2055-.1607-.1909.0414-.2578-.0288-.1974-.2.0225-.0637-.0209-.07-.0654-.0745-.0656-.0062-.0876.0248-.082.0887a2.2217,2.2217,0,0,1,.0295.4872C8.56,2.7858,8.6161,2.804,8.7442,2.7806Zm.5141-.74c-.0952.0314-.2276-.03-.21.0514a6.0317,6.0317,0,0,0,.0769.6694c.0085.0255.0528.0421.0838.0552.0079.0033.0427-.03.0408-.034-.0793-.1458.0173-.3136-.0368-.444A.2527.2527,0,0,1,9.2583,2.041Zm.1609-.1787A.2568.2568,0,0,0,9.65,1.6085a.2842.2842,0,0,0-.2132-.3093A.473.473,0,0,1,9.4192,1.8623Zm-.1368,1.362a1.1122,1.1122,0,0,0-.5191.1625A.996.996,0,0,0,9.2824,3.2243ZM7.9955.6659a.9193.9193,0,0,0-.72,0ZM10.273,2.0531a.718.718,0,0,0-.1658.4958A.9029.9029,0,0,0,10.273,2.0531Zm-.9736.0162c.0076.0788.1133.0529.1282.1285.0073.0373-.0407.1464.07.0964.0542-.0245.04-.1024.0152-.1551C9.4683,2.0429,9.3911,2.0332,9.2995,2.0694ZM5.8517,1.0765a.7261.7261,0,0,0,.4106-.17A.832.832,0,0,0,5.8517,1.0765Zm2.1,2.4748a.7922.7922,0,0,0-.4592,0ZM6.5161,3.3574a.125.125,0,0,0-.1883-.0107A.2023.2023,0,0,0,6.5161,3.3574ZM5.9611,2.0456c-.052.0457-.1671-.0488-.1767.0909C5.8228,2.0609,5.917,2.1088,5.9611,2.0456ZM5.7776,1.181c-.0083-.0119-.0156-.0284-.02-.0276a.0976.0976,0,0,0-.0551.02c-.016.0191-.0029.0406.0219.0376C5.7424,1.2085,5.7587,1.1921,5.7776,1.181Zm.1708,1.9716c.0049-.0114.0162-.0268.0127-.0317a.039.039,0,0,0-.0323-.0141.034.034,0,0,0-.0131.03C5.9213,3.1451,5.9369,3.1474,5.9484,3.1525Z" transform="translate(-0.1934 -0.0992)" fill="#fdfdfd"/><path d="M3.0791,5.77c.0057.0816.0963.166-.0382.241-.0566.0316.0477.0748.0608.1218L3.1056,6.13c-.0924-.0348-.1349.0467-.2006.0752a1.0916,1.0916,0,0,1-.4683.0693C2.4209,6.2,2.4775,6.1557,2.49,6.1c.01-.044.0339-.1052-.0345-.1277a.0941.0941,0,0,0-.1184.0679,1.2985,1.2985,0,0,1-.1783.4009c-.0726.0831-.1634.1333-.0116.222.03.0174.0072.0849-.0287.081-.2832-.0315-.2694.269-.4379.37-.1466-.1151-.129-.2185-.0116-.3781a1.2557,1.2557,0,0,0,.184-.7017c.0058-.13.0614.0077.08-.0234.0016.0247.0072.0419.0342.0178l-.0294-.0224c.0557-.0359.1053-.0779.0982-.1522C2.015,5.63,2.1719,5.5,2.2887,5.34c.0773.1245.1268.19.2658.0511a1.9921,1.9921,0,0,0,.3347-.3739c.0277-.047.1626-.0888.0661-.1424-.0459-.0255-.1771-.1329-.2613.0024a.18.18,0,0,1-.1565.0969l.0019.0018A.338.338,0,0,1,2.6516,4.75a4.7807,4.7807,0,0,1,.7072-.8869c.0774-.058.18-.138.07-.28-.0355-.0458.0828-.1375.056-.257-.0222-.099-.0223-.1474-.13-.1626-.1749-.0247-.1311-.1073-.04-.1916a.6783.6783,0,0,0,.2555-.4273c.01-.1011.0039-.1685-.1383-.12a.333.333,0,0,1-.3038.0105c-.0119.0805.031.0971.0716.1283.0442.034.2191.1031-.0054.1374.0606.169-.1532.1243-.1734.2179-.06.2783-.2868.2132-.4684.2522-.0168-.086.0551-.0816.09-.11.15-.1213.289-.2353.2612-.4694-.0216-.1817.183-.3667.3918-.4077.08-.0158.1767.0325.2219-.1139.02-.0655.2049-.0562.2958-.0018a.1391.1391,0,0,1,.04.2281c-.0432.0516-.007.118.0247.1786a.8135.8135,0,0,1,.1245.2882c.01.0895.0363.0444.05-.0079s.0465-.0177.0556-.0008c.0215.04.0778.0669.0485.13-.0728.1568.0181.2575.0894.3954.0953.1844.2063.3663.2861.5642.0981.2435.005.2628-.1849.2525-.1305-.0071-.2189.0966-.3383.1277.0481.0782.1289.0127.1978.0469-.1425.1635-.4028.112-.5213.2918a.4038.4038,0,0,0,.0422.5768.69.69,0,0,0-.7614.1308c-.0551.0726-.0982.1338.0458.1522.1723.0221.1531.1791.1915.2941l-.0768.0007a.1028.1028,0,0,0-.0952-.0755c-.0163-.0051-.0435-.0188-.0469-.0143-.0167.0218.0025.0324.021.04C2.9976,5.7258,3.0109,5.7676,3.0791,5.77ZM4.4408,3.8712c-.1463-.2133-.218-.4886-.561-.44-.0361.0051-.0762-.0438-.1142.0034-.04.05-.0116.0949.011.1384A1.2417,1.2417,0,0,0,4.4408,3.8712Zm-1.0115.8716.0378-.0163-.0157-.0278c-.0058.004-.0144.0067-.0167.0122A.139.139,0,0,0,3.4292,4.7428Z" transform="translate(-0.1934 -0.0992)" fill="#351c17"/><path d="M4.2829,5.25l-.038-.1316c.01.0359.0357.0669.0673.0412.0482-.0392.0092-.0645-.03-.0819-.0008-.0775.1657-.0915.06-.2217.0734.0564.1452.1862.18.013.0223-.1123.0754-.1416.1778-.1684.16-.0418.2644-.1361.1668-.3261a.2814.2814,0,0,1,.1285-.4268c.0369-.02.11-.054.0166-.0976-.0612-.0286-.0255-.0644-.0056-.08a1.9927,1.9927,0,0,1,.3959-.3292c-.0285.1075-.17.1757-.0315.2671.0807.0535.1025.1715.1663.2381s.1122.2965.0118.3785c-.1845.1507-.2725.4-.5134.4916-.0255.01-.0461.0538-.0537.0856a2.0652,2.0652,0,0,1-.522.7695c-.0416-.1639-.2364-.1959-.22-.3736.0212.03.0506.0516.0789.0181C4.3527,5.2767,4.3117,5.2638,4.2829,5.25Z" transform="translate(-0.1934 -0.0992)" fill="#351c17"/><path d="M4.2579,2.1332c.0176.041-.0363.1335.0673.1127.2571-.0516.2848-.0318.2672.2465-.111-.1588-.1931-.128-.2531.0215.4226.0372.4561.0238.4478-.249a3.0634,3.0634,0,0,0,.6582.9617l-.4733.0249c.1621.1511.1518.2455-.0326.4356-.0581-.1785-.032-.3963-.3017-.463-.2129-.0527-.2467-.2707-.2744-.4535-.0247-.1634-.0678-.2159-.2437-.2068-.0457.0024-.1-.049-.0675-.0828.0964-.0989.1805-.194.145-.3449l.064,0Zm.535.4477c-.2269.0156-.2509.1335-.1969.303a.28.28,0,0,1-.0087.1466c-.0155.0589,0,.106.0518.1211.0437.0128.1177.0159.139-.01.0348-.0417.0678-.1461.0494-.1615C4.681,2.8581,4.7345,2.7233,4.7929,2.5809Z" transform="translate(-0.1934 -0.0992)" fill="#351c17"/><path d="M7.4449,5.0589c-.0665.1809.0423.3079.1359.4388a.7406.7406,0,0,1,.1356.47.7776.7776,0,0,0,.2086.63c.0954.0847.0767.2526.228.3039.0385.0131.01.0776-.0259.107a.0773.0773,0,0,1-.1151-.0016A.42.42,0,0,1,7.92,6.8638c-.0712-.2409-.2973-.37-.4138-.58a.3568.3568,0,0,1-.0677-.1968c.0023-.26-.1826-.4868-.1422-.7557a.0857.0857,0,0,0-.0222-.0764c-.1376-.1636-.1183-.2359.0569-.3963.0779-.0714-.0388-.1455-.0409-.2229.1819-.0192.2974-.0867.193-.3357.2014.1117.0617.3158.1749.4172l.0021-.002c-.0466.0142-.1534-.0187-.0842.0915.0559.089-.0467.196.0558.29.0385.0352-.0975.116-.1274.0446-.0155-.037.0023-.0832-.0613-.0788-.0071-.0464.0376-.1256-.0613-.1154a.075.075,0,0,0-.06.095C7.3457,5.1434,7.4011,5.0684,7.4449,5.0589Zm.1225,1.066c.0121-.0059.03-.009.0333-.0178a.0369.0369,0,0,0-.0116-.0344.0256.0256,0,0,0-.0414.0212C7.5468,6.1033,7.56,6.1141,7.5674,6.1249Z" transform="translate(-0.1934 -0.0992)" fill="#fdfdfd"/><path d="M3.6526,6.9425c.0594.0075.0544-.1261.1174-.026.1059.1681.0489.3619.0655.5417.0059.0635-.1512.0887-.2417.0693a.3425.3425,0,0,1-.2276-.1713c-.023-.0411.0019-.1485-.0883-.0376-.0188.0231-.0667-.0289-.041-.0617a.871.871,0,0,1,.1615-.1686.3358.3358,0,0,0,.17-.3758c-.0569-.176.0166-.3465-.0246-.5274a.6075.6075,0,0,1,.1657-.4477c.0361-.0443.0359.017.0362.0252.0023.0695.1764.0089.1007.13a.3368.3368,0,0,0,.015.4325c.0406.0482.023.0816-.0182.099C3.5913,6.53,3.7037,6.76,3.6526,6.9425Z" transform="translate(-0.1934 -0.0992)" fill="#351c17"/><path d="M10.4568,4.6723c-.1074.0423-.2482-.0968-.3341.0616-.0244-.0136-.0654-.0227-.0706-.0415-.0751-.277-.3635-.413-.4369-.6463.1133-.1953.3049-.2741.4451-.4149a.8809.8809,0,0,1,.11-.1009.0641.0641,0,0,1,.0949.0134.0688.0688,0,0,1-.0131.0964c-.0451.0326-.1023.0487-.1471.0816a.07.07,0,0,0-.0133.1116.064.064,0,0,0,.0959-.0036c.0488-.0617.1409-.1363.1771-.1062a.5835.5835,0,0,1,.1221.2418.9325.9325,0,0,1,.0322.1623c-.1.0522-.1132-.07-.1932-.0871-.1683-.0358-.2437-.0422-.1631.1607-.0866.0036-.083-.106-.1569-.0951-.02.1777.09.2852.2441.2235.06-.0242.1062-.0414.1548.0008.0879.0764-.03.0841-.0466.1255-.0449.1088.1654.1017.0965.2186Z" transform="translate(-0.1934 -0.0992)" fill="#fdfdfd"/><path d="M11.5061,4.4059l.0544.1417c.0848-.1979-.06-.272-.1358-.3767-.0322-.0447-.0884-.0714-.126-.1132a.0669.0669,0,0,1,.0028-.0967.0574.0574,0,0,1,.0779-.0012c.1461.1093.2591.2663.4541.3056.0319.0064.0171.0458.0032.0724-.0114.0218-.0471.0493-.0064.069a.0836.0836,0,0,0,.078-.01c.18-.2238.2583.018.3475.0913a1.58,1.58,0,0,1,.2425.3213c.0341.048.1105.095.0287.1589a.15.15,0,0,1-.1972.0141,1.0272,1.0272,0,0,1-.3241-.3623c-.0241-.0491-.0387-.0985-.1035-.0708s-.0711.0811-.0423.1426a.4123.4123,0,0,1,.0445.12c.0108.0914-.0094.1367-.12.0881a.6124.6124,0,0,1-.3362-.4468Z" transform="translate(-0.1934 -0.0992)" fill="#fdfdfd"/><path d="M8.1262,4.6469a.57.57,0,0,1,.3646.3173,2.7656,2.7656,0,0,0,.2449.5924,1.62,1.62,0,0,1,.2.7754,1.8331,1.8331,0,0,0,.2233.7141c.0185.0376.0657.0694.0186.1046-.0518.0387-.098.0022-.12-.0466-.1176-.2624-.2412-.5229-.343-.7915-.0455-.12.0738-.2606-.0181-.3895-.0238-.0334-.026-.0824-.0752-.0958Z" transform="translate(-0.1934 -0.0992)" fill="#fdfdfd"/><path d="M8.1262,4.6469l.4947,1.18c-.0725.0012-.0479.1015-.1139.112-.0829-.1148-.1013-.2678-.2629-.3364-.1029-.0437-.1046-.1916-.1384-.299a2.2141,2.2141,0,0,0-.2078-.6127.4094.4094,0,0,1-.01-.4441.1032.1032,0,0,1,.0242.0333c-.01.0275-.0055.0492.025.06l.0028.0055a.112.112,0,0,0,.0485.1375l.0008.0194C8,4.5837,8.0631,4.6155,8.1262,4.6469Z" transform="translate(-0.1934 -0.0992)" fill="#351c17"/><path d="M1.981,4.9765a.8057.8057,0,0,1,.1758-.3538,4.583,4.583,0,0,0,.3617-.6641c-.0335-.0637-.1293.0752-.1423-.0177-.01-.0726.0066-.2055.044-.2186.1654-.0579.2861-.2393.4974-.1969-.22.3213-.3141.6992-.5437,1a1.47,1.47,0,0,1-.3957.448Z" transform="translate(-0.1934 -0.0992)" fill="#351c17"/><path d="M12.9872,4.3155a1.8475,1.8475,0,0,1,.3561,1.0266c.0046.2017.1324.395.0585.6064-.021.06-.0413.1334-.1217.13-.0747-.0035-.0861-.0866-.1268-.1329a.0646.0646,0,0,1,0-.0579,1.1913,1.1913,0,0,0-.04-.9776A3.3181,3.3181,0,0,1,12.9872,4.3155Z" transform="translate(-0.1934 -0.0992)" fill="#fdfdfd"/><path d="M12.4686,3.8908a1.3891,1.3891,0,0,1,.3485.6762.191.191,0,0,0,.0931.1549c.0383.02.0815.0376.0742.0914-.0376.2779.1367.5212.1282.7937-.0014.0437.0858.1135-.0292.1281a.1044.1044,0,0,1-.12-.0965,1.23,1.23,0,0,1-.0465-.2926,2.668,2.668,0,0,0-.29-1.0375C12.5769,4.1682,12.5214,4.03,12.4686,3.8908Z" transform="translate(-0.1934 -0.0992)" fill="#fdfdfd"/><path d="M9.1549,10.5725c.0471-.0091.0589-.0371.0551-.0643-.0134-.0955.08-.1648.1174-.1537.11.033.1066.1428.0693.2308a1.7673,1.7673,0,0,1-.1651.29c-.03.0447-.0654.1549-.1247.0909-.0464-.05-.1778-.0364-.1425-.1828a3.0841,3.0841,0,0,0,.0166-.4659c.0035-.0438.014-.13.0909-.1192.07.01.0351.0812.0383.1251C9.1166,10.41,9.0726,10.5056,9.1549,10.5725Z" transform="translate(-0.1934 -0.0992)" fill="#351c17"/><path d="M1.6357,5.6643,1.58,5.6431c.0457-.2052.0822-.4136.1472-.6128.042-.1285.1563-.0941.2543-.0539l-.0028-.0029c-.0373.2938-.2313.5434-.239.8474-.001.0387-.0147.1387-.0912.1088-.0252-.01-.11-.1041-.043-.181.0244-.0282.052-.048.0277-.0883a.0825.0825,0,0,0,.113-.0551c.0012-.0028-.0186-.0215-.0272-.0205C1.672,5.59,1.65,5.624,1.6357,5.6643Z" transform="translate(-0.1934 -0.0992)" fill="#351c17"/><path d="M10.7707,5.9365c-.0654-.0888-.0815-.1573-.129-.2121-.0955-.11-.2432-.1934-.154-.4a.1916.1916,0,0,0-.1754-.2618c-.0463-.0022-.0278-.04-.0261-.063a.1087.1087,0,0,1,.1094-.11c.055-.0036.1163-.0188.1419.0581A2.5861,2.5861,0,0,1,10.7707,5.9365Z" transform="translate(-0.1934 -0.0992)" fill="#fdfdfd"/><path d="M1.77,4.3342c.0652.0225.1721.0544.128.1259-.0754.1222-.0564.3277-.222.36-.0947.0185-.1326-.141-.114-.2166A1.1851,1.1851,0,0,1,1.76,4.102c.0514-.0618.1038-.1288.19-.044.0259.0255.0948-.0017.0844.0674-.0092.0615-.052.0791-.1078.0773-.086-.0028-.1811-.019-.173.1173a.0489.0489,0,0,0-.0334.0639c.0029.0091.0212.0223.0268.02C1.78,4.39,1.7733,4.3612,1.77,4.3342Z" transform="translate(-0.1934 -0.0992)" fill="#351c17"/><path d="M4.2577,2.0477c-.1266.0109-.0717-.204-.2147-.1727l.0037.0041c-.0037-.1.0913-.1191.1472-.1593.0751-.054.2468.0408.2261-.1706-.0061-.0628.0842-.0545.1229.0059a.4255.4255,0,0,1-.2849.578l.0032.0032-.0064-.0921.0726-.013-.0089-.0173Zm.146-.11c-.0061-.0019-.013-.0067-.0181-.0053-.0212.0057-.0221.0155-.0023.024a.0247.0247,0,0,0,.0186-.005Z" transform="translate(-0.1934 -0.0992)" fill="#351c17"/><path d="M5.164,5.8771c-.0154-.0124-.0463-.031-.0441-.0364.0758-.1907-.0189-.385.0128-.5791.0131-.08-.0773-.1715.0189-.2578.0151-.0135.002-.0673.0471-.0771.0486-.0106.0645.037.0726.0606.0256.0742.1.1478.0256.2324a.1087.1087,0,0,0-.0187.0971.62.62,0,0,1-.1172.5635Z" transform="translate(-0.1934 -0.0992)" fill="#351c17"/><path d="M7.5129,4.0039c-.1315.0054-.1545.1706-.28.11a1.9081,1.9081,0,0,1-.5707-.265.08.08,0,0,1-.0265-.0962c.0215-.036.0612-.026.0954-.0115A5.3581,5.3581,0,0,1,7.5129,4.0039Z" transform="translate(-0.1934 -0.0992)" fill="#351c17"/><path d="M5.5513,3.4747a.84.84,0,0,1,.6371.1148c.0316.0414.01.0617-.0151.0871a.5109.5109,0,0,1-.3812.1062c-.0332.0007-.1427.0071-.1208-.1033C5.6911,3.58,5.563,3.5765,5.5513,3.4747Z" transform="translate(-0.1934 -0.0992)" fill="#351c17"/><path d="M4.0442,9.3847c-.0771.0844-.142.1611-.2468.17-.1031.0089-.2155-.0263-.2877.0867-.0055.0087-.05.0069-.0534,0-.0106-.0248-.0234-.06-.0131-.08.0641-.1259.1309-.2507.2039-.3716a.0874.0874,0,0,1,.133-.0186C3.8682,9.2358,3.9509,9.3084,4.0442,9.3847Z" transform="translate(-0.1934 -0.0992)" fill="#351c17"/><path d="M9.6616,4.4594c.0769-.0109.0944.038.1245.0784a3.698,3.698,0,0,1,.3622.6978c.0323.0707.0467.1512.116.2.0576.04.0845.0885.0085.128-.0592.0308-.1022.0025-.13-.0648q-.1313-.3144-.2754-.6233c-.0554-.1185-.0737-.2643-.2207-.3237-.0166-.0067-.0244-.0468-.0259-.072C9.62,4.472,9.6553,4.4624,9.6616,4.4594Z" transform="translate(-0.1934 -0.0992)" fill="#fdfdfd"/><path d="M9.1191,8.652a.82.82,0,0,1-.026.9344c.1479-.2828-.0019-.5647.0283-.8469Z" transform="translate(-0.1934 -0.0992)" fill="#351c17"/><path d="M10.7294,7.0414c-.0575-.0808-.1139-.1237-.1164-.17a1.5348,1.5348,0,0,0-.21-.6323c-.0406-.0771-.0652-.1608.0466-.1872.128-.03.0715.0891.0954.1426A2.47,2.47,0,0,1,10.7294,7.0414Z" transform="translate(-0.1934 -0.0992)" fill="#fdfdfd"/><path d="M12.5787,3.2145c.0252.3019.347.5041.29.8327C12.7706,3.77,12.4955,3.5545,12.5787,3.2145Z" transform="translate(-0.1934 -0.0992)" fill="#fdfdfd"/><path d="M3.1481,9.3206c.0661.0651-.0519.1223.0217.1816.0783.063.1087-.0413.1818-.0332-.0093.1162.0043.2468-.1225.3032-.0835.0372-.1884-.0573-.2-.103C2.9975,9.5464,2.9825,9.4,3.1481,9.3206Z" transform="translate(-0.1934 -0.0992)" fill="#351c17"/><path d="M2.2674,3.0745c.1472-.3917.2614-.5427.5038-.6659A1.6824,1.6824,0,0,1,2.2674,3.0745Z" transform="translate(-0.1934 -0.0992)" fill="#351c17"/><path d="M5.2481.5858c.14.032.2528-.1089.4074-.0468A.3734.3734,0,0,1,5.2629.81L5.249.5847Z" transform="translate(-0.1934 -0.0992)" fill="#351c17"/><path d="M4.0047,10.1414c.004-.0863-.0831-.1257-.1031-.2016-.0121-.0458-.1607-.0157-.0748-.12a.1371.1371,0,0,1,.139-.07c.0856.0146.1472.0737.138.1325-.0137.087.01.2036-.1025.2559Z" transform="translate(-0.1934 -0.0992)" fill="#351c17"/><path d="M11.9519,9.7524c.031.15.0887.2252.2432.1483a.0688.0688,0,0,1,.0944.02c.0219.04-.01.0677-.0355.09-.0641.0554-.1284.1219-.2246.068C11.8965,10.0038,11.9346,9.8793,11.9519,9.7524Z" transform="translate(-0.1934 -0.0992)" fill="#351c17"/><path d="M10.5,1.1879c.1243-.0171.3576.2041.32.3126-.0218.0624-.0839.1107-.1424.0293a.6371.6371,0,0,1-.1746-.3451Z" transform="translate(-0.1934 -0.0992)" fill="#351c17"/><path d="M12.5969,2.9644c-.1464.0436-.0021.2718-.1428.2691-.0955-.0018-.0685-.1986-.1335-.2975-.0343-.0522.0551-.0951.1063-.0968A.1773.1773,0,0,1,12.5969,2.9644Z" transform="translate(-0.1934 -0.0992)" fill="#fdfdfd"/><path d="M9.1191,8.652l.0022.0875c-.1887-.0851-.1547-.3142-.283-.44C8.9618,8.3943,9.1057,8.4708,9.1191,8.652Z" transform="translate(-0.1934 -0.0992)" fill="#fdfdfd"/><path d="M11.5224,5.5657c.1166.1639.226.2886.0852.4861A.5891.5891,0,0,1,11.5224,5.5657Z" transform="translate(-0.1934 -0.0992)" fill="#fdfdfd"/><path d="M7.99,4.5028l-.0008-.02c.0169-.0575.0407-.1174-.0485-.1374L7.9375,4.34c.0176-.0308.0045-.0487-.025-.06a.1032.1032,0,0,0-.0242-.0333.4934.4934,0,0,0-.0651-.2655c-.0155-.0293-.0182-.06.01-.0711a.0881.0881,0,0,1,.0729.0224A.78.78,0,0,1,7.99,4.5028Z" transform="translate(-0.1934 -0.0992)" fill="#fdfdfd"/><path d="M11.1633,4.7575a1.2212,1.2212,0,0,1-.1617-.5746A.916.916,0,0,1,11.1633,4.7575Z" transform="translate(-0.1934 -0.0992)" fill="#fdfdfd"/><path d="M11.08,3.842c-.1-.1361-.1661-.2271-.2329-.3177-.0255-.0346-.0613-.0749-.0253-.1129.0509-.0538.11.0114.1257.0334A.4606.4606,0,0,1,11.08,3.842Z" transform="translate(-0.1934 -0.0992)" fill="#fdfdfd"/><path d="M3.9521,5.623A.87.87,0,0,1,3.72,5.21C3.7923,5.3411,4.0443,5.3644,3.9521,5.623Z" transform="translate(-0.1934 -0.0992)" fill="#351c17"/><path d="M12.8844,2.8322A.967.967,0,0,1,12.519,2.55C12.7342,2.55,12.81,2.6921,12.8844,2.8322Z" transform="translate(-0.1934 -0.0992)" fill="#351c17"/><path d="M10.3574,8.83c.2108.1477.2171.2139.0765.4623C10.4013,9.14,10.4564,8.9969,10.3574,8.83Z" transform="translate(-0.1934 -0.0992)" fill="#351c17"/><path d="M9.52,4.6563a1.2827,1.2827,0,0,1-.2386-.4819A.64.64,0,0,1,9.52,4.6563Z" transform="translate(-0.1934 -0.0992)" fill="#351c17"/><path d="M3.4957,8.5607c.11-.1513.03-.3253.0669-.4929A.4282.4282,0,0,1,3.4957,8.5607Z" transform="translate(-0.1934 -0.0992)" fill="#351c17"/><path d="M2.5019,8.9941c0-.1057-.0028-.2115.0015-.3171A.07.07,0,0,1,2.57,8.6056c.05,0,.0509.0433.0481.0776C2.6092,8.7924,2.6228,8.9082,2.5019,8.9941Z" transform="translate(-0.1934 -0.0992)" fill="#351c17"/><path d="M11.8244,3.9368c-.0426-.0185-.0667-.0218-.0791-.0356-.06-.0668-.16-.1054-.1584-.2151,0-.0107.0294-.03.0456-.03C11.6855,3.6544,11.7931,3.8045,11.8244,3.9368Z" transform="translate(-0.1934 -0.0992)" fill="#fdfdfd"/><path d="M8.5153,7.797l.1892.3643C8.5679,8.1351,8.5028,8.0107,8.5153,7.797Z" transform="translate(-0.1934 -0.0992)" fill="#fdfdfd"/><path d="M10.8032,3.8209a.3943.3943,0,0,1,.0638.37C10.8939,4.059,10.64,3.9963,10.8032,3.8209Z" transform="translate(-0.1934 -0.0992)" fill="#fdfdfd"/><path d="M11.2567,4.9016a.3255.3255,0,0,1,.1267.3871C11.2828,5.1822,11.2959,5.0566,11.2567,4.9016Z" transform="translate(-0.1934 -0.0992)" fill="#fdfdfd"/><path d="M13.7688,4.9737a.32.32,0,0,1-.0731-.2333c.0065-.04,0-.0949.06-.09.0562.005.05.059.05.1,0,.0769-.06.1441-.0381.2251Z" transform="translate(-0.1934 -0.0992)" fill="#fdfdfd"/><path d="M4.45,9.224c.0528.1536-.0481.2544-.0447.3712C4.3441,9.4726,4.2932,9.3513,4.45,9.224Z" transform="translate(-0.1934 -0.0992)" fill="#351c17"/><path d="M8.9874,4.1886a.37.37,0,0,1,.1567.32C9.056,4.3966,8.9773,4.3159,8.9874,4.1886Z" transform="translate(-0.1934 -0.0992)" fill="#fdfdfd"/><path d="M5.6854,6.4851c.066.0726.1984.0219.2406.1366C5.744,6.6542,5.744,6.6542,5.6854,6.4851Z" transform="translate(-0.1934 -0.0992)" fill="#351c17"/><path d="M12.05,3.063c-.0523.0173-.0895-.0031-.08-.0427.0175-.0707.09-.0833.15-.1025.033-.0107.08-.0137.08.0369C12.1988,3.0584,12.0959,3.03,12.05,3.063Z" transform="translate(-0.1934 -0.0992)" fill="#fdfdfd"/><path d="M11.8907,5.5484V5.2028A.2949.2949,0,0,1,11.8907,5.5484Z" transform="translate(-0.1934 -0.0992)" fill="#fdfdfd"/><path d="M7.3013,7.0483c-.0491-.1-.1922.0738-.2214-.0736-.0028-.0139.0157-.0459.0248-.0461C7.19,6.9268,7.2764,6.9264,7.3013,7.0483Z" transform="translate(-0.1934 -0.0992)" fill="#fdfdfd"/><path d="M10.9476,5.535c-.0413-.0912-.1082-.17-.0791-.2718a.0639.0639,0,0,1,.0512,0C11.0026,5.3431,10.9627,5.443,10.9476,5.535Z" transform="translate(-0.1934 -0.0992)" fill="#fdfdfd"/><path d="M5.0351,6.179c-.0717-.117.0088-.1588.1088-.2017a.1739.1739,0,0,1-.1121.1986Z" transform="translate(-0.1934 -0.0992)" fill="#351c17"/><path d="M6.4392,3.7921c-.046.0941-.1031.0067-.1342.0179-.0707.0256-.0764.002-.0628-.05s.0462-.0963.1076-.0567C6.3854,3.7266,6.4579,3.7242,6.4392,3.7921Z" transform="translate(-0.1934 -0.0992)" fill="#fdfdfd"/><path d="M2.8056,9.5593c.0819.2045.0819.2045.0212.3716A.7025.7025,0,0,1,2.8056,9.5593Z" transform="translate(-0.1934 -0.0992)" fill="#351c17"/><path d="M10.4883,4.2777c.104.0618.1522.1012.1466.1819-.0019.0271-.0153.0411-.0356.0349C10.5122,4.468,10.5361,4.384,10.4883,4.2777Z" transform="translate(-0.1934 -0.0992)" fill="#fdfdfd"/><path d="M7.0581,4.2884c0-.1323.1-.0715.1469-.06.0513.0121.0059.0517-.01.08-.0689.1218-.094-.0117-.14-.0229Z" transform="translate(-0.1934 -0.0992)" fill="#351c17"/><path d="M5.0319,6.1759c-.0233.0693.0187.1563-.0654.22-.0664-.106-.01-.1648.0687-.2172Z" transform="translate(-0.1934 -0.0992)" fill="#351c17"/><path d="M3.0963,6.3431c-.0233.03-.0329.0759-.0777.0636a.0792.0792,0,0,1-.0542-.0835.037.037,0,0,1,.0583-.0352C3.049,6.3013,3.0918,6.301,3.0963,6.3431Z" transform="translate(-0.1934 -0.0992)" fill="#351c17"/><path d="M7.5925,4.17a.0774.0774,0,0,1-.1209-.0319c-.0056-.01.0119-.0459.0148-.0454A.1274.1274,0,0,1,7.5925,4.17Z" transform="translate(-0.1934 -0.0992)" fill="#fdfdfd"/><path d="M9.5335,4.3443l-.09-.19L9.4768,4.14l.0875.191Z" transform="translate(-0.1934 -0.0992)" fill="#351c17"/><path d="M7.28,7.4268c.0585.0556.1105.0756.0992.1542C7.311,7.5652,7.2991,7.5148,7.28,7.4268Z" transform="translate(-0.1934 -0.0992)" fill="#fdfdfd"/><path d="M2.1035,3.2488c.0249-.0508.02-.1306.1159-.1194.013.0817-.0424.1112-.0975.141Z" transform="translate(-0.1934 -0.0992)" fill="#351c17"/><path d="M10.4544,4.6746c.0561.0008.0951.02.0769.0847-.0033.0117-.0375.0278-.0454.0228-.0409-.0259-.0294-.07-.0292-.11Z" transform="translate(-0.1934 -0.0992)" fill="#fdfdfd"/><path d="M1.9379,7.73c-.029.0141-.0472.0306-.06.0271-.0158-.0042-.0271-.0251-.04-.0387.0155-.0076.0312-.0214.0464-.0208S1.9124,7.7137,1.9379,7.73Z" transform="translate(-0.1934 -0.0992)" fill="#351c17"/><path d="M2.5376,4.9738c.0013.0345.0047.0713-.0435.0754-.0083.0007-.026-.0145-.0257-.0219.0015-.0454.0346-.0519.0711-.0517Z" transform="translate(-0.1934 -0.0992)" fill="#351c17"/><path d="M7.0552,4.2851c0,.0334.0012.0705-.0452.071-.01,0-.0305-.0273-.0283-.0386.0088-.0454.0428-.04.0765-.0291Z" transform="translate(-0.1934 -0.0992)" fill="#351c17"/><path d="M4.2567,5.7653,4.2377,5.8a.1423.1423,0,0,1-.0251-.0415c-.0016-.0072.0152-.0184.0236-.0278Z" transform="translate(-0.1934 -0.0992)" fill="#351c17"/><path d="M11.3171,10.3971l.0128-.0581c.0373.03.0075.0422-.0145.0568Z" transform="translate(-0.1934 -0.0992)" fill="#351c17"/><path d="M10.5023,1.1846l-.0567-.0066.0075-.0169.0464.0269Z" transform="translate(-0.1934 -0.0992)" fill="#351c17"/><path d="M4.04,6.8989l-.0151-.0122c.0058-.003.0119-.0088.0174-.0083s.01.0074.0155.0115Z" transform="translate(-0.1934 -0.0992)" fill="#351c17"/><path d="M3.1018,6.133l.0274.0636-.019.0052L3.1055,6.13Z" transform="translate(-0.1934 -0.0992)" fill="#351c17"/><path d="M3.9736,6.8027l-.0013.0122a.0247.0247,0,0,1-.017.0024c-.02-.0075-.0194-.0153.0016-.0194C3.9619,6.797,3.968,6.801,3.9736,6.8027Z" transform="translate(-0.1934 -0.0992)" fill="#351c17"/><path d="M13.767,4.9756l.0133.0058-.0115-.0077Z" transform="translate(-0.1934 -0.0992)" fill="#fdfdfd"/><path d="M4.0429,1.875,4.03,1.9042l-.0145-.02.0315-.0052Z" transform="translate(-0.1934 -0.0992)" fill="#351c17"/><polygon points="3.139 3.447 3.133 3.431 3.148 3.433 3.139 3.447" fill="#351c17"/><polygon points="7.464 4.618 7.476 4.626 7.466 4.616 7.464 4.618" fill="#fdfdfd"/><polygon points="0.882 7.544 0.887 7.539 0.882 7.543 0.882 7.544" fill="#351c17"/><polygon points="7.087 4.208 7.099 4.205 7.098 4.213 7.087 4.208" fill="#351c17"/><path d="M5.1612,5.88l.03.0093c-.0262.0329-.02-.0046-.0275-.0126Z" transform="translate(-0.1934 -0.0992)" fill="#351c17"/><path d="M11.3165,14.1392a1.7864,1.7864,0,0,0-.4618-.0812c-.0666-.0115-.1567,0-.1058-.1193a.0554.0554,0,0,0-.0452-.08c-.2534-.0453-.5118-.1841-.7489.051a.3572.3572,0,0,1-.4673.07.4416.4416,0,0,0-.5334.0834.3394.3394,0,0,1-.4111.043.5355.5355,0,0,0-.5692.0055.5772.5772,0,0,1-.5689-.0184.5817.5817,0,0,0-.5724.02.3437.3437,0,0,1-.4577-.026.493.493,0,0,0-.59-.0469.2154.2154,0,0,1-.3161-.0677.49.49,0,0,0-.6581-.164.46.46,0,0,1-.1222.0358c-.1.0071-.1338-.0687-.1579-.1459-.0282-.09.0391-.1051.1034-.1266a2.7377,2.7377,0,0,0,.34-.1129A.2092.2092,0,0,1,5.25,13.55c.2126.2922.22.2914.5611.1461a.3155.3155,0,0,1,.3752.0559.5013.5013,0,0,0,.6632.06.3567.3567,0,0,1,.449-.0053.67.67,0,0,0,.717.0277.4378.4378,0,0,1,.4055.0269.54.54,0,0,0,.6214-.0427.39.39,0,0,1,.4575-.04.3527.3527,0,0,0,.5186-.1223c.1249-.1822.28-.2616.4847-.1383.1105.0668.3657-.0211.295.2585a.215.215,0,0,0,.09.0419c.0772.015.1557.0233.2338.0332.2937.0374.2937.0373.1938.2878Z" transform="translate(-0.1934 -0.0992)" fill="#ddba62"/><path d="M10.5727,14.1745c-.0267.1619-.1.244-.2884.1778a.6019.6019,0,0,0-.5418.135.2964.2964,0,0,1-.3015.0249.5249.5249,0,0,0-.4732.0426.4862.4862,0,0,1-.4481.0508.6484.6484,0,0,0-.5206.0069.5914.5914,0,0,1-.4988-.01.7172.7172,0,0,0-.5795-.021.617.617,0,0,1-.5361-.0171.4705.4705,0,0,0-.3733-.0351.405.405,0,0,1-.4872-.1518.2772.2772,0,0,0-.3586-.09,1.6382,1.6382,0,0,1-.2933.06c-.0868.0166-.116-.0495-.1317-.1087-.02-.0743.0579-.0689.0981-.0851.2538-.1026.502-.1765.7034.1047a.231.231,0,0,0,.3259.0531.308.308,0,0,1,.3772.0024c.2383.2095.485.093.7193.0045a.2661.2661,0,0,1,.2533.0117A.7483.7483,0,0,0,8,14.4005a.4167.4167,0,0,1,.4072.001.47.47,0,0,0,.5224-.0344.4821.4821,0,0,1,.5456-.0317.2384.2384,0,0,0,.2818-.0271A.7138.7138,0,0,1,10.5727,14.1745Z" transform="translate(-0.1934 -0.0992)" fill="#ddba62"/><path d="M4.5608,14.01a1.9314,1.9314,0,0,1-.4792.0927.17.17,0,0,1-.1727-.1541c-.0238-.1274.0877-.0825.1423-.1033.0664-.0253.1391-.0335.2076-.0541.2007-.06.29.0265.2994.2221Z" transform="translate(-0.1934 -0.0992)" fill="#ddba62"/><path d="M11.92,13.8372c-.0709.0009-.1417.0023-.2126.0026-.0781,0-.1746.013-.1728-.1013.0015-.0949.0363-.18.1628-.18.1116,0,.26-.0611.3254.0124.0814.0921-.1289.1515-.1065.27Z" transform="translate(-0.1934 -0.0992)" fill="#ddba62"/><path d="M4.0467,14.3951c-.1608.0136-.2575-.1343-.4032-.1608a.0468.0468,0,0,1-.0359-.065c.0163-.0422.0565-.0411.089-.0363a.4189.4189,0,0,1,.3467.2659Z" transform="translate(-0.1934 -0.0992)" fill="#ddba62"/><path d="M12.65,10.0088c.0556.0247.0439.06.0062.1174L12.65,10.009Z" transform="translate(-0.1934 -0.0992)" fill="#ddba62"/><path d="M4.5582,14.0129l.022.01-.01,0L4.5609,14.01Z" transform="translate(-0.1934 -0.0992)" fill="#ddba62"/><path d="M13.2909,11.17c.2185-.0323.1745.0539.1044.197-.0688.1407-.1174.251-.31.2072-.1043-.0238-.1464-.0529-.0917-.1485C13.0618,11.3072,13.0609,11.1037,13.2909,11.17Z" transform="translate(-0.1934 -0.0992)" fill="#351c17"/><path d="M7.9969,1.6454c.0521.0141.0419.0686.0655.1.0615.0817.1435.0669.2306.0456a.1307.1307,0,0,0,.1129-.1517C8.4018,1.533,8.4019,1.4266,8.4,1.32c-.0012-.0543.0065-.1036.0768-.0967.06.0059.0461.0509.0489.0948.0135.2161.03.2227.2532.0931-.1106.1659.0079.2215.0984.29.019.0262.0284.0911.0572.0711.0416-.0288.0275-.0864-.0114-.1262a.3153.3153,0,0,1,.0593-.3349.0548.0548,0,0,1,.07-.0275.0421.0421,0,0,1,.0179.0685c-.1078.1461-.0113.2987-.0174.4476l-.0042.0671c-.2115.0605-.2678-.1416-.39-.2314-.033-.0241-.0573-.0738-.1058-.05-.0175.0086-.0237.0476-.0281.0739-.0115.0689.07.1735.0058.1971a2.8058,2.8058,0,0,1-.3452.03c-.2518.0558-.3881-.1009-.5268-.2607a.1424.1424,0,0,0-.1513-.0552c-.0426.0115-.0378.0541-.0383.0892-.0013.0823.0109.1968-.0725.2178-.0921.0232-.1618-.0742-.2208-.1462-.033-.04-.0978-.0685-.0687-.14.0141-.0039.0274-.0121.0386-.01.0709.0144.0921.1458.1822.0956s.022-.1434.0287-.217c.0072-.0781.0132-.1563.02-.2344.021.0093.0281.0033.02-.0187l.1-.0012.0018.0207.02.004c-.0734.2558-.0668.2651.1848.2607L7.7,1.49c.05.0984.0864.2145.2381.17Z" transform="translate(-0.1934 -0.0992)" fill="#351c17"/><path d="M8.0773,2.3265c.1454.0143.2665.0055.1867-.1952l.034-.109.094.0028-.0005.0168h.0169c.0018.2065.001.413.0071.6193.0017.0584-.0039.1025-.07.1017-.0791-.0009-.0527-.0556-.0523-.1055.002-.2653-.0168-.2784-.206-.224-.1573.0452-.0771.1521-.0748.2382.001.036.06.077-.0028.1048a.1677.1677,0,0,1-.1048-.0033c-.0609-.0178-.0321-.06-.025-.1023a1.44,1.44,0,0,0-.0137-.59.0491.0491,0,0,0-.0038-.0671c.116-.008.2116-.0063.1409.16-.0178.0419-.041.1287.0527.1524C8.0626,2.3464,8.07,2.3474,8.0773,2.3265Z" transform="translate(-0.1934 -0.0992)" fill="#351c17"/><path d="M6.7923,2.6653a.3453.3453,0,0,0,.1618-.3885c-.0311-.1413-.1337-.1993-.3937-.2433.2492-.1048.4105-.0148.54.3079.1-.0371.0591-.2031.1867-.2081l.009.0009c-.0471.2109-.11.4257.1487.57-.2335.0651-.2478-.1489-.3424-.2734-.0849.0957-.1029.2354-.2335.27Z" transform="translate(-0.1934 -0.0992)" fill="#351c17"/><path d="M8.7442,2.7806c-.1282.0235-.1847.0053-.162-.1576a2.2217,2.2217,0,0,0-.0295-.4872c-.0056-.064.0164-.095.082-.0887.0445.0042.088.0108.0654.0745-.06.1709.0065.2411.1974.2-.0388.1312-.2068.0293-.2055.1607.0009.0907-.0122.1875.0747.2535Z" transform="translate(-0.1934 -0.0992)" fill="#351c17"/><path d="M6.368,2.7556c-.1589.0263-.1959-.1141-.2742-.1991-.0556-.06-.1055-.188-.1837-.1442-.0639.0357-.0777.1664-.1055.2576-.0075.0248.04.0637-.0338.0848l.0414-.5084a4.3648,4.3648,0,0,1,.47.3215L6.28,2.5637l-.0015.0493L6.3272,2.61l-.0035-.0038c-.0406.069.0243.0707.0587.0918Z" transform="translate(-0.1934 -0.0992)" fill="#351c17"/><path d="M6.6069,1.79c.2777.0168.2038-.2.2444-.351.0208-.0775-.0777-.2327.0642-.2239.1478.0092-.0105.1466.0237.1944.0945.132-.0745.2586.0128.3878.0367.0542-.0281.0658-.07.0659-.0858,0-.1716-.0039-.2571-.0062Z" transform="translate(-0.1934 -0.0992)" fill="#351c17"/><path d="M9.2583,2.041a.2527.2527,0,0,0-.0457.298c.0541.13-.0424.2982.0368.444.0019.0035-.0328.0373-.0408.034-.031-.013-.0753-.03-.0838-.0552a6.0317,6.0317,0,0,1-.0769-.6694C9.0308,2.0114,9.1632,2.0724,9.2583,2.041Z" transform="translate(-0.1934 -0.0992)" fill="#351c17"/><path d="M9.4192,1.8623a.473.473,0,0,0,.0179-.5632.2842.2842,0,0,1,.2132.3093A.2568.2568,0,0,1,9.4192,1.8623Z" transform="translate(-0.1934 -0.0992)" fill="#351c17"/><path d="M5.9393,1.2083l.0931-.0128.0133.0718a1.9935,1.9935,0,0,0-.1025.4722c-.0141.0529,0,.1282-.0719.1206-.0647-.0069-.0785-.0842-.0558-.1378a1.0277,1.0277,0,0,0,.0474-.3273C5.9911,1.3749,5.8981,1.2642,5.9393,1.2083Z" transform="translate(-0.1934 -0.0992)" fill="#351c17"/><path d="M6.541,1.2318c-.0851.1273-.0054.2955-.1147.4247-.0468.0553.0334.1057.0923.1322l-.0192.0687c-.1559.0257-.199-.0386-.16-.1867.0416-.16.0011-.3394.1184-.4807Z" transform="translate(-0.1934 -0.0992)" fill="#351c17"/><path d="M9.7693,2.8118c-.2388-.0066-.3-.2486-.4658-.3532-.0083-.0052-.0078-.0424.0017-.0539a.0474.0474,0,0,1,.0745.0025c.1191.14.31.2067.3932.3832l-.0084.01Z" transform="translate(-0.1934 -0.0992)" fill="#351c17"/><path d="M6.2824,2.5677c.0324-.1231-.0155-.2583.0556-.3752.0225-.0369.0556-.0764.1009-.0519.038.0206.0016.0524-.0055.0831a.5491.5491,0,0,0,.0733.4425c-.0086.0956-.0665.0279-.1031.0308-.01-.045-.0065-.1017-.08-.0908l.0035.0038c.0071-.0384.0115-.0741-.0469-.0465Z" transform="translate(-0.1934 -0.0992)" fill="#351c17"/><path d="M7.5178,1.2314l-.02-.004-.0018-.0207c.0168-.0535.0635-.0546.1035-.0489a.581.581,0,0,1,.4.268l-.063.009c-.1048-.0932-.1605.0246-.2366.0551l.0029.0022C7.7431,1.3328,7.7041,1.23,7.5178,1.2314Z" transform="translate(-0.1934 -0.0992)" fill="#ddba62"/><path d="M7.2957,2.1343l-.009-.0009c.047-.1535.17-.175.3025-.1651.0916.0069.1821.03.2729.0456a.0493.0493,0,0,1,.0036.0671c-.0745.0436-.1312.1027-.2343.018S7.404,2.078,7.2957,2.1343Z" transform="translate(-0.1934 -0.0992)" fill="#ddba62"/><path d="M9.7693,2.8118,9.7645,2.8l.0084-.01c.1172-.0087.1676-.123.2712-.16a1.0489,1.0489,0,0,1-.4365.4217C9.5731,2.892,9.8025,2.9513,9.7693,2.8118Z" transform="translate(-0.1934 -0.0992)" fill="#ddba62"/><path d="M6.4036,2.697c.0366-.0029.0944.0648.1031-.0308q.1429,0,.2857-.001L6.8685,2.7c-.1538.1383-.3289.0827-.5006.0554l.0145-.0577.01-.0112Z" transform="translate(-0.1934 -0.0992)" fill="#ddba62"/><path d="M9.2824,3.2243a.996.996,0,0,1-.5191.1625A1.1122,1.1122,0,0,1,9.2824,3.2243Z" transform="translate(-0.1934 -0.0992)" fill="#ddba62"/><path d="M7.9955.6659h-.72A.9193.9193,0,0,1,7.9955.6659Z" transform="translate(-0.1934 -0.0992)" fill="#ddba62"/><path d="M10.273,2.0531a.9029.9029,0,0,1-.1658.4958A.718.718,0,0,1,10.273,2.0531Z" transform="translate(-0.1934 -0.0992)" fill="#ddba62"/><path d="M9.2995,2.0694c.0916-.0361.1688-.0264.2132.07.0243.0527.039.1305-.0152.1551-.11.05-.0625-.0592-.07-.0964C9.4128,2.1223,9.3071,2.1482,9.2995,2.0694Z" transform="translate(-0.1934 -0.0992)" fill="#351c17"/><path d="M5.8517,1.0765a.832.832,0,0,1,.4106-.17A.7261.7261,0,0,1,5.8517,1.0765Z" transform="translate(-0.1934 -0.0992)" fill="#ddba62"/><path d="M6.0457,1.2673l-.0133-.0718c.0327-.0707.0968-.04.1475-.0419.0641-.0028.1428.0064.1246.0946-.0156.0756-.0787.0523-.1358.03A.4328.4328,0,0,0,6.0457,1.2673Z" transform="translate(-0.1934 -0.0992)" fill="#ddba62"/><path d="M9.0483,1.8674,9.0525,1.8c.1371-.0418.2549.0511.4227.041C9.3125,2.0024,9.1787,1.8814,9.0483,1.8674Z" transform="translate(-0.1934 -0.0992)" fill="#ddba62"/><path d="M8.7442,2.7806l.0224-.0451a1.2153,1.2153,0,0,0,.1412-.0338c.0479-.0172.1047-.0827.1316.0085.02.0681-.0479.099-.103.1039C8.872,2.82,8.7974,2.851,8.7442,2.7806Z" transform="translate(-0.1934 -0.0992)" fill="#ddba62"/><path d="M6.541,1.2318,6.4573,1.19a.2252.2252,0,0,1,.07-.0334c.0836-.0069.2059-.0091.217.0717.0181.1315-.0683.0661-.1258.0313A.4074.4074,0,0,0,6.541,1.2318Z" transform="translate(-0.1934 -0.0992)" fill="#ddba62"/><path d="M5.5921,1.2732a.2852.2852,0,0,1-.2151.2149l.0022.0019a.3073.3073,0,0,1,.215-.2144Z" transform="translate(-0.1934 -0.0992)" fill="#ddba62"/><path d="M7.9518,3.5513H7.4926A.7922.7922,0,0,1,7.9518,3.5513Z" transform="translate(-0.1934 -0.0992)" fill="#ddba62"/><path d="M5.9393,1.2083c-.0412.0559.0518.1666-.0763.1868C5.8763,1.3277,5.7783,1.2151,5.9393,1.2083Z" transform="translate(-0.1934 -0.0992)" fill="#ddba62"/><path d="M8.0906,1.4621c.057-.01.1473-.0593.1586.0169.0124.0836-.0824.09-.1551.0831Z" transform="translate(-0.1934 -0.0992)" fill="#ddba62"/><path d="M8.0906,1.4621l.0035.1-.097.0323-.0609-.0036V1.4347l.063-.0089Z" transform="translate(-0.1934 -0.0992)" fill="#351c17"/><path d="M6.5161,3.3574a.2023.2023,0,0,1-.1883-.0107A.125.125,0,0,1,6.5161,3.3574Z" transform="translate(-0.1934 -0.0992)" fill="#ddba62"/><path d="M5.3785,2.6937a.2531.2531,0,0,1-.1166-.1991.2247.2247,0,0,1,.1149.2012Z" transform="translate(-0.1934 -0.0992)" fill="#ddba62"/><path d="M5.2912,1.6177c-.01.0722.0187.1611-.1064.203a.3315.3315,0,0,1,.1085-.201Z" transform="translate(-0.1934 -0.0992)" fill="#ddba62"/><path d="M5.9611,2.0456c-.0441.0632-.1382.0153-.1767.0909C5.794,1.9967,5.9091,2.0913,5.9611,2.0456Z" transform="translate(-0.1934 -0.0992)" fill="#ddba62"/><path d="M6.1537,3.2525c-.036-.0151-.0893.01-.1068-.0451-.002-.0061.0134-.0247.0226-.0263.0569-.01.0711.0307.0819.0739Z" transform="translate(-0.1934 -0.0992)" fill="#ddba62"/><path d="M6.4994,1.8575l.0192-.0687a.08.08,0,0,1,.0886.0008l.0175.0669A.103.103,0,0,1,6.4994,1.8575Z" transform="translate(-0.1934 -0.0992)" fill="#ddba62"/><path d="M8.298,2.0223l-.034.109a.0754.0754,0,0,1-.0462-.0979C8.2335,1.9894,8.2677,2.0024,8.298,2.0223Z" transform="translate(-0.1934 -0.0992)" fill="#ddba62"/><path d="M5.6355,2.954c.0564.0084.1206.0054.1283.0862l.0018-.0022a.1493.1493,0,0,1-.1281-.086Z" transform="translate(-0.1934 -0.0992)" fill="#ddba62"/><path d="M5.7776,1.181c-.0189.0111-.0352.0275-.0531.03-.0248.0029-.0378-.0186-.0219-.0376a.0976.0976,0,0,1,.0551-.02C5.762,1.1526,5.7693,1.1691,5.7776,1.181Z" transform="translate(-0.1934 -0.0992)" fill="#ddba62"/><path d="M5.2933,1.62a.1446.1446,0,0,1,.0859-.13L5.377,1.4881c-.0032.06-.0051.1209-.0858.13Z" transform="translate(-0.1934 -0.0992)" fill="#ddba62"/><path d="M7.3958,1.2079c.0077.022.0006.028-.02.0187a.0305.0305,0,0,1-.0323-.04.0206.0206,0,0,1,.0145-.013C7.3816,1.1715,7.3965,1.1816,7.3958,1.2079Z" transform="translate(-0.1934 -0.0992)" fill="#ddba62"/><path d="M5.9484,3.1525c-.0115-.0051-.0271-.0074-.0327-.0162a.034.034,0,0,1,.0131-.03.039.039,0,0,1,.0323.0141C5.9646,3.1258,5.9533,3.1412,5.9484,3.1525Z" transform="translate(-0.1934 -0.0992)" fill="#ddba62"/><path d="M7.9362,1.5908l.0609.0036A.2144.2144,0,0,1,8.01,1.63c.0008.0042-.0083.01-.013.0153l-.0592.014C7.9168,1.6371,7.9061,1.6145,7.9362,1.5908Z" transform="translate(-0.1934 -0.0992)" fill="#ddba62"/><path d="M5.594,2.9085a.1431.1431,0,0,1-.0855-.0858l-.0019.0018a.0794.0794,0,0,1,.0857.0857Z" transform="translate(-0.1934 -0.0992)" fill="#ddba62"/><path d="M6.1514,3.255a.5.5,0,0,1,.0643.0023.3231.3231,0,0,1,.06.0282l-.1242.01.0024.0025V3.2525Z" transform="translate(-0.1934 -0.0992)" fill="#ddba62"/><path d="M5.7638,3.04l.0552.0094-.011.021L5.7656,3.038Z" transform="translate(-0.1934 -0.0992)" fill="#ddba62"/><path d="M5.3767,2.6959l.0558.0164c-.0343.0411-.0392-.003-.0541-.0185Z" transform="translate(-0.1934 -0.0992)" fill="#ddba62"/><path d="M5.5942,1.2755a.0671.0671,0,0,1,.0084-.0171l.013-.0021-.0235.0169Z" transform="translate(-0.1934 -0.0992)" fill="#ddba62"/><path d="M5.5923,2.91l.0432.0437.002-.002L5.594,2.9085Z" transform="translate(-0.1934 -0.0992)" fill="#ddba62"/><path d="M5.5085,2.8227,5.49,2.8043l.011.0042a.0658.0658,0,0,1,.0061.016Z" transform="translate(-0.1934 -0.0992)" fill="#ddba62"/><path d="M8.0773,2.3265c-.0074.0209-.0147.02-.0217,0l.011-.0091Z" transform="translate(-0.1934 -0.0992)" fill="#ddba62"/><path d="M8.4083,2.0418H8.3914L8.392,2.025C8.4178,2.011,8.4257,2.0142,8.4083,2.0418Z" transform="translate(-0.1934 -0.0992)" fill="#ddba62"/><path d="M4.4408,3.8712a1.2417,1.2417,0,0,1-.6643-.2982c-.0226-.0435-.0511-.0886-.011-.1384.038-.0472.0781.0017.1142-.0034C4.2228,3.3826,4.2944,3.6579,4.4408,3.8712Z" transform="translate(-0.1934 -0.0992)" fill="#ddba62"/><path d="M3.0324,5.6421a.1032.1032,0,0,1,.0951.0757L3.0791,5.77c-.0683-.0025-.0815-.0443-.0728-.1018A.3635.3635,0,0,0,3.0324,5.6421Z" transform="translate(-0.1934 -0.0992)" fill="#ddba62"/><path d="M3.4292,4.7428a.139.139,0,0,1,.0054-.0318c.0023-.0054.0109-.0082.0167-.0122l.0157.0278Z" transform="translate(-0.1934 -0.0992)" fill="#ddba62"/><path d="M1.9379,6.0059l.0294.0224c-.0271.0241-.0326.0069-.0342-.0178Z" transform="translate(-0.1934 -0.0992)" fill="#ddba62"/><path d="M3.0063,5.6683c-.0185-.0079-.0377-.0185-.021-.04.0034-.0045.0306.0092.0469.0143C3.0241,5.6513,3.0154,5.66,3.0063,5.6683Z" transform="translate(-0.1934 -0.0992)" fill="#ddba62"/><path d="M4.2825,5.0782c.0389.0174.078.0427.03.0819-.0316.0257-.0577-.0053-.0673-.0412Z" transform="translate(-0.1934 -0.0992)" fill="#ddba62"/><path d="M4.2829,5.25c.0288.0134.07.0262.0359.0662-.0284.0335-.0578.0115-.0789-.0181Z" transform="translate(-0.1934 -0.0992)" fill="#ddba62"/><path d="M4.7929,2.5809c-.0584.1423-.1119.2772.0346.4.0185.0154-.0145.12-.0494.1615-.0213.0255-.0953.0225-.139.01-.0515-.0151-.0673-.0622-.0518-.1211a.28.28,0,0,0,.0087-.1466C4.542,2.7144,4.566,2.5965,4.7929,2.5809Z" transform="translate(-0.1934 -0.0992)" fill="#ddba62"/><path d="M7.4449,5.0589c-.0438.01-.0992.0845-.1238-.0177a.075.075,0,0,1,.06-.095c.0989-.01.0542.0691.0613.1154Z" transform="translate(-0.1934 -0.0992)" fill="#ddba62"/><path d="M7.5674,6.1249c-.0073-.0108-.0206-.0216-.02-.031a.0256.0256,0,0,1,.0414-.0212.0369.0369,0,0,1,.0116.0344C7.5972,6.1159,7.58,6.119,7.5674,6.1249Z" transform="translate(-0.1934 -0.0992)" fill="#ddba62"/><path d="M7.94,4.3459c.0892.02.0654.08.0485.1374A.1118.1118,0,0,1,7.94,4.3459Z" transform="translate(-0.1934 -0.0992)" fill="#ddba62"/><path d="M7.9125,4.2805c.0295.0111.0426.029.025.06C7.907,4.33,7.9028,4.308,7.9125,4.2805Z" transform="translate(-0.1934 -0.0992)" fill="#ddba62"/><path d="M1.6357,5.6643c.0144-.04.0363-.0743.0828-.0795.0086-.001.0284.0177.0272.0205a.0825.0825,0,0,1-.113.0551Z" transform="translate(-0.1934 -0.0992)" fill="#ddba62"/><path d="M1.77,4.3342c.0032.0269.01.0562-.0226.07-.0056.0023-.0239-.0109-.0268-.02A.0489.0489,0,0,1,1.7541,4.32Z" transform="translate(-0.1934 -0.0992)" fill="#ddba62"/><path d="M4.2577,2.0477l.0607-.0338.0089.0173-.0726.013Z" transform="translate(-0.1934 -0.0992)" fill="#ddba62"/><path d="M4.4036,1.9379l-.0018.0137a.0247.0247,0,0,1-.0186.005c-.02-.0084-.0189-.0182.0023-.024C4.3907,1.9313,4.3975,1.936,4.4036,1.9379Z" transform="translate(-0.1934 -0.0992)" fill="#ddba62"/><path d="M7.5178,1.2314c.1863-.0015.2253.1015.1848.2608C7.451,1.4965,7.4444,1.4872,7.5178,1.2314Z" transform="translate(-0.1934 -0.0992)" fill="#fdfdfd"/><path d="M7.9362,1.5908c-.03.0237-.0194.0463.0016.0687-.1516.0449-.1886-.0712-.2381-.17.076-.0306.1317-.1483.2366-.0551Z" transform="translate(-0.1934 -0.0992)" fill="#fdfdfd"/><path d="M8.9225,1.6464c.0389.04.053.0973.0114.1262-.0288.02-.0383-.0448-.0572-.0711Z" transform="translate(-0.1934 -0.0992)" fill="#fdfdfd"/><path d="M6.4036,2.697l-.0111-.01-.01.0112c-.0344-.021-.0992-.0227-.0586-.0917C6.3971,2.5953,6.3937,2.652,6.4036,2.697Z" transform="translate(-0.1934 -0.0992)" fill="#fdfdfd"/><path d="M6.28,2.5637c.0584-.0276.0539.0081.0469.0465l-.0484.0029Z" transform="translate(-0.1934 -0.0992)" fill="#fdfdfd"/></svg>