<svg id="图层_1" data-name="图层 1" xmlns="http://www.w3.org/2000/svg" width="125" height="125" viewBox="0 0 125 125"><title>Ferrero_2</title><path d="M6.6928,58.1946a9.393,9.393,0,0,0,1.0966-4.4818c-.1755-4.831.5711-9.6064.798-14.4121a2.9879,2.9879,0,0,1,1.434-2.71c.7212-.4133,1.3952-1.0612,1.3185-1.8-.2219-2.1283,1.143-3.5708,1.9587-5.2562,1.6652-.1873,2.2987-1.4889,2.97-2.7508.4648-.2531.9321-.5.8225-1.1894-.8123-.0945-.7676.58-.9777,1.0072-1.07.1687-1.1464,1.5336-2.1468,1.7858a17.04,17.04,0,0,1,6.9619-9.598,13.6968,13.6968,0,0,0,6.9737-6.6371A17.6894,17.6894,0,0,1,31.6139,7.62c.7052-.81,2.38-.63,2.5526-.9372.8436-1.5049,2.2481-1.1017,3.3742-1.2611,1.7664-.2531,3.3742-.9844,5.1086-1.2949l.1147,1.9a3.15,3.15,0,0,0,3.3118-2.286c-1.3041-.5238-2.2523.6647-3.4366.3948.1965-1.8314,1.9123-1.6871,2.9162-1.7554A13.8419,13.8419,0,0,0,50.8377.7907,15.48,15.48,0,0,1,58.64.271c-.809,1.6416-2.2447,1.3446-3.467.8714a3.1869,3.1869,0,0,0-3.257.3745,13.3628,13.3628,0,0,1,3.8989.9228A2.7255,2.7255,0,0,0,59.2193.6327a2.7257,2.7257,0,0,0,.0784-.3263,36.0611,36.0611,0,0,1,10.989,1.4661A38.9722,38.9722,0,0,0,78.265,2.9392a14.7858,14.7858,0,0,1,6.93,2.6209c1.5867,1.1008,3.7825.9726,4.9584,2.7171.1628.2421.5846.3669.6487.609.7086,2.6724,2.8259,2.2371,4.7585,2.1873a2.52,2.52,0,0,1,2.2717.8436,14.364,14.364,0,0,0,3.2224,2.8765,22.0927,22.0927,0,0,1,5.0883,5.4831c-.03.0683,0,.1156.0844.1417a.7238.7238,0,0,1,.771.3492,36.1819,36.1819,0,0,1,5.3245,8.8683,6.9079,6.9079,0,0,1,.2581,3.8382,6.4886,6.4886,0,0,0,1.0123,4.5552,2.98,2.98,0,0,0,.2227-2.9735c-.1206-.4488-.3071-1.1051.1417-1.3421.6748-.3551.9077.4024,1.181.8115a19.2078,19.2078,0,0,1,2.5307,6.9239,71.5539,71.5539,0,0,1,1.5133,15.9348c-.0135.7929.5365,1.3244.5989,2.0406a26.0657,26.0657,0,0,0-1.5547,7.8138,21.7965,21.7965,0,0,1-.9279,6.0947,9.8376,9.8376,0,0,1-1.56,3.2165c-.3568-.9735.03-1.7217-.9228-2.5172a3.9647,3.9647,0,0,1-2.8511,4.8279l-.0634.0158c-.485.1687-.7111,1.0637-1.0755,1.6129-.7238,1.0916-1.461,2.1755-2.2228,3.3067a1.0764,1.0764,0,0,1-.3653-1.14,2.0077,2.0077,0,0,0-2.2616-2.3889c-1.2122.043-.6411,1.3193-.6023,2.1494a4.4642,4.4642,0,0,1-.2893,1.2181h0c-.9836.124-.6926,1.1337-1.0966,1.677-.6588.8857-1.6871.3265-2.362.9279-.31.2784-.31,1.1245-.9827.7592-.5981-.3214-.2362-1.06-.3737-1.5943-.8368.3636-.6613,1.763-1.3261,1.7866a9.4824,9.4824,0,0,0-5.2967,1.8972c-.372-.86.3889-1.4948.1805-2.1932.1847-.1232.4361-.2286.1223-.4791l-.108.49c-1.1008,2.1156-2.2852.6149-3.2831-.0329-1.1177-.7255-1.5074-.1577-1.7141.7373-.2252.9743-.1923,2.011-.4429,2.9752-.1164.45-.5222,1.7209-1.0966.1426-.2531-.7-.7187-.4327-.8773-.027-.615,1.5758-2.2219,1.1456-3.33,1.7a.7592.7592,0,0,1-1.0857-.6386c.0388-1.8322-.8267-.7-1.3792-.4446a2.1823,2.1823,0,0,0-1.27,1.434c-.1645.577-.7828.895-.9558.2-.4564-1.8339-1.3607-1.1008-2.4294-.7162-.9153.33-2.2211.2244-2.4083,1.3623a1.6871,1.6871,0,0,1-1.7259,1.6314,11.2513,11.2513,0,0,1-8.072-.3028.9811.9811,0,0,0-1.3016.2438c-.728,2.3-2.8985,1.9975-4.2827,1.7959-1.0384-.151-1.3742,1.0283-2.2624.5112-1.143-.6656-2.3864-1.1633-3.52-1.8432-.6015-.361-1.5724-1.0494-1.5024-1.4264.3256-1.7428-1.39-1.55-1.9992-2.356a.906.906,0,0,0-1.4264-.189c-.4547.5239.1814.9144.48,1.1692.7482.6377.6074,1.2653-.1965,1.3421-.9482.0844-1.4737.7811-2.2548,1.0561-.37.13-.6858.6-1.1025.1594A.9389.9389,0,0,1,44.3,94.0811a2.8571,2.8571,0,0,0,.7533-2.0473c-1.0207.03-.5171,1.0536-1.1008,1.3556-1.2738-.5061-1.6871-1.94-2.8031-2.6749-1.0966-.72-2.362.9659-3.4586-.5061a1.4752,1.4752,0,0,1-.4015,2.2565c-.7735.3315-1.2974-.6748-1.4889-1.2771-.7035-2.2051-.8368-4.71-3.5682-5.6392-.1156-.04-.0734-.5432-.1046-.8309.9473-.44.75-1.4248.8646-2.1587.0776-.496-.442-.9937-1.1641-1.1177a1.1565,1.1565,0,0,0-1.1725.59c-.7238.88.5289.6259.631,1.0123.1687.6394.9034.9726.87,1.7006a2.0735,2.0735,0,0,0-.7778,2.0347c.1687,1.6972-1.283,2.5045-2.4463,2.8251-1.1346.3121-1.693-1.0249-1.94-2.0777-.2008-.8478-.6369-1.434-1.4922-1.3927-1.4872.065-1.8061-.7449-1.7419-1.9832.0186-.356,0-.81-.4926-.8-.4724.0093-.5643.4606-.4952.809.3054,1.5538-1.0123,1.5429-1.7824,1.5749-2.0785.0844-3.9234-1.1928-6.0137-1.2577-1.5968-.05-1.3421-2.81-3.3363-2.313,0-.1173-.04-.2969.0194-.3433.701-.5458-.0059-.9431-.0692-1.4239-.1-.7676-.2936-1.94,1.2535-1.55.329.0844.8992.016.6411-.4935-.3484-.6883.1847-1.0275.399-1.45,1.2232-2.4083-.7592-4.4843-.663-6.7678,0-.0844-.2674-.28-.3627-.2531-.4673.1291-.4294.5011-.3222.863a22.4015,22.4015,0,0,1,.3071,5.0318c.05.7314.0194,1.391-.9043,1.7057a7.7017,7.7017,0,0,1,.2286-4.8555c.54-1.2653-.0329-1.5024-.7187-1.97l-.5694,6.0061c-.6588-.3838-.4909-1.1135-1.0258-1.208-1.5909-.2809-1.8558-1.6323-2.1528-2.82a12.2568,12.2568,0,0,1-.135-5.2182c.2446-1.3143-1.1649-2.491-.1189-3.7547l.0346-.0388-.04.043c-.3771.1274-.7271.1788-.7314-.3813C6.7,61.589,6.6978,59.8918,6.6928,58.1946Zm51.19-22.8536c.3863.0945.5981,1.2206,1.181.1932.135-.2387.5179-.5728.0844-.6748-.3982-.0936-1.235-.6065-1.24.5061-.2843-.0928-.57-.1375-.6445.2455-.0186.0953.1552.3265.2387.3256C57.8932,35.9357,57.8788,35.6219,57.8831,35.341Zm-17.0676,15.95a1.4669,1.4669,0,0,0,.9456-1.6753c-.8436.3619-1.5235.7145-.9178,1.7023-.663.442-1.14.938-.58,1.8322C40.9731,52.61,40.6189,51.8755,40.8154,51.2909ZM114.5168,41.15l.097.065-.1122-.0489c-.1839-.6833.32-1.25.3214-1.8988,0-.3433.0557-.798-.4218-.8436-.5061-.0456-.45.4159-.5061.7592A2.6994,2.6994,0,0,0,114.5168,41.15ZM86.9418,9.2152,86.55,8.9883l-.0633.1426.4783.0557a5.3743,5.3743,0,0,0,1.4728,2.9111c.4935.6867,1.0182.2792,1.2012-.2472C89.9559,10.9361,87.9878,9.07,86.9418,9.2152ZM75.3008,72.1782c-.113-1.5285-1.3269-2.1738-2.3679-2.9761,1.0823,1.0637.7955,2.9963,2.3873,3.7116-.2531,2.383,1.0123,4.761-.2387,7.1466a6.9171,6.9171,0,0,0,.2117-7.8822ZM41.93,48.77c.0624.0675.011.3838.232.1063l-.2531-.0785a5.23,5.23,0,0,0,.9886-4.7534.9169.9169,0,0,1,.1544-.8174c.6234-.7136,0-1.3345-.2159-1.96-.0692-.1991-.2025-.6006-.6124-.5112-.38.0844-.2708.5365-.3973.65-.8115.728-.0489,1.4965-.1594,2.1747-.2674,1.6373.5323,3.2755-.108,4.885C41.5392,48.5089,41.799,48.6658,41.93,48.77ZM34.2846,16.4673l-.0261-.03.0548.7778h-.54c.2995,1.2721-.41,2.0743-1.2232,2.9094-.2767.2843.1839.7179.5694.6985,1.4838-.0768,1.8474.3661,2.0557,1.7445.2337,1.542.5179,3.381,2.3147,3.8255,2.2776.5635,2.0549,2.4,2.545,3.9057,1.5555-1.6028,1.6424-2.4.275-3.6745l3.9925-.21A25.8414,25.8414,0,0,1,38.75,18.302c.07,2.3012-.2126,2.4134-3.7774,2.0988.5061-1.2594,1.1987-1.5184,2.135-.18.1485-2.3476-.0844-2.5155-2.254-2.0794-.8731.1755-.4218-.6048-.5677-.9507A3.5893,3.5893,0,0,0,36.69,12.3153c-.3265-.5061-1.0882-.58-1.0367-.05.1746,1.7824-1.2738.9836-1.9073,1.4391-.4715.3374-1.2729.4977-1.2417,1.3429l-.2657.0439.1223.1687.113-.2463C33.68,14.7464,33.2158,16.5592,34.2846,16.4673ZM13.2995,35.7552l-.1358-.12c-.0675-1.1481.7347-1.0123,1.46-.9886.4707.0152.8317-.1333.9094-.6521.0844-.5821-.4935-.3535-.712-.5686-.7271-.7153-1.1692-.15-1.6028.3712a9.997,9.997,0,0,0-1.6719,4.23c-.1569.6377.1628,1.9832.9617,1.8271,1.3969-.2725,1.2358-2.006,1.8727-3.0368C14.7529,36.2141,13.85,35.945,13.2995,35.7552ZM12.1657,46.9744l-.0245-.0354c.205.3374-.0278.5061-.2337.7449-.561.6487.15,1.4442.3627,1.5268.6453.2531.7592-.59.7693-.9178.065-2.5653,1.7015-4.67,2.0161-7.1483a12.4,12.4,0,0,0,3.3379-3.7791c1.94-2.5374,2.7289-5.7252,4.5864-8.4355-1.7833-.3577-2.8006,1.1717-4.1958,1.661-.3155.1105-.4572,1.2307-.3712,1.844.11.7837.9186-.3889,1.2.1493a38.66,38.66,0,0,1-3.0511,5.602A6.7982,6.7982,0,0,0,15.0785,41.17c-.8258-.3374-1.7909-.63-2.1443.4547-.5483,1.68-.8562,3.4383-1.2417,5.1693ZM64.9116,35.023a3.45,3.45,0,0,0,.0844,3.7445,18.6772,18.6772,0,0,1,1.7529,5.1685c.2851.906.2995,2.1536,1.1675,2.5222,1.3632.5787,1.5184,1.8693,2.2177,2.8377.5567-.0894.3492-.9347.96-.9456.4159.1139.4344.5281.6352.809.7752,1.0873-.2311,2.2776.1527,3.2856.86,2.2658,1.9014,4.4624,2.8934,6.6767.1847.4117.5745.72,1.0123.3931.3973-.2969,0-.5643-.1569-.8824a15.4633,15.4633,0,0,1-1.8837-6.0238A13.6656,13.6656,0,0,0,72.06,46.0676,23.33,23.33,0,0,1,69.994,41.07a4.8083,4.8083,0,0,0-3.0756-2.6766c-.5331-.2657-1.0654-.534-1.15-1.2164a6.58,6.58,0,0,0-.7-4.8083.7432.7432,0,0,0-.6149-.189c-.2413.0911-.2193.3526-.0844.6A4.1748,4.1748,0,0,1,64.9116,35.023Zm21.665,3.5843c0,.3374-.0987.7069.2463.9279.0666.0422.356-.0936.383-.1923.1535-.5475-.1755-.7077-.6487-.7145.5821-.9853-1.1919-.9279-.814-1.844.1443-.3484,1.1337-.4142.3931-1.0587-.41-.356-.7963-.2109-1.3058-.0067-1.3.52-2.2287-.3863-2.06-1.8837.6234-.0936.59.8309,1.3244.8014-.68-1.7116-.0439-1.6576,1.3758-1.3556.6748.1434.7845,1.1742,1.63.7347a7.8667,7.8667,0,0,0-.2716-1.3691,4.9221,4.9221,0,0,0-1.03-2.04c-.3054-.2531-1.0814.3762-1.4939.8959a.54.54,0,0,1-.809.03.59.59,0,0,1,.1122-.9414c.3788-.2775.86-.4133,1.2409-.6883a.58.58,0,0,0,.1105-.8132.5407.5407,0,0,0-.8014-.1189,7.4308,7.4308,0,0,0-.9279.8511c-1.181,1.1877-2.7989,1.8558-3.7547,3.5.6192,1.968,3.0528,3.1152,3.6855,5.4519.043.1586.39.2354.5955.35.7271-1.3337,1.9149-.1594,2.8208-.5171Zm-23.5917.3585.0844.0844-.0987-.07c-.9549-.8554.2235-2.5771-1.4754-3.5193.8815,2.1-.0936,2.67-1.6281,2.8318.0177.6529,1.0021,1.278.345,1.88-1.4771,1.35-1.64,1.963-.48,3.343a.7229.7229,0,0,1,.1873.6445c-.3374,2.2683,1.2189,4.1849,1.2,6.3747a3.01,3.01,0,0,0,.5711,1.66c.9827,1.7757,2.89,2.8681,3.4906,4.8926a3.5429,3.5429,0,0,0,.7794,1.2054.6521.6521,0,0,0,.9709.0135c.302-.248.5432-.7921.2185-.9026-1.2822-.4268-1.1278-1.844-1.9292-2.5585a6.56,6.56,0,0,1-1.76-5.3144,6.2474,6.2474,0,0,0-1.1439-3.9647c-.79-1.1042-1.7082-2.1755-1.1464-3.7015l-.02.0236c.5373-.0371.3863.3526.5171.6647.2531.6023,1.4-.0793,1.0747-.3762-.8646-.79,0-1.6922-.4707-2.4463C61.6892,38.808,62.5892,39.0855,62.9849,38.9657Zm-28.8066,3.408.3206,1.11-.3636.4066c-.1392,1.499,1.5041,1.7715,1.8558,3.1507A17.4211,17.4211,0,0,0,40.3945,40.55c.0641-.2682.2379-.64.453-.7221,2.0321-.77,2.7745-2.8757,4.3308-4.1469.8436-.6917.4285-2.6412-.1-3.1929s-.7221-1.5572-1.4028-2.0085c-1.1641-.7719.0253-1.35.2657-2.2531a16.81,16.81,0,0,0-3.34,2.777c-.1687.1282-.469.43.0472.6748.7879.3678.1687.658-.14.8233a2.3738,2.3738,0,0,0-1.084,3.6c.8233,1.6028-.06,2.3982-1.407,2.7508-.8638.2261-1.3117.4732-1.5,1.4205-.29,1.46-.8959.3661-1.5184-.11.8883,1.0966-.5163,1.2164-.5061,1.87Zm-19.5038,7.522c-.1561.2615-.6242-.8984-.6748.1965a10.5925,10.5925,0,0,1-1.5521,5.9192c-.99,1.35-1.1388,2.2185.0979,3.1895,1.4214-.8528,1.305-3.3877,3.6939-3.1212.302.0337.4935-.5357.2421-.6833-1.2805-.7482-.5146-1.1725.0979-1.8727a10.9535,10.9535,0,0,0,1.5049-3.3793.7938.7938,0,0,1,.959-.5836l.04.0108c.577.19.3737.7061.291,1.0772-.1063.4741-.5837.8511-.45,1.4779a9.2082,9.2082,0,0,0,3.95-.5846c.5542-.24.9127-.9279,1.6871-.6327l.0413.6015.16-.0439-.2286-.5382c-.1105-.3965-.9912-.7592-.5129-1.0274,1.1346-.6327.3695-1.3446.3222-2.0338l.4083-.4429.647-.0051c-.3239-.9692-.1611-2.2945-1.6154-2.4809-1.2147-.1561-.8511-.6748-.3863-1.2839A5.8205,5.8205,0,0,1,29.82,42.5525a3.4063,3.4063,0,0,1-.4131-4.7995q.0281-.0335.0572-.0662c1-1.5184,3.1954-1.0823,4.3975-2.4615-.5812-.2885-1.2653.2649-1.6686-.3956,1.008-.2623,1.7529-1.1371,2.8537-1.0772,1.6028.0844,2.3873-.0759,1.56-2.13-.6748-1.6694-1.61-3.2055-2.4134-4.7593-.6015-1.1633-1.3682-2.0127-.7541-3.3354.2472-.5314-.2278-.7592-.4091-1.0966-.0759-.1426-.3526-.4218-.469.0067s-.3374.8216-.4218.0666a6.8623,6.8623,0,0,0-1.05-2.4311c-.2674-.5112-.5728-1.0713-.2084-1.5066a1.1734,1.1734,0,0,0-.3374-1.9241c-.7668-.4581-2.3248-.5373-2.4952.0152-.38,1.235-1.1936.8275-1.8718.9608-1.7613.3459-3.4873,1.9064-3.305,3.4392.2345,1.9748-.9363,2.9364-2.2034,3.96-.2919.2354-.8984.1982-.7592.9279,1.5311-.3281,3.4442.221,3.9512-2.1274.1687-.79,1.9731-.4125,1.4627-1.8381,1.8938-.29.4218-.8722.0456-1.159-.3425-.2632-.7035-.4032-.604-1.0823a2.809,2.809,0,0,0,2.5627-.0886c1.2-.4125,1.2552.1552,1.1666,1.0123a5.7218,5.7218,0,0,1-2.1553,3.6045c-.7727.7111-1.1422,1.4079.3374,1.6163.906.1282.9077.5357,1.0966,1.3716.2261,1.0123-.7719,1.7816-.4724,2.1679.9279,1.1987.065,1.8727-.59,2.362A40.3279,40.3279,0,0,0,20.743,39.266a2.8512,2.8512,0,0,0-.9456,1.9073c-.3079,0-.59.0531-.6.4361,0,.0624.1468.1906.2168.1847.4066-.0346.3779-.345.3669-.636a1.5184,1.5184,0,0,0,1.32-.8174c.71-1.14,1.817-.2354,2.2042-.02.814.4521-.3239.8048-.5576,1.2012a16.8046,16.8046,0,0,1-2.8234,3.1541c-1.1734,1.1742-1.59.6183-2.2422-.4311-.9853,1.3539-2.3088,2.4531-2.1308,4.3367.059.6259-.3585.98-.8284,1.2839ZM50.2792,27.0126l-.02-.0211a8.239,8.239,0,0,0,4.1655,2.0524,37.3,37.3,0,0,0,11.269.836,27.8626,27.8626,0,0,0,12.644-3.2553,12.6533,12.6533,0,0,0,6.6869-6.58,9.3871,9.3871,0,0,0-3.88-11.09A29.7235,29.7235,0,0,0,65.05,3.8047a33.5878,33.5878,0,0,0-6.6371.31A25.7326,25.7326,0,0,0,46.4014,8.06a10.4491,10.4491,0,0,0-5.451,8.8489c0,.7136-.3163,1.6626,1.0789,1.4653.5466-.0776.717.7347.48.9144-1.5673,1.1852-.1535,1.9773.4032,2.6833A11.7389,11.7389,0,0,0,50.2792,27.0126ZM29.18,57.7576c.4319-1.5386-.5163-3.4771,1.6028-4.3721.3475-.1468.4952-.4285.1535-.8351A2.8411,2.8411,0,0,1,30.81,48.902c.6386-1.0224-.83-.5112-.8495-1.0966,0-.0683,0-.5854-.3054-.2126a5.1246,5.1246,0,0,0-1.3978,3.7766c.3484,1.526-.2725,2.9643.2075,4.4489a2.8327,2.8327,0,0,1-1.434,3.17,7.3474,7.3474,0,0,0-1.3623,1.4222c-.2168.2767.1873.7153.3459.52.7592-.9355.5517-.03.7449.3172a2.8892,2.8892,0,0,0,1.92,1.445c.7592.1637,2.0886-.0489,2.0389-.5846-.14-1.5184.3374-3.1515-.5525-4.57C29.6383,56.6939,29.6813,57.8209,29.18,57.7576ZM95.4288,36.36l-.4884.3956a5.1659,5.1659,0,0,0,2.836,3.769c.9279.4091,1.1008.0278,1.0123-.7432a3.478,3.478,0,0,0-.3754-1.0123c-.2429-.52-.1974-.9667.3568-1.2029s.67.1831.8731.5972a8.665,8.665,0,0,0,2.734,3.0562,1.2653,1.2653,0,0,0,1.6635-.1189c.6909-.539.0464-.9355-.2421-1.34a13.3281,13.3281,0,0,0-2.0456-2.71c-.7525-.6183-1.41-2.658-2.9314-.77a.7052.7052,0,0,1-.658.0844c-.3425-.1687-.0422-.3982.054-.5821.1173-.2244.2421-.5567-.027-.6107-1.6449-.3324-2.5981-1.6559-3.8306-2.5779a.4842.4842,0,0,0-.6571.01.5643.5643,0,0,0-.0413.797l.0176.0187c.3172.3526.7913.5778,1.0629.9549.636.884,1.8609,1.5083,1.1456,3.1777Zm12.4939-.7592a27.99,27.99,0,0,0,1.0629,5.0141,10.0493,10.0493,0,0,1,.3374,8.2466.5449.5449,0,0,0,0,.4884c.3433.3906.4395,1.0916,1.07,1.1211.6748.0321.85-.59,1.0266-1.0966.6242-1.7833-.4538-3.4139-.4935-5.1153a15.5846,15.5846,0,0,0-3.0031-8.6616Zm-4.3747-3.5826c.4454,1.1742.9136,2.3409,1.3311,3.5244a22.5061,22.5061,0,0,1,2.4463,8.7519,10.3758,10.3758,0,0,0,.3923,2.4682.8807.8807,0,0,0,.9353.8224q.0386-.0025.0769-.0084c.9692-.1232.2345-.712.2463-1.0806.0717-2.2987-1.3986-4.3511-1.0814-6.6953.0616-.4538-.3028-.6006-.6259-.771a1.6112,1.6112,0,0,1-.7853-1.3067,11.7178,11.7178,0,0,0-2.9356-5.7083Zm-27.9529,56.36c-.6942-.5643-.3239-1.3742-.3771-2.0979-.0278-.37.2632-.97-.3231-1.0553-.6487-.0936-.7373.6352-.7668,1.0055a26.016,26.016,0,0,1-.14,3.93c-.2969,1.235.8115,1.12,1.2021,1.542.5.54.7988-.39,1.0519-.7668A14.9075,14.9075,0,0,0,77.6349,88.49c.3138-.7423.3374-1.6685-.5846-1.9469-.3121-.0936-1.1034.4909-.99,1.2965C76.0929,88.0649,75.9925,88.3019,75.5952,88.3787Zm13.63-39.1064a21.8152,21.8152,0,0,0-1.9663-8.3394c-.216-.6478-.733-.52-1.197-.49a.9169.9169,0,0,0-.9229.911q0,.0085,0,.017c-.0152.19-.1687.5137.22.5314a1.6163,1.6163,0,0,1,1.48,2.2084c-.7525,1.7394.4926,2.44,1.2991,3.3742.4.4606.5357,1.0376,1.0873,1.7867ZM61.744,32.9689A45.1983,45.1983,0,0,0,55.15,30.7554c-.2893-.1223-.6234-.2058-.8048.097a.6748.6748,0,0,0,.2235.8115,16.0959,16.0959,0,0,0,4.8142,2.2354C60.44,34.408,60.6347,33.0145,61.744,32.9689ZM45.1968,28.5048c.1.8587,1.181.8857,1.0123,1.7276-.1847.9279.739.8773,1.019.8714a4.31,4.31,0,0,0,3.2156-.8959c.2151-.2143.3939-.3855.1274-.7347A7.0859,7.0859,0,0,0,45.1968,28.5048ZM32.4836,78.3589c-.787-.6436-1.4847-1.2561-2.2287-1.8061a.7373.7373,0,0,0-1.1219.1569c-.6158,1.02-1.181,2.0726-1.72,3.1347a.9679.9679,0,0,0,.1105.6748c.0253.059.4041.0742.45,0,.609-.9532,1.5572-.6554,2.4269-.7314C31.2858,79.7179,31.8332,79.0717,32.4836,78.3589ZM79.8695,36.8113c-.054.0245-.35.1054-.3459.1687.0127.2126.0785.5508.2185.6074,1.24.5011,1.3936,1.731,1.8617,2.7306q1.2181,2.6032,2.3232,5.2579c.237.5677.6.8064,1.0966.5466.6411-.3374.4142-.7406-.0717-1.08-.5846-.4083-.7061-1.0873-.9785-1.6871a31.1945,31.1945,0,0,0-3.0554-5.8863C80.6658,37.1327,80.519,36.72,79.8695,36.8113Zm9.0075,21.78A20.8359,20.8359,0,0,0,87.3223,51.45c-.2008-.4513.275-1.4577-.8048-1.2029-.9431.2227-.7364.9279-.3931,1.5791A12.9469,12.9469,0,0,1,87.8959,57.16c.02.3872.4952.75.9811,1.4315Zm15.6-32.282c-.701,2.8681,1.6188,4.6826,2.4463,7.0243.4808-2.7711-2.2337-4.4767-2.4463-7.0234ZM24.9245,77.8182c-1.3969.67-1.27,1.9056-1.0047,2.9415.0987.3855.9827,1.181,1.6871.8689,1.07-.4758.9541-1.5783,1.0334-2.5577-.6158-.0683-.8731.8115-1.5336.28C24.4859,78.85,25.4813,78.3673,24.9245,77.8182ZM17.4962,25.13a14.192,14.192,0,0,0,4.25-5.6172c-2.0456,1.0384-3.009,2.3122-4.2507,5.6164ZM99.1894,81.4615c-.1459,1.07-.4673,2.1207.6538,2.7491.8115.4547,1.3539-.1063,1.8946-.5736.216-.1864.485-.4218.2995-.7592a.58.58,0,0,0-.7963-.1687c-1.3033.6512-1.7909.0152-2.0515-1.2485Zm5.4418-57.2605a1.4956,1.4956,0,0,0-1.434-1.0561c-.4319.0143-1.1869.3762-.8967.8166.5483.8343.3214,2.4944,1.1261,2.51,1.186.0219-.0354-1.9022,1.2038-2.2708ZM95.5663,46.1435a4.9694,4.9694,0,0,0,.7187,4.1005C97.4719,48.5772,96.55,47.53,95.5663,46.1435Zm-3.0292-6.8168a7.727,7.727,0,0,0-1.364-4.8471,10.3014,10.3014,0,0,0,1.364,4.8462Zm-.7027-7.7236a3.8854,3.8854,0,0,0-1.1186-3.3506c-.13-.1847-.63-.7356-1.06-.2817-.3028.3206,0,.6605.2134.9524C90.4308,29.6875,90.9909,30.4551,91.8344,31.6032ZM31.7067,46.6269c.7778-2.1814-1.35-2.3788-1.957-3.4814A7.3389,7.3389,0,0,0,31.7067,46.6269ZM107.0555,23.085c-.6259-1.181-1.2653-2.38-3.0824-2.3814A8.1572,8.1572,0,0,0,107.0555,23.085ZM85.7389,73.68c.8351,1.4079.3695,2.615.6453,3.9C87.57,75.4841,87.518,74.9256,85.7389,73.68ZM78.675,38.4723a5.3987,5.3987,0,0,0-2.0127-4.0651A10.82,10.82,0,0,0,78.675,38.4723ZM27.8567,71.408a3.6121,3.6121,0,0,0,.5643-4.1579C28.1123,68.6631,28.7821,70.1317,27.8567,71.408Zm-8.3832,3.656c1.02-.7246.906-1.7006.9827-2.6218.0245-.29.016-.658-.4057-.6546a.59.59,0,0,0-.5643.6023C19.45,73.279,19.4735,74.1715,19.4735,75.064ZM98.1147,32.4029c-.264-1.116-1.1717-2.3822-1.6179-2.3679-.1367.0042-.3838.1628-.3847.2531-.011.9279.8317,1.251,1.3362,1.8145.1029.1164.3071.1442.6656.3ZM70.2,64.9658c-.1063,1.8027.4429,2.8512,1.596,3.0731Zm19.3-33.5406c-1.38,1.48.7643,2.0085.5382,3.1212A3.3261,3.3261,0,0,0,89.4995,31.4252Zm3.8255,9.1163c.33,1.3075.22,2.367,1.0688,3.2654A2.7458,2.7458,0,0,0,93.325,40.5415ZM35.9068,77.0033c-1.3219,1.0738-.8925,2.0971-.3771,3.1313C35.5,79.1493,36.3522,78.299,35.9068,77.0033ZM74.1822,34.527c-.0844,1.0738.5787,1.7546,1.3219,2.6994A3.1212,3.1212,0,0,0,74.1822,34.527ZM46.328,53.8992c.4952,1.4264.4952,1.4264,2.03,1.1523C48.0016,54.0831,46.8848,54.5116,46.328,53.8992Zm53.6889-28.8673c.383-.2792,1.251-.0388,1.2653-.9136.0067-.4268-.3931-.4015-.6748-.3113-.5061.1628-1.1186.2683-1.2653.8646C99.2662,25.0066,99.5791,25.1753,100.0169,25.0319Zm-1.35,20.9657a2.4877,2.4877,0,0,0,0-2.9153ZM59.9531,58.6509c-.2109-1.0283-.9431-1.0249-1.6584-1.0123-.0768,0-.2328.2716-.2092.3889.2522,1.2451,1.4593-.2235,1.8735.6225ZM90.7176,45.8846c.1274-.7761.464-1.6188-.2353-2.297a.539.539,0,0,0-.4319,0C89.8049,44.4547,90.3692,45.1153,90.7176,45.8846ZM52.6868,31.1823c.1577-.5719-.453-.5517-.7533-.7457-.5188-.3374-.7929.04-.9077.4783s-.0666.6352.53.4218C51.8162,31.2379,52.2987,31.976,52.6868,31.1823Zm-30.6514,48.65a5.926,5.926,0,0,0,.1788,3.1347C22.7262,81.5568,22.7262,81.5568,22.0353,79.8318Zm64.807-44.5532c.4041.8967.2025,1.6028.9363,1.8288.1687.0523.2843-.0658.3-.2944.0439-.6808-.3594-1.0131-1.2358-1.5344ZM24.4876,52.7013c-.038-.356-.3982-.3526-.6209-.4648a.3121.3121,0,0,0-.4918.2969.6681.6681,0,0,0,.4572.7044C24.2092,53.3416,24.29,52.951,24.4876,52.7013ZM62.4155,34.37a1.0747,1.0747,0,0,0-.895-.6529c-.0245,0-.1687.3011-.1248.383a.6529.6529,0,0,0,1.02.27Zm16.3734,1.47.26-.1156-.7381-1.6078-.2775.1232Zm-19.01,26.0026c.162.7432.2623,1.1683.8368,1.3008C60.7073,62.4807,60.272,62.312,59.7794,61.8429ZM14.7158,64.4006c-.2151-.1367-.3324-.2682-.4547-.2733s-.2607.1122-.3914.1755c.1113.1156.2067.291.3374.3265C14.3177,64.6579,14.47,64.5187,14.7158,64.4006Zm19.56-16.5733-.1687-.2919c-.0709.0793-.2126.1729-.1991.2345a1.2,1.2,0,0,0,.2075.35ZM32.4482,57.39l.15-.0759c-.0439-.0346-.0844-.0928-.1308-.097s-.0979.0447-.1468.07Zm-.5635-.8115c-.0472-.0143-.0979-.0481-.1409-.04-.1771.0346-.1822.1-.0135.1637a.2084.2084,0,0,0,.1434-.02Zm-5.408-27.4721.0742-.12-.1257-.0152Zm33.3027,6.4169.0953.0464.0084-.07Z" fill="#ddba62"/><path d="M32.1217,84.7176c.0312.2876-.011.7913.1046.8309,2.7314.9279,2.8681,3.4341,3.5682,5.6392.1915.6015.7153,1.6078,1.4889,1.2771.6951-.2978,1.03-1.2409.4015-2.2565,1.089,1.4686,2.362-.2168,3.4586.5061,1.1152.733,1.5294,2.1688,2.8031,2.6749.5837-.302.0844-1.3261,1.1008-1.3556a2.8571,2.8571,0,0,1-.7533,2.0473.9389.9389,0,0,0,.1029,1.3075c.4167.4395.7322-.03,1.1025-.1594.7811-.275,1.3075-.9684,2.2548-1.0561.8039-.0742.9448-.7044.1965-1.3421-.2986-.2531-.9347-.6453-.48-1.1692a.906.906,0,0,1,1.4264.189c.6082.8064,2.3248.6124,1.9992,2.356-.0709.3771.9,1.0654,1.5024,1.4264,1.1337.68,2.3763,1.181,3.52,1.8432.8883.5171,1.224-.6622,2.2624-.5112,1.3843.2016,3.5547.5061,4.2827-1.7959a.9811.9811,0,0,1,1.3016-.2438,11.2513,11.2513,0,0,0,8.072.3028,1.6871,1.6871,0,0,0,1.7259-1.6314c.1873-1.138,1.4931-1.0325,2.4083-1.3623,1.0679-.3855,1.9731-1.1177,2.4294.7162.1729.6959.7921.3779.9558-.2a2.1823,2.1823,0,0,1,1.27-1.434c.5525-.2531,1.418-1.3868,1.3792.4446a.7592.7592,0,0,0,1.0857.6386c1.1076-.5534,2.7154-.124,3.33-1.7.1586-.4066.6217-.6748.8773.027.5778,1.5783.9827.3071,1.0966-.1426.2531-.965.2176-2.0009.4429-2.9752.2067-.895.5964-1.4627,1.7141-.7373.9971.6479,2.1814,2.1485,3.2831.0329l-.0135-.011c.2092.6993-.5525,1.3337-.1805,2.1932A9.4824,9.4824,0,0,1,98.9389,87.19c.6647-.0236.49-1.4231,1.3261-1.7866.1367.534-.2244,1.2729.3737,1.5943.6748.361.6748-.485.9827-.7592.6689-.6006,1.7006-.0422,2.362-.9279.4041-.5432.113-1.553,1.0966-1.677l.0548.9886c.318-.4825.4167-.7828-.0523-.99a4.4642,4.4642,0,0,0,.2893-1.2181c-.0388-.8292-.61-2.1089.6023-2.1494a2.0077,2.0077,0,0,1,2.2616,2.3889,1.0764,1.0764,0,0,0,.3653,1.14c.7592-1.1312,1.4982-2.2143,2.2228-3.3067.3636-.5483.59-1.4459,1.0755-1.6129a3.9647,3.9647,0,0,0,2.93-4.78l-.0158-.0634c.9524.7955.566,1.5445.9228,2.5172a9.8376,9.8376,0,0,0,1.56-3.2165,21.7965,21.7965,0,0,0,.9279-6.0947,26.0657,26.0657,0,0,1,1.5547-7.8138,16.5859,16.5859,0,0,0,3.0587,2.9676c.7862.5061.7811,1.2594.7145,2.0743a8.39,8.39,0,0,0,.5314,4.9112,2.41,2.41,0,0,1-.2531,2.2388c-2.1528,4.0491-4.2751,8.1209-6.4068,12.1826-1.6677.8731-1.7951,2.8175-2.79,4.1722-.4876.663-.6748.9979-1.4045.6985-1.704-.6993-2.55.1375-3.1347,1.6264-.2607.6647-.7288,1.2451-1.0376,1.8955a1.2865,1.2865,0,0,1-1.7487.7811,18.51,18.51,0,0,1-2.25-.5289c-.7592-.3374-1.0249-.0152-1.3429.5551a7.6907,7.6907,0,0,0-1.5344,3.7116,3.548,3.548,0,0,1-2.8909.1054c-3.1473-1.181-3.9124-.7255-4.7315,1.7453-.23.6959-.3045,1.0367.57,1.2383,1.2814.2952,2.5307.75,3.7825,1.1574.6141.1991,1.526.3863,1.0738,1.2653-.922,1.79.27,1.6989,1.3961,1.7866a10.49,10.49,0,0,0,1.4248.1991c1.2873-.0844,1.39.52.9785,1.5049-.3324.7955-.2033,1.251.8014,1.1354a8.62,8.62,0,0,1,1.2527.0312c-.1687,1.186-1.1489,2.0768-1.2139,3.3008a7.83,7.83,0,0,1-1.2569-.0093c-1.8255-.3037-2.1291,1.1886-2.4328,2.2987-.3948,1.4416,1.3261.4741,1.6939,1.1869l-.1248,1.0249a7.1517,7.1517,0,0,1-3.6129,1.2755c-.19-.9962,1.585-1.4973.8984-2.2776-.5483-.62-1.8035-.1-2.7449-.1046-1.0679-.0042-1.3607.7153-1.3733,1.5184-.0152.965.7988.8579,1.4577.8545.5981,0,1.1953-.0143,1.7934-.0219.1476.4032-.0666.66-.33.9338a7.3887,7.3887,0,0,1-4.7711,1.62c.8436-2.1131.8436-2.1089-1.6348-2.4277-.6588-.0844-1.321-.1535-1.9722-.28a1.8136,1.8136,0,0,1-.7592-.3534c.5964-2.362-1.5564-1.6171-2.4885-2.1806-1.7225-1.04-3.0368-.3712-4.0887,1.1666a2.9752,2.9752,0,0,1-4.3747,1.0317,3.29,3.29,0,0,0-3.8593.3374,4.5552,4.5552,0,0,1-5.2418.36,3.6931,3.6931,0,0,0-3.4206-.2269,5.6518,5.6518,0,0,1-6.0483-.2337,3.009,3.009,0,0,0-3.7876.0447,4.2287,4.2287,0,0,1-5.5945-.5061,2.6614,2.6614,0,0,0-3.165-.4715c-2.8791,1.2257-2.94,1.2324-4.7332-1.2324a1.7647,1.7647,0,0,0-2.3215-.7651,23.0938,23.0938,0,0,1-2.8681.9524c-.5424.1814-1.111.3054-.8722,1.0679.2033.6512.4867,1.2906,1.332,1.2307a3.88,3.88,0,0,0,1.0308-.302,4.1334,4.1334,0,0,1,5.5514,1.3834,1.817,1.817,0,0,0,2.6665.5711,4.1587,4.1587,0,0,1,4.977.3956,2.8993,2.8993,0,0,0,3.861.2193,4.907,4.907,0,0,1,4.8285-.1687,4.869,4.869,0,0,0,4.799.1552,4.5172,4.5172,0,0,1,4.8015-.0464,2.863,2.863,0,0,0,3.4679-.3627,3.7251,3.7251,0,0,1,4.5-.7035,3.0132,3.0132,0,0,0,3.9419-.59c2-1.9832,4.18-.8123,6.3174-.43a.4673.4673,0,0,1,.3813.6748c-.4294,1.003.33.9093.8925,1.0064a15.0694,15.0694,0,0,1,3.8955.685c.1611,1.2594-1.1919,1.1928-1.6635,1.898a5.1592,5.1592,0,0,1-2.6985.7111c-.8317-.7592-1.5252-1.181-2.3181.1771a2.8411,2.8411,0,0,1-2.8613,1.1633,7.5675,7.5675,0,0,0-5.1457,1.709l-.5534.0919a7.9126,7.9126,0,0,0-5.7834.2041,3.931,3.931,0,0,1-3.343.0152,4.7188,4.7188,0,0,0-3.3742-.07,8.3031,8.3031,0,0,1-5.4991-.0388,4.195,4.195,0,0,0-3.0056-.0844l-.1113.0169a7.2259,7.2259,0,0,1-6.2845-.6807c-.1206-.0844-.3442-.0143-.52-.016a3.192,3.192,0,0,0-1.8238.1569c-.2758-.1105-.523-.1274-.6656.2025l-.7221.2876a12.7739,12.7739,0,0,0-7.6139-1.5656,1.5867,1.5867,0,0,1-1.283-.5264A4.2262,4.2262,0,0,0,34.1,120.7315a8.5341,8.5341,0,0,1-1.6213-.0844,3.5337,3.5337,0,0,0-2.9246-2.243c-.2733-.04-.6133-.05-.7508.3062a.3948.3948,0,0,0,.3028.5483c1.2291.2235,2.0448,1.472,3.4012,1.3564l.3543.7111a19.9433,19.9433,0,0,1-8.7181-4.405c.6-.5129,1.4121.6546,1.7867-.059.5761-1.0966,1.5471-.6959,2.3544-.9279.8275-.237,2.5205.4867,1.7335-1.5749-.1029-.2691.2345-.566.5483-.6166,2.8546-.4564,4.8572-2.6732,7.4933-3.5952,3.0689-1.0722,3.0874-1.1363,4.7846,1.6255.6538,1.0629,1.0966,1.5015,2.4885.7786,1.5-.7778,3.29-2.2287,5.0436-.2151a3.5741,3.5741,0,0,0,5.51.4159,3.3329,3.3329,0,0,1,4.7119.12q.0292.0307.0576.0622a3.381,3.381,0,0,0,4.5856.512,4.1714,4.1714,0,0,1,5.8941.2451q.0419.0456.0825.0923a1.5226,1.5226,0,0,0,2.5745-.1569,4.2338,4.2338,0,0,1,6.2777-1.0536c.097.0675.2235.0919.3273.1527a1.5825,1.5825,0,0,0,2.3113-.4218,4.8294,4.8294,0,0,1,7.3221-.8925c1.251,1.2333,2.6724,1.1725,3.9875,1.7639,1.63.733,2.0077-.0911,2.3341-1.33.0742-.2817.1965-.5517.2961-.8258-1.5572-.863-3.6577-.0363-4.7905-1.35-1.35-1.564-3.26-1.5893-4.8353-2.4539-.8705-.4783-1.3438-.3037-2.02.5061-2.6994,3.2376-2.7787,3.2392-6.25,1.0916a2.3915,2.3915,0,0,0-3.2148.5373c-2.7441,2.4134-2.7382,2.3991-5.9479.4994-1.2864-.7592-2.4463-1.181-3.7833.237-1.111,1.181-2.5661,2.3172-4.4287,1.1076a12.6123,12.6123,0,0,1-1.8044-1.2021,2.6631,2.6631,0,0,0-3.7585-.2414q-.0354.0311-.07.0634c-2.9027,1.96-3.0655,1.9748-5.6425-.4429a3.2325,3.2325,0,0,0-4.4025-.5061c-2.8175,1.5184-2.9626,1.4475-4.7669-1.0671-.9136-1.2729-1.67-1.0663-2.9786-.6479-2.7416.8773-4.6092,3.4932-7.6578,3.67-.5061.03-1.0646.5061-1.0038.9068.2649,1.7259-1.0123,1.488-1.9883,1.8356-.8587.3071-1.812-.0557-2.707.5483.2775.54,1.08,1.0966.4943,1.6871-.4429.45-1.1278.0844-1.6871-.1274a.8933.8933,0,0,0-.3543.027l-.48-.5163c.3214-.8216-.976-.992-.739-1.8558,1.4669.0953,2.5408-.1071,1.7588-2.0245-.3113-.7643.5424-.7853,1.0215-.8984,1.283-.3011,3.0444.1459,3.0452-2.0642,0-.108.2581-.2893.4142-.3121,3.246-.4707,5.2157-3.29,8.1513-4.3865,2.9659-1.1143,2.906-1.2653,4.4219,1.5057.1991.3644.4707.6883.6867,1.0443.5711.9423,1.0966,1.2206,2.1932.4623,3.73-2.5669,4.0136-2.4927,7.3052.5112a5.258,5.258,0,0,1,.5264.4985,1.4644,1.4644,0,0,0,2.3687.2075c2.65-2.8959,5.1457-2.4876,7.7607.0363a1.7715,1.7715,0,0,0,2.5047.05q.0319-.0306.0622-.0628c3.521-2.6952,3.72-2.6994,7.3887-.1687,1.3244.9119,2.14,1.1051,3.4341-.23,2.8462-2.9389,2.9524-2.8352,5.5632-1.32,2.8107,1.6314,2.8166,1.6314,4.6294-1.1042.1316-.1991.1932-.4479.3374-.631.7735-.9583,1.6238-1.5817,2.9347-.87,1.5184.8233,3.6146.6546,4.427,2.6909.0844.216.6394.2691.9861.3543a24.1,24.1,0,0,0,2.65.5854c1.2653.1594,1.7824.7533,1.2493,1.952-.4049.9093-.01,1.06.7592,1.0325a7.8244,7.8244,0,0,1,1.4492,0c1.84.2826,2.2666-1.2653,2.3291-2.3257.0683-1.1506-1.2653-.3509-1.9495-.5559-.388-.1164-.8537.0447-1.2594-.038-.496-.1012-.9574-.3653-.59-.9929.9988-1.6989-.2109-2.0245-1.434-2.3476-.6993-.1856-1.3995-.3661-2.0979-.5525-.8208-.2185-1.7883-.3231-1.1346-1.6028.0894-.1746.1038-.5179-.2531-.5416a13.2178,13.2178,0,0,1-4.5788-1.909,2.065,2.065,0,0,0-3.079.9633,25.4517,25.4517,0,0,0-1.914,3.0368c-.3551.8824-.868.9161-1.5184.3771-1.07-.884-2.1-1.817-3.1886-2.6766-.3762-.2969-.7727-.9659-1.3767-.4117a15.6531,15.6531,0,0,0-2.8681,2.8807c-1.3657,2.1738-1.38,2.2692-3.3978.61-.28-.23-.5643-.4547-.8436-.6909-2.637-2.26-2.9921-2.2582-5.5675.0354-2.6412,2.3535-2.6378,2.351-5.1786-.1029-3.0494-2.9457-2.1983-2.933-5.8307-.469-2.5492,1.7293-2.5661,1.7369-4.583-.4977-2.5889-2.8681-1.7715-2.356-5.052-.9566-.1105.0472-.2126.1181-.3256.1586-1.12.4049-1.9064,1.87-3.138,1.54-1.3961-.3729-1.16-2.0743-1.7057-3.1574-.5981-1.1869-1.251-1.8643-2.6673-1.062-1.2544.71-2.5939,1.27-3.904,1.8794-.3872.1805-1.0072.3771-.9279.7491.3847,1.8153-1.1523,1.6466-2.0591,2.0726-.9228.4344-1.9132.7229-2.8571,1.116-.4429.1839-.9777.4479-.5846,1.0629.9,1.407-.0236,1.4551-1.0536,1.5353-.5972.0464-1.181.275-1.7782.3374-1.111.1139-1.2788.6369-.7769,1.5445.1864.3374.5466,1.07,0,.9878-2.5661-.3872-2.362,1.0173-1.9452,2.6825.0152.0616-.1552.1687-.24.2531-.8739-1.1143-1.7613-2.1182-1.1658-3.812.2278-.6487-.4943-1.6314-.7837-2.4615.3594-.0371.7221-.0523,1.0764-.1164.8005-.1451,2.4539.5281,1.3581-1.4644-.2725-.4952.3374-.6883.7508-.7634.6512-.12,1.32-.1485,1.9689-.2792.9279-.1864,1.9166-.3695,1.0553-1.7006-.4218-.65-.1029-.9279.5492-1.1523a31.8158,31.8158,0,0,0,3.5286-1.3725c1.1911-.5694,1.3185-1.9182.4513-3.55-.6031-1.1337-1.2974-.27-1.9444-.0768-1.0123.3-1.9874.72-3.0115.94-1.31.2809-1.8617.7347-.9195,2.0245.636.87.4471,1.434-.7406,1.5142-.5323.0371-1.046.2919-1.5791.372-1.0772.162-1.94.3374-1.1692,1.7833.3374.6411-.28,1.0275-.8714.9338-2.184-.3467-1.7985.9043-1.42,2.1823a3.0174,3.0174,0,0,1-2.0338-2.5661c1.445.1088.9389-.8554.6335-1.3885-.7778-1.3573-.0219-1.5327,1.04-1.5184,1.208.0135,1.8246-.3315.99-1.56-.66-.9709-.1291-1.2653.7271-1.4256.5314-.1012,1.06-.2193,1.5935-.3155.7305-.1324,1.6753-.2952,1.332-1.2468-.4007-1.1076-.2472-2.8192-1.833-3.025a13.2253,13.2253,0,0,0-3.47.4867c-.8748.1316-.8511.4969-.5011,1.224,1.057,2.1932,1.0182,2.2093-1.4222,2.5307-.2294.03-.453.1054-.8182.1932.3206.6.5652,1.1439.8857,1.639.6571,1.0123-.0953,1.073-.7727,1.2021-.9743-1.13-2.0616-2.18-.8587-3.8643.4218-.59-.232-1.2392-.5222-1.8212-.14-.6993.2429-1.0123.86-1.0468,2.0861-.1122,1.97-1.0966,1.0241-2.4632a5.004,5.004,0,0,1-.658-1.2552c-.5643-1.7284-2.0051-1.41-3.0208-.9709-1.434.62-.15,1.5715.1139,2.362a7.2731,7.2731,0,0,0,.5677,1.1194c.4589.8436-.1881.8613-.7187.9684a3.41,3.41,0,0,1-1.3649-4.4573c.1687-.5239-.1687-.9195-.3374-1.35-.3374-.8781-1.1633-1.5471-1.0747-2.6209.05-.5955-.4218-.6613-.8655-.6259-1.2527.0987-1.7715-.7592-2.3265-1.6626a22.9953,22.9953,0,0,1-2.7778-9.0555,6.08,6.08,0,0,0-.852-1.75C.81,70.98-1.08,70.2481.8621,69.0663a.5331.5331,0,0,0,.0472-.5112c-1.3691-1.8727.2151-2.75,1.251-3.8323a2.0988,2.0988,0,0,0,.6529-1.7934c-.1248-1.0123.108-1.8027,1.4045-1.7377.6293.0321.6951-.4682.8368-.9625a3.0267,3.0267,0,0,1,1.6382-2.0355c.0051,1.6972.0059,3.3945.0186,5.0925,0,.56.3543.5061.7314.3813v-.0042c-1.046,1.2653.3627,2.4412.1189,3.7547a12.2569,12.2569,0,0,0,.1291,5.214c.3011,1.1877.5618,2.5391,2.1528,2.82.5357.0945.3669.8242,1.0258,1.208l.5694-6.0061c.685.4673,1.2586.7052.7187,1.97a7.7017,7.7017,0,0,0-.2286,4.8555c.9228-.3146.9532-.9743.9043-1.7057a22.4014,22.4014,0,0,0-.3071-5.0318c-.1071-.3619-.1451-.7339.3222-.863.0962-.0262.3661.1687.3627.2531-.0928,2.2835,1.8853,4.3595.663,6.7678-.2143.4218-.7474.7592-.399,1.45.2581.5061-.313.5762-.6411.4935-1.5471-.39-1.35.782-1.2535,1.55.0624.4808.77.8781.0692,1.4239-.06.0464-.0152.2261-.0194.3433,1.9942-.4969,1.7394,2.2633,3.3363,2.313,2.0895.065,3.9352,1.3446,6.0137,1.2577.7676-.0321,2.0878-.0219,1.7824-1.5749-.0683-.3484.0228-.8.4952-.809.4969-.0093.5112.4437.4926.8-.0641,1.2383.2531,2.0481,1.7419,1.9832.8554-.0371,1.2915.5449,1.4922,1.3927.2531,1.0528.8073,2.39,1.94,2.0777,1.1649-.3206,2.615-1.1278,2.4463-2.8251a2.0735,2.0735,0,0,1,.7778-2.0347Zm4.7239,32.654.0776.1122h.0844l-.1856-.0844c-.0844-1.65-.8334-2.3822-2.5256-1.8735-.5778.1738-1.1911.2429-1.7512.4564-.4606.1755-1.402-.2033-1.2.8714a1.434,1.434,0,0,0,1.4568,1.3,16.2806,16.2806,0,0,0,4.0406-.7778Zm50.7128,1.3919a6.0213,6.0213,0,0,0-6.8817,1.13,2.011,2.011,0,0,1-2.3771.2286,4.0668,4.0668,0,0,0-4.6024.2674,3.9647,3.9647,0,0,1-4.4067.29,3.5151,3.5151,0,0,0-3.4375-.0093,6.3123,6.3123,0,0,1-6.5966-.5947,2.2447,2.2447,0,0,0-2.1367-.0987c-1.9756.7465-4.0575,1.7293-6.0677-.038a2.5981,2.5981,0,0,0-3.1819-.02,1.9486,1.9486,0,0,1-2.7245-.4137l-.0246-.0342c-1.6989-2.3712-3.796-1.7487-5.9336-.8832-.3374.1367-.9929.0919-.8275.7179.1324.5.3788,1.057,1.111.9169a13.8189,13.8189,0,0,0,2.4741-.5061,2.3383,2.3383,0,0,1,3.025.7592,3.4164,3.4164,0,0,0,4.11,1.2805,3.9689,3.9689,0,0,1,3.149.2961,5.2047,5.2047,0,0,0,4.5223.1443,6.05,6.05,0,0,1,4.8884.1771,4.9888,4.9888,0,0,0,4.2077.0844,5.47,5.47,0,0,1,4.3915-.0582,4.1014,4.1014,0,0,0,3.78-.4285,4.4278,4.4278,0,0,1,3.9917-.3594,2.5,2.5,0,0,0,2.5433-.21,5.0774,5.0774,0,0,1,4.57-1.1388c1.59.5584,2.2059-.1333,2.4311-1.499Z" fill="#351c17"/><path d="M20.5473,113.11c.0844-.0844.2531-.1957.24-.2531-.4167-1.6652-.6209-3.0705,1.9452-2.6825.5441.0844.1839-.65,0-.9878-.5011-.9077-.3374-1.434.7769-1.5445.5981-.0616,1.181-.2893,1.7782-.3374,1.0308-.0844,1.9537-.1291,1.0536-1.5353-.3931-.6141.1417-.8781.5846-1.0629.9439-.3931,1.9343-.6816,2.8571-1.116.9068-.4268,2.4463-.2581,2.0591-2.0726-.0793-.3729.5416-.5694.9279-.7491,1.31-.61,2.65-1.1692,3.904-1.8794,1.4163-.8022,2.0692-.1257,2.6673,1.062.5458,1.0831.31,2.7837,1.7057,3.1574,1.2324.33,2.0178-1.1354,3.138-1.54.113-.04.2143-.1113.3256-.1586,3.2806-1.3995,2.4632-1.9115,5.052.9566,2.0169,2.2346,2.0338,2.227,4.583.4977,3.6332-2.464,2.7837-2.4767,5.8307.469,2.54,2.4539,2.5374,2.4564,5.1786.1029,2.5737-2.2936,2.9288-2.2953,5.5675-.0354.275.2362.56.4606.8436.6909,2.0186,1.6593,2.0321,1.564,3.3978-.61a15.6531,15.6531,0,0,1,2.8681-2.8807c.604-.5542,1.0013.1147,1.3767.4117,1.0882.86,2.1182,1.7926,3.1886,2.6766.6521.5382,1.1649.5061,1.5184-.3771a25.4517,25.4517,0,0,1,1.914-3.0368,2.065,2.065,0,0,1,3.079-.9633,13.2178,13.2178,0,0,0,4.5788,1.909c.3551.0236.3374.3669.2531.5416-.6538,1.283.313,1.3876,1.1346,1.6028.6993.1856,1.3995.3661,2.0979.5525,1.2232.3256,2.4328.6487,1.434,2.3476-.3695.6284.0919.8925.59.9929.4066.0844.8714-.0793,1.2594.038.6816.205,2.0186-.59,1.9495.5559-.0633,1.057-.49,2.6083-2.3291,2.3257a7.8244,7.8244,0,0,0-1.4492,0c-.7685.027-1.1624-.1232-.7592-1.0325.5331-1.1987.0143-1.7926-1.2493-1.952a24.1,24.1,0,0,1-2.65-.5854c-.3475-.0844-.9-.1375-.9861-.3543-.8123-2.0363-2.9119-1.8676-4.427-2.6909-1.3109-.7128-2.1612-.0886-2.9347.87a7.0363,7.0363,0,0,0-.3374.631c-1.8128,2.7348-1.8187,2.7356-4.6294,1.1042-2.6091-1.5184-2.7171-1.6188-5.5632,1.32-1.294,1.3362-2.1089,1.143-3.4341.23-3.6686-2.5307-3.8677-2.5256-7.3887.1687a1.7715,1.7715,0,0,1-2.5041.0749q-.0322-.03-.0628-.0622c-2.615-2.5239-5.1136-2.9322-7.7607-.0363a1.4644,1.4644,0,0,1-2.3687-.2075,5.258,5.258,0,0,0-.5264-.4985c-3.29-3.0039-3.5741-3.0781-7.3052-.5112-1.1017.7592-1.6238.48-2.1932-.4623-.2159-.356-.4867-.68-.6867-1.0443-1.5184-2.7669-1.456-2.6192-4.4219-1.5057-2.9356,1.1025-4.9053,3.9192-8.1513,4.3865-.1561.0228-.4142.2041-.4142.3121,0,2.2093-1.7622,1.763-3.0452,2.0642-.4791.1122-1.3328.1333-1.0215.8984.782,1.9208-.2919,2.1232-1.7588,2.0245-.237.8655,1.06,1.0359.739,1.8558A3.2645,3.2645,0,0,1,20.5473,113.11Z" fill="#ddba62"/><path d="M23.0434,115.7107a.8933.8933,0,0,1,.3543-.027c.5627.2109,1.2476.577,1.6871.1274.5854-.59-.2168-1.1464-.4943-1.6871.895-.604,1.8482-.2413,2.707-.5483.9735-.3484,2.2531-.11,1.9883-1.8356-.0607-.3973.4985-.8773,1.0038-.9068,3.0486-.1771,4.9162-2.793,7.6578-3.67,1.3075-.4218,2.065-.6251,2.9786.6479,1.8044,2.5146,1.9495,2.5821,4.7669,1.0671a3.2325,3.2325,0,0,1,4.4025.5061c2.5771,2.4176,2.74,2.4024,5.6425.4429a2.6631,2.6631,0,0,1,3.7646.1084q.0323.0342.0634.07a12.6123,12.6123,0,0,0,1.8044,1.2021c1.8634,1.21,3.3177.0742,4.4287-1.1076,1.3354-1.4205,2.4969-.9979,3.7833-.237,3.21,1.9,3.2055,1.914,5.9479-.4994a2.3915,2.3915,0,0,1,3.2148-.5373c3.4712,2.1477,3.548,2.146,6.25-1.0916.6748-.81,1.15-.9836,2.02-.5061,1.5758.8655,3.4856.89,4.8353,2.4539,1.1329,1.3117,3.2333.4859,4.7905,1.35-.1.275-.2219.5441-.2961.8258-.3265,1.2383-.7044,2.0625-2.3341,1.33-1.3151-.59-2.7365-.5306-3.9875-1.7639a4.8293,4.8293,0,0,0-7.3221.8925,1.5825,1.5825,0,0,1-2.3113.4218c-.1038-.06-.23-.0844-.3273-.1527a4.2338,4.2338,0,0,0-6.2777,1.0536,1.5226,1.5226,0,0,1-2.5745.1569,4.1714,4.1714,0,0,0-5.8843-.42q-.0468.0405-.0923.0825a3.381,3.381,0,0,1-4.5856-.512,3.3329,3.3329,0,0,0-4.7073-.24q-.0314.0284-.0622.0576a3.5742,3.5742,0,0,1-5.51-.4159c-1.7546-2.0136-3.5429-.5627-5.0436.2151-1.3952.7229-1.8347.2851-2.4885-.7786-1.6972-2.7618-1.7149-2.6994-4.7846-1.6255-2.637.9212-4.64,3.1389-7.4933,3.5952-.3138.0506-.6512.3475-.5483.6166.7862,2.0616-.9068,1.3387-1.7335,1.5749-.8064.2311-1.7782-.1687-2.3544.9279-.3745.7137-1.1877-.4538-1.7867.059A1.4568,1.4568,0,0,1,23.0434,115.7107Z" fill="#ddba62"/><path d="M102.1857,96.7012A7.69,7.69,0,0,1,103.72,92.99c.318-.57.5837-.8916,1.3429-.5551a18.51,18.51,0,0,0,2.25.5289,1.2864,1.2864,0,0,0,1.7487-.7811c.3079-.65.7761-1.2307,1.0376-1.8955.5846-1.4889,1.434-2.3265,3.1347-1.6264.7288.2995.9169-.0354,1.4045-.6985.9954-1.3547,1.1228-3.3,2.79-4.1722a37.9667,37.9667,0,0,1-2.72,6.2111c-1.0528,2.5146-2.7576,4.69-3.6188,7.3052a7.3743,7.3743,0,0,1-2.2624,3.5733c-.8511-.313-2.0363.361-2.5577-.3324-.5821-.7744.4218-1.6028.7027-2.4143.275-.8-.3475-.71-.7482-.782-1.35-.2429-2.7036-.4488-4.0567-.6689Zm8.3-3.2831c-1.94-.5593-1.9334,1.1574-2.5054,2.1578-.4614.8064-.1063,1.0519.7735,1.2527,1.6222.3695,2.0313-.5618,2.615-1.7478.588-1.2071.9591-1.9343-.884-1.6618Z" fill="#ddba62"/><path d="M105.8375,106.8711a8.62,8.62,0,0,0-1.2527-.0312c-1.0038.1156-1.1337-.3374-.8014-1.1354.4117-.9844.3087-1.5893-.9785-1.5049A10.49,10.49,0,0,1,101.38,104c-1.1253-.0844-2.3172,0-1.3961-1.7866.453-.879-.46-1.0663-1.0738-1.2653-1.2544-.4074-2.5-.8621-3.7825-1.1574-.8748-.2016-.8005-.5424-.57-1.2383.8191-2.4708,1.5842-2.928,4.7315-1.7453a3.548,3.548,0,0,0,2.8909-.1054l-.0194-.0211c-1.2164,3.5758-1.23,3.6636,2.4353,4.2254,1.0123.1561.7077.4108.5239.9642-.1771.534-.8807,1.143-.3,1.6213.6124.5061,1.51.2826,2.2641.1113.3374-.0776.21-.8436.8132-.77A4.8724,4.8724,0,0,1,105.8375,106.8711Z" fill="#ddba62"/><path d="M17.68,106.1068c-.3788-1.278-.7643-2.5307,1.42-2.1823.59.0936,1.2105-.2927.8714-.9338-.7676-1.45.0928-1.6222,1.1692-1.7833.5331-.08,1.0469-.3374,1.5791-.372,1.1869-.0844,1.3758-.6436.7406-1.5142-.9414-1.2889-.39-1.7428.9195-2.0245,1.0241-.2193,2.0034-.6394,3.0115-.94.6479-.1923,1.3421-1.0561,1.9444.0768.868,1.6314.7406,2.98-.4513,3.55a31.8158,31.8158,0,0,1-3.5286,1.3725c-.6521.221-.9709.5061-.5492,1.1523.8621,1.3311-.13,1.5184-1.0553,1.7006-.6487.1308-1.3176.1594-1.9689.2792-.41.0759-1.0232.2691-.7508.7634,1.0966,1.9916-.5576,1.3185-1.3581,1.4644-.3543.0641-.717.0793-1.0764.1164C17.9627,107.0069,17.9627,106.3793,17.68,106.1068Z" fill="#ddba62"/><path d="M14.0317,100.336c.6748-.13,1.43-.19.7727-1.2021-.3206-.4943-.5652-1.0384-.8857-1.639.3653-.0844.59-.1628.8182-.1932,2.44-.3214,2.4792-.3374,1.4222-2.5307-.35-.7271-.3737-1.0924.5011-1.224a13.2253,13.2253,0,0,1,3.47-.4867c1.5859.2058,1.434,1.9174,1.833,3.025.3442.9515-.6015,1.1143-1.332,1.2468-.5323.0962-1.0612.2143-1.5935.3155-.8562.1636-1.3868.4538-.7271,1.4256.8343,1.2274.2176,1.5732-.99,1.56-1.0629-.0118-1.8187.1636-1.04,1.5184.3054.5331.8115,1.4965-.6335,1.3885C14.48,102.7883,14.898,101.2378,14.0317,100.336Z" fill="#ddba62"/><path d="M107.9016,102.8321c-.604-.0742-.4724.6926-.8132.77-.7541.1687-1.6525.3931-2.2641-.1113-.58-.4783.1232-1.0873.3-1.6213.1839-.5534.4918-.809-.5239-.9642-3.6652-.5618-3.6526-.65-2.4353-4.2254,1.35.22,2.7078.4268,4.0567.6689.4.0717,1.0224-.0177.7482.782-.2792.8132-1.2847,1.64-.7027,2.4143.5213.6934,1.7065.0194,2.5577.3324Z" fill="#351c17"/><path d="M32.476,120.6564a8.5261,8.5261,0,0,0,1.6213.0844,4.2262,4.2262,0,0,1,4.4641,1.3986,1.5867,1.5867,0,0,0,1.283.5264,12.7739,12.7739,0,0,1,7.6139,1.5656,1.1658,1.1658,0,0,1-1.4828.7207l-.001,0A51.4256,51.4256,0,0,1,32.8582,121.34l-.3535-.7111Z" fill="#ddba62"/><path d="M10.8194,93.36c.53-.1071,1.181-.1232.7187-.9684A7.2731,7.2731,0,0,1,10.97,91.272c-.2632-.7879-1.5437-1.74-.1139-2.362,1.0123-.44,2.4564-.7592,3.0208.9709a5.004,5.004,0,0,0,.658,1.2552c.9448,1.37,1.0612,2.351-1.0241,2.4632-.6175.0329-1,.3484-.86,1.0468A4.7542,4.7542,0,0,1,10.8194,93.36Z" fill="#ddba62"/><path d="M57.5861,124.26a4.195,4.195,0,0,1,3.0056.0844,8.3031,8.3031,0,0,0,5.4991.0388,4.7188,4.7188,0,0,1,3.3742.07,3.931,3.931,0,0,0,3.343-.0152,7.9126,7.9126,0,0,1,5.7834-.2041,5.4629,5.4629,0,0,1-3.618.7946,23.5538,23.5538,0,0,1-7.1618-.44c-.663-.2531-1.6323.2227-2.44.4412A22.1679,22.1679,0,0,1,57.5861,124.26Z" fill="#ddba62"/><path d="M92.1668,120.3637c.4715-.7052,1.8238-.6386,1.6635-1.898l-.0067.0067a7.3887,7.3887,0,0,0,4.7711-1.62c.2632-.2733.4774-.5306.33-.9338l-.03.03a7.1525,7.1525,0,0,0,3.6129-1.2755,1.9975,1.9975,0,0,1-.99,1.434,32.1764,32.1764,0,0,1-8.6211,4.53C92.581,120.7433,92.1879,121.0529,92.1668,120.3637Z" fill="#ddba62"/><path d="M79.1465,124.14a7.5675,7.5675,0,0,1,5.1457-1.709,2.8411,2.8411,0,0,0,2.8613-1.1633c.7929-1.3556,1.4863-.9355,2.3181-.1771A19.1024,19.1024,0,0,1,79.1465,124.14Z" fill="#ddba62"/><path d="M102.6319,113.6482c-.3678-.7128-2.0886.2531-1.6939-1.1869.3037-1.11.6074-2.6032,2.4328-2.2987a7.83,7.83,0,0,0,1.2569.0093C103.7977,111.2373,104.1385,112.9733,102.6319,113.6482Z" fill="#ddba62"/><path d="M59.2977.3065a2.7255,2.7255,0,0,1-3.1568,2.2118,2.7255,2.7255,0,0,1-.3263-.0784,13.3628,13.3628,0,0,0-3.8989-.9228,3.187,3.187,0,0,1,3.257-.3745c1.2223.4732,2.658.77,3.467-.8714Z" fill="#351c17"/><path d="M50.669,123.58c.1755,0,.4-.0666.52.016a7.2259,7.2259,0,0,0,6.2845.6807A5.451,5.451,0,0,1,50.669,123.58Z" fill="#ddba62"/><path d="M13.9651,28.385c1-.2531,1.0772-1.6163,2.1468-1.7858l.1561.1831c-.6748,1.26-1.3058,2.5627-2.971,2.7491C13.189,28.957,13.5745,28.6693,13.9651,28.385Z" fill="#351c17"/><path d="M48.18,123.94c.1426-.33.39-.313.6656-.2025C48.7347,124.1741,48.5483,124.3571,48.18,123.94Z" fill="#ddba62"/><path d="M106.2272,20.41c-.0844-.0261-.1147-.0734-.0844-.1417Z" fill="#351c17"/><path d="M50.2792,27.0126A11.7389,11.7389,0,0,1,42.9133,21.97c-.5576-.7061-1.9705-1.4982-.4032-2.6833.237-.18.0658-.9912-.48-.9144-1.3995.1982-1.0781-.7508-1.08-1.4636A10.4491,10.4491,0,0,1,46.4014,8.06,25.7326,25.7326,0,0,1,58.4128,4.1151a33.5878,33.5878,0,0,1,6.6371-.31A29.7235,29.7235,0,0,1,81.1432,8.958a9.3871,9.3871,0,0,1,3.88,11.09,12.6533,12.6533,0,0,1-6.6869,6.58,27.8627,27.8627,0,0,1-12.6407,3.2553,37.3,37.3,0,0,1-11.269-.836,8.239,8.239,0,0,1-4.1655-2.0524l1.0477-.0844a2.7255,2.7255,0,0,0-.5061-.2379,4.2179,4.2179,0,0,0-.5424-.0194c-.0911-.3636-.2117-.7061-.6909-.6234-.0785.0135-.2075.1687-.1906.2219.1485.4623.5981.2531.9018.38ZM44.8206,23.02a.5551.5551,0,0,0-.0515-.135L44.68,22.85l.1594.1552a1.2063,1.2063,0,0,0,.7212.7238l.3669.3669a1.2586,1.2586,0,0,0,1.0806.7246l.3568.2758.0928-.1771-.4682-.081c-.065-.6824-.6057-.6563-1.0823-.7271l-.3644-.3695a.67.67,0,0,0-.7229-.72Zm-1.8-10.1606a2.7964,2.7964,0,0,0-.9153,1.6955c1.0553-.3534.8157-1.1034.8975-1.7124.6807-.0734.6968-.59.7238-1.0966A2.4058,2.4058,0,0,0,45.541,9.934l.1982-.1426-.11.0177a.5659.5659,0,0,0-.0709.1442,2.5914,2.5914,0,0,0-1.8136,1.8086A1.22,1.22,0,0,0,43.02,12.8594Zm.72,9.06c.1248.1316.1687.5061.4555.1569l-.4707-.1383a1.8955,1.8955,0,0,0-.9692-1.6972,2.1333,2.1333,0,0,0,.9836,1.6761Zm22.0876-9.2749.8208-.2733c.6124.0607,1.4121.0042,1.3075-.7-.0962-.6428-.857-.2269-1.3379-.1426l-.771-.3062a4.8994,4.8994,0,0,0-3.3742-2.2607c-.3374-.0481-.7314-.0388-.8722.4125l-.8436.01c.0059-.2227-.12-.3079-.3222-.29a.1738.1738,0,0,0-.1223.11.257.257,0,0,0,.2733.3374c-.0548.6588-.1054,1.3185-.1687,1.9773-.0574.6217.5061,1.413-.2421,1.8305s-.938-.685-1.537-.8064c-.0945-.0194-.2067.0506-.3256.0844-.2455.6023.3011.8436.58,1.181.4977.6082,1.0857,1.429,1.8626,1.2333.7035-.1771.6006-1.143.6116-1.8373.0042-.2952-.0363-.6554.3231-.7525a1.2012,1.2012,0,0,1,1.2763.4656c1.17,1.35,2.3189,2.67,4.4438,2.1991a23.6686,23.6686,0,0,0,2.9119-.2531c.539-.1991-.1459-1.0814-.0489-1.6626.0371-.2219.0894-.5508.237-.6234.4091-.2016.6141.2168.8925.4218,1.0334.7592,1.5074,2.4623,3.29,1.952,1.0966.1181,2.23,1.1388,3.6011-.22-1.4155.0844-2.4092-.6985-3.5649-.345.05-1.2577-.7643-2.545.1451-3.7774a.3551.3551,0,0,0-.151-.5778.4623.4623,0,0,0-.59.232,2.66,2.66,0,0,0-.5,2.8251l-.3863.4648c-.7592-.58-1.763-1.0485-.83-2.4463C70.53,12.2023,70.39,12.1432,70.2791,10.32c-.0228-.37.0936-.75-.4125-.8-.59-.0582-.658.3577-.6479.8157.02.8975.0194,1.7959.054,2.6926a1.1025,1.1025,0,0,1-.9015,1.2722q-.0254.0043-.0509.0075c-.7356.18-1.4264.3037-1.9452-.3847-.1991-.2649-.113-.7246-.5508-.8436.0388-.0439.1156-.0945.1088-.13A1.6965,1.6965,0,0,0,65.8277,12.6443Zm-12.569,9.0429a4.64,4.64,0,0,1-.6183-3.7353c.06-.259.3669-.5272.0464-.701-.3821-.2067-.6613.1265-.8511.4378-.6.9861-.1957,2.1266-.469,3.165a36.8194,36.8194,0,0,0-3.9647-2.712L47.0526,22.43c.6192-.1771.2219-.5061.2851-.7153.2337-.7685.3509-1.871.89-2.173.66-.3695,1.0806.7069,1.55,1.2164.6605.717.9726,1.9014,2.31,1.6812,1.45.23,2.9271.6985,4.2228-.4682,1.1025-.291,1.2552-1.4686,1.9714-2.2776.7988,1.05.9195,2.8554,2.8883,2.3063-2.1789-1.2139-1.6508-3.025-1.2544-4.8083.9136-.4741,1.9748-1.0021,2.8318-.2986s1.35.2159,1.9756-.1535a12.1421,12.1421,0,0,1,.1156,4.977c-.06.3526-.3028.712.2109.863a1.4146,1.4146,0,0,0,.884.0278c.5306-.2337.0321-.58.0236-.884-.02-.7263-.6968-1.6272.631-2.0093,1.596-.4589,1.7546-.3484,1.7377,1.89,0,.4218-.2261.8824.4412.89.56.0067.6082-.3653.59-.8579-.0515-1.74-.0447-3.483-.06-5.2241.1468-.2337.0844-.26-.1367-.1409l-.7938-.0177c-.2531-.1687-.5441-.2767-.6748.0936a.6344.6344,0,0,0,.37.8173l.019.0068c.6748,1.6947-.3475,1.7715-1.5741,1.6483l-.09-.0776-.0911.0768c-.7921-.1991-.5964-.9279-.4462-1.2847.5955-1.4054-.21-1.4189-1.186-1.35-.7676-.1324-1.53-.3265-2.3037-.3838-1.12-.0844-2.1553.0979-2.55,1.3927-1.0772.043-.7331,1.4433-1.5758,1.7563-1.09-2.7222-2.4514-3.4822-4.5552-2.5973,2.1932.3712,3.0587.8613,3.3211,2.0524a2.9111,2.9111,0,0,1-1.3632,3.2747Zm27.5522,1.046c-.7018-1.49-2.3122-2.05-3.3169-3.2333a.4.4,0,0,0-.6284-.0211c-.08.0979-.0844.4108-.0143.4547,1.3952.8824,1.9149,2.9238,3.9293,2.9794.28,1.181-1.6551.6748-1.3649,2.03a8.848,8.848,0,0,0,3.6821-3.5573c-.88.3087-1.3016,1.2729-2.2894,1.3438Zm-27.4543-8.45c-.4969-.2244-1.1734-.65-.7794-1.1152.922-1.09.2531-2.5087.9676-3.5826a3.4367,3.4367,0,0,1,.6546.2362c.485.2927,1.213.8436,1.0612-.264-.0936-.6816-1.1245-.663-1.8305-.6048a1.8794,1.8794,0,0,0-.59.2809c-.9912,1.1919-.65,2.7087-1,4.055-.3256,1.2493.038,1.7917,1.35,1.5749a.8655.8655,0,0,0,1.0544-.0084c.7238.0194,1.4475.0523,2.1713.0523.3551,0,.9018-.0979.59-.5559-.7364-1.09.6892-2.1578-.108-3.2713-.2885-.4032,1.0469-1.5623-.2-1.64-1.197-.0742-.3661,1.235-.5416,1.8887-.3425,1.278.2817,3.1026-2.0591,2.9609A.67.67,0,0,0,53.3565,14.2833Zm-5.53-3.3228a8.6786,8.6786,0,0,1-.4007,2.7626c-.1906.4521-.0751,1.1042.4707,1.1624.6031.0641.4876-.5711.6065-1.0173a16.8164,16.8164,0,0,1,.8646-3.9833,3.6509,3.6509,0,0,1,1.0376.0919c.4817.1881,1.0123.3855,1.1455-.2531.1535-.744-.51-.8225-1.0511-.798-.4277.0186-.9692-.2429-1.2434.3534l-.787.108C47.1117,9.4438,47.9384,10.3937,47.8262,10.9606ZM72.1307,22.65c.4479.59,1.0781.3315,1.6213.2834.4648-.0413,1.0384-.302.8689-.8765-.2269-.77-.7061-.2176-1.11-.0717a10.4147,10.4147,0,0,1-1.1911.286c-.733-.5584-.6234-1.3742-.63-2.1393-.011-1.1084,1.4062-.2531,1.7335-1.3556-1.61.3492-2.1747-.2429-1.6652-1.6871.19-.5373-.1763-.59-.5517-.6284-.5534-.0523-.739.2092-.6917.7482a18.7412,18.7412,0,0,1,.2488,4.11C70.5769,22.6936,71.05,22.8471,72.1307,22.65Zm4.3367-6.2423c-.8031.2649-1.92-.2531-1.7715.4336a50.8817,50.8817,0,0,0,.6487,5.6468c.0717.2151.4454.3551.7069.4656.0666.0278.36-.2531.3442-.2868-.6689-1.23.1459-2.6454-.31-3.7454a2.1317,2.1317,0,0,1,.3821-2.51ZM77.8247,14.9a2.1663,2.1663,0,0,0,1.9469-2.1376,2.3974,2.3974,0,0,0-1.7985-2.6091,3.99,3.99,0,0,1-.1485,4.75Zm-1.154,11.4892A9.382,9.382,0,0,0,72.2918,27.76a8.4018,8.4018,0,0,0,4.3789-1.3674ZM65.815,4.811a7.7548,7.7548,0,0,0-6.0736,0ZM85.027,16.5128a6.0567,6.0567,0,0,0-1.3986,4.1823A7.6164,7.6164,0,0,0,85.027,16.5128Zm-8.2129.1367c.0641.6647.9558.4462,1.0814,1.084.0616.3146-.3433,1.235.59.8132.4572-.2067.3374-.8638.1282-1.3084-.3754-.8115-1.0266-.8933-1.7993-.588ZM47.7309,8.2747a6.125,6.125,0,0,0,3.4636-1.434A7.0184,7.0184,0,0,0,47.7309,8.2747ZM65.4455,29.151a6.6826,6.6826,0,0,0-3.8736,0Zm-12.11-1.6357a1.0544,1.0544,0,0,0-1.5884-.09A1.7065,1.7065,0,0,0,53.3354,27.5153ZM48.6537,16.45c-.4386.3855-1.41-.4117-1.4906.7668C47.4871,16.5786,48.2817,16.9827,48.6537,16.45ZM47.1058,9.1562c-.07-.1-.1316-.24-.1687-.2328a.8233.8233,0,0,0-.4648.1687c-.135.1611-.0245.3425.1847.3172A1.4936,1.4936,0,0,0,47.1058,9.1562Zm1.4408,16.6315c.0413-.0962.1367-.2261.1071-.2674a.329.329,0,0,0-.2725-.1189.2868.2868,0,0,0-.1105.2531c.0472.07.1788.0894.2758.1324Z" fill="#fdfdfd"/><path d="M24.3425,47.8669c.0481.6883.8123,1.4-.3222,2.033-.4775.2666.4024.631.5129,1.0274l.0329-.0236c-.7794-.2936-1.138.3939-1.6922.6344a9.2082,9.2082,0,0,1-3.95.5846c-.1333-.6285.3442-1.0021.45-1.472.0844-.3712.286-.8874-.291-1.0772a.7938.7938,0,0,0-.988.533l-.0108.04a10.9535,10.9535,0,0,1-1.5041,3.3818c-.6124.701-1.3784,1.1245-.0979,1.8727.2531.1468.0607.7162-.2421.6833-2.3889-.2657-2.2725,2.2692-3.6939,3.1212-1.2367-.9709-1.0882-1.8432-.0979-3.1895A10.5925,10.5925,0,0,0,14,50.0964c.0489-1.0966.5179.065.6748-.1974.0135.2084.0607.3535.2885.15l-.248-.189c.47-.3028.8883-.6571.8284-1.2839-.1771-1.89,1.1464-2.987,2.1317-4.3367.6521,1.05,1.07,1.6028,2.2422.4311a16.8046,16.8046,0,0,0,2.8234-3.1541c.2337-.3965,1.3716-.7491.5576-1.2012-.3872-.2151-1.4939-1.1211-2.2042.02a1.5184,1.5184,0,0,1-1.32.8174l.016.0152a2.8512,2.8512,0,0,1,.9465-1.9056,40.328,40.328,0,0,1,5.9656-7.4815c.6529-.4893,1.5184-1.1641.59-2.362-.2995-.3863.6985-1.16.4724-2.1679-.1873-.8351-.1881-1.2434-1.0966-1.3716-1.4754-.2084-1.1059-.9051-.3374-1.6163a5.7218,5.7218,0,0,0,2.1553-3.6045c.0844-.8528.0329-1.4214-1.1666-1.0123a2.809,2.809,0,0,1-2.5627.0886c-.1.6791.2615.8191.604,1.0823.3729.2868,1.8482.87-.0456,1.159.5112,1.4256-1.2923,1.0485-1.4627,1.8381-.5061,2.3476-2.4193,1.7985-3.9512,2.1274-.1417-.7255.4648-.6883.7592-.9279,1.2653-1.0232,2.4379-1.9849,2.2034-3.96-.1822-1.5327,1.5437-3.0933,3.305-3.4392.6748-.1333,1.4906.2742,1.8718-.9608.1687-.5525,1.7284-.4741,2.4952-.0152a1.1734,1.1734,0,0,1,.3374,1.9241c-.3644.4353-.059.9954.2084,1.5066a6.8623,6.8623,0,0,1,1.05,2.4311c.0844.755.3062.3745.4218-.0666s.3923-.1493.469-.0067c.1814.3374.6563.5643.4091,1.0966-.6141,1.3227.1527,2.1722.7541,3.3354.8039,1.5555,1.74,3.09,2.4134,4.7593.8275,2.0541.0422,2.2169-1.56,2.13-1.1008-.06-1.8465.8149-2.8537,1.0772.4057.66,1.0873.1071,1.6686.3956-1.2021,1.3792-3.3978.9448-4.3975,2.4615a3.4063,3.4063,0,0,0,.29,4.8085q.0327.029.0662.0572A5.8205,5.8205,0,0,0,23.39,43.6525c-.4648.6124-.8284,1.1287.3863,1.2839,1.4534.1864,1.2915,1.5108,1.6154,2.4809l-.6479.0059a.8672.8672,0,0,0-.8031-.6369c-.1375-.043-.3669-.1586-.3956-.1206-.1409.1839.0211.2733.1771.3374C23.655,47.4941,23.7672,47.8467,24.3425,47.8669ZM35.8292,31.85C34.595,30.05,33.99,27.7279,31.0968,28.1379c-.3045.043-.6428-.3695-.9633.0287-.3374.4218-.0979.8005.0928,1.1675A10.4744,10.4744,0,0,0,35.8292,31.85Zm-8.5326,7.3524.3189-.1375L27.483,38.83c-.0489.0337-.1215.0565-.1409.1029a1.1726,1.1726,0,0,0-.0464.2691Z" fill="#351c17"/><path d="M34.4972,43.48l-.3206-1.11c.0844.3028.3011.5643.5677.3475.4066-.3307.0776-.5441-.2531-.6909-.0067-.6538,1.3978-.7719.5061-1.87.6192.4758,1.2248,1.5707,1.5184.11.1881-.9473.636-1.1945,1.5-1.4205,1.35-.3526,2.23-1.1481,1.407-2.7508a2.3738,2.3738,0,0,1,1.084-3.6c.3113-.1687.9279-.4555.14-.8233-.5163-.2413-.2151-.5432-.0472-.6748a16.81,16.81,0,0,1,3.34-2.777c-.24.9068-1.434,1.4821-.2657,2.2531.6807.4513.8646,1.4467,1.4028,2.0085s.9465,2.5011.1,3.1929c-1.5564,1.2712-2.2987,3.3742-4.3308,4.1469-.2151.0844-.3889.4538-.453.7221a17.4211,17.4211,0,0,1-4.4034,6.4912c-.3509-1.3826-1.9942-1.6525-1.8558-3.1515.1788.2531.4268.4353.6656.1527C35.086,43.7057,34.74,43.5969,34.4972,43.48Z" fill="#351c17"/><path d="M34.2863,17.1885c.1485.3459-.3062,1.1261.5677.9507,2.1688-.4353,2.4024-.2683,2.254,2.0794-.9363-1.34-1.6289-1.08-2.135.1814,3.5649.3138,3.8475.2008,3.7774-2.1a25.8414,25.8414,0,0,0,5.5523,8.1125l-3.9925.21c1.3674,1.2746,1.2805,2.0709-.275,3.6745-.49-1.5057-.27-3.343-2.545-3.9057-1.7959-.4446-2.081-2.2835-2.3147-3.8255-.2084-1.3784-.5719-1.8212-2.0557-1.7445-.3855.02-.8436-.4133-.5694-.6985.8132-.8343,1.5226-1.6365,1.2232-2.9094h.54Zm4.513,3.7766c-1.914.1316-2.1165,1.1261-1.661,2.556a2.3619,2.3619,0,0,1-.0734,1.2367c-.1308.4969,0,.8942.437,1.0215.3686.108.9929.1341,1.1725-.0844.2936-.3518.5719-1.2324.4167-1.3623C37.8554,23.3035,38.3067,22.1663,38.7993,20.9651Z" fill="#351c17"/><path d="M61.17,41.8684c-.561,1.526.3568,2.5973,1.1464,3.7015a6.2474,6.2474,0,0,1,1.1439,3.9647,6.56,6.56,0,0,0,1.76,5.3144c.8048.7145.647,2.1308,1.9233,2.5636.3248.1105.0844.6546-.2185.9026a.652.652,0,0,1-.9709-.0135,3.5429,3.5429,0,0,1-.7761-1.208c-.6006-2.0321-2.5079-3.1212-3.4906-4.8926a3.01,3.01,0,0,1-.5711-1.66c.0194-2.1932-1.54-4.1064-1.2-6.3747a.7229.7229,0,0,0-.1873-.6445c-1.1607-1.38-.9979-1.99.48-3.343.6571-.6023-.3273-1.2274-.345-1.88,1.5344-.162,2.5087-.7314,1.6281-2.8318,1.6989.9423.52,2.6639,1.4754,3.5193l.0177-.0169c-.3931.12-1.294-.1577-.71.7719.4715.7508-.3939,1.6534.4707,2.4463.3248.2969-.8225.9785-1.0747.3762-.1308-.3121.0194-.7018-.5171-.6647-.06-.3914.3172-1.06-.5171-.9735a.6327.6327,0,0,0-.5061.8014C60.3336,42.5812,60.8009,41.9485,61.17,41.8684Zm1.0334,8.9923c.1021-.05.2531-.0759.2809-.15a.3113.3113,0,0,0-.0979-.29.2159.2159,0,0,0-.3492.1788C62.03,50.6785,62.1413,50.77,62.2037,50.8607Z" fill="#fdfdfd"/><path d="M29.18,57.7576c.5011.0633.4589-1.0637.99-.2193.8933,1.418.4125,3.0528.5525,4.57.05.5357-1.2755.7482-2.0389.5846a2.8892,2.8892,0,0,1-1.92-1.445c-.194-.3467.016-1.2527-.7449-.3172-.1586.1949-.5627-.2438-.3459-.52a7.3475,7.3475,0,0,1,1.3623-1.4222,2.8327,2.8327,0,0,0,1.434-3.17c-.48-1.4847.14-2.9229-.2075-4.4489A5.1246,5.1246,0,0,1,29.66,47.5919c.3045-.3737.3028.1434.3054.2126.0194.5863,1.488.0751.8495,1.0966a2.8411,2.8411,0,0,0,.1265,3.6484c.3425.4066.194.6883-.1535.8351C28.6632,54.2779,29.6113,56.2181,29.18,57.7576Z" fill="#351c17"/><path d="M86.5774,38.6072c-.906.3568-2.0937-.8166-2.8183.52-.2058-.1147-.5517-.1915-.5955-.35-.6335-2.3366-3.0663-3.4839-3.6855-5.4519.9558-1.6475,2.572-2.3122,3.7547-3.5a7.4306,7.4306,0,0,1,.9279-.8511.5407.5407,0,0,1,.8005.113.58.58,0,0,1-.1105.8132c-.38.275-.863.4108-1.2409.6883a.59.59,0,0,0-.1122.9414.54.54,0,0,0,.809-.03c.4117-.52,1.1886-1.15,1.4939-.8959a4.9221,4.9221,0,0,1,1.03,2.04,7.8666,7.8666,0,0,1,.2716,1.3691c-.8436.44-.9549-.59-1.63-.7347-1.42-.302-2.0557-.356-1.3758,1.3556-.7305.03-.7-.8942-1.3235-.8022-.1687,1.499.7592,2.4058,2.0591,1.8853.5061-.2041.8959-.3492,1.3058.0067.7415.6445-.2531.7094-.3931,1.0587-.3788.9178,1.3952.8579.814,1.844Z" fill="#fdfdfd"/><path d="M95.4288,36.36l.4589,1.1953c.7153-1.6694-.5061-2.2945-1.1456-3.1777-.2716-.3771-.7457-.6023-1.0629-.9549a.5643.5643,0,0,1,.0049-.7981l.0187-.0176a.4842.4842,0,0,1,.6571-.01c1.2324.922,2.1857,2.2464,3.8306,2.5779.2691.054.1443.3863.027.6107-.0962.1839-.3973.4159-.054.5821a.7052.7052,0,0,0,.658-.0844c1.5184-1.8879,2.1789.1518,2.9314.77a13.3281,13.3281,0,0,1,2.0456,2.71c.2876.4049.9321.8014.2421,1.34a1.2653,1.2653,0,0,1-1.6635.1189,8.665,8.665,0,0,1-2.734-3.0562c-.2033-.4142-.3265-.8309-.8731-.5972s-.6.6841-.3568,1.2029a3.478,3.478,0,0,1,.3754,1.0123c.0911.771-.0793,1.1531-1.0123.7432a5.1659,5.1659,0,0,1-2.836-3.769Z" fill="#fdfdfd"/><path d="M66.9175,38.393A4.8083,4.8083,0,0,1,69.9931,41.07a23.33,23.33,0,0,0,2.0659,4.9972,13.6656,13.6656,0,0,1,1.6871,6.5409A15.4633,15.4633,0,0,0,75.63,58.6315c.1561.3172.5542.5854.1569.8824-.437.3265-.8267.0186-1.0123-.3931-.992-2.2135-2.0347-4.4109-2.8934-6.6767-.3838-1.0123.6225-2.1983-.1527-3.2856-.2008-.2817-.2193-.6951-.6344-.8081Z" fill="#fdfdfd"/><path d="M66.9175,38.393l4.1731,9.9539c-.6116.01-.4041.8562-.9608.9448-.6993-.9684-.8545-2.259-2.2177-2.8377-.868-.3686-.8824-1.6162-1.1675-2.5222a18.6772,18.6772,0,0,0-1.7529-5.1685,3.4535,3.4535,0,0,1-.0844-3.7462.8706.8706,0,0,1,.2041.2809c-.0844.232-.0464.415.2109.5061l.0236.0464a.9448.9448,0,0,0,.4091,1.16l.0067.1637C65.853,37.86,66.3852,38.1281,66.9175,38.393Z" fill="#351c17"/><path d="M15.0794,41.1733a6.7965,6.7965,0,0,1,1.483-2.9845,38.66,38.66,0,0,0,3.0511-5.602c-.2826-.5373-1.0907.6344-1.2-.1493-.0844-.6124.0557-1.7335.3712-1.844,1.3952-.4884,2.4134-2.0186,4.1958-1.661-1.8558,2.71-2.65,5.8981-4.5864,8.4355a12.4,12.4,0,0,1-3.3379,3.7791Z" fill="#351c17"/><path d="M107.9227,35.5974a15.5847,15.5847,0,0,1,3.0039,8.66c.0388,1.7015,1.1169,3.332.4935,5.1153-.1771.5061-.3484,1.1253-1.0266,1.0966-.63-.03-.7263-.7305-1.07-1.1211a.5449.5449,0,0,1,0-.4884,10.0493,10.0493,0,0,0-.3374-8.2466A27.99,27.99,0,0,1,107.9227,35.5974Z" fill="#fdfdfd"/><path d="M103.5481,32.0148a11.7178,11.7178,0,0,1,2.94,5.7041,1.6112,1.6112,0,0,0,.7853,1.3067c.3231.1687.6875.3172.6259.771-.3172,2.3442,1.1531,4.3966,1.0814,6.6953-.0118.3686.7238.9574-.2463,1.0806a.8807.8807,0,0,1-1.0039-.7371q-.0059-.0383-.0084-.0769A10.3758,10.3758,0,0,1,107.33,44.29a22.5061,22.5061,0,0,0-2.4463-8.7519C104.4616,34.3549,103.9935,33.1891,103.5481,32.0148Z" fill="#fdfdfd"/><path d="M75.5952,88.3787c.3973-.0768.4969-.313.4648-.5424-.113-.8056.6748-1.39.99-1.2965.9279.2784.8992,1.2046.5846,1.9469a14.9075,14.9075,0,0,1-1.3927,2.4463C75.9891,91.31,75.69,92.24,75.19,91.7c-.3914-.4218-1.5-.3071-1.2021-1.542a26.016,26.016,0,0,0,.14-3.93c.03-.3695.1181-1.0966.7668-1.0055.59.0844.2961.685.3231,1.0553C75.2721,87.0079,74.9009,87.8143,75.5952,88.3787Z" fill="#351c17"/><path d="M12.1666,46.9753l-.47-.1788c.3855-1.731.6934-3.4889,1.2417-5.1693.3543-1.084,1.3185-.7938,2.1452-.4547L15.06,41.148c-.3146,2.4784-1.9511,4.5839-2.0161,7.1483-.0084.3265-.124,1.17-.7693.9178-.2126-.0844-.9279-.8781-.3627-1.5268.2058-.2379.4386-.4049.2337-.7449a.6959.6959,0,0,0,.9532-.4648c.01-.0236-.1569-.1814-.2294-.1729A.8531.8531,0,0,0,12.1666,46.9753Z" fill="#351c17"/><path d="M89.2253,49.2714c-.5517-.7491-.6875-1.3269-1.0882-1.7892-.8056-.9279-2.0515-1.6314-1.2991-3.3742a1.6162,1.6162,0,0,0-1.48-2.2084c-.3906-.0186-.2345-.3374-.22-.5314a.9169.9169,0,0,1,.9059-.9279h.017c.464-.03.9811-.1586,1.197.49A21.8153,21.8153,0,0,1,89.2253,49.2714Z" fill="#fdfdfd"/><path d="M13.2995,35.7552c.55.19,1.4518.4589,1.08,1.062-.636,1.0308-.4758,2.7643-1.8727,3.0368-.7988.1561-1.1186-1.1894-.9617-1.8271a9.997,9.997,0,0,1,1.67-4.23c.4336-.5213.8756-1.0865,1.6028-.3712.2185.2151.8-.0143.712.5686-.0776.5188-.4386.6673-.9094.6521-.7255-.0236-1.5277-.16-1.4593.9895a.4125.4125,0,0,0-.2925.5047l.0108.0343c.0245.0768.1788.1881.2261.1687C13.3838,36.2259,13.3273,35.9829,13.2995,35.7552Z" fill="#351c17"/><path d="M34.2846,16.4673c-1.0679.0919-.6048-1.7209-1.8111-1.4568l.0312.0346c-.0312-.8436.77-1.0047,1.2417-1.3438.6335-.4555,2.0819.3442,1.9073-1.4391-.0515-.53.71-.46,1.0367.05a3.5893,3.5893,0,0,1-2.4033,4.8757l.027.027-.054-.7769.6124-.11-.0751-.1459Zm1.2316-.9279c-.0515-.016-.11-.0565-.1527-.0447-.1788.0481-.1864.1308-.0194.2025a.2084.2084,0,0,0,.1569-.0422Z" fill="#351c17"/><path d="M41.93,48.77c-.13-.1046-.3906-.2615-.372-.3071.6394-1.6087-.1594-3.2477.108-4.885.1105-.6748-.6521-1.4467.1594-2.1747.1274-.1139.0169-.5677.3973-.65.41-.0894.5441.3121.6124.5112.2159.6259.8436,1.2468.2159,1.96a.9169.9169,0,0,0-.1577.8191,5.23,5.23,0,0,1-.9886,4.7534Z" fill="#351c17"/><path d="M61.744,32.9689c-1.1093.0456-1.3033,1.4391-2.362.9279a16.0959,16.0959,0,0,1-4.8142-2.2354.6748.6748,0,0,1-.2235-.8115c.1814-.3037.5163-.2193.8048-.097A45.1985,45.1985,0,0,1,61.744,32.9689Z" fill="#351c17"/><path d="M45.1968,28.5048a7.0859,7.0859,0,0,1,5.3743.9684c.2666.3492.0844.52-.1274.7347a4.31,4.31,0,0,1-3.2156.8959c-.28.0059-1.2038.06-1.019-.8714C46.3761,29.3931,45.2955,29.3635,45.1968,28.5048Z" fill="#351c17"/><path d="M32.4836,78.3589c-.65.712-1.1978,1.359-2.0819,1.434-.87.0751-1.8179-.2219-2.4269.7314-.0464.0734-.4218.0582-.45,0-.0894-.2092-.1974-.5061-.1105-.6748.5407-1.062,1.1042-2.1148,1.72-3.1347a.7373.7373,0,0,1,1.1219-.1569C30.999,77.1029,31.6966,77.7153,32.4836,78.3589Z" fill="#351c17"/><path d="M79.8695,36.8113c.6487-.0919.7963.3206,1.05.6613A31.1945,31.1945,0,0,1,83.975,43.359c.2725.5964.3939,1.2755.9785,1.6871.4859.3374.7128.7465.0717,1.08-.4994.26-.8621.0211-1.0966-.5466q-1.1076-2.6521-2.3232-5.2579c-.4673-1-.6217-2.23-1.8617-2.7306-.14-.0565-.2058-.3948-.2185-.6074C79.5185,36.9176,79.8163,36.8366,79.8695,36.8113Z" fill="#fdfdfd"/><path d="M75.2932,72.1782a6.9172,6.9172,0,0,1-.2193,7.8822c1.2476-2.3856-.016-4.7636.2387-7.1441Z" fill="#351c17"/><path d="M88.8769,58.5919c-.485-.6816-.9608-1.0435-.9819-1.434a12.9469,12.9469,0,0,0-1.7715-5.3338c-.3425-.65-.55-1.3564.3931-1.5791,1.08-.2531.6031.7516.8048,1.2029A20.8359,20.8359,0,0,1,88.8769,58.5919Z" fill="#fdfdfd"/><path d="M104.4768,26.31c.2126,2.5467,2.9271,4.2524,2.4463,7.0243C106.0956,30.9958,103.775,29.178,104.4768,26.31Z" fill="#fdfdfd"/><path d="M24.9245,77.8182c.5576.5492-.4378,1.0317.1831,1.5319.6605.5314.9169-.3484,1.5336-.28-.0785.98.0363,2.0819-1.0334,2.5577-.7044.3138-1.5893-.4834-1.6871-.8689C23.6541,79.7229,23.5276,78.488,24.9245,77.8182Z" fill="#351c17"/><path d="M17.4953,25.1289c1.2417-3.3042,2.2051-4.578,4.25-5.6172A14.192,14.192,0,0,1,17.4953,25.1289Z" fill="#351c17"/><path d="M42.6392,4.1354c1.181.27,2.1325-.9186,3.4366-.3948a3.15,3.15,0,0,1-3.3118,2.286l-.1173-1.9005Z" fill="#351c17"/><path d="M32.15,84.7421c.0337-.728-.701-1.06-.87-1.7006-.1021-.3863-1.3556-.1324-.631-1.0123a1.1565,1.1565,0,0,1,1.1725-.59c.7221.1232,1.2417.6217,1.1641,1.1177-.1156.7339.0844,1.7175-.8646,2.1587Z" fill="#351c17"/><path d="M99.1894,81.4607c.2615,1.2653.7482,1.9,2.0515,1.251a.58.58,0,0,1,.7963.1687c.1847.3374-.0844.5711-.2995.7592-.5407.4673-1.0831,1.0283-1.8946.5736C98.7221,83.5814,99.0435,82.5311,99.1894,81.4607Z" fill="#351c17"/><path d="M86.9418,9.2144c1.0485-.1442,3.0166,1.7217,2.6994,2.637-.1839.5264-.7077.9338-1.2012.2472a5.3743,5.3743,0,0,1-1.4728-2.9111Z" fill="#351c17"/><path d="M104.63,24.2c-1.235.3678-.0177,2.2928-1.2046,2.27-.8056-.0152-.5778-1.6753-1.1261-2.51-.2893-.44.4648-.8022.8967-.8166A1.4956,1.4956,0,0,1,104.63,24.2Z" fill="#fdfdfd"/><path d="M75.2932,72.1782l.0186.7381c-1.5918-.7179-1.305-2.65-2.3873-3.7116C73.9663,70.0043,75.18,70.65,75.2932,72.1782Z" fill="#fdfdfd"/><path d="M95.5663,46.1435c.9836,1.3826,1.9064,2.4345.7187,4.1005A4.9694,4.9694,0,0,1,95.5663,46.1435Z" fill="#fdfdfd"/><path d="M65.7686,37.1774l-.0067-.1687c.1426-.485.3433-.99-.4091-1.159l-.027-.0455c.1485-.26.038-.4108-.2109-.5061a.8706.8706,0,0,0-.2041-.2809,4.1621,4.1621,0,0,0-.5492-2.24c-.1308-.2472-.1535-.5061.0844-.6a.7432.7432,0,0,1,.6149.189A6.58,6.58,0,0,1,65.7686,37.1774Z" fill="#fdfdfd"/><path d="M92.5371,39.3259a10.3015,10.3015,0,0,1-1.364-4.8471A7.727,7.727,0,0,1,92.5371,39.3259Z" fill="#fdfdfd"/><path d="M91.8344,31.6032c-.8436-1.1481-1.4011-1.9157-1.9646-2.68-.2151-.2919-.5171-.6318-.2134-.9524.4294-.4538.9279.0962,1.06.2817A3.8854,3.8854,0,0,1,91.8344,31.6032Z" fill="#fdfdfd"/><path d="M31.7067,46.6269a7.3389,7.3389,0,0,1-1.9579-3.4839C30.3587,44.2489,32.4845,44.4455,31.7067,46.6269Z" fill="#351c17"/><path d="M107.0556,23.085a8.1572,8.1572,0,0,1-3.0824-2.3805C105.7885,20.7045,106.428,21.9032,107.0556,23.085Z" fill="#351c17"/><path d="M85.7389,73.68c1.7782,1.2459,1.8314,1.8044.6453,3.9C86.1092,76.2947,86.574,75.0876,85.7389,73.68Z" fill="#351c17"/><path d="M78.675,38.4723a10.82,10.82,0,0,1-2.0127-4.0651A5.3987,5.3987,0,0,1,78.675,38.4723Z" fill="#351c17"/><path d="M27.8567,71.408c.9279-1.2763.2531-2.7441.5643-4.1579A3.6121,3.6121,0,0,1,27.8567,71.408Z" fill="#351c17"/><path d="M19.4735,75.064c0-.8916-.0236-1.7841.0127-2.6749a.59.59,0,0,1,.5618-.6023c.4218,0,.4294.3653.4057.6546C20.3786,73.3625,20.4933,74.3394,19.4735,75.064Z" fill="#351c17"/><path d="M98.1139,32.4029c-.3594-.1561-.5627-.1839-.6672-.3-.5061-.5635-1.35-.8891-1.3362-1.8145,0-.09.248-.2531.3847-.2531C96.9422,30.0207,97.85,31.2869,98.1139,32.4029Z" fill="#fdfdfd"/><path d="M70.2,64.9658l1.596,3.0731C70.6435,67.8178,70.0944,66.7685,70.2,64.9658Z" fill="#fdfdfd"/><path d="M89.4995,31.4252a3.3261,3.3261,0,0,1,.5382,3.1212C90.2646,33.4337,88.1228,32.9048,89.4995,31.4252Z" fill="#fdfdfd"/><path d="M93.325,40.5415a2.7458,2.7458,0,0,1,1.0688,3.2654C93.5452,42.9085,93.6557,41.849,93.325,40.5415Z" fill="#fdfdfd"/><path d="M114.516,41.15a2.6994,2.6994,0,0,1-.6166-1.968c.0548-.3374,0-.8005.5061-.7592.4741.0422.4218.4977.4218.8436,0,.6487-.5061,1.2156-.3214,1.8988Z" fill="#fdfdfd"/><path d="M35.9068,77.0033c.4454,1.2957-.4057,2.146-.3771,3.1313C35.0134,79.1,34.5841,78.0772,35.9068,77.0033Z" fill="#351c17"/><path d="M74.1822,34.527a3.1212,3.1212,0,0,1,1.3219,2.6994C74.7609,36.2815,74.097,35.6008,74.1822,34.527Z" fill="#fdfdfd"/><path d="M46.328,53.8992c.5567.6124,1.6736.1847,2.03,1.1523C46.8224,55.3256,46.8224,55.3256,46.328,53.8992Z" fill="#351c17"/><path d="M100.0169,25.0319c-.4412.1459-.755-.0261-.6748-.36.1476-.5964.7592-.7027,1.2653-.8646.2784-.09.6748-.1156.6748.3113C101.2721,24.9931,100.4041,24.7535,100.0169,25.0319Z" fill="#fdfdfd"/><path d="M98.6732,45.9976V43.0823A2.4877,2.4877,0,0,1,98.6732,45.9976Z" fill="#fdfdfd"/><path d="M59.959,58.65c-.4142-.8436-1.6213.6225-1.8676-.6209-.0236-.1173.1324-.3872.2092-.3889C59.02,57.6252,59.749,57.6218,59.959,58.65Z" fill="#fdfdfd"/><path d="M90.7176,45.8846c-.3484-.7693-.9127-1.434-.6672-2.2928a.539.539,0,0,1,.4319,0C91.1815,44.2658,90.845,45.1085,90.7176,45.8846Z" fill="#fdfdfd"/><path d="M40.8424,51.3171c-.6048-.987.0742-1.34.9178-1.7015a1.4669,1.4669,0,0,1-.9456,1.6753Z" fill="#351c17"/><path d="M52.6868,31.1823c-.388.7938-.87.0565-1.1321.151-.5964.2159-.6445.0169-.53-.4218s.39-.8123.9077-.4783C52.2329,30.63,52.8445,30.6095,52.6868,31.1823Z" fill="#fdfdfd"/><path d="M22.0353,79.8318c.6909,1.7251.6909,1.7251.1788,3.1347A5.926,5.926,0,0,1,22.0353,79.8318Z" fill="#351c17"/><path d="M86.8431,35.2786c.8773.5213,1.2839.8537,1.2366,1.5344-.016.2286-.1291.3467-.3.2944C87.0447,36.8838,87.2464,36.1753,86.8431,35.2786Z" fill="#fdfdfd"/><path d="M57.9075,35.3688c0-1.116.8436-.6031,1.2392-.5061.4327.1021.05.4361-.0844.6748-.5812,1.0274-.7929-.0987-1.181-.1932Z" fill="#351c17"/><path d="M40.8154,51.2909c-.1965.5846.1577,1.3185-.5517,1.8558-.56-.8942-.0844-1.39.58-1.8322Z" fill="#351c17"/><path d="M24.4876,52.7013c-.1965.2531-.2775.64-.6554.5365a.6681.6681,0,0,1-.4572-.7044.3121.3121,0,0,1,.4918-.2969C24.0886,52.3487,24.45,52.3462,24.4876,52.7013Z" fill="#351c17"/><path d="M62.4155,34.37a.6529.6529,0,0,1-1.02-.2691c-.0472-.0844.1-.3872.1248-.383A1.0747,1.0747,0,0,1,62.4155,34.37Z" fill="#fdfdfd"/><path d="M78.7889,35.84,78.03,34.2376l.2809-.1206.7381,1.6112Z" fill="#351c17"/><path d="M59.7794,61.8429c.4935.469.9321.6377.8368,1.3008C60.0409,63.01,59.94,62.5853,59.7794,61.8429Z" fill="#fdfdfd"/><path d="M16.1127,26.5992c.21-.4285.1687-1.1017.9777-1.0072.11.6892-.3577.938-.8225,1.1894Z" fill="#351c17"/><path d="M86.5572,38.6266c.4732.0067.8022.1687.6487.7145-.0278.0987-.3163.2345-.383.1923-.345-.2185-.248-.59-.2463-.9279Z" fill="#fdfdfd"/><path d="M14.7158,64.4006c-.2446.1189-.3982.2581-.5061.2286-.1333-.0354-.2286-.2117-.3374-.3265.1308-.0641.2632-.1805.3914-.1755S14.5007,64.2631,14.7158,64.4006Z" fill="#351c17"/><path d="M19.7746,41.1505c.011.291.04.6015-.3669.636-.07.0059-.2193-.1223-.2168-.1847.0127-.383.2919-.4378.6-.4361Z" fill="#351c17"/><path d="M57.8831,35.341c0,.2817.01.5947-.3813.5989-.0844,0-.2573-.23-.2387-.3256.0742-.383.361-.3374.6453-.2455Z" fill="#351c17"/><path d="M34.2762,47.8273l-.16.2927a1.2,1.2,0,0,1-.2117-.35c-.0135-.0607.1282-.1552.1991-.2345Z" fill="#351c17"/><path d="M93.8345,86.8991l.108-.49c.3146.2531.0633.356-.1223.4791Z" fill="#351c17"/><path d="M86.9612,9.1866l-.4783-.0557.0633-.1426.3914.2269Z" fill="#351c17"/><path d="M32.4482,57.39l-.1274-.1029c.0489-.0253.1-.0742.1468-.07s.0844.0624.1308.097Z" fill="#351c17"/><path d="M24.534,50.929l.2311.5365-.16.0439-.04-.6057Z" fill="#351c17"/><path d="M31.8881,56.5783l-.011.1029a.2084.2084,0,0,1-.1434.02c-.1687-.0633-.1637-.1291.0135-.1637C31.7894,56.53,31.8408,56.564,31.8881,56.5783Z" fill="#351c17"/><path d="M114.5008,41.1657l.1122.0489-.097-.065Z" fill="#fdfdfd"/><path d="M32.4726,15.01l-.1088.2463-.1223-.1687.2657-.0439Z" fill="#351c17"/><polygon points="26.479 29.108 26.429 28.973 26.555 28.99 26.479 29.108" fill="#351c17"/><polygon points="62.963 38.986 63.064 39.053 62.98 38.969 62.963 38.986" fill="#fdfdfd"/><polygon points="7.44 63.668 7.482 63.626 7.44 63.66 7.44 63.668" fill="#351c17"/><polygon points="59.783 35.527 59.884 35.502 59.876 35.57 59.783 35.527" fill="#351c17"/><path d="M41.9061,48.7948l.2531.0785c-.221.2775-.1687-.0388-.232-.1063Z" fill="#351c17"/><path d="M93.8295,118.4657a15.0694,15.0694,0,0,0-3.8955-.685c-.5618-.097-1.3219,0-.8925-1.0064A.4673.4673,0,0,0,88.66,116.1c-2.1376-.3821-4.3173-1.553-6.3174.43a3.0132,3.0132,0,0,1-3.9419.59,3.7251,3.7251,0,0,0-4.5.7035,2.863,2.863,0,0,1-3.4679.3627,4.5172,4.5172,0,0,0-4.8015.0464,4.869,4.869,0,0,1-4.799-.1552,4.907,4.907,0,0,0-4.8285.1687,2.8993,2.8993,0,0,1-3.861-.2193,4.1587,4.1587,0,0,0-4.977-.3956A1.817,1.817,0,0,1,44.5,117.06a4.1334,4.1334,0,0,0-5.5514-1.3834,3.88,3.88,0,0,1-1.0308.302c-.8436.06-1.1287-.58-1.332-1.2307-.2379-.7592.33-.8866.8722-1.0679a23.0938,23.0938,0,0,0,2.8681-.9524,1.7647,1.7647,0,0,1,2.3291.7676c1.7934,2.4649,1.8558,2.4581,4.7332,1.2324a2.6614,2.6614,0,0,1,3.165.4715,4.2287,4.2287,0,0,0,5.5945.5061,3.009,3.009,0,0,1,3.7876-.0447,5.6518,5.6518,0,0,0,6.0483.2337,3.6931,3.6931,0,0,1,3.4206.2269,4.5552,4.5552,0,0,0,5.2418-.36,3.29,3.29,0,0,1,3.8593-.3374,2.9752,2.9752,0,0,0,4.3747-1.0317c1.0536-1.537,2.362-2.2067,4.0887-1.1666.9321.5635,3.0849-.178,2.4885,2.1806a1.8136,1.8136,0,0,0,.7592.3534c.6512.1265,1.3134.1965,1.9722.28,2.4775.3155,2.4775.3146,1.6348,2.4277Z" fill="#ddba62"/><path d="M87.5551,118.7635c-.2252,1.3657-.8436,2.0583-2.4328,1.5a5.0774,5.0774,0,0,0-4.57,1.1388,2.5,2.5,0,0,1-2.5433.21,4.4278,4.4278,0,0,0-3.9917.3594,4.1014,4.1014,0,0,1-3.78.4285,5.47,5.47,0,0,0-4.3915.0582,4.9888,4.9888,0,0,1-4.2077-.0844,6.05,6.05,0,0,0-4.8884-.1771,5.2047,5.2047,0,0,1-4.5223-.1443,3.9689,3.9689,0,0,0-3.149-.2961,3.4164,3.4164,0,0,1-4.11-1.2805,2.3383,2.3383,0,0,0-3.025-.7592,13.8188,13.8188,0,0,1-2.4741.5061c-.7322.14-.9785-.4176-1.111-.9169-.1687-.6268.4884-.5812.8275-.7179,2.1409-.8655,4.2346-1.4889,5.9336.8832a1.9486,1.9486,0,0,0,2.7149.4725l.0342-.0246a2.5981,2.5981,0,0,1,3.1819.02c2.01,1.7673,4.0912.7845,6.0677.038a2.2447,2.2447,0,0,1,2.1367.0987,6.3123,6.3123,0,0,0,6.5983.5939,3.5151,3.5151,0,0,1,3.435.0084,3.9647,3.9647,0,0,0,4.4067-.29,4.0668,4.0668,0,0,1,4.6024-.2674,2.011,2.011,0,0,0,2.3771-.2286A6.0213,6.0213,0,0,1,87.5551,118.7635Z" fill="#ddba62"/><path d="M36.8414,117.3759a16.2925,16.2925,0,0,1-4.0423.782,1.434,1.434,0,0,1-1.4568-1.3c-.2008-1.0747.74-.6959,1.2-.8714.56-.2134,1.1734-.2826,1.7512-.4564,1.693-.5061,2.4463.2235,2.5256,1.8735Z" fill="#ddba62"/><path d="M98.92,115.9182c-.5981.0076-1.1953.0194-1.7934.0219-.6588,0-1.4728.11-1.4577-.8545.0127-.8005.3062-1.5184,1.3733-1.5184.9414,0,2.1932-.5154,2.7449.1046.6867.7769-1.0873,1.278-.8984,2.2776Z" fill="#ddba62"/><path d="M32.5047,120.6244c-1.3564.1147-2.1722-1.1329-3.4012-1.3564a.3948.3948,0,0,1-.3028-.5483c.1375-.356.4766-.3467.7508-.3062a3.5337,3.5337,0,0,1,2.9246,2.243Z" fill="#ddba62"/><path d="M105.0783,83.6235c.469.2084.37.5061.0523.99l-.0523-.9886Z" fill="#ddba62"/><path d="M36.8195,117.4l.1856.0844h-.0844l-.0784-.1088Z" fill="#ddba62"/><path d="M110.4846,93.4189c1.8432-.2725,1.472.4547.8807,1.6618-.58,1.1869-.99,2.1173-2.615,1.7478-.88-.2008-1.235-.4462-.7735-1.2527C108.552,94.5763,108.5444,92.86,110.4846,93.4189Z" fill="#351c17"/><path d="M65.8268,13.0737c.4395.1189.3535.5787.5525.8436.5188.6892,1.2105.5643,1.9452.3847a1.1025,1.1025,0,0,0,.96-1.2288q-.0031-.0255-.0075-.0509c-.0346-.8967-.0337-1.7942-.05-2.6935-.01-.458.0548-.8739.6479-.8157.5061.05.3889.4294.4125.8.1139,1.8229.2531,1.8786,2.1359.7853-.933,1.3995.0666,1.8685.83,2.4463.16.221.24.7685.4825.6.3509-.2429.232-.7288-.0962-1.0646a2.66,2.66,0,0,1,.5-2.8251.4623.4623,0,0,1,.59-.232.3551.3551,0,0,1,.151.5778c-.9093,1.2324-.0953,2.52-.1468,3.7758l-.0354.566c-1.7841.51-2.259-1.1945-3.29-1.952-.2784-.2033-.4834-.6225-.8925-.4218-.1476.0725-.2.4015-.237.6234-.097.5812.59,1.4636.0489,1.6626a23.6684,23.6684,0,0,1-2.9119.2531c-2.1241.4707-3.2738-.8511-4.4438-2.1991a1.2012,1.2012,0,0,0-1.2763-.4656c-.3594.097-.3189.4564-.3231.7525-.011.6942.0919,1.66-.6116,1.8373-.7769.1957-1.3649-.6259-1.8626-1.2333-.2784-.3374-.825-.5778-.58-1.181.1189-.0329.2311-.1021.3256-.0844.5981.1215.7769,1.23,1.537.8064s.1856-1.21.2421-1.8305c.0607-.6588.1113-1.3185.1687-1.9773.1771.0785.237.0278.1687-.1577l.8436-.01.0152.1746.1687.0337c-.6192,2.1578-.5635,2.2363,1.5589,2.1991l-.0262-.0093c.4218.83.7288,1.8094,2.0085,1.434Z" fill="#351c17"/><path d="M66.505,18.8191c1.2265.1206,2.2481.0464,1.5749-1.6466l.2868-.9195.7929.0236-.0042.1417h.1426c.0152,1.7419.0084,3.4839.06,5.2241.0143.4926-.0329.8646-.59.8579-.6672-.0076-.4446-.469-.4412-.89.0169-2.238-.1417-2.3485-1.7377-1.89-1.3269.3813-.65,1.283-.631,2.0093.0084.3037.5061.65-.0236.884a1.4146,1.4146,0,0,1-.884-.0278c-.5137-.15-.2708-.5061-.2109-.863a12.1472,12.1472,0,0,0-.1156-4.977.4142.4142,0,0,0-.0321-.566c.9785-.0675,1.785-.0531,1.1886,1.35-.15.3534-.3459,1.0857.4446,1.2856C66.381,18.987,66.4434,18.9954,66.505,18.8191Z" fill="#351c17"/><path d="M55.6653,21.6771A2.9128,2.9128,0,0,0,57.03,18.4c-.2623-1.1919-1.1278-1.6812-3.3211-2.0524,2.1021-.884,3.4628-.1248,4.5552,2.5973.8436-.313.4985-1.7133,1.5749-1.7554l.0759.0076c-.3973,1.7791-.9279,3.591,1.2544,4.8083-1.97.5492-2.09-1.2561-2.8883-2.3063-.7162.8073-.868,1.9857-1.97,2.2776Z" fill="#351c17"/><path d="M72.1307,22.65c-1.0814.1982-1.558.0447-1.3666-1.3294a18.7412,18.7412,0,0,0-.2488-4.11c-.0472-.54.1383-.8014.6917-.7482.3754.0354.7423.0911.5517.6284-.5061,1.4416.0548,2.0338,1.6652,1.6871-.3273,1.1067-1.7445.2472-1.7335,1.3556.0076.7651-.1029,1.5817.63,2.1384Z" fill="#351c17"/><path d="M52.0861,22.4388c-1.34.2219-1.6525-.9625-2.313-1.68-.469-.5061-.89-1.5859-1.55-1.2164-.539.3011-.6554,1.4037-.89,2.173-.0633.2092.3374.5373-.2851.7153l.3492-4.2886a36.82,36.82,0,0,1,3.9647,2.712l-.0186-.0346-.0127.4159.4108-.0253-.03-.0321c-.3425.5821.205.5964.4952.7744Z" fill="#351c17"/><path d="M54.1014,14.2934c2.3426.1417,1.7192-1.6871,2.0616-2.9609.1755-.6538-.6554-1.963.5416-1.8887,1.2468.0776-.0886,1.2367.2,1.64.7972,1.1135-.6284,2.1814.108,3.2713.31.4572-.237.5551-.59.5559-.7238,0-1.4475-.0329-2.1688-.0523Z" fill="#351c17"/><path d="M76.4674,16.4108a2.1317,2.1317,0,0,0-.3855,2.5138c.4564,1.0966-.3577,2.5155.31,3.7454.016.03-.2767.3146-.3442.2868-.2615-.11-.6352-.2531-.7069-.4656a50.88,50.88,0,0,1-.6487-5.6468C74.5483,16.1611,75.6652,16.6756,76.4674,16.4108Z" fill="#351c17"/><path d="M77.8247,14.9033a3.99,3.99,0,0,0,.151-4.7509,2.3974,2.3974,0,0,1,1.7985,2.6091A2.1662,2.1662,0,0,1,77.8247,14.9033Z" fill="#351c17"/><path d="M48.47,9.3865l.7854-.108.1122.6057a16.8164,16.8164,0,0,0-.8646,3.9833c-.1189.4462,0,1.0814-.6065,1.0173-.5458-.0582-.6622-.71-.4707-1.1624a8.6692,8.6692,0,0,0,.4-2.761C48.9068,10.7918,48.1223,9.858,48.47,9.3865Z" fill="#351c17"/><path d="M53.5455,9.5847c-.7179,1.0738-.0456,2.4927-.9676,3.5826-.3948.4665.2817.8916.7786,1.1152l-.162.58c-1.3151.2168-1.6787-.3256-1.35-1.5749.3509-1.35.0093-2.863.9988-4.055Z" fill="#351c17"/><path d="M80.778,22.9129c-2.0144-.0557-2.5307-2.0971-3.9293-2.9794-.07-.0439-.0658-.3577.0143-.4547a.4.4,0,0,1,.6284.0211c1.0047,1.181,2.615,1.7436,3.3169,3.2325l-.0709.0844Z" fill="#351c17"/><path d="M51.3641,20.8538c.2733-1.0384-.1308-2.1789.469-3.165.19-.3113.469-.6445.8511-.4378.3206.1738.0135.442-.0464.701a4.632,4.632,0,0,0,.6183,3.7327c-.0725.8064-.561.2354-.87.26-.0844-.38-.0548-.8579-.6748-.7659l.03.0321c.06-.3239.097-.6251-.3956-.3923Z" fill="#351c17"/><path d="M61.7853,9.5813l-.1687-.0337-.0152-.1746c.1417-.4513.5357-.4606.8731-.4125a4.901,4.901,0,0,1,3.3742,2.2607l-.5314.0759c-.884-.7862-1.3539.2075-1.9959.4648l.0245.0186C63.6859,10.4367,63.3569,9.57,61.7853,9.5813Z" fill="#ddba62"/><path d="M59.9118,17.1978l-.0759-.0076c.3965-1.2949,1.434-1.4762,2.5518-1.3927.7727.0582,1.5361.2531,2.3021.3847a.4159.4159,0,0,1,.03.566c-.6284.3678-1.1067.8663-1.9765.1518S60.8254,16.7229,59.9118,17.1978Z" fill="#ddba62"/><path d="M80.778,22.9129l-.04-.1.0709-.0844c.9886-.0734,1.4138-1.0376,2.2877-1.35a8.848,8.848,0,0,1-3.6821,3.5573C79.1229,23.5894,81.058,24.09,80.778,22.9129Z" fill="#ddba62"/><path d="M52.3864,21.9445c.3087-.0245.7963.5466.87-.26q1.2054,0,2.41-.0084l.6419.2936c-1.2974,1.1666-2.7745.6976-4.2228.4673l.1223-.4867.0844-.0945Z" fill="#ddba62"/><path d="M76.6707,26.3925a8.4018,8.4018,0,0,1-4.3789,1.3708A9.382,9.382,0,0,1,76.6707,26.3925Z" fill="#ddba62"/><path d="M65.815,4.811H59.7414A7.7548,7.7548,0,0,1,65.815,4.811Z" fill="#ddba62"/><path d="M85.027,16.5128a7.6164,7.6164,0,0,1-1.3986,4.1823A6.0567,6.0567,0,0,1,85.027,16.5128Z" fill="#ddba62"/><path d="M76.815,16.65c.7727-.3045,1.4239-.2227,1.7985.59.205.4446.329,1.1008-.1282,1.3084-.9279.4218-.5272-.4994-.59-.8132C77.7707,17.0966,76.8791,17.3151,76.815,16.65Z" fill="#351c17"/><path d="M47.7309,8.2747a7.0184,7.0184,0,0,1,3.4636-1.434A6.125,6.125,0,0,1,47.7309,8.2747Z" fill="#ddba62"/><path d="M49.3674,9.8842l-.1122-.6057c.2758-.5964.8166-.3374,1.2442-.3534.5407-.0236,1.2046.054,1.0511.798-.1316.6377-.6639.4412-1.1455.2531A3.6509,3.6509,0,0,0,49.3674,9.8842Z" fill="#ddba62"/><path d="M74.6959,14.9464l.0354-.5686c1.1565-.3526,2.15.4311,3.5657.3459C76.9246,16.0852,75.7959,15.0645,74.6959,14.9464Z" fill="#ddba62"/><path d="M72.1307,22.65l.189-.38a10.2522,10.2522,0,0,0,1.1911-.2851c.4041-.1451.8832-.6976,1.11.0717.1687.5745-.4041.8351-.8689.8765C73.2088,22.9821,72.5795,23.2436,72.1307,22.65Z" fill="#ddba62"/><path d="M53.5455,9.5847l-.7061-.3526a1.9,1.9,0,0,1,.59-.2817c.7052-.0582,1.7369-.0768,1.8305.6048.1527,1.1093-.5761.5576-1.0612.264A3.4367,3.4367,0,0,0,53.5455,9.5847Z" fill="#ddba62"/><path d="M45.541,9.934a2.4058,2.4058,0,0,1-1.8145,1.8128l.0186.016a2.5922,2.5922,0,0,1,1.8136-1.8086Z" fill="#ddba62"/><path d="M65.4464,29.151H61.5728A6.6826,6.6826,0,0,1,65.4464,29.151Z" fill="#ddba62"/><path d="M48.47,9.3865c-.3475.4715.437,1.4054-.6436,1.5758C47.9384,10.3937,47.1117,9.4438,48.47,9.3865Z" fill="#ddba62"/><path d="M66.6172,11.5274c.4808-.0844,1.2426-.5,1.3379.1426.1046.7052-.6951.7592-1.3084.701Z" fill="#ddba62"/><path d="M66.6172,11.5274l.03.8436-.8182.2725-.5137-.03V11.2963l.5314-.0751Z" fill="#351c17"/><path d="M53.3354,27.5153a1.7065,1.7065,0,0,1-1.5884-.09,1.0544,1.0544,0,0,1,1.5884.09Z" fill="#ddba62"/><path d="M43.7392,21.9166a2.135,2.135,0,0,1-.9836-1.68,1.8955,1.8955,0,0,1,.9692,1.6972Z" fill="#ddba62"/><path d="M43.0027,12.84c-.0844.609.1577,1.359-.8975,1.7124a2.7964,2.7964,0,0,1,.9153-1.6955Z" fill="#ddba62"/><path d="M48.6537,16.45c-.372.5331-1.1658.1291-1.4906.7668C47.2441,16.0371,48.2151,16.8351,48.6537,16.45Z" fill="#ddba62"/><path d="M50.2784,26.63c-.3037-.1274-.7533.0844-.9009-.38-.0169-.0515.113-.2084.1906-.2219.48-.0844.6.259.6909.6234Z" fill="#ddba62"/><path d="M53.1946,14.8628l.162-.58a.6748.6748,0,0,1,.7474.0067l.1476.5643A.8689.8689,0,0,1,53.1946,14.8628Z" fill="#ddba62"/><path d="M68.3668,16.253l-.2868.9195a.636.636,0,0,1-.3963-.8075l.0066-.0184C67.8227,15.9755,68.1112,16.0852,68.3668,16.253Z" fill="#ddba62"/><path d="M45.9071,24.1124c.4758.0709,1.0173.0456,1.0823.7271l.0152-.0186a1.2594,1.2594,0,0,1-1.0806-.7255Z" fill="#ddba62"/><path d="M47.1058,9.1562a1.5,1.5,0,0,1-.4479.2531c-.2092.0245-.3189-.1569-.1847-.3172a.8233.8233,0,0,1,.4648-.1687C46.9742,8.9166,47.0358,9.0558,47.1058,9.1562Z" fill="#ddba62"/><path d="M43.02,12.8594a1.22,1.22,0,0,1,.7246-1.0966l-.0186-.016c-.027.5061-.043,1.02-.7238,1.0966Z" fill="#ddba62"/><path d="M60.7562,9.3831c.065.1856.0051.2362-.1687.1577a.2573.2573,0,0,1-.2725-.3374.1738.1738,0,0,1,.1223-.11C60.6364,9.0761,60.7621,9.1613,60.7562,9.3831Z" fill="#ddba62"/><path d="M48.5466,25.7869c-.097-.043-.2286-.0624-.2758-.1367a.2868.2868,0,0,1,.1105-.2531.329.329,0,0,1,.2725.1189C48.6832,25.5616,48.5879,25.6916,48.5466,25.7869Z" fill="#ddba62"/><path d="M65.3148,12.6131l.5137.03a1.8088,1.8088,0,0,1,.1088.3c.0067.0354-.07.0844-.11.1291l-.4994.1181C65.1511,13.0036,65.0609,12.813,65.3148,12.6131Z" fill="#ddba62"/><path d="M45.557,23.7286a1.2071,1.2071,0,0,1-.7212-.7238l-.016.0152a.67.67,0,0,1,.7229.7229Z" fill="#ddba62"/><path d="M50.259,26.6515a4.2179,4.2179,0,0,1,.5424.0194,2.7255,2.7255,0,0,1,.5061.2379l-1.0477.0844.02.0211V26.63Z" fill="#ddba62"/><path d="M46.9894,24.8379l.4656.0793-.0928.1771-.3577-.2733Z" fill="#ddba62"/><path d="M43.724,21.9352l.4707.1383c-.2893.3467-.3307-.0253-.4564-.1561Z" fill="#ddba62"/><path d="M45.5587,9.9534a.5659.5659,0,0,1,.0709-.1442l.11-.0177-.1982.1426Z" fill="#ddba62"/><path d="M45.5427,23.7413l.3644.3686.0169-.0169-.3669-.3644Z" fill="#ddba62"/><path d="M44.8358,23.0048,44.68,22.85l.0928.0354a.5551.5551,0,0,1,.0515.135Z" fill="#ddba62"/><path d="M66.505,18.8191c-.0624.1763-.124.1687-.1831,0l.0928-.0768Z" fill="#ddba62"/><path d="M69.2972,16.4175h-.1426l.0051-.1417C69.3773,16.1577,69.444,16.1847,69.2972,16.4175Z" fill="#ddba62"/><path d="M35.8292,31.85a10.4744,10.4744,0,0,1-5.6037-2.5155c-.1906-.3669-.4311-.7474-.0928-1.1675.3206-.3982.6588.0143.9633-.0287C33.99,27.7279,34.5942,30.05,35.8292,31.85Z" fill="#ddba62"/><path d="M23.9485,46.788a.8705.8705,0,0,1,.8022.6386l-.4083.44c-.5761-.0211-.6875-.3737-.6141-.8587A3.0661,3.0661,0,0,0,23.9485,46.788Z" fill="#ddba62"/><path d="M27.2957,39.2019a1.1725,1.1725,0,0,1,.0456-.2682c.0194-.0456.0919-.0692.1409-.1029l.1324.2345Z" fill="#ddba62"/><path d="M14.7158,49.8569l.248.189c-.2286.2033-.275.0582-.2885-.15Z" fill="#ddba62"/><path d="M23.7284,47.009c-.1561-.0666-.318-.1561-.1771-.3374.0287-.038.2581.0776.3956.1206C23.8785,46.8656,23.8051,46.939,23.7284,47.009Z" fill="#ddba62"/><path d="M34.4938,42.0312c.3281.1468.658.36.2531.6909-.2666.2168-.4867-.0447-.5677-.3475Z" fill="#ddba62"/><path d="M34.4972,43.48c.2429.113.59.221.3028.5584-.24.2826-.4876.097-.6656-.1527Z" fill="#ddba62"/><path d="M38.7993,20.9651c-.4926,1.2-.9439,2.3383.2919,3.3742.1561.13-.1223,1.0123-.4167,1.3623-.18.2151-.8039.19-1.1725.0844-.4344-.1274-.5677-.5247-.437-1.0215a2.3619,2.3619,0,0,0,.0734-1.2367C36.6828,22.0913,36.8853,21.0967,38.7993,20.9651Z" fill="#ddba62"/><path d="M61.17,41.8684c-.3695.0844-.8368.7128-1.0443-.1493a.6327.6327,0,0,1,.5061-.8014c.8343-.0844.4572.5829.5171.9735Z" fill="#ddba62"/><path d="M62.2037,50.8607c-.0616-.0911-.1738-.1822-.1687-.2615a.2159.2159,0,0,1,.3492-.1788.3113.3113,0,0,1,.0979.29C62.4551,50.7848,62.31,50.8109,62.2037,50.8607Z" fill="#ddba62"/><path d="M65.3468,35.8539c.7524.1687.5517.6748.4091,1.159A.9431.9431,0,0,1,65.3468,35.8539Z" fill="#ddba62"/><path d="M65.1148,35.3022c.2488.0936.3594.2446.2109.5061C65.0685,35.72,65.033,35.5342,65.1148,35.3022Z" fill="#ddba62"/><path d="M12.1666,46.9753c.1215-.3374.3062-.6268.6985-.6706.0725-.0084.24.1493.2294.1729a.6959.6959,0,0,1-.9532.4648Z" fill="#ddba62"/><path d="M13.2995,35.7552c.027.2269.0844.4741-.1906.59-.0472.0194-.2016-.0919-.2261-.1687a.4125.4125,0,0,1,.2446-.53q.0187-.0069.038-.0119Z" fill="#ddba62"/><path d="M34.2846,16.4673l.512-.2851.0751.1459-.6124.11Z" fill="#ddba62"/><path d="M35.5154,15.5411l-.0152.1156a.2084.2084,0,0,1-.1569.0422c-.1687-.0709-.1594-.1535.0194-.2025C35.4065,15.4854,35.4639,15.525,35.5154,15.5411Z" fill="#ddba62"/><path d="M61.7853,9.5813c1.5715-.0127,1.9005.8562,1.5589,2.2C61.2218,11.8176,61.1662,11.7392,61.7853,9.5813Z" fill="#fdfdfd"/><path d="M65.3148,12.6131c-.2531.2-.1637.3906.0135.58-1.2788.3788-1.5909-.6006-2.0085-1.434.6411-.2581,1.111-1.251,1.9959-.4648Z" fill="#fdfdfd"/><path d="M73.6347,13.0821c.3281.3374.4471.8208.0962,1.0646-.2429.1687-.3231-.3779-.4825-.6Z" fill="#fdfdfd"/><path d="M52.3864,21.9445l-.0936-.0844-.0844.0945c-.29-.1771-.8368-.1915-.4943-.7735C52.3316,21.0866,52.3029,21.5649,52.3864,21.9445Z" fill="#fdfdfd"/><path d="M51.3438,20.82c.4926-.2328.4547.0683.3956.3923l-.4083.0245Z" fill="#fdfdfd"/></svg>