<svg id="图层_1" data-name="图层 1" xmlns="http://www.w3.org/2000/svg" width="150" height="150" viewBox="0 0 150 150"><title>MM_1</title><path d="M37.422,35.2981c4.0235-11.0368,11.4268-19.0923,21.7142-24.5972a4.4917,4.4917,0,0,1,.94-.2658c.0777,1.0657-.9868,2.0718-.1661,3.1768,1.813,2.0343,2.75,1.8787,3.85-.639l-.0149.0157c.9958.3083.7821-.9454,1.42-1.1a3.1712,3.1712,0,0,0,2.7426.6772,6.86,6.86,0,0,1,5.2776.9442c1.8945,1.0822,4.0312,2.565,6.3433,1.5774,1.5735-.6721,2.1513-.03,2.7424,1.0487,2.2031,4.0188,2.1767,3.9827,6.7241,2.57,1.0883-.338,2.73-.71,3.3206.2368.936,1.5-1.6026.6543-1.6672,1.771a1.0136,1.0136,0,0,1-.0783.2406q-1.08.3116-2.1606.6211c-.8461.9831-2.3164,1.2322-2.9287,2.49-1.0893.847-2.7842,1.3572-2.7943,2.95-.026,4.0851.3274,8.1482,2.1468,11.922a6.486,6.486,0,0,0,2.1029,3.034l1.7287,1.417a1.87,1.87,0,0,0,.11.4434c-1.2087,3.2725-1.9723,6.7436-4.2529,9.5382l-3.0246.3222-2.5039-.2813c-.38-.9653-.7438-.9352-1.0923.018l-.6739.4908c-6.5355.0261-13.0737.37-19.6045-.1639a1.0265,1.0265,0,0,0-1.0766-.1195l-1.9412-.2391c-.33-.96-.85-1.0648-1.5522-.3436a51.1637,51.1637,0,0,0-5.0269-1.4188c-3.9886-.7176-5.54,2.21-7.128,5.0077-2.4135.349-3.6142-.7694-3.876-3.1251-.36-3.2369-.7761-6.4674-1.1529-9.7024a1.514,1.514,0,0,1,.669-1.2794c1.3169-1.2355,1.0318-2.3255-.3629-3.2772a2.5425,2.5425,0,0,1,.5789-1.899C38.178,37.0609,37.9754,36.2362,37.422,35.2981ZM78.4543,21.0518l.0072.003A2.4937,2.4937,0,0,0,75.49,19.652l1.9762,1.39-.0344.5356-.0006,0a26.8232,26.8232,0,0,1-4.0033-.323c-1.56-.2542-3.3739-.8536-4.7151.7568a16.2134,16.2134,0,0,0-3.1254.8274c-2.0243.9829-4.5735,1.4456-5.0051,4.3076a15.3888,15.3888,0,0,0,.036,10.6978,5.174,5.174,0,0,0,1.6635,3.54,7.3867,7.3867,0,0,0,3.4768,3.0835c7.5031,2.8928,14.1891-1.6248,14.8322-10.0433a10.9232,10.9232,0,0,0-.03-6.3142l-.04-1.3965a1.6524,1.6524,0,0,0,.9263-1.6317c.2451-1.6756-.1169-3.0119-1.9653-3.5179L79.47,21.56C79.29,21.0739,78.9014,21.0044,78.4543,21.0518ZM53.2886,26.6973c-.8428-.7825-1.7406-1.2122-2.8254-.44-.8784.2018-.9723,1.1068-1.4656,1.6542-1.17,1.2985-1.1421,2.6872.2324,3.7246,1.3791,1.0408,2.8.988,3.7973-.6991l.1052-1.3359c.7392-.4924.4125-1.4429.9775-2.12C54.754,26.71,53.8109,26.7345,53.2886,26.6973Z" fill="#eb8420"/><path d="M36.1762,39.2594c1.3947.9517,1.68,2.0417.3629,3.2772a1.514,1.514,0,0,0-.669,1.2794c.3768,3.235.7932,6.4656,1.1529,9.7024.2618,2.3557,1.4625,3.4742,3.876,3.1251.1439.5445.5749.5084.9959.4924.6384-.03,1-.4975,1.4785-.8322,1.3938-.9739,3.0653-1.7833,4.6439-.8306,2.5694,1.55,4.731,3.7416,7.5281,4.9723.0431.019.0335.1578.0485.2408-.6148.1879-1.2075-.7253-1.8568-.0411.21,1.3262,1.5461,1.1453,2.3131,1.6652,4.8941,3.3173,10.4545,3.7339,16.1474,3.455a1.5674,1.5674,0,0,0,1.7136-1.4706c3.8554-.9457,7.5336-2.6952,11.6265-2.5638.243,1.9107,2.1387,2.2424,3.256,3.2933.9594.9023,1.0532,1.6-.0267,2.1392-2.5043,1.25-2.32,4.4708-4.5078,5.9048l.342.354c-.305.357-.4682,1.2245-1.1457.4674-.6876-.7683-1.73-.825-2.49-1.4126.04-.357.5213-.8463-.09-1.0277-.6375-.1894-.8441.3385-.9065.8859-2.0387-.094-4.4783,1.298-5.8229.6823-2.1585-.9882-4.2337-.4111-6.2595-.9764-2.4629-.6873-3.5979.31-3.2366,2.8873-1.5638-.2208-2.9951.3871-4.4556.7554-.863.2176-1.9469.5222-2.2456-.4031-.7267-2.2515-2.9186-2.5928-4.5041-3.306a11.2875,11.2875,0,0,1-3.6875-2.3874c-1.1522-1.1626-2.6207-1.23-3.3076.7865l-1.44-.1849c-.5325-1.1648.0673-3.5352-2.5926-2.4348-.8428-1.35-1.1335-3.1579-3.0208-3.6412-.4942-1.045-1.235-1.9308-1.7659-2.9809-1.393-2.7557-1.9182-5.8273-3.38-8.5325l-.0342-1.5451A32.4954,32.4954,0,0,1,36.1762,39.2594Z" fill="#c76d20"/><path d="M120.6813,38.3221c1.9488,6.0286,3.3819,12.1106,1.9956,18.5028a5.1231,5.1231,0,0,0,.0409,1.26c-.1161.41-.0462.9145-.57,1.116-2.05-1.2385-2.9218-3.2628-3.74-5.382-.4051-1.05-.7956-2.663-2.5805-1.3941l-1.3089.6469-.5136.5576.0483-.0441c-1.4953.72-2.2454-1.24-3.6065-1.0031-.7514-2.5216-1.4473-5.3248-.0553-7.5341,1.2469-1.9789,1.0507-3.8284.9961-5.7743-.0338-1.2032-.9328-2.2214-1.0241-3.56-.2018-2.96-1.4933-5.6352-2.8235-8.26-.5274-1.0406-1.1966-1.7689-2.3371-.8325-1.77,1.4532-2.5813.8455-3.0415-1.165-.22-.96-1.01-1.7683-.8611-2.8578l.0083-.0084a14.3033,14.3033,0,0,1,1.6538.5875c1.1171.551,1.9791,1.3868,2.7339-.6882.5266-1.4476,4.0273-1.42,5.0824-.1026.6477.8087,1.2118,1.3659,2.2781,1.1709l-.0132-.0119c.1065,1.1132-.3007,2.6123,1.7189,2.2882l.0472.1108c-.144.3985.0419.6.4116.691a.3525.3525,0,0,1,.25.3875c-.3133.1088-.7148.2276-.5471.6487A50.6058,50.6058,0,0,0,120.6813,38.3221Z" fill="#81430b"/><path d="M101.3,22.5979c-.149,1.0895.6413,1.8973.8611,2.8578.46,2.01,1.2717,2.6182,3.0415,1.165,1.14-.9364,1.81-.2081,2.3371.8325,1.33,2.6247,2.6217,5.3,2.8235,8.26.0913,1.3389.99,2.3571,1.0241,3.56.0547,1.9459.2508,3.7954-.9961,5.7743-1.392,2.2092-.6961,5.0125.0553,7.5339-1.6475.4707-3.401-.4255-5.0218.3892l-1.2744.1281L102.8,52.99c1.36-.9138,3.8188-1.4457,1.257-3.7143a1.2275,1.2275,0,0,1-.1941-.9632c.5119-3.02.3914-6.4013,1.7909-8.9418,1.33-2.4145.2013-3.8844-.2829-5.7619-.1132-.4387-.344-.8253-.8545-.72-.687.1416-.64.6858-.4819,1.1939a6.3139,6.3139,0,0,1-.7934,5.2124c.0542-2.3545.5263-4.7272-.3079-7.0427a7.2843,7.2843,0,0,0-1.385-4.5638A8.1167,8.1167,0,0,0,97.58,22.63c.5947-.1413,1.4973.1808,1.5808-.7889a1.7256,1.7256,0,0,0-1.2834-1.6847c-2.7824-1.0118-3.7939-4.1586-6.5-5.2729-.74-.3045-.8027-1.207-.7123-1.9946a39.875,39.875,0,0,0,5.4565,1.9184c2.251.42,3.8627-.0553,4.1534-2.6534a36.2548,36.2548,0,0,1,12.7821,11.4038c-1.0662.195-1.63-.3622-2.278-1.171-1.055-1.3172-4.5557-1.3451-5.0824.1026-.7548,2.075-1.6168,1.2392-2.7339.6882a14.29,14.29,0,0,0-1.6539-.5875.6861.6861,0,0,0-.086-.1691c-.0254-.028-.0864-.0237-.1313-.034Z" fill="#a4581a"/><path d="M56.7171,93.178c-5.1878-3.3717-10.0388-7.108-13.4377-12.4152,1.73-.3651,2.2278,1.2444,3.15,2.0733.92.8267,2.2962,1.9491,2.9955,1.4655,2.37-1.6385,3.9869.1725,5.4325,1.1083a22.1666,22.1666,0,0,0,6.0036,2.468c1.8079.5334,3.8913.1612,5.3676,1.7389-.19.5548-.7074.6851-1.1658.8743-1.102.4548-.7351,1.3948-.6879,2.18.0547.91.8185.9427,1.5.9937,2.5208.1888,5.0462.3278,7.5619.5689,1.26.1207,1.9383-.29,1.9841-1.5893l1.9723.0124c-.0773,1.1034.2414,1.7353,1.5444,1.65,1.6834-.11,3.3778-.0449,5.0669-.0812.8224-.0176,1.7154.1275,1.9924-1.0509a1.93,1.93,0,0,0-1.0078-2.4817,2.2087,2.2087,0,0,1,3.2.5289c-.4623,2.3075.2194,3.2442,2.7271,2.589,1.8513-.4837,4.0262.1813,5.4828-1.6381.3816.8076.633,1.774,1.8724,1.5356-2.67,2.229-6.1393,2.6309-9.18,4.0124a5.04,5.04,0,0,0-2.6169.6737,57.6,57.6,0,0,1-19.2008-.7366l-3.4676-1.0867Z" fill="#150505"/><path d="M90.6646,12.8883c-.09.7876-.0272,1.69.7123,1.9946,2.7062,1.1143,3.7177,4.2611,6.5,5.2729A1.7256,1.7256,0,0,1,99.16,21.8406c-.0835.97-.9861.6477-1.58.7889q-.41-.0644-.8216-.1288c-1.712-1.919-4.09-1.1742-6.1883-1.5465a.9749.9749,0,0,0,.0787-.24c.0646-1.1167,2.6031-.2713,1.6672-1.771-.5907-.9465-2.2323-.5748-3.3206-.2368-4.5475,1.4124-4.521,1.4486-6.7241-2.57-.5911-1.0783-1.1689-1.7208-2.7424-1.0487-2.3121.9875-4.4488-.4952-6.3433-1.5774a6.86,6.86,0,0,0-5.2776-.9442,3.1711,3.1711,0,0,1-2.7425-.6772c1.3023-2.08,2.6088-4.1572,4.7286-5.54,1.406.5927,2.7425-.1267,4.0964-.271a34.334,34.334,0,0,1,10.2654.1772C85.7493,9.0879,88.3035,10.8949,90.6646,12.8883Z" fill="#c76d20"/><path d="M56.7171,93.178q3.5441,1.6968,7.0882,3.3938c-2.1339,4.1585-5.95,7.24-7.0141,12.201-.44,2.0536-.68,3.5682.3613,5.2841a3.5231,3.5231,0,0,0-.013.4537q-.0339.5176-.0672,1.0352-.226,0-.4531,0c-3.0537,1.2385-6.11.2791-9.1648.0094-1.2094-1.9176-.9579-4.0985-1.1185-6.2051-.0857-5.6357,3.6008-9.15,7.1463-12.7564C54.581,95.4764,56.0811,94.734,56.7171,93.178ZM55.03,102.0537a3.6147,3.6147,0,0,0-1.0977-1.9687,1.0335,1.0335,0,0,0-1.391.061c-1.046.9118-2.0566,1.8641-3.0956,2.784-.6987.6186-.3072,1.2058.0116,1.8027s.7524.4717,1.2754.269c.7761-.3008,1.6278-.4261,2.3733-.7815A3.183,3.183,0,0,0,55.03,102.0537Z" fill="#c48d74"/><path d="M89.0905,97.7212c3.0408-1.3814,6.51-1.7833,9.18-4.0123l-.016.0144.4889-.1678.02.1917c.4244,2.3253,2.7017,3.1854,3.9633,4.8711a19.3113,19.3113,0,0,1,3.6157,7.2966c-1.3042-.12-1.51.65-1.4885,1.7248.04,2.01.0717,4.0249-.0174,6.0323-.0634,1.4293.0859,3.0043-1.4388,3.9272-.2973-1.631-1.3322-2.2485-2.9086-2.68-2.2514-.6169-4.7573.0414-6.81-1.4211l-.0362-3.6176c.5473-2.6877-1.2185-4.5129-2.4391-6.5414,1.3157-1.1794,1.4055-2.2405-.1214-3.393A14.9074,14.9074,0,0,1,89.0905,97.7212Zm11.1822,7.7289c0-1.2688.07-2.2886-.0145-3.2955-.1792-2.14-1.8725-1.171-2.9428-1.2856-1.3175-.1411-2.6878-.0566-3.511,1.2711-.0848.1368.0686.5092.2148.6876A14.7925,14.7925,0,0,1,96.831,108.96a1.5577,1.5577,0,0,0,1.3872,1.3054c.8534.02,1.32-.7324,1.71-1.35C100.6529,107.7663,100.13,106.436,100.2727,105.45Z" fill="#c48d74"/><path d="M98.2706,93.7089c-1.2394.2384-1.4908-.728-1.8729-1.5351-.3558-.6218.7747-1.5681-.336-1.967-1.439-.5168-1.2045-1.458-1.0165-2.6212a42.6127,42.6127,0,0,0,.2817-4.4912q.1908-.5654.3825-1.13c1.8537-1.8291,4.66-2.3692,6.2192-4.597,1.4334.868,2.9408,2.1823,4.6191,1.4571,1.8445-.797,2.7956.1228,3.9087,1.131l2.04,2.5882a45.4617,45.4617,0,0,1-13.7331,11.204l-.02-.1918c-.2723-.2629-.3967-.0943-.489.1678Z" fill="#4d2703"/><path d="M66.2283,89.6169c-1.4762-1.5777-3.56-1.2055-5.3676-1.7389a22.1666,22.1666,0,0,1-6.0036-2.468c-1.4455-.9359-3.0627-2.7468-5.4325-1.1083-.6993.4835-2.076-.6389-2.9955-1.4655-.9221-.8289-1.42-2.4384-3.15-2.0733l.0168-.052a.7438.7438,0,0,0-.59-.6827l-.4224-.4467c.7836-1.0147,2.0071-.9324,3.0766-1.2418,2.189-.6335,3.7313-1.8431,3.7867-4.3427q2.16,2.0372,4.32,4.075c.807.7637,1.7878,1.76,2.8277,1.3259,2.3713-.9886,3.8317.2632,5.3544,1.6434.4184,3.1522,3.1686,4.515,5.0325,6.558q-.01.9679-.0207,1.9358A3.9722,3.9722,0,0,1,66.2283,89.6169Z" fill="#4d2703"/><path d="M120.1311,128.7421c3.25-1.0533,6.5624-.2659,9.8427-.2769,1.0115-.0034,1.5654,1.1388,2.3156,1.7738.8521,1.1933.31,2.3765-.0243,3.5612l-.998.5373c-1.0731-.0864-2.37.0395-2.299,1.2911.1348,2.368-.5168,4.975,1.7308,7.0848-3.7605.352-7.1087,2.096-10.7755.83a2.1633,2.1633,0,0,0-2.3642.4078q-.7231-.0329-1.4463-.0665l-.09-1.4012c2.1548-.9976,4.4-.6383,6.5693-.2284,1.7015.3215,2.6408.0834,2.5743-1.8348q.2369-.5213.4736-1.043a9.4309,9.4309,0,0,0,.5731-3.5212l-.0191.0331a2.6844,2.6844,0,0,0,.9737-1.7085c.1336-.524.7991-1.17.1955-1.5806-.3154-.2147-1.0521.1893-1.5986.3138l-1.0885-.1027c-.1833-.3523-.35-.3485-.5011.0227-.3538.0882-.7.56-1.0658.02-.3044-1.5081-1.0939-1.2279-1.9939-.541l-1.0174.0074a2.9231,2.9231,0,0,0-.8457-.4709c-2.8664-.4715-3.4822-1.5965-2.1977-4.0826l1.0314-.0351-.0115-.0113C118.36,128.8666,118.8884,129.5229,120.1311,128.7421Z" fill="#e8e6e5"/><path d="M122.1477,59.2c.5239-.2015.454-.7063.57-1.116,2.7722.4937,4.766,2.214,6.5922,4.1927.683.74,1.3468,1.4977,2.0193,2.248-.0141.8-.2353,1.7347,1.0876,1.6545l-.0865.0241.5452.5517-.0189-.0431c-.3993,2.6666,1.8353,4.1753,2.7461,6.2656.7227,1.6586,2.5373,3.2741,1.5162,5.1076-1.0321,1.8532-3.24.59-4.909.8352-.0675-3.8082-2.0416-6.2273-5.51-7.5563A17.1234,17.1234,0,0,0,123.1279,60.69Z" fill="#c48d74"/><path d="M132.2093,78.92c1.67-.2449,3.8777,1.0186,4.91-.8346,1.0211-1.8335-.7936-3.449-1.5162-5.1076-.9108-2.09-3.1453-3.5991-2.7461-6.2656a28.5315,28.5315,0,0,1,6.87,13.6175c.8338,4.29-1.4293,7.6573-5.9471,9.2676-2.0864-.2053-3.4306-2.7789-5.8753-1.8415l-.235-.6909c1.5018-1.9334,3.7579-3.3559,4.11-6.068C131.8487,80.2894,131.5367,79.5028,132.2093,78.92Z" fill="#ac7e6a"/><path d="M12.9952,82.5911a14.1479,14.1479,0,0,1,2.5978-6.18c1.48-1.8612.9208-4.3438,1.3625-6.5328,1.1912-1.7541,2.9688-2.8561,4.5906-4.1312,3.0643,1.5788,1.2457,4.0128,1.0785,6.1576.0594,2.02-1.3837,4.0215-.0714,6.0559l-.0278,1.9933a4.39,4.39,0,0,1-4.998,2.0359l-.04-.9793,1.7489-5.1621a8.1507,8.1507,0,0,0-3.3835,4.33C15.3553,81.4785,14.6738,82.649,12.9952,82.5911Z" fill="#dad6d4"/><path d="M46.8073,146.4053q-1.1984.2787-2.3967.5578c-.5913-.5837-1.0643-.1273-1.5546.1772a1.8614,1.8614,0,0,0-1.51.5769,2.5472,2.5472,0,0,0-1.9369.2329,2.6589,2.6589,0,0,0-1.9466-.1313c-.6274-.2244-1.2458-.402-1.6875.3283q-1.7722.0178-3.5444.0353c-1.139-1.0575-2.4438-.5671-3.7141-.3983q-.4786-.061-.9564-.1229.0709-.5214.14-1.0411c2.174.1441,4.3338.5953,6.528.3019a19.5949,19.5949,0,0,0,5.104-.8979l5.0069-.6218a2.1129,2.1129,0,0,0,1.6219-1.0283c.2-.3947.9493-.7546.4635-1.2132a.9942.9942,0,0,0-1.5037.321H42.3912c1.4066-.7668,2.8258-1.1866,4.0717-2.0109a8.5067,8.5067,0,0,0,4.3308-1.7627c2.4974-1.9147,5.65-.9739,8.83-1.6791-1.3512,2.9718.2751,2.1324,1.892,1.991,1.7158-.15,3.4208-1.1663,5.31-.3644-2.0107,1.1147-4.3827.6516-6.1886,1.9837l-.7866-.0081c-1.4147-.043-2.8448-.1319-3.7743,1.2686C52.8923,143.8205,49.6682,144.6328,46.8073,146.4053Z" fill="#847875"/><path d="M31.2648,83.1044c-1.2469-1.8626-1.3279-4.0249-1.58-6.1434q-.2613-.7657-.5226-1.5314c.2592-2.6358-2.5034-2.5894-3.583-4.0369a6.6836,6.6836,0,0,0,.4224-.9139c.3531-1.1935-.4014-2.84.71-3.584,1.3507-.9047,1.5171,1.7334,2.91,1.4549l.5345.4793a3.445,3.445,0,0,1,.0814.4377,1.4181,1.4181,0,0,0,1.3549,1.6309l.9519.6213q.1.6791.1991,1.3583c-.759,1.667.4622,2.7613,1.1548,4.0119.7491,1.3526,2.236,2.3674,1.9346,4.2036C34.85,82.9886,32.8683,82.6169,31.2648,83.1044Z" fill="#dad6d4"/><path d="M29.1625,75.43l.5227,1.5314A8.7955,8.7955,0,0,0,25.16,78.9677c-1.4273,1.1745-1.4157,2.1758.095,3.16,1.7083,1.1133,2.3393,2.5571,1.531,4.5077-1.4539-.5088-2.7924-1.0571-4.499-.6212a73.9416,73.9416,0,0,1-7.7089,1.1885c-1.5665.0732-1.4755-1.1018-1.5953-2.1183,2.6686.9217,3.2722.61,3.9183-1.9717.1764-.7049-.123-1.5463.5862-2.1022q.02.49.0393.98a3.036,3.036,0,0,0,4.363,1.9821c2.2622-.9007.8489-2.6033.6353-4.0182q.0139-.9967.028-1.9933a5.49,5.49,0,0,0,.8422-1.202c1.6436-4.6163,1.6328-4.62,5.5443-1.4449A1.2173,1.2173,0,0,0,29.1625,75.43Z" fill="#958b89"/><path d="M16.3223,66.2864c-.2984-2.9218,1.2-4.9463,3.3244-6.6577,2.1285-2.0189,4.86-1.8126,7.4784-2.0248a2.0285,2.0285,0,0,0,.4365.1607,2.433,2.433,0,0,0,1.3321,1.7167A3.0275,3.0275,0,0,1,30.6317,63.18l-1.4528.0271c-1.6716-.8959-3.3354-.4265-5.052-.0876C21.3067,63.6763,19.0818,65.628,16.3223,66.2864Z" fill="#dad6d4"/><path d="M90.6646,12.8883c-2.3612-1.9934-4.9153-3.8-6.4082-6.6328.1869-.3807.169-.8918.6793-1.0665,1.6816,3.5576,4.5462,5.6108,8.8263,7.0624-1.4806-1.6962-3.0618-2.143-3.8929-3.4509a8.4555,8.4555,0,0,0-4.9372-3.6077c.4583-1.4351,1.5731-1.6787,2.5148-.8326,3.7994,3.4136,8.5588,5.1948,12.8293,7.7945-.2923,2.5967-1.904,3.0716-4.155,2.652A39.875,39.875,0,0,1,90.6646,12.8883Z" fill="#150505"/><path d="M39.96,125.7479c-.8476-2.73,2.1884-1.848,2.9053-3.1228.1555,1.2358,1.2039,1.2969,2.0251,1.2781.7635-.0175.446-.8956.5756-1.4047a12.69,12.69,0,0,0,8.0752-.0346c.0061.68.2462,1.1671,1.009,1.2229a4.01,4.01,0,0,1-2.01,4.0572c-.5782-.3076-1.0544-.4009-1.0569.5024l.5728.4968-.0215.5234c-1.4341.3021-4.33-.1579-4.8611-1.0613C45.439,125.2554,42.6649,125.6712,39.96,125.7479Z" fill="#c9c3c0"/><path d="M59.9106,13.6119c-.8208-1.105.2438-2.1111.1661-3.1768,1.956-2.2409,3.0034-5.1672,5.5366-7.0042A15.2359,15.2359,0,0,1,70.4743.9825c1.0817-.3045,1.9609-.1858,2.4195.9934-.608,1.7915-2.3468,2.32-3.726,3.1537a10.871,10.871,0,0,0-5.4218,7.859l.0149-.0156C62.4827,13.2176,61.2846,13.9447,59.9106,13.6119Z" fill="#4d2703"/><path d="M104.3521,147.0191q.0047-.7667.0092-1.5332a12.9039,12.9039,0,0,1,4.969.7728c.239.5341.5094.9687,1.1114.35q1.78.3249,3.5605.6485c2.908,1.3049,6.0887,1.2491,9.1427,1.8271.319.4582.6642.4605,1.0327.0595,4.62.0411,9.2773.448,13.7048-1.3978,1.666-.4617,2.0492-2.02,2.7933-3.269,1.4575,1.3259.9191,3.3588-1.2829,4.2783a24.214,24.214,0,0,1-8.0938,1.84,61.2147,61.2147,0,0,1-19.4951-2.3317A25.4219,25.4219,0,0,0,104.3521,147.0191Z" fill="#dad6d4"/><path d="M27.561,57.7652a2.0868,2.0868,0,0,1-.4356-.1612c.2523-2.1941-2.2846-3.3769-2.0219-5.5752,2.2066-.971,4.4162.07,6.6254-.0015.9635-.0311,2.0474.3513,2.4875-.9736q.017.7737.0342,1.5454-.0387,3.5571-.077,7.1147a4.2206,4.2206,0,0,1-2.4784-.0114l-.5168-.5186-.497-.4672A6.3821,6.3821,0,0,0,27.561,57.7652Z" fill="#ac7e6a"/><path d="M107.3916,110.07c.7261.1808,1.4467.3881,2.1791.5377,2.4488.5,3.4952,2.0221,3.3677,4.4718-.0432.8285.0341,1.6633.0562,2.4953l.5084,2.041a4.4047,4.4047,0,0,0-1.015,2.0259c-.5537-.0072-1.14.0945-1.5274-.463a4.8883,4.8883,0,0,0-3.5534-1.0791Z" fill="#958b89"/><path d="M117.5591,143.9512a2.1639,2.1639,0,0,1,2.3643-.4074c3.6668,1.2657,7.015-.4784,10.7755-.83-2.2476-2.11-1.5959-4.7167-1.7308-7.0848-.0712-1.2516,1.2259-1.3776,2.2991-1.291-.6417,2.5667.4438,6.2844,2.068,7.084,1.0194-.2963,2.4734.774,3.0351-.9641.6983-.0732,1.4815.1776,2.0143-.5275l1.0479-.51c.4949.4118,1.3808.7109.4424,1.5356q-1.2169.5581-2.4344,1.1154c-2.5828.1783-5.0587.6044-6.7311,2.897C126.3029,144.9276,121.8639,145.3074,117.5591,143.9512Z" fill="#dad6d4"/><path d="M107.3916,110.07q.0078,5.0148.0155,10.03c-.9331.2037-1.89.3748-2.0847,1.5634l-.9194.0142c-.7448-1.2582-.5405-2.75-1.0049-4.0777,1.5241-.923,1.3747-2.4981,1.4382-3.9274.0891-2.0073.0576-4.022.0174-6.0323-.0215-1.0753.1843-1.8452,1.4885-1.7248q.0679.3867.1359.7741.1566.3637.3134.7253Z" fill="#ac7e6a"/><path d="M39.96,125.7479c2.7044-.0766,5.4786-.4925,7.2136,2.4575.5313.9034,3.4269,1.3633,4.861,1.0612-.7368,3.2316-2.7216,3.9791-5.1432,1.9827-.9-.7423-1.7392-2.22-3.0042-.149-.38.6215-1.5529.1075-1.9888-.7982q-.0205-.77-.0409-1.5407.25.0034.4985.0217c.2539.4235.4824.8854,1.0917.8323.0559-.0049.1588-.1428.144-.1865-.1926-.569-.6811-.6537-1.1888-.7-.21-.36-.3863-.31-.5388.0433a4.5067,4.5067,0,0,1-3.0742-1.829Z" fill="#b6aeac"/><path d="M46.3359,109.35c.1606,2.1066-.0909,4.2875,1.1186,6.205-.1777,1.4806,1.2051,2.5641,1.0294,4.0443-.8123,1.3241-2.202,1.3527-3.51,1.5643-.3145-.5855-.8917-.552-1.4312-.6074-1.2074-.4925-2.4114-.9887-2.7074-2.4771,1.1594.14,2.3722,1.159,3.4488-.15a2.591,2.591,0,0,0,.1472-3.3919C44.2209,112.4979,43.6815,110.3378,46.3359,109.35Z" fill="#958b89"/><path d="M14.5786,87.203a73.9416,73.9416,0,0,0,7.7089-1.1885c1.7066-.4359,3.045.1125,4.499.6212-1.5619,3.1337-2.7666,3.7788-4.8083,2.5749.3567-.1314.8561-.0862.8445-.669a.2415.2415,0,0,0-.1676-.1664c-.5806-.0085-.541.486-.6672.8457-.3971.0375-.8741-.0549-1.1787.1327C18.0805,91.034,16.238,90.4142,14.5786,87.203Z" fill="#847875"/><path d="M25.1035,52.0289c-.2628,2.1983,2.2741,3.3812,2.0219,5.5752-2.6186.2119-5.35.0056-7.4787,2.0245C19.437,55.3374,21.3109,52.7275,25.1035,52.0289Z" fill="#c48d74"/><path d="M104.403,121.677q.46-.0071.92-.0144c1.8091-.9825,3.7529-.39,5.6377-.4843.3869.5575.9737.4557,1.5274.463l1.3771.3056.0031-.0069.0473.6931q-.0249.2634-.05.5267a6.3865,6.3865,0,0,1-4.9365,1.96c-1.0624-2.1393-2.0262.0932-3.0408.0694C104.679,124.3207,104.58,122.9826,104.403,121.677Z" fill="#847875"/><path d="M19.9639,140.3769c-.0977-3.7254,3.1283-5.7272,4.5368-8.6779a4.8083,4.8083,0,0,1,3.5027-2.9567c.7436.0982,1.5662-.2062,2.2.438q-.265.5243-.53,1.0474a3.1766,3.1766,0,0,0-.4953.059,1.7352,1.7352,0,0,0-2.0452.9986c-.5729.3449-.5109.9315-.5617,1.4751-.5805.0589-1.1745.0289-1.44.7573-.6594,1.809-1.3608,3.6026-2.0453,5.4024l-.53.4858c-.7906-.0946-.9433.7162-1.4514,1.0226Z" fill="#c9c3c0"/><path d="M131.7792,80.9967c-.3518,2.7123-2.6079,4.1348-4.1092,6.0686-1.3177.66-3.07.4122-3.9871,1.9091-2.6306.0456-5.3383.5073-7.605-1.41l1.0226-.5872q.7386.0349,1.4772.07c2.2711.9766,4.3575-.05,6.4343-.7.8712-.2726,2.0538-.4777,2.1909-1.788.3871-1.0882,1.8876-1.2686,2.0626-2.53Z" fill="#958b89"/><path d="M32.7438,72.8769q-.1-.6791-.1976-1.3593a2.9551,2.9551,0,0,0-.7914-3.2072q-.0088-.5045-.0179-1.0092l1.99.0176c2.1279.2693,1.4144,2.9061,3.0131,3.6163l.0874.9283c-1.2534.9743.4212,2.0022-.0547,2.9907-.4843-.0369-.9927-.1287-1.1772.5169l-.8747.1027q-.052-.2318-.1023-.4639c.2039-1.0558-.387-1.4955-1.3041-1.6823Z" fill="#847875"/><path d="M112.4963,82.5432l-2.04-2.5881q.254-.7948.5081-1.5888,1.0041.0174,2.0081.033c1.8219,1.6708,4.2132,2.7676,5.2612,5.2186l-.72.65-3.9309-.8011A1.1763,1.1763,0,0,0,112.4963,82.5432Z" fill="#847875"/><path d="M17.4878,81.0109c-.7091.5559-.41,1.3973-.5862,2.1022-.6461,2.5818-1.25,2.8933-3.9183,1.9717-.9263-.8355-.3078-1.6643.0114-2.494,1.6791.0582,2.3605-1.1123,2.8584-2.4122a8.1507,8.1507,0,0,1,3.3835-4.33Z" fill="#b6aeac"/><path d="M16.3223,66.2864c2.76-.6583,4.9844-2.61,7.8047-3.1668,1.7166-.3388,3.38-.8083,5.052.0878l-.0053.5329a15.3262,15.3262,0,0,0-7.6274,2.0071c-1.6218,1.2751-3.3994,2.3771-4.5906,4.1312C16.05,68.8038,16.6208,67.4685,16.3223,66.2864Z" fill="#b6aeac"/><path d="M123.683,88.9744c.9172-1.4969,2.6694-1.2495,3.9871-1.9091q.1167.3448.2345.69c2.4447-.9374,3.789,1.6363,5.8753,1.8415C130.3317,90.7253,126.9308,91.09,123.683,88.9744Z" fill="#847875"/><path d="M31.2648,83.1044c1.6034-.4874,3.5852-.1158,4.5678-2.0126,1.8988-.1118,1.3877-1.4434,1.2964-2.5623a1.4938,1.4938,0,0,0,.3611-.2656c1.76,2.778,1.5808,4.3914-.6672,6.0068C34.89,85.66,32.949,85.2528,31.2648,83.1044Z" fill="#958b89"/><path d="M63.746,12.9886A10.871,10.871,0,0,1,69.1678,5.13c1.3792-.8337,3.1181-1.3621,3.726-3.1537.9891.9638.5832,1.7449-.3372,2.4348-.8782.6583-1.7742,1.2929-2.6622,1.9383-2.12,1.3829-3.4261,3.46-4.7284,5.54C64.5282,12.0431,64.7419,13.2969,63.746,12.9886Z" fill="#150505"/><path d="M49.147,73.9969c-.0554,2.5-1.5977,3.7093-3.7867,4.3427-1.0694.3095-2.293.2271-3.0766,1.2418-.728-.5431-1.4839-1.0534-2.1757-1.6395-.5909-.5006-1.0156-1.0724.2267-1.3205.4829.3128.8651.8034,1.515.7746,1.9-.75,4.2473-.495,5.5906-2.4928l.6171-1.9367.6349-.1211Z" fill="#847875"/><path d="M108.9295,125.1192a6.3826,6.3826,0,0,0,4.9365-1.9593,5.4344,5.4344,0,0,1,1.5637,2.3018q-.9574.6546-1.916,1.3108l.0113-.0389-.54-.0118c-1.8794-1.1058-3.02-.4959-3.55,1.5294l-.4905.5277-1.5374-.0553-.515-1.4934C107.1082,126.08,108.2717,125.8435,108.9295,125.1192Z" fill="#b6aeac"/><path d="M133.3355,141.4212c-1.6246-.7992-2.71-4.5168-2.0684-7.0836q.4989-.2688.9982-.537c1.4361.0248,1.5889-1.22,2.0937-2.1161a1.8387,1.8387,0,0,1,1.0261,1.4044c-.3,1.0841-1.2389,1.5119-2.0638,2.0877-.5257.3669-1.2692.911-.7127,1.6261C133.7333,138.2477,133.1128,139.8841,133.3355,141.4212Z" fill="#c9c3c0"/><path d="M138.3846,139.93c-.5328.7051-1.316.4543-2.0145.5273-2.4657-2.5285-2.4657-2.5285-.0428-6.0933l2.0654,3.5226Q138.3886,138.9083,138.3846,139.93Z" fill="#a79e9c"/><path d="M136.3273,134.364c-2.4228,3.5648-2.4228,3.5648.0428,6.0933-.5615,1.7383-2.0156.6681-3.0349.9643-.2224-1.5376.3981-3.1739-.7265-4.6189-.5566-.7151.187-1.2592.7127-1.6261.825-.5758,1.7637-1.0036,2.0638-2.0877Q135.8559,133.725,136.3273,134.364Z" fill="#b6aeac"/><path d="M39.7774,75.7236l-.1863-.068-.006-.1972q-.1606-.4979-.32-.9961c1.0129-.0511,2.0128.91,3.0588-.212,1.0446-1.12-.6755-1.5671-.3994-2.43l5.0109.13c.1951,1.0612-.5089,1.4718-1.2966,1.878-.711.3666-1.6752.5042-1.7255,1.5995-.5169.7066-1.3159.4357-1.9962.5763Z" fill="#c9c3c0"/><path d="M120.6813,38.3221a50.6058,50.6058,0,0,1-5.757-10.6506c-.1677-.4211.2338-.54.5471-.6487A31.7162,31.7162,0,0,1,120.6813,38.3221Z" fill="#a4581a"/><path d="M113.8652,121.9469l-1.3771-.3056a4.4055,4.4055,0,0,1,1.0149-2.0259,3.6431,3.6431,0,0,0,2.33-.5117c1.2166-.8711,1.538.0407,1.7445,1.0275l-.0005.0008c-.48.2224-.5331.6427-.5093,1.0987-.5561,1.5788-1.8762,1.4408-3.1522,1.4025q-.0242-.3467-.0475-.6933l.2013-.0612Z" fill="#e8e6e5"/><path d="M44.4311,114.5372a2.591,2.591,0,0,1-.1472,3.3919c-1.0766,1.3094-2.2894.29-3.4488.15-.4348-2.4594-.1805-2.6667,2.9679-2.42.1186.0557.2361.1126.3535.17l-.1512-.3708Z" fill="#b6aeac"/><path d="M20.5547,146.5117l-1.0392-.988c-.1363-1.0281-.8374-2.0709.08-3.0715q.9779.2659,1.956.5315.0027.2538.0048.508l.0008,1.5012c.036,1.058.777,1.0537,1.5374,1.02l.0059-.01c.7834,1.0028,2.3356.59,3.0767,1.6712C24.1347,148.1007,22.527,146.4246,20.5547,146.5117Z" fill="#b6aeac"/><path d="M117.578,120.1313c-.2065-.9868-.5279-1.8987-1.7445-1.0275a3.6431,3.6431,0,0,1-2.33.5117q-.2541-1.02-.5084-2.041c1.2692-.9716,2.6643-1.5694,4.0491-.4109C117.9168,117.894,118.6465,118.9221,117.578,120.1313Z" fill="#dad6d4"/><path d="M145,136.9464c-.1821,1.18-.9217,1.52-1.9857,1.4756-1.1815-.0489-1.6087-.7012-1.5965-1.8005a1.5844,1.5844,0,0,1,1.7837-1.6821A1.8475,1.8475,0,0,1,145,136.9464Z" fill="#c9c3c0"/><path d="M113.5825,83.4663q1.9654.4006,3.931.7994c-.1206,1.1077,2.1945,1.2859,1.0642,2.7813q-.7386-.0349-1.4775-.0684c-.3728-1.2819-1.417-.7993-2.2558-.8566A3.0631,3.0631,0,0,1,113.5825,83.4663Z" fill="#c9c3c0"/><path d="M140.6757,144.4769c-.7442,1.2494-1.1274,2.8072-2.793,3.2676a11.6989,11.6989,0,0,0,.5461-1.8911c.1723-1.4394-.5073-.7857-1.0552-.3806l-.9944.0137,3.443-3.4909A4.5332,4.5332,0,0,1,140.6757,144.4769Z" fill="#847875"/><path d="M30.2035,129.18c-.634-.6436-1.4566-.3391-2.2-.4374,1.7159-2.0028,4.0153-1.7215,6.2739-1.6q-.0166.5754-.0329,1.15c-.4567.8013-2.0614.0894-2.0282,1.5375Z" fill="#a79e9c"/><path d="M139.8222,141.9956l-3.4432,3.4913c-1.193.113-2.4488-.2016-3.551.5248l-1.0225-.0553-.0116-.9337c2.5622.3171,4.1357-1.2576,5.6471-2.9512l2.4339-1.1163Z" fill="#958b89"/><path d="M34.2441,128.293l.0331-1.15q2.2567-.0992,4.5132-.1986a4.5074,4.5074,0,0,0,3.0741,1.8286l-.0069-.0112q.0205.77.0408,1.54c-1.7912-.2-3.0261-2.2881-5.1067-1.5049Q35.518,128.5445,34.2441,128.293Z" fill="#958b89"/><path d="M20.5547,146.5117c1.9724-.0871,3.58,1.589,5.6221,1.1623q.6907-.0067,1.382-.0119.4786.061.9579.1206.0743.4109.147.8248C26.2846,149.4117,21.9447,148.29,20.5547,146.5117Z" fill="#e8e6e5"/><path d="M43.5425,120.5567c.5395.0553,1.1167.0219,1.4307.6072q.2463.6664.4935,1.3332c-.13.51.1876,1.3887-.5758,1.4061-.8212.0188-1.87-.0423-2.0251-1.2781Q43.204,121.5906,43.5425,120.5567Z" fill="#b6aeac"/><path d="M39.2642,74.4628q.16.4978.321.9956c-1.2043,1.0416-1.9053-.26-2.8121-.6043.4758-.9886-1.1987-2.0164.0545-2.9907C38.3212,72.0909,38.339,73.7022,39.2642,74.4628Z" fill="#a79e9c"/><path d="M134.3591,131.6845c-.5048.8964-.6577,2.1409-2.0937,2.1161.3337-1.1851.8762-2.3683.0241-3.5616C133.31,130.2478,134.1673,130.49,134.3591,131.6845Z" fill="#dad6d4"/><path d="M19.5956,142.4522c-.9175,1.0006-.2163,2.0434-.08,3.0715-1.3629-.0933-1.4934-1.0283-1.5222-2.117s.4687-1.5165,1.4992-1.4545Q19.5442,142.2023,19.5956,142.4522Z" fill="#e8e6e5"/><path d="M19.5956,142.4522q-.0514-.25-.103-.5c.2079-.51-.1094-1.1769.4716-1.5751q.57.0256,1.14.0517a.9871.9871,0,0,0,.49.9942q.02.74.04,1.4788l-.0827.0821Z" fill="#a79e9c"/><path d="M113.5135,126.7728q.9584-.656,1.9161-1.3111c.7589.086,2.0122-1.2421,2.11.7382l-1.044.3521Z" fill="#958b89"/><path d="M34.7212,75.4738l.8747-.1027q.9466,1.4468,1.8939,2.8933a1.5126,1.5126,0,0,1-.3581.2645A5.5017,5.5017,0,0,1,34.7212,75.4738Z" fill="#a79e9c"/><path d="M28.6637,148.6075q-.0731-.4131-.147-.8248c1.27-.1672,2.5744-.6577,3.7134.4C31.1259,149.0359,29.8384,148.3483,28.6637,148.6075Z" fill="#b6aeac"/><path d="M37.4619,147.8189a2.6589,2.6589,0,0,1,1.9466.1313c-.2981,1.501-1.116,1.3491-2.1018.6628Q37.3843,148.2155,37.4619,147.8189Z" fill="#e8e6e5"/><path d="M114.7624,25.8334c-2.02.3241-1.6124-1.175-1.7189-2.2882A5.3657,5.3657,0,0,1,114.7624,25.8334Z" fill="#a4581a"/><path d="M114.8444,86.122c.8388.0573,1.883-.4253,2.2558.8566q-.5109.2916-1.0223.5859C115.3625,87.3439,115.0944,86.7407,114.8444,86.122Z" fill="#b6aeac"/><path d="M39.7774,75.7236q1.07.14,2.1389.2788-.0338.6959-.0666,1.3936c-.65.0287-1.0322-.4618-1.515-.7746C39.5322,76.6946,39.4745,76.3189,39.7774,75.7236Z" fill="#b6aeac"/><path d="M120.1311,128.7421c-1.2427.7809-1.7715.1246-2.0567-1.0218A2.8272,2.8272,0,0,1,120.1311,128.7421Z" fill="#c9c3c0"/><path d="M41.3454,147.7172a1.8638,1.8638,0,0,1,1.5106-.5775q.0221.2951.0439.5913C42.3713,148.91,41.8532,148.8955,41.3454,147.7172Z" fill="#e8e6e5"/><path d="M37.422,35.2981c.5534.9381.756,1.7628-.6669,2.0624Z" fill="#c76d20"/><path d="M138.3846,139.93q.004-1.0217.008-2.0434a1.7962,1.7962,0,0,1,1.04,1.5331Z" fill="#b6aeac"/><path d="M37.4619,147.8189q-.0776.3968-.1552.794c-.5268-.1024-1.15.1127-1.5323-.4659C36.2162,147.4169,36.8345,147.5945,37.4619,147.8189Z" fill="#b6aeac"/><path d="M116.4953,126.552l1.044-.3521.5466,1.5317q-.5157.0175-1.0314.0348Q116.7749,127.1589,116.4953,126.552Z" fill="#c9c3c0"/><path d="M132.417,66.18c-1.3229.08-1.1017-.8549-1.0876-1.6545A2.4586,2.4586,0,0,1,132.417,66.18Z" fill="#ac7e6a"/><path d="M42.9,147.731q-.0219-.2959-.0439-.5913c.49-.304.9632-.76,1.5544-.1767q.0016.3329.0035.6672Q43.657,147.6814,42.9,147.731Z" fill="#c9c3c0"/><path d="M117.0683,121.2308c-.0238-.4559.0291-.8763.5093-1.0987A1.04,1.04,0,0,1,117.0683,121.2308Z" fill="#dad6d4"/><path d="M42.7062,80.0281a.7438.7438,0,0,1,.59.6827Q43.0017,80.37,42.7062,80.0281Z" fill="#150505"/><path d="M132.8757,66.7554l-.5452-.5517C132.7169,66.185,132.8268,66.44,132.8757,66.7554Z" fill="#ac7e6a"/><path d="M115.2213,26.6352c-.37-.0913-.5557-.2924-.4116-.691Q115.0162,26.289,115.2213,26.6352Z" fill="#a4581a"/><path d="M106.7915,107.4143q-.1567-.3621-.3134-.7253Q106.6349,107.0506,106.7915,107.4143Z" fill="#c48d74"/><path d="M60.6179,37.8448a15.3863,15.3863,0,0,1-.0352-10.6984,14.7717,14.7717,0,0,1,10.2105-4.5918c1.3628,3.1886,2.7566,6.2345,2.74,9.9542-.0193,4.4062-4.5718,8.3027-8.6465,6.6416C63.5,38.585,62.2556,37.5817,60.6179,37.8448Z" fill="#fefefe"/><path d="M103.24,39.2951a6.3121,6.3121,0,0,0,.794-5.2125c-.1581-.5082-.2051-1.0524.4819-1.1939.5105-.1052.7414.2814.8545.72.4843,1.8774,1.613,3.3474.2829,5.7619-1.3995,2.5405-1.279,5.9222-1.7909,8.9418a1.2275,1.2275,0,0,0,.1941.9632c2.5618,2.2687.103,2.8005-1.2568,3.7149q-2.5268.0339-5.0538.0666c-.6586-.7427-1.1758-.5975-1.581.2517l-3.5716.4458c-2.6829-.2808-5.4.1645-8.07-.3838,2.2806-2.7946,3.0441-6.2657,4.2526-9.5379,1.8886.86,3.7023,1.9874,5.9239,1.6593,2.9758.4574,4.9137-1.3931,6.9128-3.1077,1.2007-.2724,1.2684-1.17,1.1876-2.15a.4854.4854,0,0,1,.0674-.3559l.45-.5575Z" fill="#c76d20"/><path d="M84.523,53.3708c2.67.5484,5.3875.103,8.0707.3832q.0354.4109.07.8231l-2.4335.309-4.4783.1023a.5408.5408,0,0,0-.8474.0283,26.1807,26.1807,0,0,0-5.78,1.2937c-9.8381,3.07-19.55,4.48-28.9377-1.6736-3.5628-2.3353-6.2278-1.3166-8.2924,2.4991-.421.016-.852.0521-.9959-.4924,1.588-2.7975,3.1394-5.7254,7.128-5.0077a51.1609,51.1609,0,0,1,5.0269,1.4188,1.3929,1.3929,0,0,0,1.5522.3436q.9706.12,1.9413.2389a.7635.7635,0,0,0,1.0765.12c6.5308.5342,13.069.19,19.6052.1645,1.4365.1653,2.8848.5618,4.2694-.2283Z" fill="#150505"/><path d="M60.6179,37.8448c1.6377-.2631,2.8822.74,4.2692,1.3057,4.0746,1.6611,8.6272-2.2354,8.6465-6.6416.0162-3.72-1.3776-6.7656-2.74-9.9542a1.0665,1.0665,0,0,1,.1393-.4571c3.844.193,7.4066.9705,9.5877,4.6168q.02.6983.04,1.3974-.3207.0606-.6412.1195c-1.1215-.8009-2.2942-1.0575-3.4-.0555-1.3354,1.21-1.2925,2.8629-1.0195,4.4213.2777,1.5855,1.768,1.44,2.95,1.6475A23.4267,23.4267,0,0,0,76.9667,37.12c-1.4288,4-6.6426,6.6676-10.5943,5.389-1.3442-.4349-2.7262-.7528-4.091-1.1242A5.174,5.174,0,0,1,60.6179,37.8448Z" fill="#e8e6e5"/><path d="M86.9372,41.9722a6.4809,6.4809,0,0,1-2.1023-3.034c2.6281-.1958,3.5588-1.2509,3.7778-4.1259.2873-3.7707-.7415-7.2821-2.009-10.7553a13.4485,13.4485,0,0,1,4.5418-1.4559,3.4141,3.4141,0,0,0,.5788,2.1529A18.5433,18.5433,0,0,1,94.1973,33c.4877,4.9491-1.2644,7.5166-6.1039,8.4816A6.0545,6.0545,0,0,0,86.9372,41.9722Z" fill="#e8e6e5"/><path d="M86.9372,41.9722a6.0545,6.0545,0,0,1,1.1562-.4906c4.84-.965,6.5916-3.5324,6.1039-8.4816a18.5433,18.5433,0,0,0-2.473-8.2461,3.4142,3.4142,0,0,1-.5788-2.153q1.7706.0083,3.5414.0165a17.2245,17.2245,0,0,0,3.1527,6.73,5.9067,5.9067,0,0,0,.6941,3.8324c-1.1245.0948-1.2318.8506-1.2968,1.7841-.3787,5.4468-3.1427,8.1388-8.5711,8.4249Z" fill="#dad6d4"/><path d="M86.6037,24.057c1.2674,3.4732,2.2962,6.9846,2.009,10.7553-.2191,2.875-1.15,3.93-3.7778,4.1259-1.82-3.7738-2.1733-7.8369-2.1473-11.9219.01-1.5924,1.705-2.1025,2.7946-2.95Q86.0432,24.0616,86.6037,24.057Z" fill="#fefefe"/><path d="M62.2815,41.3849c1.3647.3714,2.7468.6892,4.091,1.1242,3.9516,1.2786,9.1655-1.3895,10.5943-5.389a23.4253,23.4253,0,0,1,1.4827-2.8757l1.63-1.4609c.5545.4276.3131,1.103.5111,1.6416-.6431,8.4185-7.3291,12.9361-14.8322,10.0433A7.3867,7.3867,0,0,1,62.2815,41.3849Z" fill="#dad6d4"/><path d="M88.6659,43.3892c5.4284-.2861,8.1924-2.9781,8.5711-8.4249.0649-.9334.1722-1.6892,1.2968-1.784a3.2379,3.2379,0,0,0,2.6619,1.0049c1.0307,2.44-.2921,6.0559-2.6452,8.4084-1.1792,1.1789-3.154,1.1812-3.8511,2.8989-2.2214.3279-4.0352-.8-5.9238-1.6594A1.8912,1.8912,0,0,1,88.6659,43.3892Z" fill="#c9c3c0"/><path d="M80.5205,26.7144c-2.1811-3.6463-5.7437-4.4238-9.5887-4.6167l-2.2194-.0856c1.3412-1.61,3.1551-1.011,4.7151-.7568a26.8232,26.8232,0,0,0,4.0033.323l.2179.1212-.2173-.1215q.0172-.2678.034-.5353.4976.0064.996.0123l-.0071-.003A.9066.9066,0,0,0,79.47,21.56l.0118.0045a5.4153,5.4153,0,0,0,1.9653,3.5179A1.6524,1.6524,0,0,1,80.5205,26.7144Z" fill="#c76d20"/><path d="M53.0273,30.9373c-.9977,1.6871-2.4182,1.74-3.7973.6991-1.3746-1.0374-1.4028-2.4261-.2324-3.7246.4933-.5474.5872-1.4523,1.4663-1.6549a1.3487,1.3487,0,0,1,.1548,1.3608C49.7,30.0829,50.4974,31.1179,53.0273,30.9373Z" fill="#c48d74"/><path d="M53.0273,30.9373c-2.53.1806-3.3274-.8544-2.4087-3.32a1.3487,1.3487,0,0,0-.1548-1.3608c1.0842-.7717,1.9819-.342,2.8231.44.1646.9791-2.4712,1.8119-.1544,2.905Z" fill="#dad6d4"/><path d="M68.7124,22.0121l2.2194.0856a1.0787,1.0787,0,0,0-.1383.457,14.7715,14.7715,0,0,0-10.2108,4.5917c.4308-2.8614,2.98-3.324,5.0043-4.3069A16.2137,16.2137,0,0,1,68.7124,22.0121Z" fill="#ac7e6a"/><path d="M86.6037,24.057q-.5607.0047-1.1216.0095c.6121-1.2579,2.0823-1.507,2.93-2.49,2.0838.5081,4.3086-.5339,6.3344.5828q-.0386.2279-.06.4583l-3.5413-.0167A13.45,13.45,0,0,0,86.6037,24.057Z" fill="#b6aeac"/><path d="M94.747,22.16c-2.0262-1.1168-4.251-.0748-6.3348-.5829q1.0781-.3105,2.159-.6214c2.0981.3713,4.4758-.3735,6.1872,1.5455l-.0239.2142Z" fill="#a4581a"/><path d="M59.9106,13.6119c1.374.3327,2.5721-.3943,3.85-.639C62.661,15.4907,61.7236,15.6463,59.9106,13.6119Z" fill="#150505"/><path d="M53.1325,29.6014c-2.3168-1.0931.3191-1.9259.1544-2.905.524.0382,1.4671.0135.823.7852C53.545,28.1584,53.8717,29.109,53.1325,29.6014Z" fill="#c48d74"/><path d="M81.4468,25.0827a5.4153,5.4153,0,0,1-1.9653-3.5179C81.33,22.0708,81.692,23.4072,81.4468,25.0827Z" fill="#a4581a"/><path d="M80.59,34.4251c-.198-.5386.0434-1.214-.5112-1.6415a5.3073,5.3073,0,0,0-.16-4.5524q.3205-.0593.6412-.1195A10.9194,10.9194,0,0,1,80.59,34.4251Z" fill="#a79e9c"/><path d="M78.4614,21.0548q-.4982-.006-.996-.0123c-.5382-.3791-1.0767-.758-1.9759-1.3906A2.4937,2.4937,0,0,1,78.4614,21.0548Z" fill="#a4581a"/><path d="M81.4985,53.693c-1.3846.79-2.8329.3936-4.2694.2283q.3359-.2464.6733-.4909.5462-.0087,1.0922-.0186Z" fill="#4d2703"/><path d="M54.6061,53.3981a1.3929,1.3929,0,0,1-1.5522-.3436C53.7563,52.3333,54.2759,52.4378,54.6061,53.3981Z" fill="#c76d20"/><path d="M78.9945,53.4117q-.546.01-1.0922.0186C78.2507,52.4766,78.6144,52.4464,78.9945,53.4117Z" fill="#c76d20"/><path d="M79.47,21.56a.9066.9066,0,0,1-1.0154-.5084C78.9014,21.0044,79.29,21.0739,79.47,21.56Z" fill="#a4581a"/><path d="M57.6238,53.7567a.7635.7635,0,0,1-1.0765-.12A1.0267,1.0267,0,0,1,57.6238,53.7567Z" fill="#a4581a"/><path d="M84.6011,73.4224l-.3419-.3541c2.1882-1.434,2.0035-4.6547,4.5078-5.9048,1.08-.5391.9861-1.2369.0267-2.1392-1.1173-1.0509-3.013-1.3826-3.2558-3.2936,5.948-.2553,11.6342-1.9782,17.4263-3.1057a.8338.8338,0,0,0,.4034-.0947l.0907.0675c.1524.8132,1,1.0555,1.3807,1.6814.2627.8794.66,1.7825-.0636,2.615a30.871,30.871,0,0,0-3.83,5.475c-1.7707,3.2261-4.89,4.4337-8.6391,3.5344-.3317-.08-.7588.2387-1.1416.3722l-.5406.1238-1.1654-.3868-.7345.0843-1.64.5208Z" fill="#a4581a"/><path d="M41.8949,57.1359c2.0646-3.8157,4.73-4.8344,8.2924-2.4991,9.3876,6.1534,19.1,4.7437,28.9377,1.6736a26.166,26.166,0,0,1,5.78-1.2935q.4239-.014.8469-.0285,2.2392-.0512,4.4777-.1012a1.7734,1.7734,0,0,1-2.2665,1.7264,11.6343,11.6343,0,0,0-4.9337.6538c-1.5192.4728-3.8542.3958-4.0843,2.9033q-.4377.0676-.8764.1341a70.151,70.151,0,0,1-12.3594,1.4366,1.0364,1.0364,0,0,0-1.0183.9274l-2.9583-.0117a4.9021,4.9021,0,0,0-4.62-1.45l-1.5187-.5209c-.015-.0829-.0054-.2218-.0485-.2407-2.797-1.2307-4.9587-3.4218-7.5281-4.9723-1.5787-.9527-3.25-.1433-4.6439.8306C42.8944,56.6384,42.5333,57.1057,41.8949,57.1359Z" fill="#eb8420"/><path d="M49.147,73.9969q-.2274-.5757-.456-1.1513-.3726-.5186-.7425-1.0373L46.45,70.3739c.6869-2.016,2.1554-1.9491,3.3076-.7865a11.2875,11.2875,0,0,0,3.6875,2.3874c1.5855.7132,3.7774,1.0544,4.5041,3.306.2986.9253,1.3826.6207,2.2456.4031,1.4605-.3683,2.8918-.9762,4.4556-.7552l.1519-.0359.0181.5264.0081,1.5087c-.4143,1.6113,1.2594,1.3763,1.8533,2.0961l.1779,1.9507-.1614.5393a7.01,7.01,0,0,0-5.0489-.4728c-1.5227-1.38-2.9831-2.632-5.3544-1.6434-1.04.4336-2.0207-.5623-2.8277-1.3259Q51.31,76.0309,49.147,73.9969Z" fill="#a4581a"/><path d="M78.07,60.3058l.8755-.135a47.6317,47.6317,0,0,1,7.5706-1.62c3.0572-.5532,6.254.0739,9.1978-1.1845a19.4838,19.4838,0,0,1,6.6154-1.263c.3153.6314-.4113,1.5361.5259,2.0043l.03.0182a1.8131,1.8131,0,0,0,.08.499c-5.7923,1.1275-11.4785,2.85-17.4266,3.1056-4.0932-.1311-7.7713,1.6184-11.6271,2.5636-.9268-.26-2.3152.5576-2.6307-1.1278C73.56,62.2525,76.1721,62.127,78.07,60.3058Z" fill="#81430b"/><path d="M64.8282,76.9278q-.004-.7543-.0081-1.5086c.056-.0527.1679-.1216.1582-.1551a2.2559,2.2559,0,0,0-.1762-.3712l-.1519.0359c-.3613-2.5775.7737-3.5748,3.2366-2.8875,2.0258.5653,4.101-.0119,6.2595.9764,1.3447.6156,3.7843-.7763,5.823-.6823l.996.1418c.7606.5876,1.8026.6443,2.49,1.4126.6775.757.8406-.11,1.1457-.4674q1.2414-.4022,2.4825-.8038c-.6481,1.431-1.91,1.8992-3.3129,2.3283-2.1458.6561-4.2739.327-6.4286.2706A51.558,51.558,0,0,0,64.8282,76.9278Z" fill="#e8e6e5"/><path d="M71.28,63.1664c.3155,1.6854,1.704.8673,2.6307,1.1278a1.567,1.567,0,0,1-1.7133,1.4711c-5.6929.2789-11.2533-.1377-16.1474-3.455-.767-.52-2.1033-.339-2.3131-1.6652.6494-.6842,1.242.229,1.8568.0411l1.5188.5208a8.8807,8.8807,0,0,0,4.62,1.45q1.4792.0058,2.9587.0122C66.8772,62.9773,69.1414,62.2394,71.28,63.1664Z" fill="#a4581a"/><path d="M46.45,70.3739l1.4988,1.4345a2.19,2.19,0,0,0-.4792.1418L46.935,71.95l-5.011-.13-.0073.0033A5.3222,5.3222,0,0,0,39.88,69.8l0,.0045-.5153-.5447q-.2573-.4719-.5147-.944a4.5367,4.5367,0,0,0-2.5812-3.5484l-.84-.6308c-.1135-1.5023-1.2079-2.8062-.89-4.396,1.53.8352,1.6608,2.638,2.64,3.8775.7388.935,1.2631,1.2525,2.2161.4951,1.8873.4833,2.178,2.2913,3.0205,3.6416.7064.98.4643,2.97,2.5929,2.4344Z" fill="#81430b"/><path d="M39.3964,64.113c-.9529.7574-1.4773.44-2.2161-.4951-.9794-1.24-1.11-3.0423-2.6392-3.8777a.8621.8621,0,0,1-.3681-.026q.0388-3.5577.0776-7.115c1.4618,2.7057,1.9869,5.7772,3.38,8.5329C38.1614,62.1822,38.9022,63.068,39.3964,64.113Z" fill="#a4581a"/><path d="M45.01,70.189c-2.1285.5356-1.8865-1.4545-2.5929-2.4344C45.0771,66.6538,44.4773,69.0242,45.01,70.189Z" fill="#a4581a"/><path d="M80.9653,72.4771l-.996-.1418c.0623-.5474.2689-1.0753.9064-.8859C81.4866,71.6308,81.0048,72.12,80.9653,72.4771Z" fill="#a4581a"/><path d="M122.1477,59.2q.49.745.98,1.49c-.0081,1.15.9623,2.1291.6525,3.4774-1.8571-.144-3.0708-1.4766-4.5966-2.088-.428-2.0092-2.818-1.87-3.7036-3.3788.8658-.3575,3.0085.7172,2.2732-1.388-.5672-1.6238-1.355-3.2268-1.9263-4.8888,1.7849-1.2689,2.1754.3445,2.5805,1.3941C119.2259,55.9376,120.0975,57.9619,122.1477,59.2Z" fill="#dad6d4"/><path d="M115.8274,52.4243c.5713,1.662,1.3591,3.265,1.9263,4.8888.7353,2.1052-1.4074,1.03-2.2728,1.3876-1.528-.2841-1.7733-1.5845-2.1824-2.7551l.7548-2.3609-.0479.0441q.257-.2788.5132-.5576Z" fill="#e8e6e5"/><path d="M114.0533,53.5848q-.3774,1.18-.7546,2.3608c-.3195.7041-.5435,1.3413-1.436.3892-1.107-1.181-2.046-2.6918-3.9509-2.7672a4.4689,4.4689,0,0,0-2.4869-.5968c1.6208-.8147,3.3743.0814,5.0218-.3892C111.8079,52.3445,112.558,54.3044,114.0533,53.5848Z" fill="#4d2703"/><path d="M114.5186,53.0713q-.2564.2788-.5132.5576Q114.2616,53.35,114.5186,53.0713Z" fill="#4d2703"/><path d="M105.4249,52.9708a4.4689,4.4689,0,0,1,2.4869.5968c2.3582,3.729,6.2711,5.6291,9.6271,8.1844.2543,1.6014-.504,2.1778-2.0159,1.9916l0,0c-.0346-1.0371-.7749-1.0309-1.5151-1.0249-.9814.0465-1.9988-.214-2.92.3423l-.6672-.2453c.3665-1.34-.6774-1.9053-1.5292-2.2794-1.7558-.7712-3.6155-1.306-5.4324-1.9381l-.0908-.067q-.2414-.2019-.483-.4047l-.03-.0182q-.0826-1.0939-.1652-2.1878l.2408-1.7609,1.22-1.06Z" fill="#e8e6e5"/><path d="M101.1956,34.1851A3.2379,3.2379,0,0,1,98.5338,33.18a5.9068,5.9068,0,0,1-.6941-3.8324l1.05-1.4733a5.5032,5.5032,0,0,1,2.6579-.186,7.2829,7.2829,0,0,1,1.3848,4.5643A5.5228,5.5228,0,0,1,101.1956,34.1851Z" fill="#150505"/><path d="M101.1956,34.1851a5.5228,5.5228,0,0,0,1.7368-1.9322c.8345,2.315.3624,4.6878.3082,7.0422l.0765.0255q-.2251.2787-.45.5576a.487.487,0,0,0-.0674.357q-.5937,1.0758-1.1877,2.1494C99.6132,44.099,97.6753,45.95,94.7,45.4922c.6969-1.7174,2.6717-1.72,3.8509-2.8987C100.9035,40.241,102.2263,36.6254,101.1956,34.1851Z" fill="#a79e9c"/><path d="M104.1506,53.0989l-1.22,1.06a54.8961,54.8961,0,0,1-10.2665.4178q-.0349-.4119-.07-.8231,1.7853-.2219,3.5714-.4436a1.2281,1.2281,0,0,0,1.5808-.2532q2.527-.0331,5.0538-.0666Q103.475,53.0441,104.1506,53.0989Z" fill="#4d2703"/><path d="M101.5476,27.6885a5.5032,5.5032,0,0,0-2.658.186l-2.1552-5.16.0239-.2142q.4122.0644.8222.1288A8.1185,8.1185,0,0,1,101.5476,27.6885Z" fill="#b6aeac"/><path d="M101.3,22.5979l-.2091-.2114c.045.01.106.006.1313.034a.6862.6862,0,0,1,.086.1691Z" fill="#81430b"/><path d="M95.3273,83.0945a42.7333,42.7333,0,0,1-.2821,4.4911c-.188,1.1633-.4226,2.1045,1.0165,2.6212,1.1107.3989-.02,1.3452.336,1.967-1.456,1.8189-3.6309,1.1538-5.4822,1.6376-2.5077.6553-3.1894-.2815-2.7277-2.5888.8972-1.7747.0207-3.8184.8488-5.6039C91.2158,84.9822,92.9193,83.1606,95.3273,83.0945Z" fill="#847875"/><path d="M67.2729,97.6584c-2.122,2.5916-4.2738,5.16-6.3461,7.79-.5469.6943-1.2741,1.3813-1.17,2.4244-.8277,1.3728-.7763,2.4933.9028,3.1468a3.5271,3.5271,0,0,1-.509,2.0283c-1.17-.1705-2.0473.5274-2.9977,1.0089-1.0417-1.7163-.802-3.2309-.3617-5.2845,1.0637-4.9609,4.88-8.0425,7.0141-12.201Q65.5391,97.1149,67.2729,97.6584Z" fill="#ac7e6a"/><path d="M84.9882,90.6935a1.93,1.93,0,0,1,1.0078,2.4817c-.277,1.1784-1.17,1.0332-1.9924,1.0509-1.6891.0362-3.3834-.0291-5.0669.0812-1.3031.0853-1.6217-.5466-1.5444-1.6494q.0751-.7739.15-1.5488.2409-.1351.0873-.3462l.2983-2.6432c2.25.1316,4.2288-1.4367,6.521-1.0382C84.7636,88.2654,83.8715,89.6293,84.9882,90.6935Z" fill="#847875"/><path d="M66.2283,89.6169a4.0552,4.0552,0,0,0,.433-.0817c2.1637,1.3512,4.7341.0827,6.9523,1.0807,1.0262.2988,1.9535.6857,1.8064,2.0291-.0457,1.3-.7244,1.71-1.9841,1.5893-2.5157-.2411-5.0411-.38-7.5619-.5689-.681-.051-1.4449-.0834-1.5-.9937-.0472-.7857-.4141-1.7257.6879-2.18C65.5209,90.302,66.0379,90.1716,66.2283,89.6169Z" fill="#847875"/><path d="M84.9882,90.6935c-1.1167-1.0642-.2246-2.4282-.5389-3.612.0149-.5118-.8262-1.0789.099-1.532l3.9939-.506.4942.5752c-.828,1.7854.0486,3.8291-.8487,5.6038A2.2079,2.2079,0,0,0,84.9882,90.6935Z" fill="#4d2703"/><path d="M75.42,92.6449c.147-1.3433-.78-1.73-1.8075-2.0293a2.416,2.416,0,0,1-.1536-2.526c1.2695-1.56,2.7948-1.105,4.3328-.5491l.1364.5791q-.1492,1.3216-.297,2.6416a.3532.3532,0,0,0-.0887.3478q-.075.7747-.15,1.5488Q76.4062,92.6509,75.42,92.6449Z" fill="#4d2703"/><path d="M91.204,103.3386q-2.3649-2.4717-4.73-4.9436a5.0376,5.0376,0,0,1,2.6167-.6738,14.9078,14.9078,0,0,0,1.992,2.2243C92.6095,101.0981,92.52,102.1592,91.204,103.3386Z" fill="#ac7e6a"/><path d="M60.1505,113.0483A3.5287,3.5287,0,0,0,60.66,111.02q.3027-1.4844.6051-2.9678a20.3972,20.3972,0,0,1,6.6229.991c.7341.2183,1.7.35,1.7889,1.45a17.2973,17.2973,0,0,1-3.0752.9495,3.8323,3.8323,0,0,0-3.6837,3.1561c-.2278.9714-.503,1.9329-.79,2.889-.5883,1.9624-1.4312,3.5712-3.958,2.6555-.3489-.5168-1.1548-.7221-1.0537-1.5457.2031-1.02,2.0974-2.0656-.0447-3.0518q.0339-.5176.0674-1.0349C58.7608,115.2963,59.685,114.6445,60.1505,113.0483Z" fill="#958b89"/><path d="M48.4839,119.6c.1756-1.48-1.2072-2.5636-1.0294-4.0443,3.0551.27,6.111,1.2292,9.1645-.0093-.1637,1.015-.7108,1.9615-.5415,3.0359q-.7351.8013-1.4707,1.6022c-.3432-1.9713-1.703-1.7833-3.0263-1.3009A6.3837,6.3837,0,0,1,48.4839,119.6Z" fill="#ac7e6a"/><path d="M55.03,102.0537A3.183,3.183,0,0,1,53.106,104.22c-.7455.3554-1.5972.4807-2.3733.7815-.523.2027-.9572.3267-1.2754-.269s-.71-1.1841-.0116-1.8027c1.039-.92,2.05-1.8722,3.0956-2.784a1.0335,1.0335,0,0,1,1.391-.061A3.6147,3.6147,0,0,1,55.03,102.0537Z" fill="#b6aeac"/><path d="M56.0772,118.582c-.1692-1.0743.378-2.0208.5417-3.0358q.227-.0007.4532,0c2.1416.9861.2472,2.0313.0442,3.0517Z" fill="#a79e9c"/><path d="M60.1505,113.0483c-.4655,1.5962-1.39,2.248-3.0115,1.4625a3.5827,3.5827,0,0,1,.0133-.4539C58.1032,113.5757,58.9807,112.8778,60.1505,113.0483Z" fill="#a79e9c"/><path d="M104.403,121.677c.1765,1.3056.276,2.6437,1.4854,3.5125q.0156.6684.0314,1.3366c-.8494,2.4749-1.0209,4.8579,1.4694,6.51,1.62,1.0746,1.3391,3.1777,2.6793,4.3948.5064.46-.0115.8793-.6048.9471a2.7414,2.7414,0,0,1-2.72-.8973,2.9058,2.9058,0,0,0-2.8922-1.101,44.2408,44.2408,0,0,1-.5535-6.2312c.1008-2.0044.7847-3.9386.56-5.98-.1221-1.1073-.27-2.0255-1.6646-1.9956-1.1805.3315-.8,1.3138-.8234,2.0816-.06,2.0024-.0581,4.0067-.0809,6.01a39.22,39.22,0,0,0-6.8353.8455c-2.3367.4372-3.0377,1.1525-2.8172,3.3a21.3206,21.3206,0,0,0,.2976,2.7266c.1635.7038-.203,1.9056-1.0618,1.4988-3.0521-1.4458-2.15.7949-2.2223,2.1815l-.8015.13c-.9778.0328-1.7357-.5213-.9949-1.31,1.7421-1.8552,1.4976-4.1179,1.76-6.3017a3.44,3.44,0,0,0,.4917-2.0432c.7144-1.09.3839-2.3686.6366-3.542.3229.0313.7832.9292.7949.3336.048-2.44,2.0667-2.7107,3.5475-3.3064,1.7617-.7088,3.3356-1.1132,1.8294-3.4393a1.2883,1.2883,0,0,1-.04-1.19c1.8109-1.8011.0581-2.3627-1.0339-3.1772-.5333-.3977-1.2492-.7255-1.5214-1.2666-.9567-1.9017-2.3779-1.86-4.0363-1.2088l-.1028-1.4675c1.532-.1473,2.9522.7754,4.5007.47,2.0524,1.4625,4.5583.8042,6.81,1.4211,1.5763.4319,2.6112,1.0495,2.9086,2.68C103.8625,118.9267,103.6582,120.4188,104.403,121.677Z" fill="#b6aeac"/><path d="M100.2727,105.45c-.1432.9859.38,2.3162-.3448,3.4658-.3892.6172-.8563,1.37-1.71,1.35A1.5577,1.5577,0,0,1,96.831,108.96a14.7925,14.7925,0,0,0-2.8117-6.1323c-.1462-.1784-.3-.5508-.2148-.6876.8232-1.3276,2.1935-1.4122,3.511-1.2711,1.07.1146,2.7636-.8541,2.9428,1.2856C100.3426,103.1615,100.2727,104.1813,100.2727,105.45Z" fill="#b6aeac"/><path d="M93.6793,113.4976c-1.5485.3053-2.9687-.6173-4.5013-.47l-1.5105-.511c1.2978-2.4525,3.8635-2.0307,5.9758-2.6363Q93.6611,111.6888,93.6793,113.4976Z" fill="#958b89"/><path d="M98.2546,93.7233c.0923-.2621.2167-.4307.489-.1678Z" fill="#150505"/><path d="M96.7285,144.0175q-1.2775-.1856-2.5547-.3721c-.3753-.7457-.9639-.6195-1.5785-.387q-1.2387-.1127-2.4772-.2258a2.495,2.495,0,0,0-2.0573-.9818q-.1052-.552-.2117-1.1039.399-.0649.8-.1288c2.2147,1.0171,4.6041,1.1023,6.9712,1.3066q2.583.4431,5.1655.8889l8.0843,1.9143a30.27,30.27,0,0,1,3.0394.8348c.8.3052,2.1471-.037,2.0931,1.4958q-1.78-.3249-3.5609-.65a.7814.7814,0,0,0-1.1115-.35,12.9039,12.9039,0,0,0-4.969-.7728,1.2979,1.2979,0,0,0-.3857-.2c-.41-.8511-1.0616-.8386-1.8039-.5042q-.9782-.037-1.9559-.0749c-.4511-.8708-1.2471-.5136-1.9343-.544C97.8252,143.4564,97.3117,143.3629,96.7285,144.0175Z" fill="#847875"/><path d="M98.2815,144.1623c.6872.03,1.4833-.3268,1.9343.544a1.5155,1.5155,0,0,1-1.9613-.0184C98.2635,144.5116,98.2725,144.337,98.2815,144.1623Z" fill="#dad6d4"/><path d="M102.1717,144.7812c.7423-.3344,1.3943-.3469,1.8039.5042C103.2348,145.6182,102.59,145.606,102.1717,144.7812Z" fill="#b6aeac"/><path d="M98.2815,144.1623c-.009.1746-.018.3493-.0269.5256q-.8162-.073-1.6338-.1491c.0351-.1737.0715-.3477.1079-.5215C97.3117,143.3629,97.8252,143.4564,98.2815,144.1623Z" fill="#b6aeac"/><path d="M110.42,62.8152c.2224.0818.4448.1635.6683.243.4131,1.0027,2.0881.8481,2.0682,2.25-.6592.7795-1.249.2362-1.9787.0294-4.5709-1.2951-7.0254-.1626-7.7774,3.4545l-.1251,1.9692c-2.24.5264-2.9806,1.9323-2.41,4.1076l.0238.5036,1.04,1.9949c-1.559,2.2278-4.3655,2.7679-6.2192,4.5977q-.0147-2.0064-.0293-4.014a1.8226,1.8226,0,0,0-.2645-1.5433c-.1862-1.107-.4461-2.1634-1.7277-2.5191l-2.5235-1.6123c.3828-.1335.81-.4518,1.1416-.3722,3.75.8993,6.8684-.3083,8.6391-3.5344a30.871,30.871,0,0,1,3.83-5.475c.7236-.8325.3262-1.7355.0639-2.615Z" fill="#81430b"/><path d="M101.9285,77.3669l-1.04-1.9949c4.0072-1.1855,7.404-.3163,10.0757,2.9934l-.5081,1.59c-1.1131-1.0083-2.0642-1.9281-3.9087-1.1311C104.8693,79.5492,103.3619,78.2349,101.9285,77.3669Z" fill="#958b89"/><path d="M95.68,77.95q.0147,2.0074.0294,4.0141-.1914.5642-.3824,1.13c-2.4075.0662-4.1111,1.8878-6.29,2.5244q-.2473-.2876-.4942-.5747c.3044-1.1517-.4545-2.5825.9079-3.4583A17.8888,17.8888,0,0,0,95.68,77.95Z" fill="#958b89"/><path d="M61.6491,81.0412a7.0089,7.0089,0,0,1,5.049.473q.0916,1.5095.1832,3.0188.0029,1.5342.0058,3.0682l-.2055-.002C64.8177,85.5562,62.0675,84.1934,61.6491,81.0412Z" fill="#81430b"/><path d="M73.4591,88.0893a2.4161,2.4161,0,0,0,.1534,2.5263c-2.2171-.9977-4.7875.2708-6.9512-1.08q.01-.9683.02-1.936l.2054.0023c2.131.4185,4.258-.0573,6.3873-.0289Z" fill="#958b89"/><path d="M116.4953,126.552q.28.6071.5592,1.2145c-1.2845,2.4863-.6688,3.6113,2.1977,4.0829a2.9252,2.9252,0,0,1,.8457.4708c-.7755.9582-1.8593.9512-2.9642,1.053a2.7159,2.7159,0,0,0-2.5986,2.5986c-.22,1.7636,1.3719,1.5682,2.2406,1.6884,1.6176.2238,3.2081.9011,4.9575.6366a1.8389,1.8389,0,0,0-1.5345-.8917c-.8139-.1464-2.1033.3812-2.0545-1.1239.0519-1.6015,1.3639-1.4648,2.4421-1.4176a10.5631,10.5631,0,0,0,5.6174-1.04q-.0049,1.0329-.01,2.0658l.0191-.0331a3.5339,3.5339,0,0,0-1.0678,3.0482c-.5853.5134-.65,1.02.0211,1.5156.0666,1.9184-.8727,2.1566-2.5742,1.835-2.1691-.41-4.4145-.7693-6.5692.2282q-.511.0039-1.0221.0079-.2492-.0083-.4991-.0108c-.1373-1.2144-1.108-1.3709-2.02-1.5327-.73-.13-1.0728-.4732-.8764-1.2053.6065-2.2609.5932-4.2976-1.9751-5.2824.5281-1.2365,2.3406.6612,2.3087-1.2294-.0141-.8358.5249-1.9752-.7748-2.3715-.5988-.1826-1.16-.2757-1.2071-1.0405a1.6486,1.6486,0,0,0,1.0072-1.5764l-.0157.0129c.771.039,1.4753-.0217,1.5427-1.0332l-.0235.0189c.4712.0779.87.0059,1.0576-.5077l-.0113.0389Q115.0043,126.6625,116.4953,126.552Zm7.3088,12.1267c-.1384-.0834-.26-.2125-.3849-.2166-.13-.0042-.2636.1127-.3956.1767.1218.0774.24.21.3662.2169C123.5185,138.863,123.6544,138.7479,123.804,138.6787Z" fill="#dad6d4"/><path d="M126.2037,133.8238a10.5631,10.5631,0,0,1-5.6174,1.04c-1.0782-.0472-2.39-.1839-2.4421,1.4176-.0488,1.5052,1.2406.9775,2.0545,1.1239a1.8389,1.8389,0,0,1,1.5345.8917c-1.7494.2645-3.34-.4128-4.9575-.6366-.8687-.12-2.46.0753-2.2406-1.6884a2.7159,2.7159,0,0,1,2.5986-2.5986c1.1049-.1018,2.1887-.0948,2.9642-1.053l1.0173-.0073c.5117.7438,1.31.43,1.9939.541.3653.54.712.0686,1.0657-.02q.2507-.0074.5012-.0225.5443.0514,1.0875.1016Q125.9826,133.3673,126.2037,133.8238Z" fill="#c9c3c0"/><path d="M131.7939,145.0227q.0058.4669.0115.9342-1.5353.0344-3.07.0678c-1.0067-.9029-2.2349-.4767-3.3455-.4617a39.0823,39.0823,0,0,1-10.3649-1.0511,4.7317,4.7317,0,0,0-.0189-.4961l1.107-.1308q.7232.0334,1.4463.0665c4.3048,1.3558,8.7437.976,13.1508,1.0164Q131.2524,144.9957,131.7939,145.0227Z" fill="#a79e9c"/><path d="M126.2037,133.8238q-.2206-.4559-.44-.9107c.5475-.1234,1.2842-.5275,1.6-.3127.6036.4109-.0619,1.0566-.1955,1.5806a2.6844,2.6844,0,0,1-.9737,1.7085Q126.1988,134.8568,126.2037,133.8238Z" fill="#b6aeac"/><path d="M125.1452,138.9048a3.5339,3.5339,0,0,1,1.0678-3.0482,9.4407,9.4407,0,0,1-.5727,3.5216Z" fill="#b6aeac"/><path d="M123.1091,132.8538c-.6834-.1111-1.4821.2028-1.9939-.541C122.0151,131.6259,122.8047,131.3457,123.1091,132.8538Z" fill="#dad6d4"/><path d="M116.1129,143.8851l-1.107.1308.0186-.0267q-.012-.7486-.0239-1.4974l1.0223-.0081Q116.0677,143.1845,116.1129,143.8851Z" fill="#c9c3c0"/><path d="M125.1452,138.9048l.4951.4734q-.2372.5209-.4739,1.0425C124.4953,139.9245,124.56,139.4182,125.1452,138.9048Z" fill="#c9c3c0"/><path d="M124.676,132.8115q-.25.0152-.5012.0225C124.3255,132.463,124.4927,132.4593,124.676,132.8115Z" fill="#dad6d4"/><path d="M119.1851,62.0782c1.5248.6131,2.7385,1.9457,4.5956,2.09.31-1.3483-.6606-2.3279-.6525-3.4774A17.1244,17.1244,0,0,1,126.7,71.3642a16.1494,16.1494,0,0,1-.4565,5.1145,3.4468,3.4468,0,0,1-1.5247,2.5056c-2.434-.4728-3.3486-2.5533-4.48-4.3437-.7272-1.1508-1.2089-1.5737-2.0128-.09a3.97,3.97,0,0,1-3.7888,2.3276c.0171-2.2339,2.2336-2.9,3.3816-4.1576,2.1259-2.3285,3.14-6.7163,1.1991-9.467q-.0213-.51-.0438-1.0194A.45.45,0,0,0,119.1851,62.0782Z" fill="#a79e9c"/><path d="M126.2433,76.4787a16.1494,16.1494,0,0,0,.4565-5.1145c3.4686,1.3291,5.4426,3.7482,5.51,7.5564-.6734.5822-.3613,1.3687-.4308,2.0762L129.2653,82.03l-.1856-.0522.1123-1.4751C130.8863,77.3761,130.2185,76.4649,126.2433,76.4787Z" fill="#b6aeac"/><path d="M21.5462,65.7475A15.3265,15.3265,0,0,1,29.1736,63.74q.0159.241.0384.4815l.41,4.1277c-1.3934.2786-1.56-2.36-2.91-1.4549-1.1109.7441-.3565,2.39-.71,3.584a6.71,6.71,0,0,1-.4219.9136,6.9932,6.9932,0,0,0-2.9554.5129C22.7919,69.76,24.61,67.3263,21.5462,65.7475Z" fill="#c9c3c0"/><path d="M22.6247,71.9051a6.9932,6.9932,0,0,1,2.9554-.5129c1.0791,1.4479,3.8417,1.4015,3.5825,4.0373a1.2121,1.2121,0,0,1-.2226-.1154c-3.9115-3.1751-3.9006-3.1715-5.5443,1.4449a5.49,5.49,0,0,1-.8422,1.202C21.2409,75.9266,22.6841,73.9247,22.6247,71.9051Z" fill="#b6aeac"/><path d="M22.5254,79.9543c.2136,1.4149,1.6268,3.1175-.6353,4.0182a3.036,3.036,0,0,1-4.363-1.9821A4.3911,4.3911,0,0,0,22.5254,79.9543Z" fill="#b6aeac"/><path d="M68.9344,133.29c1.5445,6.7832-1.1536,9.4976-8.2979,8.3488,1.8058-1.3309,4.1778-.8679,6.1885-1.9826-1.8889-.8018-3.5939.2144-5.31.3644-1.6168.1414-3.2431.9808-1.892-1.991-3.18.7051-6.3322-.2357-8.83,1.6791a8.5049,8.5049,0,0,1-4.331,1.7626c1.4553-1.6288,2.8673-3.1571,2.1553-5.7453-.2349-.854,1.0261-1.8106,1.9506-2.4151a5.4516,5.4516,0,0,0,2.2508-2.6413c.3149-.8388.5-1.685-.7629-1.926q-.2864-.2484-.5723-.4967a1.04,1.04,0,0,0,1.0565-.5025,4.01,4.01,0,0,0,2.01-4.0573c.5782-1.098,1.1562-2.1959,2.0287-3.8532.9254,3.0049.248,5.5391.6493,7.9586-.1257,2.008.048,4.0458-.5915,6.0035-1.061,2.9923-.9424,3.1588,2.2257,3.1487a4.2167,4.2167,0,0,1,.4963.0745,8.5847,8.5847,0,0,0,7.79-4.4267c.3309-.7567.519-1.452-.1541-2.0633a1.8469,1.8469,0,0,0-2.0636-.37c-1.846.6455-3.2774,1.5374-3.7631,3.612-.1468.6268-.4274,1.7229-1.4143,1.4268s-.5853-1.1992-.3392-1.9067c.6343-1.8229-.725-.8627-1.33-.9556l.0317-4.5868.0078-5.5927c1.2951,1.0992,2.6436,2.1761,2.2565,4.176a1.5351,1.5351,0,0,0,.9437,1.8376,5.4382,5.4382,0,0,0,6.0718-2.0016q.2038.5287.4076,1.0573a7.8386,7.8386,0,0,0,.5938,3.5376Z" fill="#958b89"/><path d="M52.0566,128.7432c1.2628.241,1.0777,1.0872.7629,1.926a5.4516,5.4516,0,0,1-2.2508,2.6413c-.9245.6045-2.1856,1.5611-1.9506,2.4151.712,2.5882-.7,4.1165-2.1553,5.7453-1.2458.8245-2.6649,1.2443-4.0715,2.011H44.92l-.5817,1.92-5.0069.6218c-.4723-2.9753-2.7437-.9521-4.0986-1.4751l-9.6071-.0351c-.9946-.4187-2.1906-.2306-3.0629-1.0173l.0365-.0485a13.6184,13.6184,0,0,1,2.0224.0763,34.3888,34.3888,0,0,0,17.3524-1.5477c.9037-.301,2.1425-.23,2.4454-1.5451.2145-1.1506-.7324-1.5357-1.3727-2.1547-.7586-.7334-1.7574-1.3494-1.6752-2.629.1641-2.5555-1.3511-3.5394-3.5925-3.8467,1.1254-1.4277-.7231-1.6437-1.016-2.4936l.0281-.51c2.0807-.7837,3.3156,1.304,5.1068,1.5044.4362.9059,1.6095,1.42,1.9891.7985,1.265-2.0711,2.1038-.5934,3.0042.149,2.4217,1.9964,4.4064,1.2489,5.1432-1.9827Z" fill="#a79e9c"/><path d="M25.6263,144.5142q4.8035.0175,9.6074.0346-.5026,1.1863-1.0058,2.3733c-2.1942.2934-4.354-.1578-6.5282-.3024q-.5078-.1158-1.0152-.2306C26.6134,145.6051,25.5345,145.39,25.6263,144.5142Z" fill="#dad6d4"/><path d="M34.2279,146.9221q.503-1.1868,1.0058-2.3733c1.3546.5234,3.626-1.5,4.0983,1.4755A19.5965,19.5965,0,0,1,34.2279,146.9221Z" fill="#c9c3c0"/><path d="M26.6844,146.3891q.5075.1151,1.0152.2306-.0694.5209-.14,1.0416-.6923.0068-1.3828.0127c-.7408-1.08-2.2929-.6675-3.0765-1.67Q24.8922,146.1966,26.6844,146.3891Z" fill="#a79e9c"/><path d="M44.3388,145.4025l.5817-1.92a.9942.9942,0,0,1,1.5037-.321c.4859.4585-.2635.8184-.4635,1.2132A2.1129,2.1129,0,0,1,44.3388,145.4025Z" fill="#958b89"/><path d="M59.85,141.6314c-.992,1.2139-2.4283,1.1075-3.7742,1.2693C57.005,141.5,58.4351,141.5884,59.85,141.6314Z" fill="#958b89"/><path d="M34.7212,75.4738a5.5017,5.5017,0,0,0,2.41,3.055c.0886,1.12.6,2.4511-1.299,2.5629.3019-1.8355-1.1851-2.85-1.9341-4.2029-.6926-1.2507-1.9138-2.3449-1.1548-4.0119q.2856.2253.5706.4511c-.1007.9764.4436,1.4521,1.3047,1.6818Q34.6693,75.242,34.7212,75.4738Z" fill="#c9c3c0"/><path d="M29.622,68.35q-.205-2.0639-.41-4.1275a4.5267,4.5267,0,0,0,2.5419-.44q-.0079.7269-.0149,1.4547c-1.7107.6869-1.0663,1.3755-.0014,2.0644q.0088.5045.0173,1.009-.7994.2592-1.598.5186Z" fill="#b6aeac"/><path d="M30.1564,68.8289q.7988-.2593,1.598-.5186a2.9547,2.9547,0,0,1,.7918,3.2073q-.4784-.309-.9523-.6206c.292-1.1626-.2533-1.6287-1.3561-1.63A3.445,3.445,0,0,0,30.1564,68.8289Z" fill="#a79e9c"/><path d="M30.2378,69.2666c1.1029.0018,1.6481.4679,1.3561,1.63A1.4178,1.4178,0,0,1,30.2378,69.2666Z" fill="#c9c3c0"/><path d="M31.754,63.7826a4.533,4.533,0,0,1-2.5424.4394q-.0218-.2409-.0379-.4818l.0053-.5329q.7264-.0138,1.4534-.0268c1.8065.24,2.5558-.27,1.5431-2.1116a8.526,8.526,0,0,1-.48-1.3665,4.2206,4.2206,0,0,0,2.4784.0114.855.855,0,0,0,.3675.0262c-.3194,1.59.775,2.8938.888,4.3963C34.1933,64.1267,33.017,63.5051,31.754,63.7826Z" fill="#a79e9c"/><path d="M31.6953,59.7025a8.526,8.526,0,0,0,.48,1.3665c1.0127,1.8416.2633,2.352-1.5431,2.1116a3.0289,3.0289,0,0,0-1.7387-3.6994,2.433,2.433,0,0,1-1.3321-1.7167,6.3954,6.3954,0,0,1,3.12.9517q.2485.2334.4969.4677Z" fill="#b6aeac"/><path d="M84.934,5.1912a8.4667,8.4667,0,0,1,4.9351,3.6094c.831,1.3078,2.4123,1.7546,3.8929,3.4509C89.4819,10.8,86.6173,8.7466,84.934,5.1912Z" fill="#4d2703"/><path d="M48.4839,119.6a6.3837,6.3837,0,0,0,3.0966-.7163c1.3233-.4824,2.6831-.67,3.0261,1.3a5.1022,5.1022,0,0,1-1.0648,2.28,12.69,12.69,0,0,1-8.0752.0346q-.2466-.6688-.4933-1.3346C46.2818,120.9525,47.6715,120.9239,48.4839,119.6Z" fill="#847875"/><path d="M53.5418,122.4639a5.1023,5.1023,0,0,0,1.0648-2.28q.7358-.8,1.4709-1.6017.5192.0075,1.0389.0153c-.1011.8236.7048,1.0288,1.0533,1.5455q-.0231,1.0063-.0455,2.013-.0039,2.7963-.0077,5.5926l-.8865.0441c-.4024-2.42.275-4.9541-.65-7.959-.8725,1.6573-1.4505,2.7552-2.0287,3.8532C53.788,123.631,53.5478,123.144,53.5418,122.4639Z" fill="#b6aeac"/><path d="M52.5407,127.744a1.04,1.04,0,0,1-1.0565.5025C51.4863,127.3431,51.9626,127.4364,52.5407,127.744Z" fill="#a79e9c"/><path d="M115.0059,144.0158a4.7187,4.7187,0,0,1,.0188.496c-.7071,1.6385.7727,2.3114,1.6192,2.3389,2.9066.0946,5.6132,1.6555,8.5777,1.0773,2.552.0758,5.122.5343,7.6286-.3583a4.2068,4.2068,0,0,0,4.5234-2.097c.5479-.4051,1.2274-1.0589,1.0552.3806a11.6989,11.6989,0,0,1-.5461,1.8911c-4.4278,1.8473-9.0851,1.44-13.7052,1.3989-.3146-.5415-.6562-.6063-1.0326-.0591-3.054-.578-6.2347-.5222-9.1427-1.8271.0545-1.5315-1.2928-1.1893-2.0927-1.4945a30.0875,30.0875,0,0,0-3.0389-.834q.035-.9822.069-1.9659c2.1766-.5373,3.99,1.0785,6.0849,1.0265Z" fill="#958b89"/><path d="M109.33,146.2587a.7813.7813,0,0,1,1.1115.35C109.84,147.2274,109.5693,146.7928,109.33,146.2587Z" fill="#b6aeac"/><path d="M123.1449,149.0842c.3764-.5472.718-.4824,1.0326.0591C123.8091,149.5447,123.4639,149.5424,123.1449,149.0842Z" fill="#a79e9c"/><path d="M31.1785,59.1839q-.2484-.2341-.4969-.4677Q30.93,58.9505,31.1785,59.1839Z" fill="#a79e9c"/><path d="M110.9607,121.1783c-1.8848.0945-3.8285-.4982-5.6377.4843.1938-1.1883,1.151-1.3595,2.0842-1.5632A4.8872,4.8872,0,0,1,110.9607,121.1783Z" fill="#a79e9c"/><path d="M131.7939,145.0227q-.5418-.0271-1.084-.0547c1.6719-2.293,4.1478-2.7191,6.7306-2.8974C135.93,143.7651,134.3561,145.34,131.7939,145.0227Z" fill="#b6aeac"/><path d="M42.4036,128.7289c.5074.0463.996.131,1.1886.7.0148.0437-.0881.1816-.144.1865-.6094.053-.8378-.4089-1.0914-.8327Z" fill="#a79e9c"/><path d="M41.8646,128.7726c.1525-.3533.3291-.4035.5388-.0433l-.0466.0534q-.2493-.0177-.4989-.0213Z" fill="#a79e9c"/><path d="M21.9879,89.2208c.1263-.36.0866-.8542.6672-.8457a.2415.2415,0,0,1,.1676.1664c.0116.5828-.4878.5377-.8445.669Z" fill="#958b89"/><path d="M105.92,126.5261q-.0158-.6682-.0314-1.3366c1.0148.0237,1.9786-2.2088,3.041-.0695-.6577.7235-1.8212.9595-2.0375,2.11Z" fill="#958b89"/><path d="M113.8652,121.9469l.2046-.0682-.2013.0612Z" fill="#b6aeac"/><path d="M23.0862,138.92c.6845-1.8,1.3859-3.5935,2.0453-5.4024.2655-.7283.8594-.6984,1.4406-.7567.2816,1.2883-1.3544,3.0236,1.0169,3.8382,1.9166.6584,3.2749-.0835,4.5054-1.4029,1.0735-1.1511.47-2.583.6243-3.8881l.213-.2119a2.1806,2.1806,0,0,1,1.3622,1.1835c-.8726,2.2-1.5829,4.4068-.3218,6.7093.5306.9688.0817,1.5533-.782,1.9711a7.7339,7.7339,0,0,0-6.5883-2.0568A30.7826,30.7826,0,0,1,23.0862,138.92Z" fill="#e8e6e5"/><path d="M32.7188,131.3084c-.1544,1.3051.4492,2.737-.6243,3.8881-1.2305,1.3194-2.5888,2.0613-4.5054,1.4029-2.3713-.8146-.7353-2.55-1.0169-3.8382.05-.5442-.0119-1.1308.5611-1.4756.8771.0672,1.6617-.0552,2.0451-.9988a3.1135,3.1135,0,0,1,.4954-.0585C30.5222,131.0589,31.719,130.9058,32.7188,131.3084Z" fill="#fefefe"/><path d="M23.0862,138.92a30.7826,30.7826,0,0,0,3.5157-.0167,7.736,7.736,0,0,1,6.5889,2.0566q.0027.4776.0043.9555l0,.004c-1.6678.279-3.4539-.5078-5.0343.5587a8.6855,8.6855,0,0,1-4.0287-.5781c-.0833-1.1108-1.718-1.2413-1.5762-2.4943Z" fill="#fefefe"/><path d="M22.5562,139.4061c-.1418,1.253,1.4928,1.3835,1.5758,2.4949q-1.2692-.2385-2.5377-.4782a.986.986,0,0,1-.49-.9939C21.6128,140.1223,21.7656,139.3115,22.5562,139.4061Z" fill="#e8e6e5"/><path d="M32.7188,131.3084c-1-.4025-2.1966-.25-3.045-1.08q.2646-.5242.53-1.0479,1.0065.3242,2.0128.6494.3578.633.7156,1.2667Z" fill="#e8e6e5"/><path d="M29.1784,130.2868c-.3834.9436-1.1679,1.0659-2.0451.9988A1.735,1.735,0,0,1,29.1784,130.2868Z" fill="#e8e6e5"/><path d="M126.2433,76.4787c3.9752-.0139,4.643.8973,2.9492,4.0237-2.288-.5906-4.4091.2513-4.928,2.0112-.16.5438-.3043,1.2342.16,1.6664.5552.5172,1.0919-.0537,1.5561-.3192,1.0486-.6,1.6107-1.9972,3.0994-1.8833l.1856.0522c-.1748,1.2612-1.6753,1.4415-2.0622,2.53-2.4873,1.2816-4.7832,1.3854-6.66-1.0826,1.1832-1.6915,3.1572-2.6482,4.176-4.4925A3.448,3.448,0,0,0,126.2433,76.4787Z" fill="#c9c3c0"/><path d="M120.5424,83.4761c1.8774,2.4688,4.1733,2.3649,6.6606,1.0834-.1372,1.31-1.32,1.5153-2.191,1.7879-2.0768.65-4.1632,1.6768-6.4343.7,1.13-1.496-1.1848-1.6741-1.0642-2.7819q.36-.3222.7185-.6487Q119.3855,83.5457,120.5424,83.4761Z" fill="#b6aeac"/><path d="M38.8507,68.3157l.5144.9439.5154.5447,0-.0045c-.1652,1.5238.528,2.1839,2.0364,2.0234l.0073-.0033c-.276.8633,1.4442,1.31.4,2.43-1.0461,1.1217-2.0459.1609-3.0588.212-.9258-.76-.9436-2.3714-2.4372-2.5989q-.0434-.4642-.0868-.9289c.0272-.9873.0521-1.9748,1.0743-2.5408Z" fill="#dad6d4"/><path d="M37.815,68.3938c-1.0222.5659-1.0471,1.5535-1.0743,2.5408-1.5991-.71-.8855-3.3465-3.0133-3.616-.2485-1.09-1.6953-1.0348-1.9888-2.0817q.0073-.7276.0149-1.4547c1.2634-.277,2.44.3446,3.6756.3544q.4206.3151.84.6306C36.1248,66.2573,37.1863,67.2333,37.815,68.3938Z" fill="#c9c3c0"/><path d="M31.7386,65.2369c.2935,1.0469,1.74.9918,1.9888,2.0817q-.9955-.0085-1.99-.0174C30.6723,66.6124,30.0279,65.9238,31.7386,65.2369Z" fill="#a79e9c"/><path d="M34.619,75.01c-.8612-.23-1.4054-.7054-1.3047-1.6818C34.232,73.5143,34.8229,73.954,34.619,75.01Z" fill="#a79e9c"/><path d="M119.0172,63.2536c1.9416,2.75.9275,7.1381-1.1985,9.4667-1.148,1.2574-3.3645,1.9237-3.3809,4.1583-.5765.422-1.4487.5587-1.4652,1.5206q-1.0041-.016-2.0081-.033c-2.6717-3.3107-6.0685-4.18-10.0757-2.9944l-.0237-.5034c2.1575-1.653,4.4285-1.0648,6.7115-.3487,2.5773.8084,6.1733-.2736,6.162-2.1039-.0118-1.9231.6788-1.6507,1.8758-1.2948,1.1944.3551,1.6457-.0383,1.1262-1.2557-.16-.3752-.4969-.75-.4808-1.1134.115-2.586-.4712-3.266-3.1032-3.4443.02-1.4014-1.6551-1.2468-2.0682-2.25.9205-.5541,1.9379-.2936,2.9193-.34a1.5273,1.5273,0,0,0,1.5152,1.0248l0,0a1.4583,1.4583,0,0,0,1.6048,1.5C118.5348,65.29,118.3468,63.8754,119.0172,63.2536Z" fill="#c9c3c0"/><path d="M112.9726,78.3993c.0165-.962.8887-1.0987,1.4652-1.5206a3.9716,3.9716,0,0,0,3.7881-2.3283c.8039-1.4834,1.2856-1.0605,2.0128.09,1.1313,1.79,2.046,3.8709,4.48,4.3437-1.0184,1.8444-2.9924,2.801-4.1755,4.4925q-1.1571.0689-2.311.14C117.1858,81.1668,114.7945,80.07,112.9726,78.3993Z" fill="#958b89"/><path d="M41.85,77.396q.0331-.6972.0666-1.3936c.6807-.14,1.48.1311,1.9966-.5755l3.5275-.5237C46.0971,76.901,43.7494,76.6461,41.85,77.396Z" fill="#a79e9c"/><path d="M47.44,74.9032l-3.5275.5237c.05-1.0952,1.0146-1.2328,1.7256-1.5994.7877-.4062,1.4917-.8168,1.2966-1.878l.5343.0006.5881,1.0165Z" fill="#b6aeac"/><path d="M48.0574,72.9666,47.4693,71.95a2.1966,2.1966,0,0,1,.4793-.1417q.37.5185.7423,1.0372C48.4806,72.8859,48.269,72.9262,48.0574,72.9666Z" fill="#a79e9c"/><path d="M105.92,126.5261l.972.7039q.2575.7467.5149,1.4938c-.2285.6491-.891,1.44.5089,1.5555l2.041-.46c.0474.7645.6082.8576,1.207,1.04,1.3.3963.7607,1.5357.7748,2.3715.032,1.8906-1.7806-.0071-2.3087,1.2294,2.5683.9847,2.5816,3.0214,1.9751,5.2824-.1964.7321.1459,1.0758.8764,1.2053.9124.1618,1.8831.3183,2.0205,1.5326a42.327,42.327,0,0,0-4.6255-1.2522c-2.3286-.37-4.5312-2.1221-7.0437-.7451l-9.6236-1.77c.7068,1.4152,2.0891,1.0445,3.0017,1.7408a1.6349,1.6349,0,0,1-.5905,1.6721c-2.3669-.2057-4.7563-.2909-6.971-1.308.0725-1.3875-.83-3.6282,2.2226-2.1824.8588.4068,1.2253-.7949,1.0618-1.4988a21.3206,21.3206,0,0,1-.2976-2.7266c-.2205-2.1474.48-2.8627,2.8172-3.3a39.2028,39.2028,0,0,1,6.8355-.8453c.1382,1.9769-.4434,4.1535,1.5589,5.6124.05.7357.192,1.2883,1.0038.5025a2.9058,2.9058,0,0,1,2.8922,1.101,2.7414,2.7414,0,0,0,2.72.8973c.5933-.0678,1.1112-.4873.6048-.9471-1.34-1.2171-1.06-3.32-2.6793-4.3948C104.8989,131.384,105.07,129.001,105.92,126.5261Z" fill="#c9c3c0"/><path d="M109.4348,128.2511c.53-2.0253,1.6706-2.6353,3.55-1.5294l-.5175.5195.0235-.0189c-.7239.0314-1.4022.1309-1.5427,1.0332l.0157-.0129-1.4685.08Z" fill="#dad6d4"/><path d="M107.9157,130.2793c-1.4-.1157-.7374-.9065-.5089-1.5555q.7688.0271,1.5375.0549l.0183.0172Z" fill="#dad6d4"/><path d="M112.4673,127.2412l.5175-.5195.54.0118C113.3376,127.2471,112.9385,127.3191,112.4673,127.2412Z" fill="#958b89"/><path d="M108.9442,128.7788l.4905-.5277.06.0716q-.2666.2362-.5324.4733Z" fill="#dad6d4"/><path d="M44.0054,115.4588l.1512.3708c-.1175-.0569-.2349-.1138-.3535-.17C43.8676,115.5916,43.9354,115.5241,44.0054,115.4588Z" fill="#fefefe"/><path d="M26.6844,146.3891q-1.7921-.1925-3.5841-.3853l-.0058.0094a1.5737,1.5737,0,0,0-1.5373-1.02l-.0008-1.5014q.5035.0024,1.0069.0052c.8723.7867,2.0683.5986,3.0629,1.0173C25.5345,145.39,26.6134,145.6051,26.6844,146.3891Z" fill="#c9c3c0"/><path d="M21.5572,144.993a1.5737,1.5737,0,0,1,1.5373,1.02C22.3342,146.0467,21.5932,146.051,21.5572,144.993Z" fill="#a79e9c"/><path d="M22.5633,143.4968q-.5035-.0027-1.0069-.0052-.0023-.2538-.0048-.5078l.0814-.0809q.4826.2734.9672.5448Z" fill="#a79e9c"/><path d="M137.3736,145.4728A4.2068,4.2068,0,0,1,132.85,147.57q-.0114-.7791-.0217-1.5579c1.1021-.7263,2.3579-.4118,3.5509-.5248Q136.8765,145.4795,137.3736,145.4728Z" fill="#a79e9c"/><path d="M32.9318,131.0964q-.3578-.6335-.7156-1.2667c-.0332-1.4478,1.5714-.7359,2.0281-1.5372q1.2735.2524,2.5474.5044-.0141.2559-.0278.51c-.6724.3205-1.1168.8053-.851,1.5855.3018.8858,1.0875.9249,1.8667.9085,2.2414.3073,3.7567,1.2912,3.5925,3.8467-.0822,1.28.9166,1.8956,1.6752,2.629.64.619,1.5872,1.0041,1.3726,2.1548a9.726,9.726,0,0,0-1.4974.0179c-2.904.4722-5.5109.3476-6.6-3.068a10.2658,10.2658,0,0,0-2.0282-5.102A2.1824,2.1824,0,0,0,32.9318,131.0964Z" fill="#b6aeac"/><path d="M132.828,146.0117q.0106.7789.0217,1.5579c-2.5061.8928-5.076.4343-7.6284.3593-.1335-1.1191.46-1.4235,1.4665-1.4022.7076.015,1.5069.2327,2.0474-.502q1.535-.0336,3.07-.0678Q132.3168,145.9838,132.828,146.0117Z" fill="#dad6d4"/><path d="M36.3226,137.3817c1.089,3.4156,3.6959,3.54,6.6,3.068a9.726,9.726,0,0,1,1.4974-.0179c-.3029,1.3148-1.5416,1.244-2.4454,1.545a34.3888,34.3888,0,0,1-17.3524,1.5477,13.6184,13.6184,0,0,0-2.0224-.0763q-.4834-.273-.9668-.5455-.0188-.7407-.0391-1.48,1.2693.2389,2.5381.4779a8.6943,8.6943,0,0,0,4.029.5774c1.7544.5017,3.5566,1.4332,5.0343-.5587l0-.0035c1.75.3215,2.4826-.5379,2.5964-2.1855C35.8475,138.9277,35.5012,138.0171,36.3226,137.3817Z" fill="#c9c3c0"/><path d="M97.746,53.0571a1.2281,1.2281,0,0,1-1.5808.2532C96.57,52.46,97.0874,52.3145,97.746,53.0571Z" fill="#a4581a"/><path d="M101.6123,42.3844q.5939-1.0742,1.1877-2.1494C102.8807,41.214,102.813,42.1121,101.6123,42.3844Z" fill="#a4581a"/><path d="M102.8673,39.8781q.2248-.2788.45-.5576Q103.0924,39.5993,102.8673,39.8781Z" fill="#a4581a"/><path d="M92.6639,54.577a54.8954,54.8954,0,0,0,10.2665-.4179q-.12.88-.24,1.7614-.1772.098-.3611.1829a19.4838,19.4838,0,0,0-6.6154,1.263c-2.9438,1.2584-6.1406.6313-9.1978,1.1845a47.6308,47.6308,0,0,0-7.5706,1.62c.23-2.5076,2.565-2.4306,4.0842-2.9034a11.6343,11.6343,0,0,1,4.9337-.6538A1.7734,1.7734,0,0,0,90.23,54.8872Q91.4475,54.731,92.6639,54.577Z" fill="#c76d20"/><path d="M85.7521,54.9884q-.4232.0144-.8469.0285A.54.54,0,0,1,85.7521,54.9884Z" fill="#c76d20"/><path d="M79.9194,28.2312a5.3073,5.3073,0,0,1,.16,4.5524l-1.63,1.4608c-1.1816-.2078-2.6719-.0619-2.95-1.6475-.273-1.5584-.316-3.2114,1.0195-4.4213C77.6252,27.1737,78.7979,27.43,79.9194,28.2312Z" fill="#150505"/><path d="M96.7345,22.7149l2.1552,5.16-1.05,1.4733a17.2253,17.2253,0,0,1-3.1527-6.73q.0212-.23.06-.4581Z" fill="#c9c3c0"/><path d="M77.4314,21.5779l.2173.1215-.2179-.1212Z" fill="#eb8420"/><path d="M91.1643,72.2758l2.5235,1.6123c-.6279.923-1.7481.2848-2.5353.8294a24.8651,24.8651,0,0,1-13.4178,4.3849c-1.8165-.8931-3.3114-.8311-4.0841,1.3754a9.0422,9.0422,0,0,0-6.7911.4968q-.089-.9753-.1779-1.9507c1.316-.5373,2.4463-1.59,3.967-1.5529a17.3879,17.3879,0,0,0,6.22-.8626,10.6414,10.6414,0,0,1,3.5187-.0977A13.7573,13.7573,0,0,0,90.6237,72.4Z" fill="#c9c3c0"/><path d="M90.6237,72.4a13.7573,13.7573,0,0,1-10.2361,4.1112,10.6414,10.6414,0,0,0-3.5187.0977,17.3879,17.3879,0,0,1-6.22.8626c-1.5207-.0374-2.651,1.0155-3.967,1.5529-.5939-.72-2.2677-.4847-1.8534-2.0961a51.5548,51.5548,0,0,1,12.514-1.7105c2.1547.0564,4.2827.3856,6.4286-.2706,1.4031-.429,2.6648-.8972,3.3129-2.3283q.82-.2614,1.64-.5212.3671-.042.7349-.0846Z" fill="#dad6d4"/><path d="M110.42,62.8152l-5.5808-2.536c-.3809-.6259-1.2286-.8682-1.381-1.6814,1.8171.6321,3.6767,1.1669,5.4326,1.9381C109.7426,60.91,110.7865,61.4752,110.42,62.8152Z" fill="#c9c3c0"/><path d="M89.4583,72.0127q-.3676.0424-.7349.0846Q89.0912,72.0547,89.4583,72.0127Z" fill="#81430b"/><path d="M102.8846,58.126q.2416.2026.483.4047a.8394.8394,0,0,1-.4035.0942A1.8239,1.8239,0,0,1,102.8846,58.126Z" fill="#c9c3c0"/><path d="M71.28,63.1664c-2.1387-.927-4.4028-.1891-6.5886-.4971a1.0358,1.0358,0,0,1,1.0179-.928,70.151,70.151,0,0,0,12.3594-1.4366C76.1721,62.127,73.56,62.2525,71.28,63.1664Z" fill="#c76d20"/><path d="M61.7328,62.6571a8.8807,8.8807,0,0,1-4.62-1.45A4.9023,4.9023,0,0,1,61.7328,62.6571Z" fill="#c76d20"/><path d="M66.8594,80.9747a9.0424,9.0424,0,0,1,6.7913-.4968q.0825.5.1645.9993l-.4114,2.5793c-2.1442.57-4.3937-.3031-6.5226.4763l-.1833-3.0186Q66.7787,81.2442,66.8594,80.9747Z" fill="#b6aeac"/><path d="M64.802,74.8929a2.2559,2.2559,0,0,1,.1762.3712c.01.0336-.1022.1024-.1582.1551Z" fill="#dad6d4"/><path d="M102.3291,56.1035q.1837-.0852.3611-.1829.082,1.093.1648,2.1872C101.9178,57.64,102.6444,56.7349,102.3291,56.1035Z" fill="#c9c3c0"/><path d="M37.815,68.3938c-.6288-1.16-1.69-2.1365-1.5456-3.6266a4.5367,4.5367,0,0,1,2.5811,3.5484Q38.333,68.3548,37.815,68.3938Z" fill="#a79e9c"/><path d="M41.9167,71.8232c-1.5084.16-2.2016-.5-2.0364-2.0234A5.3219,5.3219,0,0,1,41.9167,71.8232Z" fill="#c9c3c0"/><path d="M39.8806,69.8043l-.5154-.5447Z" fill="#c9c3c0"/><path d="M117.5389,61.7519c-3.356-2.5552-7.2689-4.4554-9.6271-8.1844,1.9048.0754,2.8438,1.5862,3.9508,2.7671.8925.9521,1.1165.3149,1.436-.3892.4089,1.1708.6542,2.4712,2.1822,2.7552.8853,1.509,3.2753,1.37,3.7033,3.3792a.453.453,0,0,1-.2089.1539Q118.2582,61.9928,117.5389,61.7519Z" fill="#b6aeac"/><path d="M117.5389,61.7519q.7187.2409,1.4362.4818.02.51.0426,1.02c-.6709.6221-.483,2.0371-1.89,1.99a1.4583,1.4583,0,0,1-1.6048-1.5C117.0349,63.93,117.7933,63.3534,117.5389,61.7519Z" fill="#dad6d4"/><path d="M115.5228,63.7431a1.5273,1.5273,0,0,1-1.5152-1.0248C114.7479,62.7122,115.4882,62.706,115.5228,63.7431Z" fill="#dad6d4"/><path d="M58.1241,122.1559q.0226-1.0066.0455-2.013c2.5272.9158,3.37-.6929,3.9584-2.6553.2866-.9561.5618-1.9176.79-2.889a3.8323,3.8323,0,0,1,3.6837-3.1561,17.2973,17.2973,0,0,0,3.0752-.9495c-.3718,5.2815-2.4312,10.3175-2.2807,15.6749a5.438,5.438,0,0,1-6.0717,2.0015,1.5351,1.5351,0,0,1-.9437-1.8376C60.7677,124.3319,59.4192,123.255,58.1241,122.1559Z" fill="#847875"/><path d="M89.7412,127.75q-.0767-.2644-.1535-.5288c.326-2.96-.4943-5.8032-.8916-8.6894.9185-1.2406.1333-2.7282.5853-4.0365,1.6584-.651,3.08-.6929,4.0363,1.2088.2722.5411.9882.8689,1.5214,1.2666,1.0921.8145,2.8449,1.3761,1.0339,3.1772a1.2883,1.2883,0,0,0,.04,1.19c1.5063,2.326-.0677,2.7305-1.8294,3.4393-1.4808.5958-3.5.8667-3.5475,3.3064C90.5244,128.679,90.0641,127.7811,89.7412,127.75Z" fill="#a79e9c"/><path d="M89.2814,114.4952c-.4521,1.3083.3332,2.7959-.5854,4.0365a19.0568,19.0568,0,0,1-1.0286-6.0152l1.5105.511Q89.23,113.7615,89.2814,114.4952Z" fill="#847875"/><path d="M61.2648,108.0517q-.3025,1.4837-.6051,2.9678c-1.6792-.653-1.7306-1.7735-.9029-3.1463Z" fill="#c9c3c0"/><path d="M77.9282,88.12q-.0682-.29-.1361-.5782.2392-1.1986.4792-2.3994c1.9261-.1808,4.0752.3609,5.42-1.6843l.7754.5449.0812,1.5467c-.9252.4531-.0842,1.02-.099,1.532C82.1569,86.683,80.1779,88.2513,77.9282,88.12Z" fill="#958b89"/><path d="M77.5425,91.1091a.3532.3532,0,0,1,.0887-.3478C77.7322,90.9036,77.7031,91.019,77.5425,91.1091Z" fill="#81430b"/><path d="M84.5484,85.55q-.0406-.7733-.0811-1.5464.1-1.4833.1994-2.9671c1.1272-2.751,1.7707-3.0281,4.3788-1.8861l.4034,2.4363c-1.361.8752-.6021,2.3061-.9065,3.4578Q86.5453,85.2963,84.5484,85.55Z" fill="#81430b"/><path d="M78.27,85.1425q-.2387,1.2-.4778,2.399c-1.5384-.5569-3.0637-1.0122-4.3332.5481q-.0921-.2588-.1845-.5167.0649-1.7579.1294-3.5165.2057-1.29.4116-2.5789c1.3748-.5881,2.7459-.1675,4.1179.0141a2.179,2.179,0,0,0,.3209.2448l.0061.9114Z" fill="#81430b"/><path d="M103.8512,136.38c-.8118.7858-.9536.2332-1.0039-.5026-.9284-4.5342-.337-9.141-.6546-13.7043,1.3943-.03,1.5425.8883,1.6646,1.9956.2251,2.0415-.4587,3.9758-.56,5.98A44.2408,44.2408,0,0,0,103.8512,136.38Z" fill="#958b89"/><path d="M102.1927,122.173c.3176,4.5633-.2738,9.17.6546,13.7043-2.0022-1.4589-1.4205-3.6355-1.5587-5.6123.0226-2.0037.0207-4.008.0807-6.01C101.3923,123.4867,101.0122,122.5045,102.1927,122.173Z" fill="#dad6d4"/><path d="M88.0608,142.0507a2.495,2.495,0,0,1,2.0573.9818C88.9411,143.7342,88.4319,143.0371,88.0608,142.0507Z" fill="#b6aeac"/><path d="M92.5953,143.2583c.6146-.2324,1.2032-.3586,1.5785.387-.4119.4861-.98.3341-1.5022.37Z" fill="#b6aeac"/><path d="M96.2107,140.4539c-.9126-.6963-2.2948-.3256-3.0017-1.7408q4.8118.8851,9.6236,1.77c.8642.7942,2.3243.3365,3.0391,1.4453.5224.7935,1.335.4839,2.0514.54l-.0173-.0117a.9636.9636,0,0,0,1.0277.5116l.0063-.0054q-.0343.9834-.0691,1.966-4.0429-.9583-8.0847-1.9154c.5288-.9439.5987-1.7566-.711-2.0192A10.3294,10.3294,0,0,0,96.2107,140.4539Z" fill="#a79e9c"/><path d="M96.2107,140.4539a10.3294,10.3294,0,0,1,3.8643.54c1.31.2627,1.24,1.0754.711,2.0192q-2.5828-.4447-5.1656-.8886A1.6322,1.6322,0,0,0,96.2107,140.4539Z" fill="#b6aeac"/><path d="M113.1566,65.3077c2.632.1784,3.2182.8583,3.1032,3.4443-.0161.3631.3207.7382.4808,1.1134.52,1.2174.0683,1.6108-1.1262,1.2557-1.197-.3559-1.8877-.6282-1.8758,1.2948.0113,1.83-3.5847,2.9123-6.162,2.1039-2.2831-.7161-4.554-1.3043-6.7115.3487-.57-2.1755.1706-3.5813,2.41-4.1076a13.5808,13.5808,0,0,1,4.6958.5223c.5221.189,1.681.38,1.2355-.6725-.5044-1.1913-1.1842-2.8063-3.1039-2.1a5.8749,5.8749,0,0,1-2.702.2813c.7519-3.617,3.2065-4.75,7.7774-3.4545C111.9076,65.5439,112.4974,66.0872,113.1566,65.3077Z" fill="#e8e6e5"/><path d="M78.26,82.6479q-.0031-.4557-.0051-.9123a1.0839,1.0839,0,0,0-.14-1.2589l-.3808-1.3743a24.8651,24.8651,0,0,0,13.4178-4.3849c.7872-.5445,1.9075.0936,2.5353-.8294,1.2816.3556,1.5415,1.4121,1.7268,2.519A9.0585,9.0585,0,0,0,89.0455,79.15c-2.608-1.1421-3.2516-.8649-4.3795,1.8859C82.3269,80.765,80.3713,82.0148,78.26,82.6479Z" fill="#b6aeac"/><path d="M89.0455,79.15a9.0585,9.0585,0,0,1,6.3691-2.7428,1.82,1.82,0,0,1,.2654,1.5434,17.8915,17.8915,0,0,1-6.23,3.6351Q89.2464,80.3684,89.0455,79.15Z" fill="#a79e9c"/><path d="M103.4,68.7916a5.8749,5.8749,0,0,0,2.702-.2813c1.92-.7059,2.5995.909,3.1039,2.1.4455,1.0521-.7134.8615-1.2355.6725a13.5809,13.5809,0,0,0-4.6958-.5223Q103.338,69.7761,103.4,68.7916Z" fill="#a79e9c"/><path d="M73.4039,84.0565q-.0647,1.7584-.1294,3.5165c-2.1294-.0287-4.2564.4471-6.3874.0286q-.0029-1.5346-.0058-3.0686C69.01,83.7534,71.26,84.6268,73.4039,84.0565Z" fill="#a79e9c"/><path d="M105.8717,141.9283c-.7148-1.1089-2.1749-.6511-3.0391-1.4453,2.5126-1.3766,4.7151.3757,7.0438.7455a42.327,42.327,0,0,1,4.6255,1.2522q.2495.0028.4989.0109.0116.7491.0237,1.4976c-2.0948.052-3.9083-1.5638-6.0848-1.0265l-.0062.0053c-.2069-.443-.6192-.4734-1.0277-.5116l.0172.0117C107.3864,141.7288,106.5741,142.0371,105.8717,141.9283Z" fill="#b6aeac"/><path d="M108.9625,128.796q.2661-.2369.5324-.4733.7348-.04,1.4688-.08a1.6486,1.6486,0,0,1-1.0072,1.5764q-1.02.23-2.041.46Z" fill="#958b89"/><path d="M110.9481,128.2555c.1405-.9024.8188-1.0019,1.5427-1.0332C112.4233,128.2338,111.7191,128.2946,110.9481,128.2555Z" fill="#958b89"/><path d="M123.804,138.6787c-.15.0693-.2855.1844-.4143.177-.1258-.0072-.2444-.14-.3662-.2169.132-.0639.2658-.1809.3956-.1767C123.5445,138.4662,123.6657,138.5952,123.804,138.6787Z" fill="#c9c3c0"/><path d="M128.7352,146.0247c-.54.7347-1.34.517-2.0474.502-1.0064-.0213-1.6.2831-1.4665,1.4022-2.9642.5773-5.6708-.9835-8.5774-1.0781-.8465-.0276-2.3263-.7-1.6192-2.3389A39.0791,39.0791,0,0,0,125.39,145.563C126.5,145.548,127.7285,145.1218,128.7352,146.0247Z" fill="#c9c3c0"/><path d="M129.08,81.9775c-1.4886-.1138-2.0507,1.2836-3.0994,1.8833-.4643.2655-1.001.8364-1.5561.3192-.464-.4322-.32-1.1226-.16-1.6664.5189-1.76,2.64-2.6018,4.928-2.0112Q129.1355,81.24,129.08,81.9775Z" fill="#dad6d4"/><path d="M58.0846,132.3354c.6051.0929,1.9644-.8673,1.33.9556-.2461.7074-.6491,1.61.3392,1.9067s1.2675-.8,1.4143-1.4268c.4858-2.0745,1.9171-2.9665,3.7631-3.612a1.8469,1.8469,0,0,1,2.0636.37c.6732.6112.485,1.3065.1541,2.0633a8.5847,8.5847,0,0,1-7.79,4.4267,4.2167,4.2167,0,0,0-.4963-.0745c-3.1681.01-3.2867-.1565-2.226-3.1484C57.7016,133.8863,57.7109,132.93,58.0846,132.3354Z" fill="#a79e9c"/><path d="M58.0846,132.3354c-.3738.5948-.383,1.5509-1.4475,1.4606.64-1.9581.466-3.9958.5918-6.0038q.4448-.0215.8875-.0437Q58.1,130.042,58.0846,132.3354Z" fill="#c9c3c0"/><path d="M37.78,131.8013c-.7792.0163-1.5649-.0227-1.8667-.9085-.2658-.78.1786-1.265.851-1.5855C37.0565,130.1576,38.905,130.3736,37.78,131.8013Z" fill="#c9c3c0"/><path d="M36.3226,137.3817c-.8215.6354-.4752,1.5459-.5306,2.349-.1138,1.6476-.8462,2.507-2.5964,2.1855q-.0025-.4786-.0047-.9561c.8632-.4176,1.3121-1.0021.7815-1.9709-1.2611-2.3025-.5509-4.5094.3218-6.7093A10.2615,10.2615,0,0,1,36.3226,137.3817Z" fill="#dad6d4"/><path d="M33.1953,141.92c-1.4778,1.9919-3.28,1.06-5.0343.5587C29.7414,141.4119,31.5275,142.1987,33.1953,141.92Z" fill="#dad6d4"/><path d="M77.7347,79.1024q.19.6871.38,1.3743-.0913.5075-.1816,1.0149c-1.372-.1816-2.7431-.6023-4.1179-.0141q-.0825-.5-.1647-1C74.4232,78.2713,75.9181,78.2093,77.7347,79.1024Z" fill="#a4581a"/><path d="M78.26,82.6479c2.1109-.6331,4.0665-1.8829,6.4055-1.6121q-.0986,1.484-.1987,2.9673-.3878-.2729-.7755-.5452c-1.3453,2.0452-3.4944,1.5035-5.42,1.6843Q78.2644,83.8954,78.26,82.6479Z" fill="#a79e9c"/><path d="M77.9334,81.4917q.0905-.5075.1816-1.0149a1.0832,1.0832,0,0,1,.14,1.2588A2.07,2.07,0,0,1,77.9334,81.4917Z" fill="#958b89"/><path d="M105.8717,141.9283c.7025.1089,1.5147-.1995,2.0513.54C107.2067,142.4122,106.394,142.7218,105.8717,141.9283Z" fill="#958b89"/><path d="M107.9058,142.4564c.4084.0382.8207.0686,1.0277.5116A.9637.9637,0,0,1,107.9058,142.4564Z" fill="#958b89"/></svg>