<?xml version="1.0" encoding="utf-8"?>
<!-- Generator: Adobe Illustrator 21.1.0, SVG Export Plug-In . SVG Version: 6.00 Build 0)  -->
<svg version="1.1" id="图层_1" xmlns="http://www.w3.org/2000/svg" xmlns:xlink="http://www.w3.org/1999/xlink" x="0px" y="0px"
	 width="150px" height="150px" viewBox="0 0 150 150" enable-background="new 0 0 150 150" xml:space="preserve">
<path fill="#E5E5E5" d="M39.4,62.7c-0.3,0-0.6,0-0.9,0l0,0c0.5-0.3,0.9-0.5,1.1-1.1c0.2-0.5,0.6-1,1.3-1.1c0.8-0.1,1.9-1.7,1.8-2.4
	c-0.1-0.5-0.3-0.9-0.9-0.6c-0.5,0.2-1,0.2-1.5,0.2c-0.2,0-0.5,0-0.6-0.3c-0.3-1.2-0.7-0.4-0.9,0c-0.5,0.7-1,1-1.8,0.6
	c-0.6-0.3-1.2-0.3-1.9,0c-0.4,0.1-0.7,0.2-1.1,0.2c-0.4,0-1.3,1.2-1.3,1.6c0.1,0.4,0.4,0.4,0.7,0.2c0.5-0.4,1.1-0.3,1.6-0.5
	c0.3-0.1,0.5-0.1,0.7-0.4c0.5-0.7,1.3-0.3,2-0.6c0.2-0.1,0.3,0.3,0.1,0.4c-0.8,0.2-1.2,1-1.9,1.3c-0.6,0.2-1.2,0.2-1.8,0.4
	c-0.6,0.2-0.9,0.3-0.7,1c0.1,0.5-0.2,0.7-0.6,0.4c-1-0.9-2.1-0.8-3.2-0.8c-0.8,0-1.6-0.3-2.4,0.1c-0.3,0.1-0.9-0.6-1.4-1
	c-0.1-0.1-0.2-0.2-0.4-0.3c0.3-0.4,0.3-0.6-0.2-0.9c-1-0.4-1.9-0.5-2.9,0c-0.6,0.3-1.3,0.6-2,1.1c0.1-2.1-0.4-4,0.9-5.8
	c0.5-0.6,1-1.2,1.4-1.9c0.7-1.2,1.6-2,3.1-2c-0.6,1.4,0.4,2.2,1.1,3.1c0.3,0.4,0.8,0.9,1.3,0.7c0.4-0.2,0.4-0.9,0.4-1.4
	c0.1-1.2-0.5-2.2-1-3.1c-0.7-1.3-1.3-1.4-2.7-0.9c-0.5,0.2-1.1,0.2-1.6,0c-1-0.4-2-0.9-3,0.1c-0.1,0.1-0.4,0.1-0.6,0.1
	c-0.8,0-1.6-0.2-2.3-0.6c-2.6-1.5-4.2-3.7-5.4-6.3c-0.1-0.3-0.1-0.8-0.5-0.7c-0.4,0.1-0.4,0.6-0.4,0.9c-0.1,0.5,0.1,1.1-0.4,1.5
	c-0.2,0.2-0.4,0.4-0.5,0.4c-0.3,0-0.4-0.3-0.4-0.6c0-1-0.6-1.4-1.4-1.8c-0.7-0.3-1.1-2.1-0.6-2.5c1.5-1.1,2.6-2.5,3.9-3.8
	c1.9-1.8,3.6-3.7,5.5-5.6c1-1.1,1.9-2.2,3-3.2c0.8-0.7,0.9-1.1,0.7-2c-0.1-0.5,0.1-0.7,0.5-1.1c1.3-1,2.9-1.5,4.3-2.2
	c1.3-0.6,2.6-1.5,4.2-1.4c1.9,0.1,3.7-0.1,5.5-0.7c0.3-0.1,0.7-0.1,0.8,0.2c0.1,0.6,1.1,1,0.7,1.7c-0.5,0.7-0.4,1.3,0.2,1.9
	c0.4,0.4,0.2,0.7-0.3,0.7c-0.4,0-0.8-0.1-1-0.4c-0.4-0.4-0.9-0.8-1-1.5c-0.1-0.4-0.4-0.7-0.9-0.4c-0.4,0.2-0.4,0.6-0.2,0.9
	c0.2,0.3,0.4,0.6,0.6,0.8c1.1,1.5,1.5,3.3,1.7,5.1c0.2,1.4,0.2,2.7-0.3,4.1c-0.2,0.6-0.7,1.1-0.7,1.8c-0.4,0.1-0.7,0.3-1,0.6
	c-0.3,0.3-0.6,0.6-1,0.3c-0.4-0.3-0.4-0.7-0.2-1.1c0.2-0.3,0.3-0.7,0.5-1c0.1-0.2,0.3-0.5,0-0.7c-0.3-0.2-0.5,0-0.7,0.3
	C32.3,33.4,32,34,32,34.7c-0.1,0.8-0.5,1.5-0.9,2.2c-0.9,1.6-2.6,1.6-4,2.2c-0.5,0.2-1-0.3-1.3-0.7c-0.1-0.2-0.1-0.4,0-0.5
	c0.1-0.2,0.3-0.2,0.5-0.1c0.2,0.1,0.3,0.2,0.5,0c0.1-0.2-0.1-0.4-0.2-0.5c-0.7-0.5-0.3-1,0.1-1.4c0.5-0.5,0.8-0.2,1.2,0.2
	c0.6,0.7,1.1,0.7,1.7,0c0.3-0.4,0.6-0.9,0.7-1.3c0.4-1.4,0.7-2.8,1.9-3.9c0.3-0.3,0.2-0.9-0.2-1.1c-0.4-0.2-0.4,0.3-0.6,0.5
	c-0.1,0.2-0.2,0.3-0.2,0.5c-0.3,0.5-0.6,1-1.3,0.8c-0.7-0.2-0.9-0.7-0.9-1.5c0-0.8,0.6-1.4,1-2c0.5-0.8,0.2-1.3-0.5-1.9
	c-0.1,1.4-0.8,2.6-1.4,3.8c-0.4,0.9-1.1,1.3-2.1,1.4c-1.2,0.1-1.7-1.1-2.7-1.4c-0.1,0-0.1-0.8-0.1-1.3c-0.1-0.8-0.2-1.6-0.3-2.4
	c0-0.3,0.1-0.8-0.4-0.8C21.8,25.5,22,26,22,26.4c0,0.3,0.3,0.7,0,0.8c-0.9,0.3-0.6,1-0.6,1.5c0,0.3,0.2,0.9-0.3,0.9
	c-1.3,0-1.5,1.2-2.3,1.7c0.8,0.1,1.6,0.1,2.3,0.1c0.4,0,0.7,0,0.9,0.4c0.5,1.2,1,2.4,1.5,3.6c0.3,0.7,0,1.2-0.8,1.3
	c-1.3,0.2-2.6,0.5-4,0c-0.3-0.1-0.6,0-0.7,0.3c-0.2,0.3,0.1,0.6,0.4,0.7c0.6,0.3,1.2,0.5,1.9,0.2c0.5-0.2,1.1-0.3,1.6-0.5
	c0.7-0.1,1.4,0.3,1.5,0.9c0.1,0.7-0.1,1.3-0.9,1.5c-0.3,0.1-0.6,0.1-0.9,0.3c-0.3,0.2-0.6,0.4-0.4,0.8c0.2,0.4,0.5,0.2,0.8,0
	c0.8-0.6,1.7-0.7,2.6-0.8c0.5,0,1.2,0.8,1.1,1.3c-0.1,0.6-0.6,0.2-0.9,0.3c-0.7,0.1-1.4,0-1.9,0.9c0.5,0.2,0.9-0.1,1.3-0.2
	c0.4-0.1,0.7,0,0.9,0.4c0.2,0.4,0.1,0.7-0.1,0.9c-0.2,0.2-0.4,0.3-0.6,0.5c-0.2,0.2-0.4,0.5-0.2,0.7c0.2,0.2,0.6,0.1,0.8-0.1
	c0.2-0.2,0.3-0.6,0.5-0.8c0.3-0.3,0.8-0.8,1-0.5c0.4,0.6,0.8,1.4,0.4,2.1c-0.4,0.6-0.1,0.6,0.3,0.6c0.4,0,0.8-0.1,1.1-0.4
	c2.3-2.3,5.4-3,8.1-4.3c0,0,0.1,0.1,0.2,0.1c-1.3,1.6-2,3.3-1.8,5.4c1.3-1.6,1.3-3.9,2.8-5.5c0.3,0.5,0.1,0.9-0.1,1.3
	c-0.4,0.8-0.8,1.6-0.9,2.5c0,0.2-0.2,0.5,0.1,0.6c0.3,0.1,0.4-0.2,0.5-0.4c0.5-1.2,1-2.4,1.1-3.6c0.1-1.1-0.2-1.3-1.2-0.8
	c-1,0.4-2.3,0-2.8-0.9c-0.3-0.6-0.7-0.9-1.4-0.8c-0.5,0.1-1,0-1-0.6c-0.1-0.7-0.2-1.6,0.3-2c0.5-0.4,1.2-0.8,1.8-0.9
	c0.9-0.1,1-0.6,1-1.3c1.1,1.3,2.1,2.6,2.9,4.1c0.4,0.7,0.7,1.5,1.3,2.1c0.1,0.2,0.3,0.4,0.5,0.3c0.3-0.1,0.1-0.4,0.1-0.6
	c-0.2-0.7-0.7-1.3-0.7-2.1c1.1,0.9,2.1,1.5,3.2,2.1c0.9,0.5,2,0.3,2.9,0.1c0.8-0.1,0-0.7,0.1-1.1c0.2-1.9,0.1-3.8-1.7-5
	c-0.8-0.5-1.4-1.1-1.8-2c-1.5-3.1-1.9-6.3,0.2-9.3c0.2-0.3,0.4-0.6,0.2-1c-0.1-0.3-0.4-0.3-0.7-0.3c-0.5,0.1-0.4,0.5-0.5,0.8
	c-0.1,0.7-1.1,1.4-1.7,1.4c-0.4,0-0.8-0.2-0.4-0.6c0.6-0.7,0.5-1.2-0.1-1.8c-0.6-0.7,0.1-1.2,0.3-1.7c0.1-0.4,0.7-0.2,1-0.1
	c0.6,0.2,1.2,0.3,1.8,0.4c2.6,0.2,2.1,0,2-2.3c0-0.5-0.2-0.6-0.7-0.5c-2.2,0.6-4.5,0.3-6.8,0.2c-3.8-0.2-7.7-0.2-11.3,1.3
	c-1.9,0.8-4.3,1.1-5,3.6c0,0.1-0.2,0.2-0.3,0.3c-2.4,2.6-4.9,5.2-7.5,7.7c-2.6,2.6-4.9,5.4-6.4,8.7c-0.9,2-1.5,4.1-1.3,6.4
	c0.1,0.8,0.3,1.6-0.2,2.4c0-0.6-0.1-1.2-0.1-1.8c0-0.5,0-0.9-0.5-1.2c-0.3-0.2-0.3-0.6-0.3-1c0-1.5,0.1-3-0.2-4.6
	c-0.2-1.3,0.1-2.5,0.4-3.8c0.3-1.2,1.2-2,2.3-2.6c1.7-0.9,3.3-1.9,4.5-3.5c1.1-1.6,2-3.2,2.3-5.1c0.3-1.9,1.6-2.9,3.2-3.6
	c1.6-0.7,3.3-1.2,4.9-1.8c1.3-0.5,2.3-1.3,3.4-2.1c1.4-1.1,2.9-1.9,4.6-2.5c1.4-0.5,2.8-0.2,4.1,0.1c1.4,0.3,2.7,1,4.1,1.1
	c1.2,0.1,2.3,0.1,3.2-0.5c0.8-0.5,1.7-0.5,2.5-1c0.3-0.2,0.7-0.3,1,0c0.3,0.3,0.4,0.7,0.2,1.1c-0.4,0.7-0.4,1.3,0,2
	c0.1,0.3,0.1,0.6,0.1,0.9c-0.1,2.5,0,5.1,0.2,7.6c0.3,3.6,0.5,7.2,1,10.8c0.2,1.3,0,2.5,0.3,3.7c0.2,0.6-0.1,1.1-0.5,1.5
	c-0.9,1.1-1.5,2.4-1.7,3.8c-0.1,0.5,0.2,0.5,0.5,0.3c0.6-0.2,1-0.5,1.5-0.9c0.5-0.4,0.9-0.2,0.9,0.4c0,1.9,0.4,3.8,0.6,5.7
	c0,0.3,0,0.6-0.1,0.8c-0.4,1-0.8,2-1.2,3c-0.2,0.4-0.6,0.8-1,1c-0.7,0.3-1,0.8-0.9,1.5c0,0,0,0.1,0,0.1c0,0,0-0.1,0-0.1
	c2.6-1.1,4.9-2.6,6.6-4.9c0.1-0.1,0.2-0.3,0.3-0.3c2.3-1.2,4.7-1.9,7.3-1.8c0.4,0,0.7,0,0.9,0.4c-0.3,0-0.7,0-0.8,0.1
	c-0.5,0.9-1.5,0.9-2.2,1.4c-2,1.3-3.7,2.9-5.3,4.6c-0.7,0.7-1.4,1.4-1.6,2.4c-1.9,0.7-3.6,1.8-5.3,3c-0.2,0.1-0.2,0.2-0.1,0.4
	c0.5,0.6,0,1-0.4,1.4c-0.8,0.9-1.5,1.9-2.4,2.8c-0.9,0.9-1.1,2-1,3.2c-0.2,0.8,0.1,1.6,0.5,2.2c0,0.1,0.1,0.2,0.1,0.3
	c0,0.2,0,0.4,0.2,0.4c0.4,0.7,0.8,1.4,1.3,2.1c1.8,2.3,3.9,4.4,6.3,6.1c-0.5,0.9-0.8,1.9-1.1,2.8c-0.2,0.5-0.2,1,0.5,1.2
	c0.2,0,0.3,0.3,0.5,0.4c1.4,0.9,2.4,2.3,3.9,3c0.3,0.2,0.5,0.6,0.8,0.7c1.4,0.7,2.9,1,4.1,2c0.1-1.4-0.1-1.6-1.1-1.8
	c-0.1,0-0.2-0.1-0.3-0.2c-0.5-0.6-1.1-1.3-1.1-2.2c0-1.4-0.4-2.7-1.2-3.8c-0.3-0.4-0.3-0.8-0.1-1.2c0.2-0.5,0.7-1,0.6-1.6
	c-0.1-0.7,0.3-0.9,0.9-0.9c0.5-0.1,0.8,0.2,1.2,0.5c0.7,0.5,2,0.5,2.6-0.1c0.2-0.2,0.3-0.4,0.2-0.6c-0.2-0.2-0.3,0-0.5,0.1
	c-0.8,0.8-1.7,0.6-2.5,0.1c-0.3-0.1-0.5-0.3-0.8-0.4c-1.1-0.1-1.7-0.7-2.3-1.5c-0.4-0.5-0.8-1-1.5-1.2c-0.7-0.3-1.2-0.7-0.7-1.6
	c0.1-0.2,0.1-0.4,0-0.6c-0.5-1.1,0.1-2,1.3-2c0.5,0,1.1-0.1,1.6-0.2c0.6-0.2,1-0.6,1-1.1c0.1-0.5-0.5-0.8-0.9-1
	c-1.5-1.2-3.2-2.2-4.8-3.3c-0.5-0.4-1.1-0.6-1.8-0.6c0.1-0.1,0-0.2,0-0.3c1.3-0.2,2.5-0.6,3.7-1.1c0.1,0,0.1,0.1,0.2,0.1
	c0.1,0.1,0.1,0.1,0.2,0.2c0,0.3,0.1,0.6,0.5,0.4c0.1,0.1,0.1,0.1,0.2,0.2c-0.2,0.2,0.1,0.4,0.1,0.6c-0.5,0.1-0.8-0.2-1.1-0.5
	c-0.2-0.1-0.4-0.3-0.6-0.1c-0.3,0.3,0,0.4,0.2,0.6c0.9,0.6,1.8,1.2,2.6,1.9c1,0.9,1.9,1.5,3.3,0.9c0.1,0,0.1,0,0.2,0.1
	c0.3,0.5,0.7,0.8,1.3,0.8c0.7,0,1.3,0,1.9,0.4c0.4,0.3,0.7,0,1-0.3c1.3-1.5,2.6-2.9,3.8-4.4c1.4-1.8,3.5-1.5,5.4-2.1
	c0.1,0,0.1,0,0.2,0c0.4,0.1,0.8,0.3,0.8,0.7c-0.1,0.5-0.5,1-1,1.1c-0.3,0.1-1-0.2-1.1-0.4c-0.2-1.1-0.7-0.4-1-0.2
	c-0.8,0.6-1.4,1.5-2,2.3c-0.9,1.2-1.4,2.7-2.8,3.6c-0.4,0.2-0.7,0.6-1,1c-0.1,0.1-0.2,0.2-0.1,0.3c0.1,0.1,0.3,0.1,0.3,0.1
	c0.6-0.8,1.7-0.8,2.2-1.8c0.6-1.2,1.4-2.2,2.1-3.3c0.8-1.1,1.5-1.4,2.7-1.1c0,0.2-0.2,0.3-0.3,0.4c-1,0.9-2,1.8-2.6,3
	c-0.4,0.9-0.9,1.5-1.7,2c-0.7,0.4-1.3,1-1.7,1.6c-0.2,0.2-0.5,0.5-0.2,0.7c0.3,0.2,0.4-0.1,0.6-0.3c0.2-0.2,0.4-0.5,0.6-0.7
	c0.8-0.9,1.9-1.4,2.5-2.4c1-1.8,2.5-3,4-4.3c0.8-0.7,1.7-0.5,2.6-0.3c0.3,0,0.6,0.3,0.3,0.5c-0.6,0.6-0.9,1.5-1.6,1.8
	c-0.8,0.5-1.3,1.2-2.1,1.7c-0.6,0.3-1,0.8-1.3,1.5c-0.2,0.6-0.9,0.8-1.5,0.9c-0.1,0-0.3,0.1-0.4-0.1c-0.1-0.2,0.1-0.3,0.2-0.4
	c0.5-0.3,0.9-0.7,1.2-1.2c0.1-0.2,0.2-0.4,0-0.5c-0.2-0.2-0.4,0-0.6,0.2c-0.4,0.5-0.9,1-1.4,1.4c-0.8,0.7-1.4,1.5-2.1,2.3
	c-0.1,0.1-0.2,0.3,0,0.4c0.2,0.1,0.3,0,0.4-0.1c0.3-0.3,0.6-0.6,1-0.9c0.3-0.3,0.7-0.8,1.1-0.4c0.3,0.4-0.2,0.8-0.5,1.1
	c-0.1,0.1-0.2,0.2-0.3,0.2c-0.6,0.2-0.9,0.7-1.1,1.4c-0.2,0.9-0.4,1.8-1.7,1.7c-0.2,0-0.4,0.2-0.5,0.4c-0.4,0.5-0.7,0.9-1.4,0.7
	c-0.2,0-0.4,0.1-0.4,0.3c0,0.4,0.3,0.3,0.5,0.3c0.8,0,1.4-0.4,2-0.9c0.7-0.6,1.6-0.6,2.3,0c0.5,0.4,0.8,0.8-0.1,1.2
	c-0.2,0.1-0.4,0.2-0.3,0.4c0.1,0.2,0.3,0.2,0.5,0.2c2,0,2.5,0.4,2.9,2.4c0.1,0.5,0.3,0.8,0.8,1c1.2,0.5,2,1.4,2.4,2.8
	c0.5,1.9,1.3,3.7,2.6,5.3c0.4,0.5,0.8,1.2,0.5,1.9c-0.3,0.9-0.1,1.7,0.2,2.6c0.3,1.1,0.7,2.3-0.1,3.2c-0.8,1-1.2,2.1-1.2,3.4
	c0,0.6-0.3,1.1-0.9,1.2c-0.3,0.1-0.6,0.1-0.8-0.2c-0.2-0.4,0.2-0.4,0.4-0.5c0.2-0.1,0.4-0.2,0.3-0.4c-0.1-0.2-0.3-0.2-0.5-0.1
	c-0.5,0.4-1,0.1-1.5,0c0.3,0.4,0.9,0.6,0.3,1.2c-1.5-0.4-2.3-1.7-3.6-2.5c-1.5-1-2.7-2.6-4.2-3.5c-1.5-0.9-3-1.9-4.3-3.1
	c-0.7-0.8-1.4-1.6-2.4-2c-1.3-0.5-2.3-1.6-3.6-2.2c-1.3-0.5-2.3-1.7-3.4-2.6c-2-1.6-4-3.3-6-4.9c-1.6-1.3-3.5-2.5-5-3.9
	c-1.3-1.2-2.1-3-1.5-4.9c0.3-0.8,0.2-1.8,0.6-2.6c0.2-0.4,0-0.6-0.4-0.8C36,70.3,36,69.7,36.4,69c0.6-1.2,1.2-2.5,1.7-3.7
	c0.1-0.3,0.3-0.5,0.6-0.7c0.3,0.1,0.7,0.2,0.8-0.3c0.2-0.6,0.6-1.1,0.6-1.8C39.8,62.5,39.6,62.6,39.4,62.7z M64.8,86.9
	c-0.8-0.1-1.4-0.2-2-0.2c-0.6,0-1.3,0.2-1.5,0.8c-0.7,1.5-1.2,3-1.9,4.5c-0.1,0.4,0,0.7,0.2,1c0.1,0.2,0.3,0.4,0.1,0.6
	c-0.2,0.2-0.5,0.1-0.7,0c-0.1-0.1-0.2-0.3-0.5-0.1c0.2,1,1.4,0.6,1.8,1.4c0.3-0.7,0.1-1.3-0.1-1.8c-0.1-0.3-0.4-0.8,0-1
	c0.4-0.2,0.5,0.3,0.9,0.5c-0.7-1-0.7-1.9,0.1-2.7c0.7-0.7,0.5-1.9,1.5-2.4c0.3-0.1,0.5-0.1,0.8-0.1C63.9,87.2,64.3,87.2,64.8,86.9z
	 M57.1,73.9c0.2,0,0.4,0.3,0.5,0c0.1-0.2-0.1-0.4-0.2-0.5c-0.1-0.1-0.2-0.2-0.4-0.3c-0.6-0.4-1.7-0.3-1.9,0.1
	c-0.2,0.4,0.4,1.2,1.1,1.5c0.4,0.1,0.7,0.2,0.5-0.4C56.6,73.9,56.8,73.8,57.1,73.9z M35.8,37.2c-0.5,0-1,0.1-0.9,0.6
	c0.1,0.6,0.6,1.1,1.3,1.2c0.5,0.1,1,0,0.9-0.7C37,37.5,36.3,37.5,35.8,37.2z M55.3,81.1c-0.1,0.1-0.2,0.2-0.3,0.3
	c-0.6,0.8-0.6,1.9,0,2.9c0.2,0.4,0.5,0.7,0.4,1.1c0,0.2,0,0.5,0.3,0.4c0.2-0.1,0.3-0.3,0.2-0.6c-0.1-0.2-0.2-0.3-0.3-0.5
	c-0.6-1.1-1.1-2.2-0.1-3.4c0.1-0.1,0.1-0.2,0-0.3C55.5,81.1,55.4,81.1,55.3,81.1z M24.6,24.1c-1.8,1-1.9,1.4-1.1,2.8
	C23.8,26,24.2,25.2,24.6,24.1z M70.4,91.7c-0.1-1.1-0.7-2-1.6-2.7C69.4,89.8,69.3,91.1,70.4,91.7z M35,48.3c-0.7,0-1.1,0.1-1.2,0.7
	c0,0.1,0.1,0.3,0.1,0.3C34.5,49.2,34.5,48.7,35,48.3z M72.5,100.5c0.3,0,0.3-0.2,0.3-0.4c0-0.2,0.1-0.5-0.3-0.6
	c-0.2,0-0.3,0.2-0.3,0.4C72.2,100.1,72.2,100.4,72.5,100.5z M10.9,40.6c0-0.2,0.1-0.6-0.3-0.6c-0.3,0-0.4,0.3-0.4,0.5
	c0,0.3,0.1,0.6,0.4,0.6C11,41.2,10.8,40.8,10.9,40.6z"/>
<path fill="#E5E5E5" d="M134,102.5c1.5-0.2,3,0.2,4.5,0.3c1.4,0.1,2.7,0.7,4.1,0.6c0.2,0,0.4,0.1,0.5,0.3c-0.3,1.3,0,2.6-0.1,4
	c0,0.1,0,0.2,0.2,0.3c0.8,0.4,0.9,1.2,0.9,1.9c0.1,1-0.2,2-0.5,3c-0.6,1.7-1,3.4-1.5,5c-0.1,0.3-0.2,0.8-0.7,0.6
	c-0.8-0.4-0.9,0.2-1,0.7c-0.1,0.4-0.4,0.9-0.7,0.6c-0.6-0.8-1.1-0.6-1.8-0.2c-0.1,0.1-0.3-0.1-0.5-0.2c-1.1-0.2-2.2-0.4-3.3-0.6
	c1.3,1.3,2.7,2.4,3.5,4c0.2,0.4,0.4,0.1,0.4-0.1c0.1-0.3,0-0.6-0.2-0.9c-0.3-0.4-0.4-0.9-0.5-1.3c-0.1-0.5,0.2-0.9,0.6-0.6
	c0.6,0.4,1.7,0.6,1.3,1.8c0,0.1,0.1,0.3,0.1,0.5c0,0.7,0.3,1.7-0.3,2.1c-0.7,0.4-0.8,1-1,1.6c-0.6,1.4-0.9,3-1.7,4.3
	c-1.5,2.4-3.6,4.4-5.7,6.2c-0.5,0.5-1.1,0.4-1.5-0.2c-0.4-0.5-0.4-1.8-0.1-2.1c0.1-0.1,0.3-0.1,0.4-0.1c1.6,0.7,1.8-0.9,2.7-1.4
	c-0.6-0.2-1.2,0-1.7,0c-1,0.1-2,0.8-3.1,0c-0.6-0.4-1-0.9-1.1-1.6c-0.1-1,1.3-3,2.3-3.3c1-0.3,2-0.5,3-0.3c0.3,0.1,0.7,0,0.8-0.4
	c0.1-0.4-0.3-0.4-0.6-0.5c-0.6-0.2-1.3-0.2-1.9,0c-0.6,0.2-1.1,0.5-1.7,0.7c-0.5,0.1-1,0.3-1.3-0.4c-0.3-0.6-0.2-1.1,0.4-1.4
	c0.3-0.2,0.7-0.3,1-0.5c0.2-0.1,0.6-0.2,0.5-0.6c0-0.2-0.1-0.3-0.2-0.4c-0.3-0.1-0.5,0-0.8,0.2c-1.3,0.9-2.2,2.2-3.2,3.4
	c-0.2,0.2,0,0.4,0.1,0.5c0.3,0.4,0.4,0.9-0.2,1.1c-0.5,0.1-1.2,0.5-1.5-0.4c-0.1-0.2-0.1-0.4-0.4-0.3c-0.2,0-0.1,0.2-0.1,0.4
	c0,0.4-0.2,0.5-0.5,0.6c-0.3,0-0.5-0.3-0.6-0.5c-0.4-1.1,0.5-2.4,1.9-2.5c0.6,0,1-0.3,1.2-0.9c0.2-0.5,0.5-0.8,0.9-1
	c0.3-0.2,0.6-0.4,0.9-0.7c0.2-0.2,0.4-0.4,0.1-0.7c-0.2-0.2-0.4,0.1-0.5,0.3c-0.2,0.1-0.3,0.3-0.5,0.4c-0.2,0.1-0.4,0.4-0.7,0.1
	c-0.3-0.3-0.2-0.5,0-0.8c0.3-0.3,0.5-0.6,0.8-1c0.1-0.1,0.1-0.3,0-0.4c-0.2-0.1-0.3,0-0.4,0.1c-0.4,0.9-1.2,1.6-1.2,2.7
	c0,0.9-0.7,0.7-1.1,0.8c-0.5,0.1-1-0.3-0.9-0.8c0.1-0.8-0.3-1.1-0.9-1.4c-0.6-0.2-1-0.7-1.2-1.3c-0.1-0.4-0.2-0.7-0.5-1.1
	c-0.2,0.3-0.4,0.5-0.5,0.8c-0.1,0.2-0.3,0.5-0.5,0.3c-0.6-0.4-1,0-1.4,0.3c-0.4,0.3-0.8,0.7-1.2,0.6c-1.6-0.1-2.5,1.5-4,1.5
	c0.1,0.4,0.3,0.4,0.4,0.4c0.9,0.2,1.6,0.6,1.8,1.6c0.1,0.5,0.7,0.8,1.3,0.8c0.6,0,1.1,0.3,0.9,0.8c-0.2,0.6,0.1,1.7-0.8,1.8
	c-0.9,0.1-0.6,0.6-0.5,1c-1.6-2.1-3.3-4.1-3.8-6.8c0.6,0,1-0.3,1.2-0.9c0.3-1,1-2,0.8-3.2c0-0.1-0.1-0.1-0.1-0.2
	c-0.5-0.6-1-1.2-1.5-1.8c-0.1,0.1-0.2,0.2-0.3,0.2c-0.1,1-0.7,1.9-0.2,3l0,0c-0.9-0.1-0.5,0.5-0.5,0.9l-0.1,0.1
	c-1-2.2-2.2-4.4-2.7-6.8c-0.2-0.7-0.2-1.5-0.3-2.3c0-0.8-0.4-0.8-1.1-0.6c-2.4,0.9-4.4,2.5-6.4,4c-1.3,0.9-2.5,2-4.2,2.3
	c-1,0.2-1.9,0.8-3,0.9c-0.8,0.1-1.4-0.1-2-0.6c-1.8-1.7-4-2.9-6.1-4.2c-0.5-0.3-1-0.6-1.3-1.1c0.4,0,0.6-0.3,0.8-0.5
	c1.7-2,3.5-4,5.1-6c1.4-1.8,1.6-3.8,1.1-5.9c-0.1-0.5-0.4-0.9-0.6-1.3c-0.4-0.7-1.2-0.8-1.9-0.6c-0.7,0.2-0.4,0.8-0.5,1.3
	c0,0.2,0,0.5,0,0.7c-0.1,0.4-0.4,0.7-0.7,0.3c-0.7-0.7-1.4-1.3-2-2.1c-0.5-0.6-0.4-1.3-0.1-2c0.2-0.5,0.5-1,1.2-1
	c0.6,0,0.6,0.5,0.8,0.9c0.3,0.8,1,1,1.8,1c0.7,0,1.2-0.5,1.3-1.2c0.1-0.7,0.1-1.4-0.1-2.2c-0.4-1.7-1.6-2.7-2.9-3.7
	c-0.7-0.6-1.6-1-2.1-1.8c1.5-0.5,3-1,4.4-1.6c2.3-0.9,4.5-2.1,6.1-4.1c0.8-1,0.8-1.8,0.1-2.9c-0.9-1.6-2.2-2.8-3.5-4l0,0
	c-0.1-0.2-0.3-0.3-0.4-0.5c-0.2-0.1-0.3-0.3-0.5-0.4c-1.5-1.6-3.4-2.2-5.4-2.6c-0.2,0-0.4-0.1-0.5,0.1c-0.1,0.1,0,0.3,0.2,0.3
	c0.2,0.3,0.5,0.7,0.7,1c0.2,0.2,0.3,0.4,0.2,0.7c-0.2,0.3-0.5,0.2-0.8,0.1c-0.2-0.1-0.5-0.2-0.7-0.3c-1.1-0.8-2.2-1.5-3.2-2.4
	c-0.6-0.5-1.4-1.1-1.3-2.1c1,0.2,1.7,1.1,2.7,1.1c0.4-0.2,0.1-0.4,0-0.7c-0.1-0.1-0.2-0.2-0.3-0.3c-0.4-0.5-0.8-0.9-1.4-1.3
	c-1.5-1-2.9-2-4.3-3c-1.7-1.1-3.3-2.4-5.2-3.1c-2.1-1.2-4.4-2.1-6.6-3.1c-1.7-1.1-3.4-2.2-5.5-2.4c-0.1-0.3,0.1-0.4,0.3-0.5
	c0.8-0.9,2.1-0.8,3.1-1.3c0.8-0.4,1.4-0.9,1.7-1.8c0.1-0.2,0.1-0.5-0.2-0.6c-0.3-0.2-0.3,0.1-0.5,0.3c-0.6,0.9-1.5,1.5-2.6,1.6
	c-0.3,0-0.6,0.2-0.9,0.3c-1.1,0.4-1.8,1.3-2.7,1.9c-0.3,0-0.6,0-0.9,0c-0.2-0.1-0.4-0.1-0.8-0.2c0.8-0.7,1.6-1.3,2.3-1.9
	c0.4-0.3,0.8-0.5,1.3-0.4c1.4,0.2,2.1-0.8,2.9-1.7c0.3-0.3,0.5-0.6,0.2-1c0.7,0,1.3,0.5,1.9,0.9c1.6,1,3.2,2.2,4.8,3.2
	c2,1.3,4,2.6,6,4c3,2,6,4,8.7,6.3c2.3,2,4.8,3.7,7.1,5.5c2.2,1.8,4.4,3.6,6.7,5.4c2.3,1.8,4.6,3.5,6.7,5.5c1.5,1.5,3.4,2.6,5,4
	c1,0.9,2.3,1.5,3,2.7c0.9,1.4,1,2.9,0.4,4.3c-0.5,1.1-0.6,2.3-1,3.4c-1,2.8-1.9,5.6-2.8,8.4c-0.1,0.5-0.4,0.9,0.1,1.3
	c0.5,0.3,0.9,0.4,1.4-0.1c0.5-0.5,1.2-0.6,2-0.4c-0.1,0.6-0.1,1.1-0.2,1.7c-0.1,0.7,0.2,0.7,0.8,0.4c1.6-0.9,2.9-2.2,3.9-3.8
	c-0.4-0.3-0.7,0.1-1,0.2c0-0.6,0.1-1.1,0.9-0.7c0.3,0.2,0.7-0.1,1-0.2c0.5-0.1,1-0.5,1.5-0.2c-0.3,0.4-0.1,0.8,0,1.2
	c0.6,1.9,1.2,3.9,1.7,5.8c0.3,0.9,0.1,1.1-0.9,1c-0.3,0-0.6-0.1-0.9,0.2c0.7,0.4,1,1.1,1.4,1.8c0.7,1.2,0.8,1.3-0.2,2.3
	c-0.1-1.6-0.5-3-1.9-3.9c0.5,1.3,1.6,2.3,1.4,3.9c-0.4-0.3-0.5-0.7-0.5-1c-0.3-1.1-0.9-2-1.5-3c-0.1-0.2-0.3-0.6-0.6-0.4
	c-0.3,0.2,0,0.6,0.1,0.7c0.5,0.6,0.8,1.3,1.1,2c0.6,1.4,1.1,2.5,3,3c2.4,0.6,4-0.3,5.7-1.5c0.4-0.3,0.2-0.7,0-0.7
	c-1.1-0.2-1.8-0.9-2.7-1.4c-0.9-0.4-1.9-0.7-2.4-1.6c-0.1-0.2-0.4-0.6-0.2-0.8c0.3-0.3,0.6-0.1,0.8,0.2c0.2,0.2,0.6,0.3,0.6,0
	c0-0.9,0.3-0.5,0.7-0.3c0.2,0.1,0.4,0.1,0.5,0c0.5-0.6,1.2-0.6,1.8-0.7c0.6-0.1,1-0.1,0.9,0.7c0,0.2,0,0.5,0.3,0.5
	c0.3,0,0.4-0.3,0.4-0.5c0-0.2,0-0.3-0.1-0.5c-0.4-0.7-0.2-1.5-0.4-2.2c-0.2-0.5,0.2-0.9,0.6-1.3c0.8-0.6,1.3,0.2,2,0.1
	c0.3,0,0.7,0.2,0.8,0.6c0.1,0.4-0.3,0.5-0.6,0.7c-0.1,0.1-0.3,0.1-0.4,0.2c-0.3,0.2-0.5,0.5-0.3,0.8c0.1,0.3,0.4,0.3,0.7,0.4
	c1.3,0.1,1.9,0.5,2.4,1.8c0.1,0.3,0.2,0.4,0.6,0.4c0.4-0.1,0.5-0.3,0.3-0.7c-0.1-0.4-0.3-0.7-0.5-1c-0.1-0.3-0.2-0.5,0.1-0.6
	c1-0.6,2.1-0.3,2.6,0.8c0.4,0.8,0.8,1.6,1.6,2c0.2,0.1,0.5,0.3,0.7,0c0.2-0.3,0.1-0.5-0.2-0.7c-1.3-0.9-1.8-2.5-3.1-3.4
	c-0.5-0.4-0.4-0.9,0.1-1.3c0.9-0.8,1.8-0.9,2.9-0.5c1.4,0.5,2.8,1.1,4.2,2.3c-0.3-0.7-0.1-1.4-0.9-1.6c-0.8-0.2-1.2-0.8-1.5-1.5
	c-0.4-0.7-0.5-1.1,0.5-0.9c0.3,0,0.6,0,0.5-0.4c-0.1-0.5,0.3-1.1-0.1-1.5c-0.2-0.3-0.6,0.2-0.8,0.4c-1.1,1-2.2,1.2-3.5,0.6
	c-0.7-0.3-1.3-0.8-2-1.1C133.8,103.6,133.7,103.2,134,102.5z M102.4,88.4c0.1,0.1,0.3,0.2,0.4,0.3c-0.2,0-0.5,0.1-0.7-0.1
	c-0.6-0.6-0.8,0.1-1,0.4c-0.4,0.5,0.2,0.5,0.4,0.7c0.2,0.3,0.6,0.1,0.9,0.2c0,0.7,0.7,0.8,1,1.2c0.1,0.1,0.6-0.1,0.9-0.3
	c0.2-0.2,0-0.4-0.1-0.6c-0.5-0.9-1.1-0.2-1.7-0.2c0.2-0.4,0.4-0.8,0.5-1.1c0.2,0,0.4,0,0.6,0.1c0.4,0.2,0.7,0.5,1.1,0.7
	c0.3,0.2,0.7,0.4,0.9,0c0.3-0.4,0.2-0.8-0.2-1.1c-0.3-0.3-0.4-0.6-0.7-0.9c-0.5-0.8-1.3-1.3-2.1-1.7c-0.3-0.2-0.7-0.2-1,0.3
	c1.1,0.4,1.8,1.3,2.5,2.2c-0.4,0.2-0.7-0.3-1.1,0c-0.5-0.4-0.9-1-1.7-0.9C101.6,87.8,102.1,88,102.4,88.4L102.4,88.4L102.4,88.4z
	 M118.9,119.8c-0.5,0.1-1,0.2-1.4,0.4c-0.3,0.1-0.9-0.1-0.7,0.5c0.1,0.3,0.5,0.7,1,0.5c0.5-0.2,0.9-0.5,1.3-0.7
	c0.7-0.3,0.6-0.7,0.1-1.1c-0.8-0.7-1.8-1.2-3-1.1c-0.5,0.1-1.5-0.1-1.5,0.4c0,0.9,0.9,0.5,1.5,0.6
	C117.2,119.4,118.1,119,118.9,119.8z M130.9,112.2c-0.3-0.3-0.5-0.7-1-0.9c-0.1,0-0.3,0.1-0.2,0.2c0.2,0.3,0.3,0.8,0.8,0.9
	C130.7,112.4,130.8,112.4,130.9,112.2z M121.8,121.3c0.6,0.5,1,0.2,1.3-0.1c0.1-0.1,0.1-0.2-0.1-0.3
	C122.5,120.6,122.2,121,121.8,121.3z M99.4,87.7c0.5,0.3,0.9,0.3,1.5,0C100.4,87.3,99.9,87.5,99.4,87.7z"/>
<path fill="#306BC7" d="M35,34.5c0-0.7,0.5-1.2,0.7-1.8c0.5-1.3,0.5-2.7,0.3-4.1c-0.3-1.8-0.6-3.6-1.7-5.1c-0.2-0.3-0.4-0.6-0.6-0.8
	c-0.2-0.3-0.2-0.7,0.2-0.9c0.4-0.2,0.8,0,0.9,0.4c0.1,0.7,0.6,1,1,1.5c0.3,0.3,0.7,0.4,1,0.4c0.5,0,0.7-0.3,0.3-0.7
	c-0.6-0.6-0.6-1.2-0.2-1.9c0.5-0.8-0.5-1.1-0.7-1.7c-0.1-0.3-0.5-0.2-0.8-0.2c-1.8,0.6-3.6,0.7-5.5,0.7c-1.6-0.1-2.9,0.8-4.2,1.4
	c-1.5,0.7-3,1.2-4.3,2.2c-0.4,0.4-0.7,0.6-0.5,1.1c0.2,0.8,0.1,1.3-0.7,2c-1.1,0.9-2,2.1-3,3.2c-1.8,1.9-3.6,3.8-5.5,5.6
	c-1.3,1.3-2.5,2.7-3.9,3.8c-0.5,0.4-0.1,2.2,0.6,2.5c0.8,0.4,1.4,0.8,1.4,1.8c0,0.3,0.1,0.6,0.4,0.6c0.2,0,0.4-0.2,0.5-0.4
	c0.4-0.4,0.3-1,0.4-1.5c0-0.3,0-0.8,0.4-0.9c0.4-0.1,0.4,0.4,0.5,0.7c1.2,2.6,2.9,4.9,5.4,6.3c0.7,0.4,1.5,0.6,2.3,0.6
	c0.2,0,0.5,0,0.6-0.1c1-1,2-0.5,3-0.1c0.5,0.2,1.1,0.2,1.6,0c1.4-0.5,2-0.4,2.7,0.9c0.5,0.9,1.1,1.9,1,3.1c-0.1,0.5,0,1.2-0.4,1.4
	c-0.5,0.2-0.9-0.3-1.3-0.7c-0.8-0.8-1.7-1.7-1.1-3.1c-1.5,0-2.4,0.8-3.1,2c-0.4,0.7-0.9,1.2-1.4,1.9c-1.4,1.8-0.9,3.7-0.9,5.8
	c0.7-0.6,1.4-0.8,2-1.1c0.9-0.5,1.9-0.4,2.9,0c0.5,0.2,0.5,0.5,0.2,0.9c-0.5,0.5-1,1-1.6,1.4c-1.9,0.8-3.4,0.3-4.3-1.5
	c-0.4-0.8-0.9-1.5-1.6-2c-1.2-0.8-2-2-2.7-3.3c-0.7-1.3-1.5-2.6-2.6-3.6c-1.5-1.4-2.9-3-4.9-3.8c-0.2-0.1-0.3-0.2-0.4-0.4
	c-0.2-0.3-0.4-0.7-0.1-1c0.3-0.3,0.5,0.2,0.7,0.3c0.6,0.4,1.1,0.1,1.3-0.4c0.3-0.6-0.3-0.6-0.6-0.7C8.2,44.9,8,44.5,7.9,44
	c-0.1-0.7-0.5-1-1.1-1.3c-0.3-0.2-0.5-0.1-0.5,0.2c0,0.9-0.2,1.8-0.1,2.7c0.1,1.5,0.4,3,0,4.5c-0.8-0.6-1.3-1.4-1.8-2.1
	c0.5-0.8,0.2-1.6,0.2-2.4c-0.2-2.3,0.3-4.4,1.3-6.4c1.6-3.3,3.8-6.1,6.4-8.7c2.6-2.5,5.1-5.1,7.5-7.7c0.1-0.1,0.2-0.2,0.3-0.3
	c0.8-2.5,3.1-2.8,5-3.6c3.6-1.4,7.5-1.5,11.3-1.3c2.3,0.1,4.5,0.3,6.8-0.2c0.4-0.1,0.7,0,0.7,0.5c0.1,2.3,0.6,2.5-2,2.3
	c-0.6,0-1.2-0.2-1.8-0.4c-0.4-0.1-0.9-0.4-1,0.1c-0.2,0.5-0.9,1.1-0.3,1.7c0.5,0.6,0.7,1.2,0.1,1.8c-0.4,0.4,0,0.6,0.4,0.6
	c0.7,0,1.6-0.8,1.7-1.4c0.1-0.3,0-0.7,0.5-0.8c0.3,0,0.5,0,0.7,0.3c0.2,0.4,0,0.7-0.2,1c-2,3.1-1.6,6.2-0.2,9.3c0.4,0.8,1,1.4,1.8,2
	c1.8,1.2,1.9,3.1,1.7,5c0,0.4,0.7,0.9-0.1,1.1c-0.9,0.2-2,0.4-2.9-0.1c-1.1-0.6-2.1-1.2-3.2-2.1c0,0.9,0.5,1.5,0.7,2.1
	c0.1,0.2,0.2,0.5-0.1,0.6c-0.3,0.1-0.4-0.1-0.5-0.3c-0.5-0.7-0.9-1.4-1.3-2.1C37.1,37.1,36.2,35.7,35,34.5L35,34.5z M21.7,61.1
	c1.1-0.2,2.2-0.6,3.1-1.3c0.1-0.1,0.2-0.2,0.1-0.4c-0.1-0.1-0.2-0.2-0.3-0.2c-1.1,0.3-2.3,0.6-3.3,1.2c-0.2,0.1-0.4,0.3-0.3,0.5
	C21.1,61.2,21.4,61.1,21.7,61.1z M26.6,49.7c-0.3,1.4,0,2.5,0.7,3.7c0.2,0.3,0.4,0.5,0.7,0.3c0.3-0.1,0.2-0.4,0.1-0.7
	c-0.1-0.4-0.2-0.9-0.5-1.2C27.2,51.1,27.4,50.2,26.6,49.7z"/>
<path fill="#306BC7" d="M115.1,130.8c-0.1-0.5-0.5-0.9,0.5-1c0.9-0.1,0.6-1.2,0.8-1.8c0.2-0.5-0.3-0.8-0.9-0.8
	c-0.6,0-1.1-0.3-1.3-0.8c-0.3-1-1-1.3-1.8-1.6c-0.1,0-0.3,0-0.4-0.4c1.5,0,2.3-1.6,4-1.5c0.4,0,0.8-0.4,1.2-0.6
	c0.5-0.3,0.8-0.7,1.4-0.3c0.2,0.2,0.4-0.1,0.5-0.3c0.2-0.3,0.3-0.5,0.5-0.8c0.3,0.3,0.4,0.7,0.5,1.1c0.2,0.6,0.5,1.1,1.2,1.3
	c0.6,0.2,1,0.6,0.9,1.4c-0.1,0.6,0.4,1,0.9,0.8c0.4-0.1,1.1,0.1,1.1-0.8c0-1,0.7-1.8,1.2-2.7c0.1-0.1,0.2-0.3,0.4-0.1
	c0.2,0.1,0.1,0.3,0,0.4c-0.2,0.3-0.5,0.6-0.8,1c-0.2,0.2-0.3,0.5,0,0.8c0.3,0.3,0.5,0,0.7-0.1c0.2-0.1,0.4-0.3,0.5-0.4
	c0.2-0.1,0.3-0.4,0.5-0.3c0.3,0.2,0.1,0.5-0.1,0.7c-0.3,0.3-0.6,0.5-0.9,0.7c-0.4,0.3-0.8,0.5-0.9,1c-0.2,0.5-0.6,0.8-1.2,0.9
	c-1.4,0.1-2.3,1.3-1.9,2.5c0.1,0.3,0.2,0.6,0.6,0.5c0.3,0,0.5-0.2,0.5-0.6c0-0.2-0.1-0.4,0.1-0.4c0.2-0.1,0.3,0.2,0.4,0.3
	c0.3,0.9,1,0.5,1.5,0.4c0.6-0.2,0.5-0.6,0.2-1.1c-0.1-0.2-0.2-0.3-0.1-0.5c1-1.2,1.9-2.5,3.2-3.4c0.3-0.2,0.5-0.3,0.8-0.2
	c0.2,0,0.2,0.2,0.2,0.4c0,0.4-0.3,0.5-0.5,0.6c-0.3,0.2-0.7,0.4-1,0.5c-0.6,0.3-0.7,0.8-0.4,1.4c0.3,0.7,0.8,0.5,1.3,0.4
	c0.6-0.2,1.1-0.5,1.7-0.7c0.6-0.2,1.3-0.2,1.9,0c0.3,0.1,0.6,0.1,0.6,0.5c-0.1,0.4-0.4,0.4-0.8,0.4c-1-0.2-2-0.1-3,0.3
	c-0.9,0.3-2.4,2.3-2.3,3.3c0.1,0.7,0.5,1.2,1.1,1.6c1.1,0.7,2.1,0.1,3.1,0c0.6-0.1,1.1-0.2,1.7,0c-0.9,0.5-1.2,2.1-2.7,1.4
	c-0.1-0.1-0.3,0-0.4,0.1c-0.4,0.3-0.3,1.6,0.1,2.1c0.4,0.6,1,0.6,1.5,0.2c2.2-1.8,4.2-3.8,5.7-6.2c0.8-1.3,1.2-2.9,1.7-4.3
	c0.2-0.6,0.3-1.2,1-1.6c0.6-0.3,0.3-1.3,0.3-2.1c0-0.2-0.2-0.3-0.1-0.5c0.4-1.2-0.7-1.4-1.3-1.8c-0.5-0.3-0.7,0.1-0.6,0.6
	c0.1,0.5,0.2,0.9,0.5,1.3c0.2,0.3,0.3,0.6,0.2,0.9c-0.1,0.2-0.2,0.5-0.4,0.1c-0.8-1.6-2.2-2.7-3.5-4c1.1,0.2,2.2,0.4,3.3,0.6
	c0.2,0,0.4,0.2,0.5,0.2c0.7-0.4,1.2-0.6,1.8,0.2c0.3,0.4,0.6-0.2,0.7-0.6c0.1-0.5,0.2-1.1,1-0.7c0.5,0.2,0.6-0.2,0.7-0.6
	c0.5-1.7,0.9-3.4,1.5-5c0.3-1,0.6-2,0.5-3c0-0.7-0.1-1.5-0.9-1.9c-0.1-0.1-0.2-0.1-0.2-0.3c0.1-1.3-0.2-2.6,0.1-4
	c0.2,0,0.3,0,0.5-0.1c0.7,0.2,1.4,0.4,2.2,0.3c0.1,0,0.3,0,0.4,0.1c0.2,0.4,0.1,0.7,0.1,1.1c-0.2,1.2-0.2,2.3,0.3,3.5
	c0.6,1.4,0.5,2.8,0.1,4.3c-0.3,1.2-0.8,2.3-0.9,3.5c0,0.7-0.2,1.6-1.1,1.8c-0.5,0.1-0.8,0.4-1.1,0.8c-0.5,0.7-1,1.3-1.4,2
	c-0.2,0.4-0.8,0.4-0.8,0.6c0.1,1-0.6,1.8-0.6,2.9c0.1,1.9-0.4,3.7-1.5,5.3c-0.4,0.7-0.8,1.5-1.2,2.2c-0.5,1-1.1,2.1-2,2.9
	c-2.2,1.9-4,4.1-6,6.2c-0.6,0.7-1,1.7-2.1,1.8c-0.6-0.4-1.2-0.8-1.8-1.2c-0.1-0.1-0.1-0.2-0.2-0.3c0,0,0-0.1-0.1-0.1
	c0-0.4,0.2-0.6,0.4-0.8c0.7-0.7,1.4-1.5,2.1-2.2c0.6-0.5,0.4-0.9-0.1-1.2c-0.7-0.4-1.4-0.3-2.1-0.1c-0.4,0.1-1,0.2-0.4,0.9
	c0.2,0.2,0.1,0.5-0.1,0.7c-0.4,0.4-0.8,0.8-1.2,1.2c-0.5-0.5-0.4-1.2-0.4-1.9c0-1.7-0.7-2.5-2.3-2.6c-0.2,0-0.4-0.1-0.5-0.1
	c-0.7-0.4-1.1-0.1-1.4,0.5c-0.1,0.3-0.3,0.5-0.6,0.4c0,0,0,0,0,0c-0.1-0.1-0.1-0.1-0.2-0.2c0,0,0,0,0,0c-0.2-0.7-0.7-1.1-1.2-1.4
	c0,0,0,0,0,0c-0.1-0.1-0.1-0.1-0.2-0.2c0,0,0,0,0,0c-0.1-0.2-0.2-0.3-0.3-0.4c0,0,0,0,0,0c-0.1-0.1-0.1-0.1-0.2-0.2c0,0,0,0,0,0
	c0-0.5-0.1-1,0-1.4c0.1-0.6,0.5-1.2,1-1.4c0.5-0.2,0.8,0.3,1.1,0.6c0.3,0.3,0.5,0.6,1,0.3c0.4-0.3,0.9-0.5,0.6-1.1
	c-0.1-0.2-0.2-0.3,0.1-0.4c0.7-0.4,0.7-0.8,0-1.2c-1.2-0.8-2.3,0.2-3.5,0.2c-0.5,0-0.9,0.4-1,1c-0.1,0.5-0.3,0.9-0.6,1.3
	C115.4,131.2,115.3,131,115.1,130.8z"/>
<path fill="#F77C53" d="M84.6,89.9c0.5,0.9,1.4,1.3,2.1,1.8c1.3,1,2.5,2,2.9,3.7c0.2,0.7,0.2,1.5,0.1,2.2c-0.1,0.7-0.6,1.2-1.3,1.2
	c-0.8,0-1.4-0.1-1.8-1c-0.2-0.4-0.2-0.9-0.8-0.9c-0.6,0-0.9,0.5-1.2,1c-0.3,0.7-0.4,1.4,0.1,2c0.6,0.7,1.3,1.4,2,2.1
	c0.4,0.4,0.6,0.1,0.7-0.3c0.1-0.2,0-0.4,0-0.7c0-0.5-0.3-1.1,0.5-1.3c0.7-0.2,1.4-0.1,1.9,0.6c0.3,0.4,0.5,0.8,0.6,1.3
	c0.4,2.1,0.3,4.1-1.1,5.9c-1.6,2.1-3.4,4-5.1,6c-0.2,0.2-0.4,0.5-0.8,0.5c0,0,0,0,0,0c-0.2-0.3-0.4-0.4-0.7-0.4c0,0,0,0,0,0
	c-0.3-0.4-0.6-0.7-1.1-0.8c0,0,0,0,0,0c-0.1-0.2-0.2-0.3-0.4-0.3c0,0,0,0,0,0c-0.1,0-0.1-0.1-0.2-0.1c-0.2-0.1-0.3-0.2-0.5-0.3
	c-0.1-0.1-0.2-0.1-0.2-0.2c0,0,0,0,0,0c-0.1-0.1-0.1-0.1-0.2-0.2c0,0,0,0,0,0c-0.1-0.1-0.1-0.1-0.2-0.2c0,0,0,0,0,0
	c-0.1-0.1-0.1-0.1-0.2-0.2c0,0,0,0,0,0c-0.1-0.1-0.1-0.1-0.2-0.2c-0.1-0.1-0.3-0.2-0.4-0.3c-0.1-0.1-0.1-0.1-0.2-0.2c0,0,0,0,0,0
	c-0.1-0.2-0.3-0.4-0.6-0.4c-1.1-1-2.2-1.9-3.5-2.7c0-0.2-0.2-0.4-0.4-0.3c0,0,0,0,0,0c0-0.4-0.2-0.4-0.5-0.4c0,0,0,0,0,0
	c-0.1-0.2-0.3-0.4-0.6-0.4c0,0,0,0,0,0c-0.4-0.6-0.9-1-1.6-1.3c0,0,0,0,0,0c0-0.2-0.1-0.4-0.3-0.5c0.6-0.3,1.3-0.1,1.9-0.1
	c1.1-0.1,1.5-0.4,1.5-1.5c0-0.9,0.2-1.7,0.6-2.4c0.8-1.3,1.3-2.6,0.8-4.1c-0.2-0.7-0.4-1.4-0.2-2.1c0.2-1,0.1-2-0.4-2.9
	C78.7,91.5,81.6,90.6,84.6,89.9z"/>
<path fill="#306BC7" d="M134,102.5c-0.3,0.7-0.1,1.1,0.6,1.4c0.7,0.3,1.3,0.8,2,1.1c1.3,0.6,2.5,0.4,3.5-0.6
	c0.2-0.2,0.5-0.6,0.8-0.4c0.3,0.4,0,1,0.1,1.5c0,0.3-0.3,0.4-0.5,0.4c-1-0.1-0.9,0.2-0.5,0.9c0.4,0.7,0.7,1.3,1.5,1.5
	c0.7,0.2,0.6,0.9,0.9,1.6c-1.3-1.2-2.7-1.8-4.2-2.3c-1.1-0.4-2-0.4-2.9,0.5c-0.5,0.5-0.6,1-0.1,1.3c1.3,0.9,1.9,2.5,3.1,3.4
	c0.3,0.2,0.4,0.5,0.2,0.7c-0.2,0.3-0.5,0.1-0.7,0c-0.8-0.4-1.2-1.2-1.6-2c-0.5-1-1.6-1.4-2.6-0.8c-0.3,0.2-0.3,0.4-0.1,0.6
	c0.2,0.3,0.3,0.7,0.5,1c0.1,0.3,0,0.6-0.3,0.7c-0.3,0.1-0.4-0.1-0.6-0.4c-0.4-1.2-1.1-1.7-2.4-1.8c-0.3,0-0.6,0-0.7-0.4
	c-0.1-0.4,0.1-0.6,0.3-0.8c0.1-0.1,0.3-0.1,0.4-0.2c0.3-0.2,0.6-0.3,0.6-0.7c-0.1-0.4-0.4-0.6-0.8-0.6c-0.7,0.1-1.2-0.8-2-0.1
	c-0.4,0.4-0.8,0.8-0.6,1.3c0.3,0.7,0.1,1.5,0.4,2.2c0.1,0.1,0.1,0.3,0.1,0.5c0,0.3-0.1,0.5-0.4,0.5c-0.3,0-0.3-0.3-0.3-0.5
	c0.1-0.8-0.3-0.8-0.9-0.7c-0.6,0.1-1.3,0.1-1.8,0.7c-0.1,0.2-0.3,0.2-0.5,0c-0.3-0.2-0.7-0.6-0.7,0.3c0,0.3-0.4,0.2-0.6,0
	c-0.2-0.2-0.5-0.5-0.8-0.2c-0.2,0.2,0.1,0.5,0.2,0.8c0.5,0.9,1.6,1.2,2.4,1.6c0.9,0.4,1.6,1.2,2.7,1.4c0.3,0,0.5,0.5,0,0.7
	c-1.7,1.1-3.3,2.1-5.7,1.5c-1.9-0.5-2.4-1.6-3-3c-0.3-0.7-0.6-1.4-1.1-2c-0.2-0.2-0.5-0.5-0.1-0.7c0.3-0.2,0.5,0.2,0.6,0.4
	c0.5,1,1.2,1.9,1.5,3c0.1,0.3,0.1,0.7,0.5,1c0.2-1.6-0.9-2.6-1.4-3.9c1.4,0.9,1.8,2.3,1.9,3.9c1-1,0.9-1.1,0.2-2.3
	c-0.4-0.7-0.7-1.4-1.4-1.8c0.3-0.3,0.6-0.2,0.9-0.2c1,0.1,1.2,0,0.9-1c-0.5-2-1.1-3.9-1.7-5.8c-0.1-0.4-0.3-0.8,0-1.2c0,0,0,0,0,0
	c0.5-0.1,1-0.2,1.5-0.3c0.3,0.1,0.5,0,0.8-0.2c0.1,0,0.2-0.1,0.3-0.1c0.1,0,0.3,0,0.4,0c0.4,0.2,0.9,0.1,1.3,0.5
	c0.3,0.3,0.8,0.2,1.2-0.1c0.4-0.3,0.7-0.7,1.1-1c0.2,0.4,0.4,3.5,0.3,3.8c0.4-0.1,0.7-0.1,1.2,0.1c0.4,0.2,1,0.2,1.4-0.3
	c0.4-0.6-0.3-0.6-0.5-0.9c0,0,0-0.1,0-0.2c0.7,0,1.3-0.1,1.3-0.9c-0.1-0.7-0.8-0.2-1.2-0.3c-0.3-0.1-0.8-0.1-0.6-0.6
	c0.3-0.5,0.4-1.2,1.2-1.3C130.9,102.6,132.4,102.6,134,102.5L134,102.5z M122.5,106.6c-0.1-0.6-0.6-0.5-0.9-0.6
	c-0.4-0.1-0.4,0.5-0.8,0.6c0.2,0.3,0.4,0.6,0.7,0.6C121.8,107.1,122.2,106.8,122.5,106.6z M124.6,108.2c0.1-0.2,0.6,0.2,0.5-0.3
	c0-0.2,0-0.5-0.3-0.6c-0.2,0.6-0.9,0-1.1,0.6c0,0.1,0.1,0.2,0.2,0.2C124.1,108.2,124.3,108.2,124.6,108.2z M125.6,107.7
	c0.3,0.4,0.2,0.8,0.7,0.9c0.1,0,0.2-0.1,0.2-0.2C126.3,108.1,126.1,107.8,125.6,107.7z"/>
<path fill="#306BC7" d="M75.6,91.4c0.5,0.9,0.6,1.8,0.4,2.9c-0.1,0.7,0,1.4,0.2,2.1c0.5,1.5,0,2.8-0.8,4.1c-0.5,0.7-0.7,1.5-0.6,2.4
	c0.1,1.1-0.4,1.5-1.5,1.5c-0.6,0-1.3-0.2-1.9,0.1c0,0,0,0,0,0c0-0.1,0-0.1-0.1-0.1c0-0.1-0.1-0.2-0.3-0.2c0,0,0,0,0,0
	c0-0.1-0.1-0.2-0.2-0.2c-0.1-0.1-0.2-0.2-0.3-0.4c0.5-0.5,0-0.8-0.3-1.2c0.5,0.1,1,0.4,1.5,0c0.2-0.1,0.4-0.2,0.5,0.1
	c0.1,0.2-0.1,0.3-0.3,0.4c-0.2,0.1-0.6,0.1-0.4,0.5c0.1,0.3,0.5,0.3,0.8,0.2c0.7-0.1,0.9-0.6,0.9-1.2c-0.1-1.3,0.4-2.3,1.2-3.4
	c0.7-1,0.4-2.2,0.1-3.2c-0.3-0.9-0.5-1.7-0.2-2.6c0.3-0.7-0.1-1.3-0.5-1.9c-1.3-1.5-2.1-3.4-2.6-5.3c-0.4-1.3-1.2-2.2-2.4-2.8
	c-0.5-0.2-0.7-0.5-0.8-1c-0.4-2-0.9-2.4-2.9-2.4c-0.2,0-0.4,0-0.5-0.2c-0.1-0.2,0.1-0.3,0.3-0.4c0.9-0.4,0.5-0.8,0.1-1.2
	c-0.7-0.6-1.6-0.6-2.3,0c-0.6,0.5-1.2,0.9-2,0.9c-0.2,0-0.5,0.1-0.5-0.3c0-0.2,0.2-0.3,0.4-0.3c0.7,0.2,1.1-0.3,1.4-0.7
	c0.1-0.2,0.4-0.4,0.5-0.4c1.3,0.2,1.5-0.8,1.7-1.7c0.2-0.6,0.4-1.1,1.1-1.4c0.1,0,0.2-0.1,0.3-0.2c0.2-0.4,0.8-0.7,0.5-1.1
	c-0.4-0.4-0.8,0.1-1.1,0.4c-0.3,0.3-0.7,0.6-1,0.9c-0.1,0.1-0.2,0.2-0.4,0.1c-0.2-0.1-0.1-0.3,0-0.4c0.7-0.8,1.3-1.6,2.1-2.3
	c0.5-0.4,1-0.9,1.4-1.4c0.1-0.2,0.3-0.4,0.6-0.2c0.2,0.2,0.1,0.4,0,0.5c-0.3,0.5-0.8,0.9-1.2,1.2c-0.1,0.1-0.3,0.2-0.2,0.4
	c0.1,0.2,0.3,0.2,0.4,0.1c0.6-0.2,1.2-0.3,1.5-0.9c0.3-0.7,0.7-1.1,1.3-1.5c0.8-0.5,1.2-1.3,2.1-1.7c0.6-0.3,1-1.3,1.6-1.8
	c0.2-0.2,0-0.5-0.3-0.5c-0.9-0.1-1.8-0.4-2.6,0.3c-1.5,1.3-3,2.5-4,4.3c-0.6,1-1.7,1.6-2.5,2.4c-0.2,0.2-0.4,0.5-0.6,0.7
	c-0.2,0.2-0.3,0.5-0.6,0.3c-0.3-0.3,0-0.5,0.2-0.7c0.5-0.7,1.1-1.2,1.7-1.6c0.8-0.5,1.3-1.2,1.7-2c0.6-1.2,1.7-2.1,2.6-3
	c0.1-0.1,0.3-0.2,0.3-0.4c-1.2-0.3-2,0-2.7,1.1c-0.7,1.1-1.5,2.1-2.1,3.3c-0.5,1-1.6,1-2.2,1.8c0,0-0.2-0.1-0.3-0.1
	c-0.2-0.1,0-0.2,0.1-0.3c0.3-0.3,0.6-0.7,1-1c1.4-0.9,1.8-2.4,2.8-3.6c0.6-0.8,1.2-1.6,2-2.3c0.2-0.2,0.8-0.9,1,0.2
	c0,0.2,0.7,0.4,1.1,0.4c0.5-0.1,0.9-0.5,1-1.1c0.1-0.4-0.4-0.6-0.8-0.7c-0.1,0-0.1,0-0.2,0c-1.9,0.5-4,0.3-5.4,2.1
	c-1.2,1.5-2.5,2.9-3.8,4.4c-0.3,0.4-0.6,0.6-1,0.3c-0.6-0.4-1.2-0.5-1.9-0.4c-0.6,0-1-0.2-1.3-0.8c0.7-0.7,1.5-0.3,2.2-0.3
	c0.6,0,1.2,0,1.5-0.6c0.9-1.3,2-2.3,3-3.4c1.1-1.2,2.4-2.1,4.2-2c0.2,0,0.4,0.1,0.5-0.2c-0.8-0.3-1.5-0.7-2.3-1
	c-0.7-0.2-0.6-0.6-0.2-1c2.2,1,4.5,1.8,6.6,3.1c0,0.1,0.1,0.3,0.1,0.3c1.5,1,2.9,2.1,4.2,3.2c1.3,1,2.7,1.9,4.1,2.7
	c0.8,0.4,1.4,1.3,2.4,1.2c0.1,0.1,0.2,0.2,0.3,0.3c0,0.2,0,0.4,0,0.7c-1,0-1.7-0.9-2.7-1.1c-0.1-0.1-0.2-0.3-0.4-0.4
	c-1.8-1.2-3.6-2.4-5.4-3.6c-0.3-0.2-0.4,0-0.7,0.2c-1.9,1.7-3.3,4-5.3,5.7c-1.2,1-2.1,2.3-2.8,3.7c-0.1,0.2-0.3,0.5-0.1,0.6
	c0.8,0.4,1,1.5,1.8,1.9c0.7,0.3,1,1,1.3,1.7c0.3,0.8,0.5,1.6,1.3,2c1.6,0.9,2.3,2.3,2.7,4C72.9,88.9,73.7,90.5,75.6,91.4z"/>
<path fill="#E5E5E5" d="M127.9,143.1c1.1-0.2,1.5-1.2,2.1-1.8c2-2.1,3.8-4.3,6-6.2c0.9-0.8,1.5-1.8,2-2.9c0.4-0.7,0.8-1.5,1.2-2.2
	c1-1.6,1.6-3.4,1.5-5.3c0-1,0.7-1.8,0.6-2.9c0-0.2,0.6-0.3,0.8-0.6c0.4-0.7,0.9-1.4,1.4-2c0.3-0.4,0.6-0.7,1.1-0.8
	c0.9-0.2,1.1-1.1,1.1-1.8c0.1-1.3,0.6-2.4,0.9-3.5c0.3-1.5,0.5-2.9-0.1-4.3c-0.5-1.1-0.4-2.3-0.3-3.5c0.1-0.4,0.2-0.8-0.1-1.1
	c0.3,0,0.6,0.1,0.9,0.1c0.7,0,1.1,0.4,1.2,1.1c0.1,0.7,0.3,1.3,1,1.7c0.2,0.1,0.4,0.4,0.4,0.6c-0.1,0.6,0.2,1.1,0.6,1.6
	c0.6,0.7,0.4,1.2-0.3,1.7c-1.7,1.1-2.5,2.8-2.3,4.8c0.1,0.8,0.1,1.5,0.2,2.3c0.1,0.7-0.2,1.2-0.8,1.4c-0.4,0.2-0.6,0.3-0.5,0.8
	c0.3,3.1-1.9,4.9-3.8,6.8c-0.5,0.5-0.9,0.9-0.8,1.6c0,0,0,0.1,0,0.1c0.6,3-1.2,4.6-3.3,6.3c-2.2,1.7-4.3,3.6-4.6,6.7
	c-0.1,1-0.5,2-1.1,2.9c-0.7,1-1.8,1.2-2.8,0.4C129.2,144.4,128.4,143.9,127.9,143.1z"/>
<path fill="#E5E5E5" d="M6.3,50c0.4-1.5,0.1-3,0-4.5c-0.1-0.9,0.1-1.8,0.1-2.7c0-0.3,0.2-0.4,0.5-0.2c0.6,0.3,1,0.6,1.1,1.3
	c0.1,0.5,0.3,0.9,0.9,1.1c0.3,0.1,0.9,0.2,0.6,0.7c-0.3,0.5-0.7,0.8-1.3,0.4c-0.2-0.1-0.3-0.6-0.7-0.3c-0.3,0.3-0.1,0.7,0.1,1
	c0.1,0.2,0.2,0.3,0.4,0.4c2,0.8,3.4,2.4,4.9,3.8c1.1,1,1.9,2.3,2.6,3.6c0.6,1.3,1.4,2.4,2.7,3.3c0.7,0.5,1.2,1.2,1.6,2
	c0.9,1.8,2.4,2.3,4.3,1.5c0.1,0.3,0.1,0.7,0.4,0.7c1.2,0.3-0.1,0.5,0,0.8c0.2,0.3,0.5,0,0.8,0.1c0.6,0.1,1.2,0.2,1.2,1.1
	c0,0.5,0.3,1.1-0.2,1.5c-0.5,0.3-1,0-1.4-0.2c-1.9-0.7-3.7-1.7-5.2-2.9c-0.9-0.7-1.7-1.2-2.6-1.8c-2.5-1.7-4.7-3.7-6.5-6.2
	c-0.6-0.8-1-2-2.1-2.4c-0.1,0-0.2-0.2-0.3-0.4C7.7,50.7,7.1,50.3,6.3,50z"/>
<path fill="#F77C53" d="M62.8,53.1c0.3,0.4,0.1,0.7-0.2,1c-0.8,0.9-1.5,1.8-2.9,1.7c-0.5-0.1-0.9,0.1-1.3,0.4
	c-0.7,0.6-1.5,1.3-2.3,1.9c0.3,0.1,0.6,0.2,0.8,0.2c-0.9,0-1.7,0-2.6,0.1c0.4-0.2,0.8-0.4,1.1-0.7c0.9-0.9,1.8-1.8,2.9-2.5
	c0.2-0.1,0.7-0.1,0.4-0.6c-0.2-0.3-0.5-0.5-0.9-0.2c-1.6,1-3,2.3-4.3,3.6c-0.1,0.1-0.1,0.3-0.2,0.4c-0.4,0-0.9,0.3-1.3,0
	c1.4-1.8,3.1-3.2,4.8-4.5c0.3-0.2,0.8-0.4,0.5-0.8c-0.2-0.4-0.6-0.1-0.9,0.1c-2.3,1.3-4,3.3-5.9,5.1c-0.2,0.2-0.1,0.3,0.1,0.4
	c-0.6,0.2-1.1,0.4-1.7,0.6c0.3-1,1-1.7,1.6-2.4c1.6-1.7,3.3-3.3,5.3-4.6c0.7-0.5,1.7-0.5,2.2-1.4C58,51,58.5,51,58.8,51
	c0.9,0.4,1.8,0.9,2.6,1.3c0,0.6-0.5,0.8-0.8,1.2c-0.2,0.2-0.5,0.4-0.3,0.7c0.2,0.3,0.6,0.2,0.9,0.1c0.3-0.1,0.5-0.4,0.7-0.7
	C62.1,53.3,62.3,53,62.8,53.1L62.8,53.1z"/>
<path fill="#E5E5E5" d="M119.1,136.1c0.3,0.1,0.5,0,0.6-0.4c0.3-0.6,0.7-0.9,1.4-0.5c0.2,0.1,0.4,0.1,0.5,0.1
	c1.6,0.1,2.3,0.9,2.3,2.6c0,0.7-0.1,1.3,0.4,1.9c0.4-0.4,0.8-0.8,1.2-1.2c0.2-0.2,0.3-0.5,0.1-0.7c-0.6-0.6-0.1-0.7,0.4-0.9
	c0.7-0.2,1.5-0.3,2.1,0.1c0.5,0.3,0.7,0.6,0.1,1.2c-0.8,0.7-1.4,1.5-2.1,2.2c-0.2,0.2-0.4,0.5-0.4,0.8c-0.4-0.1-0.8-0.3-1-0.6
	c-0.7-0.8-1.5-1.4-2.6-1.6c-0.7-0.1-1-0.8-1.3-1.3C120.2,137.4,119.3,137.1,119.1,136.1z"/>
<path fill="#E5E5E5" d="M115.6,131.4c0.3-0.4,0.5-0.8,0.6-1.3c0.1-0.5,0.5-1,1-1c1.2,0,2.3-1,3.5-0.2c0.7,0.5,0.7,0.8,0,1.2
	c-0.3,0.2-0.2,0.3-0.1,0.4c0.3,0.6-0.2,0.9-0.6,1.1c-0.4,0.3-0.7,0-1-0.3c-0.3-0.3-0.5-0.9-1.1-0.6c-0.6,0.2-0.9,0.8-1,1.4
	c-0.1,0.5,0,1,0,1.4C116.4,133,115.8,132.3,115.6,131.4z M120.1,130.1c0,0,0.1,0.1,0.2,0.1c0.1,0,0.2,0,0.2-0.1
	c0-0.1-0.1-0.2-0.2-0.2C120.2,129.9,120.1,129.9,120.1,130.1z"/>
<path fill="#E5E5E5" d="M134,102.5c-1.5,0-3.1,0.1-4.6,0.4c-0.7,0.1-0.9,0.8-1.2,1.3c-0.2,0.4,0.3,0.4,0.6,0.6
	c0.4,0.1,1.1-0.4,1.2,0.3c0.1,0.7-0.6,0.9-1.3,0.9c0,0.1,0,0.2,0,0.2c0.3,0.3,0.9,0.3,0.5,0.9c-0.3,0.5-1,0.5-1.4,0.3
	c-0.4-0.2-0.7-0.2-1.2-0.1c0.1-0.3-0.2-3.5-0.3-3.8c0-0.3,0.1-0.5,0.5-0.6c2.1-0.2,4.3-0.5,6.4-0.7
	C133.6,102.1,133.9,102.1,134,102.5z"/>
<path fill="#306BC7" d="M116.3,105.8c0.3-0.1,0.6-0.5,1-0.2c-1,1.6-2.3,2.9-3.9,3.8c-0.5,0.3-0.8,0.3-0.8-0.4
	c0.1-0.6,0.1-1.1,0.2-1.7c0.2,0,0.3-0.1,0.5-0.2c0.7,0.2,0.1,0.5,0.1,0.8c0,0.2-0.1,0.3,0,0.4c0.1,0.1,0.3,0.1,0.3,0
	c0.5-0.6,1.4-1,1.5-1.9c0,0,0,0,0,0c0.1-0.1,0.2-0.1,0.3-0.2c0.2-0.1,0.3-0.2,0.5-0.3C116.1,105.8,116.2,105.8,116.3,105.8
	L116.3,105.8z"/>
<path fill="#306BC7" d="M111,121.2c-0.5-1.1,0.1-2,0.2-3c0.1-0.1,0.2-0.2,0.3-0.2c0.5,0.6,1,1.2,1.5,1.8c0,0,0.1,0.1,0.1,0.2
	c0.2,1.2-0.5,2.1-0.8,3.2c-0.2,0.6-0.6,0.9-1.2,0.9c0-0.2,0-0.3,0-0.5c0.8-0.8,1.2-3.7,0.6-4.3c-0.1,0.4-0.2,0.8-0.4,1.1
	C111.3,120.6,111.6,121.1,111,121.2z"/>
<path fill="#E5E5E5" d="M38.5,62.6c-0.2,0.6-0.9,0.6-1.3,0.8c-1.4,0.6-2.8,1.1-4.1,1.6c-0.2,0.1-0.5,0.1-0.7,0
	c0.1-0.3,0.3-0.3,0.5-0.4c1-0.5,2.1-0.8,2.8-1.8c0.4-0.6,1.3-0.5,2-0.8C38.1,61.9,38,62.7,38.5,62.6C38.5,62.6,38.5,62.6,38.5,62.6z
	"/>
<path fill="#E5E5E5" d="M111,121.2c0.6-0.1,0.3-0.6,0.4-0.9c0.2-0.3,0.2-0.7,0.4-1.1c0.6,0.6,0.2,3.5-0.6,4.3
	c-0.6-0.2-0.7-0.8-0.8-1.3c0,0,0.1-0.1,0.1-0.1c0.2,0.1,0.2,0.5,0.5,0.3c0.2-0.1,0.2-0.3,0.1-0.5C111.1,121.7,111.1,121.5,111,121.2
	L111,121.2z"/>
<path fill="#E5E5E5" d="M62.8,53.1c-0.5-0.1-0.7,0.2-0.9,0.5c-0.2,0.3-0.4,0.6-0.7,0.7c-0.3,0.1-0.7,0.2-0.9-0.1
	c-0.2-0.3,0.1-0.5,0.3-0.7c0.3-0.4,0.8-0.6,0.8-1.2C62,52.3,62.5,52.6,62.8,53.1z"/>
<path fill="#E5E5E5" d="M115.3,106.3c-0.1,1-1,1.3-1.5,1.9c-0.1,0.1-0.2,0.1-0.3,0c-0.1-0.1,0-0.3,0-0.4c0.1-0.3,0.6-0.6-0.1-0.8
	C113.9,106.7,114.5,106.3,115.3,106.3z"/>
<path fill="#306BC7" d="M39.4,62.7c0.2-0.1,0.5-0.2,0.7-0.3c0,0.7-0.4,1.2-0.6,1.8c-0.2,0.5-0.5,0.4-0.8,0.3
	C38.6,63.8,39.3,63.4,39.4,62.7z"/>
<path fill="#E5E5E5" d="M117.7,134.5c0.5,0.4,1.1,0.7,1.2,1.4c-0.3-0.1-0.8,0-0.8-0.5c0,0,0.1-0.1,0.1-0.1c0,0-0.1,0.1-0.1,0.1
	C117.5,135.3,117.8,134.8,117.7,134.5z"/>
<path fill="#E5E5E5" d="M125.2,104.4c-0.4,0.4-0.9,0.4-1.2,0.1c-0.4-0.4-0.9-0.3-1.3-0.5c0.3-0.4,0.7-0.3,1-0.1
	C124.1,104.4,124.7,104.4,125.2,104.4z"/>
<path fill="#E5E5E5" d="M71.8,105c0.7,0.3,1.2,0.7,1.6,1.3C72.7,106,72,105.8,71.8,105z"/>
<path fill="#E5E5E5" d="M145.7,104c-0.7,0.1-1.4-0.2-2.2-0.3C144.3,103.6,145,103.6,145.7,104z"/>
<path fill="#E5E5E5" d="M121.2,104.4c-0.5,0.1-1,0.2-1.5,0.3C120.1,104,120.6,104.1,121.2,104.4z"/>
<path fill="#E5E5E5" d="M81.6,112.7c0.5,0,0.8,0.4,1.1,0.8C82.1,113.6,81.8,113.2,81.6,112.7z"/>
<path fill="#E5E5E5" d="M28.3,66c-0.3,0.1-0.6,0.2-1,0C27.7,65.8,28,66,28.3,66z"/>
<path fill="#E5E5E5" d="M82.7,113.5c0.3,0,0.6,0.1,0.7,0.4C83.1,114,82.8,113.9,82.7,113.5z"/>
<path fill="#E5E5E5" d="M78.3,110.1c0.3,0,0.4,0.2,0.6,0.4C78.6,110.5,78.3,110.5,78.3,110.1z"/>
<path fill="#E5E5E5" d="M73.3,106.3c0.3,0,0.4,0.2,0.6,0.4C73.6,106.7,73.3,106.7,73.3,106.3z"/>
<path fill="#E5E5E5" d="M73.9,106.7c0.3,0,0.5,0,0.5,0.4C74.2,107.1,74,106.9,73.9,106.7z"/>
<path fill="#E5E5E5" d="M71.4,104.5C71.4,104.5,71.4,104.5,71.4,104.5c0.2,0.1,0.4,0.2,0.4,0.5C71.5,104.9,71.4,104.7,71.4,104.5z"
	/>
<path fill="#E5E5E5" d="M74.5,107.1c0.3,0,0.4,0.1,0.4,0.3C74.6,107.5,74.5,107.3,74.5,107.1z"/>
<path fill="#E5E5E5" d="M81.2,112.4c0.2,0,0.4,0.1,0.4,0.3C81.3,112.8,81.2,112.7,81.2,112.4z"/>
<path fill="#E5E5E5" d="M117.2,133.8c0.2,0.1,0.3,0.2,0.3,0.4C117.3,134.2,117.2,134.1,117.2,133.8z"/>
<path fill="#E5E5E5" d="M31.7,65.2C31.7,65.2,31.8,65.2,31.7,65.2C31.8,65.2,31.8,65.2,31.7,65.2C31.8,65.3,31.8,65.3,31.7,65.2
	C31.7,65.3,31.7,65.2,31.7,65.2z"/>
<path fill="#E5E5E5" d="M79.7,111.2c0.1,0.1,0.1,0.1,0.2,0.2C79.8,111.4,79.7,111.3,79.7,111.2z"/>
<path fill="#E5E5E5" d="M79.9,111.4c0.1,0.1,0.1,0.1,0.2,0.2C80,111.6,79.9,111.5,79.9,111.4z"/>
<path fill="#E5E5E5" d="M80,111.6c0.1,0.1,0.1,0.1,0.2,0.2C80.2,111.8,80.1,111.7,80,111.6z"/>
<path fill="#E5E5E5" d="M80.2,111.8c0.1,0.1,0.2,0.1,0.2,0.2C80.4,112,80.3,111.9,80.2,111.8z"/>
<path fill="#E5E5E5" d="M81,112.3c0.1,0,0.1,0.1,0.2,0.1C81.1,112.4,81.1,112.3,81,112.3z"/>
<path fill="#E5E5E5" d="M71,104.2c0.1,0,0.2,0,0.3,0.2C71.2,104.4,71.1,104.3,71,104.2z"/>
<path fill="#E5E5E5" d="M116.3,105.8c-0.1,0-0.2,0.1-0.2,0.1C116.1,105.8,116.2,105.8,116.3,105.8z"/>
<path fill="#E5E5E5" d="M122.3,104.1c-0.1,0-0.2,0.1-0.3,0.1C122,104.1,122.1,104,122.3,104.1z"/>
<path fill="#E5E5E5" d="M70.8,104c0.1,0,0.2,0,0.2,0.2C71,104.1,70.9,104,70.8,104z"/>
<path fill="#E5E5E5" d="M115.5,106.1c-0.1,0.1-0.2,0.1-0.3,0.2C115.3,106.2,115.4,106.1,115.5,106.1z"/>
<path fill="#E5E5E5" d="M117,133.6c0.1,0.1,0.1,0.1,0.2,0.2C117.1,133.8,117.1,133.7,117,133.6z"/>
<path fill="#E5E5E5" d="M117.6,134.3c0.1,0.1,0.1,0.1,0.2,0.2C117.7,134.4,117.6,134.3,117.6,134.3z"/>
<path fill="#E5E5E5" d="M78.9,110.5c0.1,0.1,0.1,0.1,0.2,0.2C79,110.6,78.9,110.6,78.9,110.5z"/>
<path fill="#E5E5E5" d="M119,135.9c0.1,0.1,0.1,0.1,0.2,0.2C119,136.1,118.9,136,119,135.9z"/>
<path fill="#E5E5E5" d="M79.5,111c0.1,0.1,0.1,0.1,0.2,0.2C79.6,111.2,79.5,111.1,79.5,111z"/>
<path fill="#E5E5E5" d="M125.8,141.6c0.1,0.1,0.1,0.2,0.2,0.3C125.9,141.9,125.8,141.8,125.8,141.6z"/>
<path fill="#1E1E1E" d="M51.9,58.5c0.5,0.2,0.9,0,1.4,0c0.4,0,0.7,0,1.1-0.1c0.9,0,1.7,0,2.6-0.1c0.3,0,0.6,0,0.9,0
	c0.6,0,1.2,0.1,1.8,0.1c2.1,0.2,3.8,1.3,5.5,2.4c-0.5,0.4-0.5,0.7,0.2,1c0.8,0.3,1.6,0.7,2.3,1c-0.1,0.3-0.4,0.3-0.5,0.2
	c-1.8-0.1-3,0.8-4.2,2c-1,1.1-2.2,2.1-3,3.4c-0.4,0.6-0.9,0.5-1.5,0.6c-0.8,0-1.6-0.4-2.2,0.3c-0.1,0-0.2,0-0.2-0.1
	c-0.5-0.3-1-0.6-1.5-1c-0.1-0.1-0.3-0.3-0.4-0.4c0-0.1,0-0.1-0.1-0.2c-1-0.4-1.6-1.3-2.5-1.8c-0.1-0.1-0.1-0.1-0.2-0.2
	c0-0.3-0.2-0.5-0.5-0.4c-0.1-0.1-0.1-0.1-0.2-0.2c0.1-0.1,0.1-0.2,0-0.2c-0.1,0-0.2,0-0.2,0.1c-1.2,0.5-2.4,0.9-3.7,1.1
	c-0.4-0.2-0.9-0.1-1.3-0.5c-0.4-0.4-1.2-0.1-1.6-0.7c0,0-0.1,0-0.2,0.1c-0.9,0.8-1.7,1.8-2,2.9c-0.3,1.1-0.6,2.1-1.9,2.6
	c-0.1-1.2,0.2-2.3,1-3.2c0.8-0.9,1.6-1.8,2.4-2.8c0.4-0.4,0.9-0.7,0.4-1.4c-0.1-0.2,0-0.2,0.1-0.4c1.7-1.2,3.4-2.2,5.3-3
	c0.6-0.2,1.1-0.4,1.7-0.6C50.9,58.8,51.4,58.8,51.9,58.5z M49.6,63.5c0.3-0.1,0.6-0.2,0.7-0.5c0-0.3-0.3-0.5-0.6-0.5
	c-0.3,0-0.8,0-0.8,0.4C48.9,63.3,49.2,63.5,49.6,63.5z M48.6,62c0-0.3-0.1-0.5-0.5-0.5c-0.2,0-0.4,0.1-0.4,0.3
	c0,0.3,0.2,0.5,0.5,0.6C48.5,62.5,48.5,62.2,48.6,62z"/>
<path fill="#306BC7" d="M35,34.5c0.1,0.7-0.1,1.2-1,1.3c-0.7,0.1-1.4,0.5-1.8,0.9c-0.5,0.4-0.4,1.3-0.3,2c0.1,0.6,0.5,0.6,1,0.6
	c0.7-0.1,1.1,0.2,1.4,0.8c0.5,0.9,1.8,1.4,2.8,0.9c1-0.5,1.2-0.3,1.2,0.8c-0.1,1.3-0.6,2.5-1.1,3.6c-0.1,0.2-0.2,0.5-0.5,0.4
	c-0.3-0.1-0.1-0.4-0.1-0.6c0.2-0.9,0.6-1.7,0.9-2.5c0.2-0.4,0.4-0.8,0.1-1.3c-1.5,1.6-1.5,3.9-2.8,5.5c-0.2-2.1,0.5-3.8,1.8-5.4
	c-0.1-0.1-0.2-0.1-0.2-0.1c-2.7,1.4-5.8,2.1-8.1,4.3c-0.3,0.3-0.7,0.4-1.1,0.4c-0.4,0-0.7,0-0.3-0.6c0.4-0.7,0-1.5-0.4-2.1
	c-0.2-0.3-0.7,0.2-1,0.5c-0.2,0.2-0.3,0.6-0.5,0.8c-0.2,0.2-0.5,0.3-0.8,0.1c-0.2-0.2,0-0.5,0.2-0.7c0.2-0.2,0.4-0.3,0.6-0.5
	c0.3-0.3,0.3-0.6,0.1-0.9c-0.2-0.4-0.5-0.4-0.9-0.4c-0.4,0.1-0.7,0.4-1.3,0.2c0.5-0.8,1.2-0.8,1.9-0.9c0.3,0,0.8,0.4,0.9-0.3
	c0.1-0.6-0.6-1.3-1.1-1.3c-0.9,0.1-1.8,0.2-2.6,0.8c-0.3,0.2-0.6,0.4-0.8,0c-0.2-0.4,0-0.7,0.4-0.8c0.3-0.1,0.6-0.2,0.9-0.3
	c0.8-0.2,1-0.8,0.9-1.5c-0.1-0.6-0.9-1.1-1.5-0.9c-0.6,0.1-1.1,0.3-1.6,0.5c-0.7,0.3-1.3,0-1.9-0.2c-0.3-0.1-0.5-0.3-0.4-0.7
	c0.1-0.3,0.4-0.4,0.7-0.3c1.3,0.5,2.6,0.2,4,0c0.8-0.1,1-0.6,0.8-1.3c-0.5-1.2-1-2.4-1.5-3.6c-0.2-0.4-0.5-0.4-0.9-0.4
	c-0.8,0-1.5,0-2.3-0.1c0.8-0.5,1-1.8,2.3-1.7c0.5,0,0.2-0.6,0.3-0.9c0.1-0.6-0.3-1.3,0.6-1.5c0.3-0.1,0.1-0.5,0-0.8
	c-0.1-0.4-0.2-0.9,0.3-0.9c0.5,0,0.4,0.5,0.4,0.8c0.1,0.8,0.2,1.6,0.3,2.4c0.1,0.4,0,1.2,0.1,1.3c1,0.3,1.5,1.5,2.7,1.4
	c1-0.1,1.7-0.5,2.1-1.4c0.5-1.2,1.2-2.3,1.4-3.8c0.7,0.6,1,1.1,0.5,1.9c-0.4,0.6-0.9,1.2-1,2c0,0.7,0.2,1.2,0.9,1.5
	c0.7,0.3,1-0.2,1.3-0.8c0.1-0.2,0.1-0.4,0.2-0.5c0.2-0.2,0.1-0.8,0.6-0.5c0.4,0.2,0.5,0.8,0.2,1.1c-1.2,1-1.5,2.4-1.9,3.9
	c-0.1,0.5-0.4,1-0.7,1.3c-0.6,0.7-1.1,0.7-1.7,0c-0.4-0.4-0.7-0.7-1.2-0.2c-0.4,0.4-0.8,0.9-0.1,1.4c0.2,0.1,0.3,0.2,0.2,0.5
	c-0.2,0.2-0.3,0.1-0.5,0c-0.2-0.1-0.4-0.1-0.5,0.1c-0.1,0.2-0.1,0.4,0,0.5c0.3,0.4,0.8,1,1.3,0.7c1.4-0.6,3.1-0.6,4-2.2
	c0.4-0.7,0.8-1.4,0.9-2.2c0.1-0.7,0.3-1.3,0.7-1.9c0.2-0.2,0.4-0.5,0.7-0.3c0.3,0.2,0.1,0.5,0,0.7c-0.2,0.3-0.4,0.7-0.5,1
	c-0.2,0.4-0.2,0.8,0.2,1.1c0.4,0.3,0.7,0,1-0.3C34.3,34.7,34.6,34.6,35,34.5C35,34.5,35,34.5,35,34.5z"/>
<path fill="#306BC7" d="M39.6,70.2c1.2-0.4,1.5-1.4,1.9-2.6c0.3-1.1,1.1-2.1,2-2.9c0,0,0.2-0.1,0.2-0.1c0.4,0.6,1.2,0.3,1.6,0.7
	c0.4,0.4,0.9,0.3,1.3,0.5c0,0.1,0.1,0.2,0,0.3c-0.7,0.1-0.5,0.5-0.3,0.8c0.4,0.5,0.8,1,1.2,1.5c1,1,1.9,2.3,3.1,3
	c0.4,0.2,0.7,0.2,1.1,0.1c0.8-0.3,0.8-1.1,1.3-1.5c0.5,0.2,1,0.5,0.9,1c-0.1,0.5-0.5,0.9-1,1.1c-0.5,0.2-1,0.2-1.6,0.2
	c-1.2,0-1.8,0.8-1.3,2c0.1,0.2,0.2,0.4,0,0.6c-0.6,0.9,0,1.3,0.7,1.6c0.7,0.3,1.1,0.7,1.5,1.2c0.6,0.8,1.3,1.4,2.3,1.5
	c0.3,0,0.5,0.2,0.8,0.4c0.9,0.5,1.7,0.7,2.5-0.1c0.1-0.1,0.3-0.3,0.5-0.1c0.2,0.2,0,0.4-0.2,0.6c-0.5,0.6-1.8,0.6-2.6,0.1
	c-0.4-0.3-0.7-0.5-1.2-0.5c-0.6,0.1-1,0.2-0.9,0.9c0.1,0.6-0.3,1.1-0.6,1.6c-0.2,0.5-0.2,0.8,0.1,1.2c0.8,1.1,1.2,2.4,1.2,3.8
	c0,0.9,0.5,1.5,1.1,2.2c0.1,0.1,0.2,0.2,0.3,0.2c1,0.2,1.2,0.4,1.1,1.8c-1.3-1-2.8-1.3-4.1-2c-0.3-0.1-0.5-0.5-0.8-0.7
	c0.4,0,0.8-0.1,1.2,0.2c0.2,0.2,0.4,0.2,0.6,0c0.2-0.2,0.1-0.4,0.1-0.6c-0.1-0.5-0.3-1-0.6-1.4c-0.5-1-0.3-2.1-1-3
	c-0.6-0.8-0.9-1.7-0.5-2.7c0.3-0.8,0.4-1.5-0.5-2.2c-0.6-0.4-1-1-1.6-1.5c-0.9-0.7-1.3-1.5-1-2.6c0.1-0.3,0-0.6-0.2-0.8
	c-0.1-0.1-0.2-0.1-0.3,0c-0.2-0.1-0.6,0-0.7-0.4c0.6-0.1,0.7-0.4,0.2-0.8c-0.2-0.2-0.5-0.2-0.6-0.5c0.1,0,0.2,0,0.3,0
	c0.3,0,0.6,0.4,0.7,0c0.2-0.4-0.2-0.5-0.4-0.6c-0.7-0.4-1.1-1.1-1.4-1.7c-0.1-0.2-0.1-0.7-0.5-0.6c-0.4,0.2-0.2,0.6-0.1,0.9
	c0,0.6,0.8,0.8,0.7,1.5c-0.3,0-0.4-0.3-0.6-0.4c-0.2-0.1-0.4-0.6-0.6-0.4c-0.3,0.3,0.1,0.6,0.3,0.9c0.7,0.6,1.4,1.2,2.1,1.8
	c-0.9,0.2-1.4-0.6-2-1c-0.2-0.1-0.4-0.4-0.6-0.3c-0.3,0.3,0.1,0.5,0.1,0.7c0,0.3-0.2,0.4-0.4,0.2c-1-0.8-2.2-0.9-3.3-1.4
	c-0.5-0.2-0.8-0.1-1.2,0.1C39.6,71.7,39.4,71,39.6,70.2z"/>
<path fill="#1E1E1E" d="M40.1,72.4c0.4-0.3,0.7-0.4,1.2-0.1c1.1,0.5,2.3,0.6,3.3,1.4c0.2,0.1,0.4,0.1,0.4-0.2
	c0.2,0.2,0.5,0.4,0.7,0.5c-0.6,0.1-0.9,0.4-0.3,0.9c0.3,0.4,0.8,0.4,1.1,0.7c-0.1,0.1-0.1,0.2,0,0.3c-0.7,0.2-0.2,0.6,0,0.7
	c0.3,0.2,0.8,0.3,1.1,0.4c0.2,0.1,0.5,0,0.6-0.2c0.1-0.4-0.2-0.4-0.4-0.5c0.1-0.1,0.2-0.2,0-0.3c0.1-0.1,0.2-0.3,0.2-0.5
	c1,0,0.4-0.7,0.5-1.1l0,0c0.2,0.2,0.3,0.4,0.2,0.8c-0.3,1.1,0.1,1.9,1,2.6c0.6,0.4,1,1,1.6,1.5c0.9,0.7,0.8,1.4,0.5,2.2
	c-0.4,1-0.1,1.9,0.5,2.7c-1.5-0.7-2.8-1.8-4.2-2.6c-2.4-1.8-4.5-3.8-6.3-6.1c-0.5-0.7-0.9-1.4-1.3-2.1c0.2-0.2,0.1-0.4-0.2-0.4
	C40.2,72.6,40.2,72.5,40.1,72.4z"/>
<path fill="#F77C53" d="M48,81.4c1.4,0.9,2.7,1.9,4.2,2.6c0.7,0.9,0.5,2,1,3c0.2,0.4,0.5,0.9,0.6,1.4c0,0.2,0.1,0.5-0.1,0.6
	c-0.2,0.1-0.4,0.1-0.6,0c-0.4-0.3-0.8-0.2-1.2-0.2c-1.5-0.7-2.6-2-3.9-3c-0.2-0.1-0.3-0.4-0.5-0.4c-0.7-0.2-0.7-0.7-0.5-1.2
	C47.2,83.2,47.5,82.2,48,81.4z"/>
<path fill="#1E1E1E" d="M53.1,70.1c-0.5,0.4-0.5,1.2-1.3,1.5c-0.5,0.2-0.8,0.1-1.1-0.1c-1.3-0.8-2.1-2-3.1-3
	C47,68,46.6,67.5,46.3,67c-0.2-0.3-0.4-0.7,0.3-0.8c0.7-0.1,1.3,0.2,1.8,0.6C49.9,67.9,51.6,68.8,53.1,70.1z"/>
<path fill="#306BC7" d="M64.8,86.9c-0.5,0.3-0.9,0.3-1.4,0.3c-0.3,0-0.6,0-0.8,0.1c-1,0.5-0.8,1.8-1.5,2.4c-0.9,0.8-0.8,1.7-0.1,2.7
	c-0.4-0.2-0.5-0.7-0.9-0.5c-0.4,0.2-0.2,0.7,0,1c0.2,0.6,0.4,1.1,0.1,1.8c-0.3-0.8-1.5-0.5-1.8-1.4c0.3-0.2,0.4,0,0.5,0.1
	c0.2,0.2,0.5,0.2,0.7,0c0.2-0.2,0-0.4-0.1-0.6c-0.2-0.3-0.3-0.6-0.2-1c0.6-1.5,1.2-3,1.9-4.5c0.3-0.6,0.9-0.8,1.5-0.8
	C63.4,86.7,64,86.8,64.8,86.9z"/>
<path fill="#306BC7" d="M54.3,68.2c0.5,0.3,1,0.6,1.5,1c-1.3,0.6-2.2,0-3.2-0.9c-0.8-0.7-1.7-1.3-2.6-1.9c-0.2-0.1-0.5-0.3-0.2-0.6
	c0.2-0.2,0.4,0,0.6,0.1c0.3,0.3,0.6,0.6,1.1,0.5c0.3,0.8,1.5,1.4,2.5,1.2c0,0.1,0,0.1,0.1,0.2C53.8,68.1,54,68.2,54.3,68.2z"/>
<path fill="#306BC7" d="M57.1,73.9c-0.4-0.1-0.6,0-0.4,0.4c0.2,0.6-0.1,0.5-0.5,0.4c-0.7-0.3-1.3-1.1-1.1-1.5
	c0.2-0.4,1.3-0.5,1.9-0.1c0.1,0.1,0.3,0.2,0.4,0.3c0.1,0.1,0.3,0.3,0.2,0.5C57.5,74.1,57.3,73.9,57.1,73.9z"/>
<path fill="#306BC7" d="M35.8,37.2c0.5,0.2,1.3,0.3,1.3,1.1c0.1,0.7-0.4,0.8-0.9,0.7c-0.7-0.1-1.2-0.5-1.3-1.2
	C34.7,37.4,35.3,37.3,35.8,37.2z"/>
<path fill="#306BC7" d="M55.3,81.1c0.1,0,0.2,0,0.2,0.1c0.1,0.1,0.1,0.2,0,0.3c-0.9,1.2-0.5,2.3,0.1,3.4c0.1,0.2,0.2,0.3,0.3,0.5
	c0.1,0.2,0,0.5-0.2,0.6c-0.4,0.1-0.4-0.2-0.3-0.4c0.1-0.5-0.2-0.8-0.4-1.1c-0.6-1.1-0.6-2.1,0-2.9C55.1,81.3,55.2,81.2,55.3,81.1z"
	/>
<path fill="#306BC7" d="M24.6,24.1c-0.4,1.1-0.8,1.9-1.1,2.8C22.6,25.5,22.8,25.1,24.6,24.1z"/>
<path fill="#306BC7" d="M70.4,91.7c-1-0.6-1-1.8-1.6-2.7C69.7,89.7,70.2,90.5,70.4,91.7z"/>
<path fill="#F77C53" d="M53.8,67.6c-0.9,0.2-2.1-0.4-2.5-1.2c0.1-0.2-0.3-0.4-0.1-0.7C52.1,66.3,52.7,67.3,53.8,67.6z"/>
<path fill="#306BC7" d="M35,48.3c-0.4,0.5-0.5,1-1.1,1c0,0-0.1-0.2-0.1-0.3C33.9,48.4,34.2,48.3,35,48.3z"/>
<path fill="#306BC7" d="M72.5,100.5c-0.3-0.1-0.3-0.4-0.3-0.6c0-0.2,0.1-0.4,0.3-0.4c0.3,0.1,0.3,0.4,0.3,0.6
	C72.8,100.3,72.8,100.5,72.5,100.5z"/>
<path fill="#306BC7" d="M10.9,40.6c-0.1,0.2,0.1,0.6-0.3,0.6c-0.3,0-0.4-0.3-0.4-0.6c0-0.2,0.1-0.5,0.4-0.5
	C11,40,10.9,40.4,10.9,40.6z"/>
<path fill="#F77C53" d="M50.5,65.2c0.4-0.1,0.5,0.1,0.5,0.4C50.6,65.7,50.6,65.5,50.5,65.2z"/>
<path fill="#306BC7" d="M40.2,72.7c0.3,0,0.4,0.2,0.2,0.4C40.2,73.1,40.2,72.9,40.2,72.7z"/>
<path fill="#F77C53" d="M50.2,64.8c0-0.1,0.1-0.2,0.2-0.1c0.1,0.1,0.1,0.2,0,0.2C50.3,64.9,50.3,64.9,50.2,64.8z"/>
<path fill="#FEFDFD" d="M43.7,57.7C43.6,57.7,43.6,57.7,43.7,57.7C43.6,57.7,43.6,57.7,43.7,57.7C43.7,57.7,43.7,57.7,43.7,57.7z"/>
<path fill="#1E1E1E" d="M75.6,91.4c-1.9-0.9-2.7-2.5-3.1-4.4c-0.4-1.7-1.1-3.1-2.7-4c-0.8-0.4-1-1.2-1.3-2c-0.2-0.7-0.6-1.4-1.3-1.7
	c-0.8-0.4-1-1.5-1.8-1.9c-0.2-0.1,0-0.4,0.1-0.6c0.7-1.4,1.6-2.7,2.8-3.7c2-1.7,3.3-3.9,5.3-5.7c0.2-0.2,0.3-0.5,0.7-0.2
	c1.8,1.2,3.6,2.4,5.4,3.6c0.2,0.1,0.2,0.3,0.4,0.4c-0.1,1.1,0.7,1.6,1.3,2.1c1,0.9,2.1,1.6,3.2,2.4c0.2,0.1,0.4,0.3,0.7,0.3
	c0.3,0.1,0.6,0.2,0.8-0.1c0.1-0.2,0-0.5-0.2-0.7c-0.3-0.3-0.5-0.7-0.7-1c2.2-0.2,3.4,1.1,4.5,2.7c-0.2,0-0.5,0.1-0.7,0.1
	c-0.7,0.3-1.4,0.2-2.1,0.2c-1.4,0.1-2.4,0.9-2.8,2.2c-0.2,0.7-0.1,1.3,0.6,1.6c0.6,0.3,0.6,0.6,0,0.9c-0.4,0.2-0.9,0.4-0.9,1
	c0,0.9,0.4,1.7,1.1,2.1c0.7,0.4,1.3,0.1,1.8-0.5c0.6-0.7,1.3-0.6,1.8,0c0.6,0.9,1.1,0.4,1.6,0c0.4-0.3,0.7-0.8,1.1-1.2
	c0.6-0.6,0.6-1.2,0.3-1.9c-0.1-0.2-0.2-0.4-0.3-0.6c-0.5-0.6-0.3-1.2,0.2-1.6c0.5-0.6,0.9,0.1,1.3,0.3c0.8,0.6,1.7,1.2,2.6,1.7
	c0.7,1.1,0.6,1.9-0.1,2.9c-1.6,2-3.8,3.2-6.1,4.1c-1.5,0.6-2.9,1-4.4,1.6C81.6,90.6,78.7,91.5,75.6,91.4z M82.9,81.1
	c0.1-1-0.7-1.6-1-2.4c-0.2-0.5-0.5-0.9-1.1-0.9c-0.4,0-0.7-0.1-0.9-0.4c-0.6-0.9-1-1.1-1.8-0.5c-0.7,0.6-1.4,0.8-2.2,0.8
	c-0.6,0-1.3,0.4-1,1.1c0.4,0.8,0,1.3-0.3,1.8c-0.2,0.4-0.3,0.8,0,1.2c0.3,0.4,0.7,0.8,1.3,0.6c0.3-0.1,0.6-0.1,0.8-0.2
	c0.7-0.3,1-0.2,1,0.6c0,0.5,0.2,1,0.4,1.4c0.3,1,1.5,1.3,2.3,0.6c1-0.9,1.5-2.2,2.4-3.1C82.9,81.5,82.9,81.3,82.9,81.1z M74.8,69.5
	c-0.5,0-0.9-0.1-1.2,0.1c-0.3,0.2-0.7,0.4-0.3,0.9c0.9,1.1,2.1,1.2,3.4,1.3c0.4,0,0.8-0.2,0.9-0.6c0.1-0.4-0.2-0.6-0.4-0.8
	C76.5,69.7,75.7,69.4,74.8,69.5z"/>
<path fill="#F77C53" d="M95.2,81.3c-0.9-0.5-1.7-1.1-2.6-1.7c-0.3-0.3-0.7-0.9-1.3-0.3c-0.4,0.5-0.6,1-0.2,1.6
	c0.1,0.2,0.3,0.4,0.3,0.6c0.3,0.7,0.3,1.4-0.3,1.9c-0.4,0.4-0.7,0.8-1.1,1.2c-0.5,0.4-1,0.9-1.6,0c-0.5-0.7-1.1-0.7-1.8,0
	c-0.5,0.5-1.1,0.8-1.8,0.5c-0.8-0.4-1.1-1.2-1.1-2.1c0-0.6,0.5-0.8,0.9-1c0.6-0.3,0.6-0.6,0-0.9c-0.7-0.3-0.8-0.9-0.6-1.6
	c0.3-1.3,1.3-2.1,2.8-2.2c0.7,0,1.4,0.1,2.1-0.2c0.7,0.1,1.4,0.4,2,0.8c0.5,0.3,0.8,0.2,0.9-0.5C93.1,78.5,94.4,79.8,95.2,81.3z
	 M86,82.8c1-0.4,1.3-1.4,0.8-2.5c-0.1-0.3-0.4-0.5-0.1-0.9c0.2-0.3,0.5-0.3,0.8-0.1c0.8,0.4,1.4,0,2-0.6c0.2-0.2,0.6-0.2,0.3-0.5
	c-0.2-0.3-0.5-0.1-0.7,0.1c-0.5,0.6-1.1,0.7-1.8,0.3c-0.1-0.1-0.3-0.1-0.5-0.1c-0.6-0.1-1.1,0.3-1.4,0.7c-0.4,0.5,0.2,0.7,0.4,1
	c0.3,0.4,0.5,0.8,0.1,1.4C85.9,81.9,85.8,82.4,86,82.8z M90.2,82.7c-0.1-0.2-0.1-0.3-0.1-0.3c-0.9,0.1-1.3-0.8-2.1-1
	c-0.1,0-0.3,0-0.4,0.2c0,0.2,0.1,0.3,0.3,0.4c0.5,0.2,0.9,0.5,1,1c0.1,0.3,0.3,0.7,0.5,0.6C89.7,83.4,89.9,83,90.2,82.7z"/>
<path fill="#F77C53" d="M82.5,71.3c-1,0-1.6-0.8-2.4-1.2c-1.4-0.8-2.8-1.7-4.1-2.7c-1.4-1.1-2.8-2.2-4.2-3.2
	c-0.1-0.1-0.1-0.2-0.1-0.3c1.9,0.8,3.5,2,5.2,3.1c1.4,1,2.9,2,4.3,3C81.7,70.3,82.1,70.8,82.5,71.3z"/>
<path fill="#F77C53" d="M59.5,58.4c-0.6,0-1.2-0.1-1.8-0.1c0.9-0.6,1.6-1.5,2.7-1.9c0.3-0.1,0.6-0.2,0.9-0.3c1.1-0.1,2-0.7,2.6-1.6
	c0.1-0.2,0.2-0.5,0.5-0.3c0.2,0.1,0.2,0.4,0.2,0.6c-0.3,0.9-0.9,1.4-1.7,1.8c-1,0.5-2.3,0.4-3.1,1.3C59.6,58,59.4,58.1,59.5,58.4z"
	/>
<path fill="#306BC7" d="M118.9,119.8c-0.8-0.8-1.7-0.4-2.5-0.5c-0.6-0.1-1.5,0.3-1.5-0.6c0-0.5,1-0.4,1.5-0.4c1.1-0.1,2.1,0.4,3,1.1
	c0.5,0.4,0.6,0.8-0.1,1.1c-0.5,0.2-0.9,0.5-1.3,0.7c-0.5,0.2-0.9-0.1-1-0.5c-0.2-0.6,0.4-0.4,0.7-0.5
	C117.9,120,118.4,120,118.9,119.8z"/>
<path fill="#306BC7" d="M91.8,77.3c0,0.6-0.3,0.7-0.9,0.5c-0.6-0.3-1.3-0.7-2-0.8c0.2,0,0.5-0.1,0.7-0.1c-1.1-1.6-2.4-2.9-4.5-2.7
	c-0.2,0-0.3-0.2-0.2-0.3c0.1-0.2,0.3-0.1,0.5-0.1c2,0.4,4,1.1,5.4,2.6c0.1,0.2,0.3,0.3,0.5,0.4C91.3,77.1,91.4,77.4,91.8,77.3
	L91.8,77.3z"/>
<path fill="#F77C53" d="M103.2,88.2c0.3-0.2,0.6,0.2,1.1,0c-0.7-0.9-1.4-1.8-2.5-2.2c0.3-0.5,0.7-0.4,1-0.3c0.8,0.5,1.5,1,2.1,1.7
	c0.2,0.3,0.3,0.7,0.7,0.9c0.3,0.3,0.5,0.7,0.2,1.1c-0.3,0.4-0.6,0.2-0.9,0c-0.4-0.2-0.7-0.5-1.1-0.7
	C103.8,88.3,102.9,88.6,103.2,88.2z"/>
<path fill="#F77C53" d="M102.4,89.8c-0.3-0.1-0.7,0.1-0.9-0.2c-0.2-0.2-0.8-0.2-0.4-0.7c0.2-0.3,0.4-0.9,1-0.4
	c0.2,0.2,0.5,0.1,0.7,0.1c0.1-0.1,0.1-0.1,0.1,0.1C102.8,89.1,102.6,89.5,102.4,89.8L102.4,89.8z"/>
<path fill="#F77C53" d="M102.4,89.8c0.6,0,1.2-0.7,1.7,0.2c0.1,0.2,0.4,0.4,0.1,0.6c-0.2,0.2-0.8,0.4-0.9,0.3
	C103.1,90.6,102.4,90.5,102.4,89.8C102.4,89.8,102.4,89.8,102.4,89.8z"/>
<path fill="#1E1E1E" d="M103,88.7c0-0.1-0.1-0.1-0.1-0.1c-0.1-0.1-0.3-0.2-0.4-0.3c0,0,0-0.1,0-0.1l-0.1,0c-0.3-0.3-0.8-0.5-0.8-1.1
	c0.8,0,1.2,0.5,1.7,0.9c-0.3,0.4,0.6,0.2,0.4,0.6C103.4,88.7,103.2,88.7,103,88.7z"/>
<path fill="#306BC7" d="M130.9,112.2c-0.1,0.3-0.2,0.3-0.4,0.3c-0.5-0.1-0.6-0.6-0.8-0.9c-0.1-0.1,0.1-0.2,0.2-0.2
	C130.4,111.4,130.6,111.9,130.9,112.2z"/>
<path fill="#306BC7" d="M111.1,121.2c0,0.3,0.1,0.5,0.1,0.8c0,0.2,0,0.4-0.1,0.5c-0.3,0.1-0.3-0.2-0.5-0.3
	C110.5,121.8,110.2,121.1,111.1,121.2z"/>
<path fill="#306BC7" d="M121.8,121.3c0.4-0.3,0.7-0.7,1.3-0.4c0.1,0.1,0.2,0.2,0.1,0.3C122.8,121.5,122.4,121.8,121.8,121.3z"/>
<path fill="#F77C53" d="M99.4,87.7c0.5-0.2,0.9-0.4,1.5,0C100.4,88,99.9,88,99.4,87.7z"/>
<path fill="#F77C53" d="M82.8,72.3c0-0.2,0-0.4,0-0.7C82.9,71.8,83.2,72,82.8,72.3z"/>
<path fill="#F77C53" d="M91.7,77.3c-0.4,0.1-0.4-0.2-0.4-0.5C91.5,77,91.6,77.2,91.7,77.3z"/>
<polygon fill="#F77C53" points="102.3,88.3 102.4,88.3 102.4,88.4 102.3,88.4 "/>
<path fill="#E5E5E5" d="M21.7,61.1c-0.3,0-0.5,0.1-0.6-0.2c-0.1-0.3,0.1-0.4,0.3-0.5c1-0.6,2.2-0.8,3.3-1.2c0.1,0,0.2,0,0.3,0.2
	c0.1,0.2,0,0.3-0.1,0.4C23.9,60.5,22.8,61,21.7,61.1z"/>
<path fill="#E5E5E5" d="M26.6,49.7c0.8,0.5,0.5,1.5,1,2.1c0.2,0.3,0.3,0.8,0.5,1.2c0.1,0.2,0.2,0.5-0.1,0.7
	c-0.3,0.1-0.5-0.1-0.7-0.3C26.6,52.2,26.4,51,26.6,49.7z"/>
<path fill="#FEFDFD" d="M49.3,18.9c-0.1-0.1-0.1-0.2,0-0.3c0,0,0.2,0,0.2,0.1C49.4,18.7,49.3,18.8,49.3,18.9z"/>
<path fill="#E5E5E5" d="M122.5,106.6c-0.3,0.2-0.7,0.5-1,0.6c-0.3,0.1-0.5-0.3-0.7-0.6c0.4-0.1,0.4-0.7,0.8-0.6
	C121.9,106.1,122.4,106,122.5,106.6z"/>
<path fill="#E5E5E5" d="M124.6,108.2c-0.2,0-0.4-0.1-0.6-0.1c-0.1,0-0.3-0.1-0.2-0.2c0.2-0.5,1,0,1.1-0.6c0.2,0.1,0.2,0.4,0.3,0.6
	C125.2,108.5,124.7,108.1,124.6,108.2z"/>
<path fill="#E5E5E5" d="M125.6,107.7c0.6,0.1,0.7,0.4,0.9,0.7c0,0-0.1,0.2-0.2,0.2C125.8,108.5,125.8,108.1,125.6,107.7z"/>
<path fill="#E5E5E5" d="M51.9,58.5c-0.4,0.3-0.9,0.3-1.4,0.4c-0.2-0.1-0.3-0.2-0.1-0.4c1.9-1.8,3.6-3.8,5.9-5.1
	c0.3-0.2,0.7-0.4,0.9-0.1c0.2,0.4-0.3,0.6-0.5,0.8C54.9,55.3,53.2,56.7,51.9,58.5z"/>
<path fill="#E5E5E5" d="M54.3,58.4c-0.4,0-0.7,0-1.1,0.1c0.1-0.1,0.1-0.3,0.2-0.4c1.3-1.3,2.7-2.6,4.3-3.6c0.4-0.3,0.7-0.2,0.9,0.2
	c0.3,0.4-0.2,0.4-0.4,0.6c-1,0.7-2,1.6-2.9,2.5C55,58,54.7,58.2,54.3,58.4z"/>
<path fill="#306BC7" d="M120.1,130.1c0-0.1,0.1-0.2,0.2-0.2c0.1,0,0.1,0.1,0.2,0.2c0,0.1-0.1,0.2-0.2,0.1
	C120.2,130.2,120.1,130.1,120.1,130.1z"/>
<path fill="#FEFDFD" d="M118.1,135.4C118.2,135.4,118.2,135.3,118.1,135.4C118.2,135.3,118.2,135.4,118.1,135.4
	C118.1,135.4,118.1,135.4,118.1,135.4z"/>
<path fill="#F77C53" d="M49.6,63.5c-0.4-0.1-0.7-0.3-0.7-0.6c0-0.4,0.5-0.4,0.8-0.4c0.3,0,0.6,0.2,0.6,0.5
	C50.3,63.3,49.9,63.4,49.6,63.5z"/>
<path fill="#306BC7" d="M48.6,62c0,0.2-0.1,0.4-0.3,0.4c-0.3-0.1-0.5-0.3-0.5-0.6c0-0.3,0.2-0.3,0.4-0.3
	C48.4,61.5,48.6,61.7,48.6,62z"/>
<path fill="#F77C53" d="M54.3,68.2c-0.3,0-0.5-0.1-0.4-0.4C54,67.9,54.1,68,54.3,68.2z"/>
<path fill="#E5E5E5" d="M46.3,72c0.1-0.6-0.6-0.9-0.7-1.5c0-0.3-0.3-0.7,0.1-0.9c0.4-0.1,0.3,0.4,0.5,0.6c0.4,0.7,0.7,1.3,1.4,1.7
	c0.2,0.1,0.6,0.3,0.4,0.6c-0.2,0.4-0.5,0.1-0.7,0c-0.1,0-0.2,0-0.3,0c0,0,0,0,0,0c0.1-0.3-0.1-0.4-0.4-0.4l0,0
	C46.7,72,46.6,71.9,46.3,72L46.3,72z"/>
<path fill="#E5E5E5" d="M45.6,73.9c-0.2-0.2-0.5-0.3-0.7-0.5c0-0.3-0.5-0.5-0.1-0.7c0.2-0.2,0.4,0.1,0.6,0.3c0.6,0.4,1.1,1.2,2,1
	l0,0c0.1,0.3,0.4,0.3,0.7,0.4c0,0,0.1,0.1,0.1,0.1c-0.1,0.4-0.4,0.5-0.8,0.3C46.8,74.6,46.3,74.1,45.6,73.9z"/>
<path fill="#E5E5E5" d="M47.5,73.9c-0.7-0.6-1.4-1.2-2.1-1.8c-0.2-0.2-0.6-0.5-0.3-0.9c0.3-0.2,0.4,0.3,0.6,0.4
	c0.2,0.1,0.3,0.4,0.6,0.4c0,0,0,0,0,0c0,0.2,0.2,0.3,0.4,0.2c0,0,0,0,0,0c-0.1,0.3,0.1,0.4,0.4,0.4c0,0,0,0,0,0
	c0,0.3,0.4,0.4,0.6,0.5C48.2,73.6,48,73.8,47.5,73.9C47.5,73.9,47.5,73.9,47.5,73.9z"/>
<path fill="#1E1E1E" d="M48.2,74.3c0.1-0.1,0.2-0.1,0.3,0c0,0,0,0,0,0c-0.1,0-0.1,0.1-0.2,0.1C48.2,74.4,48.2,74.4,48.2,74.3z"/>
<path fill="#306BC7" d="M48.2,74.4c0.1,0,0.1-0.1,0.2-0.1c-0.1,0.4,0.4,1.1-0.5,1.1c-0.7-0.3-1.5-0.4-2.2-0.8
	c-0.3-0.2-0.4,0-0.5,0.3c-0.6-0.6-0.2-0.8,0.3-0.9c0.7,0.2,1.2,0.7,1.8,0.9C47.9,74.9,48.1,74.8,48.2,74.4z"/>
<path fill="#E5E5E5" d="M47.7,76.2c0.2,0.1,0.5,0.2,0.4,0.5C48,77,47.8,77,47.5,77c-0.4-0.1-0.8-0.2-1.1-0.4c-0.2-0.1-0.6-0.5,0-0.7
	C46.8,76.2,47.2,76.4,47.7,76.2z"/>
<path fill="#E5E5E5" d="M45.3,74.8c0.1-0.2,0.2-0.4,0.5-0.3c0.7,0.4,1.4,0.6,2.2,0.8c0,0.2,0,0.3-0.2,0.5c-0.4-0.1-0.9-0.2-1.3-0.4
	C46.1,75.3,45.6,75.2,45.3,74.8z"/>
<path fill="#306BC7" d="M46.4,75.5c0.4,0.1,0.9,0.2,1.3,0.4c0.1,0.1,0.1,0.2,0,0.3c-0.5,0.1-0.9,0-1.3-0.4
	C46.3,75.8,46.3,75.6,46.4,75.5z"/>
<path fill="#306BC7" d="M82.9,81.1c0,0.2,0,0.4-0.1,0.6c-0.9,1-1.4,2.3-2.4,3.1c-0.8,0.7-1.9,0.4-2.3-0.6c-0.2-0.5-0.4-0.9-0.4-1.4
	c0-0.8-0.4-0.9-1-0.6c-0.3,0.1-0.5,0.2-0.8,0.2c-0.6,0.1-1-0.3-1.3-0.6c-0.3-0.3-0.2-0.8,0-1.2c0.3-0.6,0.7-1,0.3-1.8
	c-0.4-0.7,0.4-1,1-1.1c0.9,0,1.5-0.2,2.2-0.8c0.8-0.6,1.2-0.4,1.8,0.5c0.2,0.3,0.5,0.4,0.9,0.4c0.6,0,0.9,0.4,1.1,0.9
	C82.2,79.5,83.1,80.1,82.9,81.1z"/>
<path fill="#E5E5E5" d="M74.8,69.5c0.9,0,1.7,0.2,2.3,0.9c0.2,0.2,0.5,0.4,0.4,0.8c-0.1,0.4-0.5,0.6-0.9,0.6
	c-1.3-0.1-2.5-0.2-3.4-1.3c-0.4-0.5,0-0.7,0.3-0.9C74,69.4,74.4,69.4,74.8,69.5z"/>
<path fill="#1E1E1E" d="M86,82.8c-0.1-0.4-0.1-0.9,0.1-1.2c0.4-0.5,0.1-0.9-0.1-1.4c-0.2-0.3-0.8-0.5-0.4-1c0.3-0.4,0.8-0.7,1.4-0.7
	c0.2,0,0.3,0,0.5,0.1c0.7,0.5,1.2,0.3,1.8-0.3c0.2-0.2,0.5-0.4,0.7-0.1c0.2,0.3-0.2,0.4-0.3,0.5c-0.6,0.5-1.2,0.9-2,0.6
	c-0.3-0.1-0.6-0.2-0.8,0.1c-0.3,0.3,0,0.6,0.1,0.9C87.3,81.4,87,82.4,86,82.8z"/>
<path fill="#1E1E1E" d="M90.2,82.7c-0.3,0.3-0.5,0.7-0.9,0.9c-0.2,0.1-0.4-0.3-0.5-0.6c-0.1-0.6-0.5-0.8-1-1
	c-0.1-0.1-0.3-0.2-0.3-0.4c0-0.2,0.2-0.2,0.4-0.2c0.8,0.2,1.2,1.1,2.1,1C90.1,82.4,90.1,82.6,90.2,82.7z"/>
<path fill="#306BC7" d="M47.1,72.6c-0.3,0-0.4,0-0.4-0.4C47,72.2,47.2,72.3,47.1,72.6z"/>
<path fill="#306BC7" d="M46.7,72.2c-0.2,0.1-0.3,0-0.4-0.2C46.6,71.9,46.7,72,46.7,72.2z"/>
</svg>
